<?xml version="1.0" encoding="UTF-8"?>
<svg xmlns="http://www.w3.org/2000/svg" xmlns:xlink="http://www.w3.org/1999/xlink" width="160" height="100" viewBox="0 0 160 100">
<path fill-rule="nonzero" fill="rgb(89.019608%, 73.72549%, 73.72549%)" fill-opacity="1" d="M 132.308594 14.664062 C 132.382812 22.601562 124.550781 41.613281 113.425781 35.191406 C 114.761719 31.710938 114.539062 31 114.539062 31 C 119.65625 34.210938 128.75 23.40625 128.894531 16 C 129.046875 8.597656 132.308594 14.664062 132.308594 14.664062 "/>
<path fill-rule="nonzero" fill="rgb(43.921569%, 43.921569%, 43.921569%)" fill-opacity="1" d="M 151.1875 25.207031 C 102.539062 -3.800781 53.753906 -3.8125 10.109375 25.171875 L 8.734375 22.171875 C 53.230469 -7.378906 102.929688 -7.390625 152.453125 22.136719 L 151.1875 25.207031 "/>
<path fill-rule="nonzero" fill="rgb(89.019608%, 73.72549%, 73.72549%)" fill-opacity="1" d="M 26.777344 14.664062 C 26.703125 22.601562 32.25 41.378906 43.375 34.957031 C 42.039062 31.476562 42.261719 30.761719 42.261719 30.761719 C 37.144531 33.972656 30.335938 23.40625 30.1875 16 C 30.039062 8.597656 26.777344 14.664062 26.777344 14.664062 "/>
<path fill-rule="nonzero" fill="rgb(100%, 83.137255%, 83.137255%)" fill-opacity="1" d="M 91.824219 74.785156 C 93.460938 77.570312 92.964844 86.429688 92.777344 86.746094 C 92.585938 87.066406 91.445312 89.078125 93.382812 89.625 C 95.320312 90.171875 103.101562 90.628906 105.988281 88.484375 C 105.191406 84.96875 102.648438 81.726562 95.28125 84.875 C 96.117188 81.953125 95.8125 76.335938 95.394531 73.871094 C 94.976562 71.40625 91.824219 74.785156 91.824219 74.785156 "/>
<path fill-rule="nonzero" fill="rgb(89.803922%, 89.803922%, 89.803922%)" fill-opacity="1" d="M 95.675781 84.710938 C 97.597656 83.929688 99.179688 83.597656 100.480469 83.597656 C 99.179688 83.597656 97.597656 83.929688 95.675781 84.710938 "/>
<path fill-rule="nonzero" fill="rgb(80.784314%, 80.784314%, 80.784314%)" fill-opacity="1" d="M 93.371094 89.621094 C 93.371094 89.621094 93.371094 89.621094 93.367188 89.621094 C 93.371094 89.621094 93.371094 89.621094 93.371094 89.621094 M 93.359375 89.617188 C 93.359375 89.617188 93.359375 89.617188 93.355469 89.617188 C 93.359375 89.617188 93.359375 89.617188 93.359375 89.617188 M 95.28125 84.875 C 95.300781 84.8125 95.316406 84.746094 95.335938 84.679688 C 95.316406 84.746094 95.300781 84.8125 95.28125 84.875 C 95.414062 84.820312 95.546875 84.765625 95.675781 84.710938 C 95.546875 84.765625 95.414062 84.820312 95.28125 84.875 "/>
<path fill-rule="nonzero" fill="rgb(89.803922%, 74.509804%, 74.509804%)" fill-opacity="1" d="M 98.300781 90.082031 C 96.148438 90.082031 94.21875 89.863281 93.382812 89.625 C 93.378906 89.625 93.375 89.625 93.371094 89.621094 C 93.371094 89.621094 93.371094 89.621094 93.367188 89.621094 C 93.367188 89.621094 93.363281 89.621094 93.359375 89.617188 C 93.359375 89.617188 93.359375 89.617188 93.355469 89.617188 C 92.285156 89.300781 92.179688 88.527344 92.324219 87.855469 C 92.695312 88.96875 94.898438 89.417969 97.359375 89.417969 C 100.589844 89.417969 104.257812 88.644531 104.792969 87.582031 C 103.527344 85.085938 101.171875 84.363281 99.28125 84.363281 C 98.707031 84.363281 98.175781 84.429688 97.730469 84.535156 C 96.390625 84.847656 94.808594 86.9375 94.382812 86.9375 C 94.207031 86.9375 94.230469 86.5625 94.570312 85.527344 C 95.585938 82.410156 94.992188 76.757812 94.671875 75.1875 C 94.984375 75.054688 95.269531 74.890625 95.515625 74.695312 C 95.683594 76.019531 95.8125 77.828125 95.8125 79.640625 C 95.8125 81.484375 95.683594 83.335938 95.335938 84.679688 C 95.316406 84.746094 95.300781 84.8125 95.28125 84.875 C 95.414062 84.820312 95.546875 84.765625 95.675781 84.710938 C 97.597656 83.929688 99.179688 83.597656 100.484375 83.597656 C 103.957031 83.597656 105.421875 85.96875 105.988281 88.484375 C 104.351562 89.703125 101.132812 90.082031 98.304688 90.082031 "/>
<path fill-rule="nonzero" fill="rgb(100%, 83.137255%, 83.137255%)" fill-opacity="1" d="M 65.894531 75.878906 C 64.261719 78.667969 64.753906 87.523438 64.945312 87.84375 C 65.132812 88.164062 66.273438 90.171875 64.335938 90.722656 C 62.398438 91.269531 54.617188 91.726562 51.730469 89.578125 C 52.527344 86.0625 55.070312 82.820312 62.4375 85.972656 C 61.601562 83.050781 61.90625 77.433594 62.324219 74.96875 C 62.742188 72.5 65.894531 75.878906 65.894531 75.878906 "/>
<path fill-rule="nonzero" fill="rgb(80.784314%, 80.784314%, 80.784314%)" fill-opacity="1" d="M 64.347656 90.71875 C 64.351562 90.71875 64.351562 90.71875 64.351562 90.714844 C 64.351562 90.71875 64.351562 90.71875 64.347656 90.71875 M 64.359375 90.714844 C 64.363281 90.714844 64.363281 90.714844 64.363281 90.710938 C 64.363281 90.714844 64.363281 90.714844 64.359375 90.714844 M 64.375 90.710938 C 64.375 90.710938 64.375 90.707031 64.375 90.707031 C 64.375 90.707031 64.375 90.710938 64.375 90.710938 M 64.386719 90.707031 C 64.386719 90.707031 64.386719 90.707031 64.390625 90.707031 C 64.386719 90.707031 64.386719 90.707031 64.386719 90.707031 M 64.398438 90.703125 C 64.398438 90.703125 64.398438 90.703125 64.402344 90.703125 C 64.398438 90.703125 64.398438 90.703125 64.398438 90.703125 M 64.410156 90.699219 C 64.410156 90.699219 64.410156 90.699219 64.414062 90.699219 C 64.410156 90.699219 64.410156 90.699219 64.410156 90.699219 M 64.4375 90.691406 L 64.4375 90.691406 M 64.449219 90.6875 L 64.449219 90.6875 M 64.460938 90.683594 L 64.460938 90.683594 M 64.472656 90.679688 L 64.472656 90.679688 M 64.484375 90.675781 L 64.484375 90.675781 M 64.496094 90.671875 L 64.496094 90.671875 M 64.554688 90.652344 C 64.554688 90.652344 64.554688 90.652344 64.554688 90.648438 C 64.554688 90.652344 64.554688 90.652344 64.554688 90.652344 "/>
<path fill-rule="nonzero" fill="rgb(89.803922%, 74.509804%, 74.509804%)" fill-opacity="1" d="M 59.417969 91.179688 C 56.585938 91.179688 53.371094 90.796875 51.730469 89.578125 C 52.300781 87.066406 53.761719 84.695312 57.238281 84.695312 C 58.625 84.695312 60.335938 85.074219 62.4375 85.972656 C 62.417969 85.902344 62.398438 85.832031 62.382812 85.761719 C 61.621094 82.8125 61.910156 77.464844 62.3125 75.027344 C 62.496094 75.148438 62.695312 75.273438 62.910156 75.40625 L 63.148438 75.902344 C 62.894531 76.453125 62.011719 83.128906 63.148438 86.621094 C 63.488281 87.660156 63.515625 88.03125 63.335938 88.03125 C 62.910156 88.03125 61.328125 85.941406 59.988281 85.628906 C 59.542969 85.527344 59.015625 85.460938 58.441406 85.460938 C 56.550781 85.460938 54.195312 86.179688 52.925781 88.679688 C 53.460938 89.738281 57.128906 90.511719 60.359375 90.511719 C 62.820312 90.511719 65.027344 90.0625 65.398438 88.953125 C 65.53125 89.582031 65.449219 90.300781 64.554688 90.648438 C 64.535156 90.65625 64.515625 90.664062 64.496094 90.667969 C 64.492188 90.671875 64.488281 90.671875 64.484375 90.671875 C 64.484375 90.671875 64.484375 90.675781 64.484375 90.675781 C 64.480469 90.675781 64.476562 90.675781 64.472656 90.679688 C 64.46875 90.679688 64.464844 90.679688 64.460938 90.683594 C 64.457031 90.683594 64.453125 90.683594 64.449219 90.6875 C 64.445312 90.6875 64.441406 90.6875 64.4375 90.691406 C 64.429688 90.691406 64.421875 90.695312 64.414062 90.699219 C 64.410156 90.699219 64.410156 90.699219 64.410156 90.699219 C 64.40625 90.699219 64.402344 90.699219 64.402344 90.699219 C 64.398438 90.699219 64.398438 90.703125 64.398438 90.703125 C 64.394531 90.703125 64.390625 90.703125 64.390625 90.703125 C 64.386719 90.703125 64.386719 90.703125 64.386719 90.703125 C 64.382812 90.707031 64.378906 90.707031 64.375 90.707031 C 64.371094 90.707031 64.367188 90.710938 64.363281 90.710938 C 64.363281 90.710938 64.363281 90.710938 64.359375 90.710938 C 64.359375 90.710938 64.355469 90.710938 64.351562 90.710938 C 64.351562 90.714844 64.347656 90.714844 64.347656 90.714844 C 64.34375 90.714844 64.339844 90.714844 64.335938 90.71875 C 63.5 90.953125 61.570312 91.175781 59.417969 91.175781 "/>
<path fill-rule="nonzero" fill="rgb(90.196078%, 90.196078%, 90.196078%)" fill-opacity="1" d="M 48.0625 47.859375 C 48.0625 47.859375 48.085938 47.671875 48.3125 47.40625 C 48.269531 47.4375 48.210938 47.453125 48.121094 47.425781 C 44.996094 46.503906 43.726562 46.882812 43.589844 47.613281 C 44.433594 46.773438 47.488281 47.25 48.0625 47.859375 "/>
<path fill-rule="nonzero" fill="rgb(90.196078%, 54.509804%, 52.941176%)" fill-opacity="1" d="M 82.867188 18.664062 C 83.929688 14.375 91.523438 7.066406 97.75 16.199219 C 100.710938 13.460938 109.214844 14.375 108 24.601562 C 109.898438 23.230469 111.949219 24.96875 111.648438 27.433594 C 116.507812 29.078125 117.570312 30.902344 116.203125 35.835938 C 119.773438 37.203125 121.367188 42.957031 118.707031 47.980469 C 122.90625 51.519531 122.203125 61.953125 115.671875 62.59375 C 115.898438 68.164062 110.886719 68.09375 110.128906 66.246094 C 110.089844 75.765625 100.292969 78.574219 96.15625 74.007812 C 94.257812 76.929688 86.054688 76.382812 84.613281 67.066406 C 83.167969 57.753906 77.703125 22.867188 77.703125 22.867188 L 82.867188 18.664062 "/>
<path fill-rule="nonzero" fill="rgb(100%, 60.392157%, 58.823529%)" fill-opacity="1" d="M 71.324219 12.820312 C 75.804688 7.796875 82.410156 9.351562 82.410156 16.566406 C 84.613281 16.382812 85.066406 22.320312 83.320312 22.957031 C 87.726562 22.773438 86.8125 29.441406 86.28125 30.445312 C 88.179688 30.539062 88.105469 34.191406 86.359375 35.742188 C 84.613281 37.296875 86.738281 41.132812 89.777344 39.304688 C 90.992188 40.21875 91.597656 44.417969 88.257812 45.972656 C 88.863281 51.816406 86.890625 66.792969 85.902344 69.257812 C 84.914062 71.726562 81.117188 75.105469 76.257812 72.273438 C 70.410156 82.320312 61.070312 74.097656 61.070312 74.097656 C 49.300781 82.136719 44.289062 71.175781 43.832031 68.804688 C 36.542969 70.082031 35.859375 62.777344 36.238281 60.308594 C 25.152344 53.1875 34.265625 40.582031 39.351562 41.679688 C 33.65625 31.085938 44.742188 26.519531 46.945312 28.4375 C 44.515625 21.496094 51.578125 18.390625 53.402344 21.585938 C 52.261719 14.28125 60.765625 13.09375 61.601562 14.921875 C 61.148438 9.167969 70.183594 7.613281 71.324219 12.820312 "/>
<path fill-rule="nonzero" fill="rgb(85.490196%, 51.764706%, 50.196078%)" fill-opacity="1" d="M 98.65625 72.769531 C 96.917969 72.769531 95.253906 72.136719 94.085938 70.851562 C 93.515625 71.730469 92.3125 72.257812 90.910156 72.257812 C 89.214844 72.257812 87.230469 71.480469 85.75 69.605469 C 85.808594 69.488281 85.859375 69.371094 85.902344 69.257812 C 86.890625 66.792969 88.863281 51.816406 88.257812 45.972656 C 91.597656 44.417969 90.992188 40.21875 89.777344 39.304688 C 89.210938 39.644531 88.679688 39.789062 88.199219 39.789062 C 86.082031 39.789062 84.9375 37.007812 86.359375 35.742188 C 88.105469 34.191406 88.179688 30.539062 86.28125 30.445312 C 86.808594 29.457031 87.703125 22.953125 83.496094 22.953125 C 83.4375 22.953125 83.378906 22.957031 83.320312 22.957031 C 84.492188 22.53125 84.675781 19.714844 84 17.964844 C 85.371094 16.386719 87.339844 15.089844 89.5 15.089844 C 91.453125 15.089844 93.5625 16.148438 95.519531 19.019531 C 96.324219 18.273438 97.585938 17.828125 98.925781 17.828125 C 102 17.828125 105.46875 20.164062 104.710938 26.550781 C 105.125 26.253906 105.546875 26.117188 105.941406 26.117188 C 106.789062 26.117188 107.527344 26.726562 107.84375 27.648438 C 107.910156 28.207031 107.882812 28.816406 107.753906 29.417969 C 107.464844 30.785156 106.726562 31.921875 105.671875 32.628906 L 105.386719 32.820312 L 105.671875 33.011719 C 107.035156 33.929688 107.355469 35.417969 107.382812 36.5 C 107.421875 38.019531 106.90625 39.40625 106.535156 39.691406 L 106.734375 40.0625 C 107.246094 39.664062 107.789062 38.097656 107.746094 36.488281 C 107.71875 35.363281 107.40625 33.847656 106.113281 32.824219 C 107.113281 32.050781 107.816406 30.894531 108.105469 29.527344 C 108.132812 29.40625 108.15625 29.28125 108.171875 29.15625 C 112.363281 30.613281 113.269531 32.269531 112.0625 36.625 C 113.21875 37.066406 114.144531 38.027344 114.742188 39.28125 C 114.488281 40.347656 113.609375 41.164062 112.433594 41.40625 C 112.203125 41.453125 111.976562 41.476562 111.75 41.476562 C 110.605469 41.476562 109.554688 40.875 108.957031 39.828125 L 108.65625 40.074219 C 109.320312 41.242188 110.488281 41.914062 111.75 41.914062 C 111.996094 41.914062 112.246094 41.890625 112.496094 41.839844 C 113.660156 41.597656 114.570312 40.835938 114.96875 39.804688 C 115.792969 41.976562 115.714844 44.859375 114.308594 47.515625 C 118.070312 50.6875 117.441406 60.042969 111.585938 60.617188 C 111.714844 63.757812 109.980469 64.902344 108.511719 64.898438 C 107.644531 64.898438 106.867188 64.503906 106.617188 63.890625 C 106.59375 69.746094 102.453125 72.769531 98.65625 72.769531 M 95.914062 70.515625 L 95.785156 70.925781 C 97.105469 71.519531 98.199219 71.753906 99.097656 71.753906 C 101.480469 71.753906 102.527344 70.121094 102.921875 69.226562 C 103.960938 66.855469 103.472656 63.367188 101.917969 62.046875 L 101.707031 62.40625 C 103.105469 63.589844 103.542969 66.863281 102.597656 69.019531 C 102.164062 70.011719 101.195312 71.328125 99.128906 71.328125 C 98.265625 71.328125 97.207031 71.097656 95.914062 70.515625 M 107.273438 57.460938 C 106.492188 57.460938 105.664062 57.734375 105 58.269531 C 104.195312 58.917969 102.953125 60.496094 103.675781 63.789062 L 104.03125 63.675781 C 103.363281 60.648438 104.476562 59.21875 105.203125 58.636719 C 105.832031 58.128906 106.574219 57.90625 107.253906 57.90625 C 107.890625 57.90625 108.46875 58.101562 108.839844 58.441406 L 109.0625 58.09375 C 108.597656 57.667969 107.953125 57.460938 107.273438 57.460938 M 96.363281 61.984375 L 96.097656 62.289062 C 96.851562 63.234375 97.785156 63.734375 98.722656 63.734375 C 99.1875 63.734375 99.65625 63.609375 100.101562 63.359375 C 101.421875 62.613281 102.164062 60.992188 101.992188 59.234375 L 101.632812 59.285156 C 101.785156 60.855469 101.121094 62.296875 99.949219 62.960938 C 99.59375 63.160156 99.171875 63.289062 98.714844 63.289062 C 97.960938 63.289062 97.117188 62.9375 96.363281 61.984375 M 88.261719 56.246094 C 88.960938 56.90625 89.882812 57.460938 90.773438 57.460938 C 91.960938 57.460938 93.09375 56.476562 93.578125 53.425781 C 92.785156 55.6875 91.253906 56.632812 89.816406 56.632812 C 89.269531 56.632812 88.738281 56.496094 88.261719 56.246094 M 112.605469 42.285156 L 112.355469 42.605469 C 114.132812 44.605469 113.917969 48.226562 112.546875 50 L 112.816406 50.300781 C 114.296875 48.375 114.53125 44.453125 112.605469 42.285156 M 98.988281 29.945312 C 95.402344 29.988281 92.507812 33.5 92.507812 37.820312 C 92.507812 42.171875 95.441406 45.699219 99.058594 45.699219 C 102.648438 45.699219 105.5625 42.222656 105.609375 37.917969 C 105.609375 37.902344 105.609375 37.886719 105.609375 37.871094 C 105.609375 37.871094 105.609375 37.871094 105.609375 37.867188 C 105.609375 37.855469 105.609375 37.835938 105.609375 37.820312 C 105.609375 33.472656 102.675781 29.945312 99.058594 29.945312 C 99.046875 29.945312 99.039062 29.945312 99.027344 29.945312 C 99.027344 29.945312 99.023438 29.945312 99.019531 29.945312 C 99.011719 29.945312 99 29.945312 98.988281 29.945312 "/>
<path fill-rule="nonzero" fill="rgb(94.901961%, 57.254902%, 55.686275%)" fill-opacity="1" d="M 69.558594 73.769531 C 65.859375 73.769531 62.628906 70.933594 62.628906 70.933594 C 59.875 72.8125 57.535156 73.535156 55.570312 73.535156 C 50.011719 73.535156 47.476562 67.757812 47.175781 66.183594 C 46.65625 66.273438 46.175781 66.316406 45.726562 66.316406 C 40.546875 66.316406 40.050781 60.601562 40.367188 58.566406 C 39.761719 58.179688 39.226562 57.777344 38.753906 57.355469 C 38.730469 56.746094 38.820312 56.082031 39.085938 55.460938 C 39.414062 54.6875 40.132812 53.703125 41.714844 53.417969 C 42.636719 53.25 43.449219 53.199219 44.164062 53.15625 C 45.925781 53.050781 47.085938 52.980469 47.222656 51.164062 C 47.316406 49.902344 46.78125 48.71875 46.304688 47.675781 C 45.890625 46.765625 45.503906 45.902344 45.625 45.195312 L 45.269531 45.105469 C 45.117188 45.972656 45.539062 46.902344 45.984375 47.886719 C 46.457031 48.921875 46.945312 49.996094 46.859375 51.125 C 46.757812 52.503906 46 52.605469 44.148438 52.71875 C 43.421875 52.761719 42.597656 52.8125 41.660156 52.984375 C 39.925781 53.296875 39.125 54.394531 38.761719 55.261719 C 38.519531 55.835938 38.40625 56.441406 38.390625 57.019531 C 31.953125 50.808594 38.324219 41.804688 42.578125 41.804688 C 42.777344 41.804688 42.96875 41.824219 43.15625 41.863281 C 38.808594 33.777344 45.367188 29.605469 48.632812 29.605469 C 49.203125 29.605469 49.671875 29.734375 49.964844 29.992188 C 48.371094 25.433594 51.339844 22.71875 53.683594 22.71875 C 54.542969 22.71875 55.316406 23.082031 55.753906 23.847656 C 55.003906 19.042969 58.910156 17.191406 61.335938 17.191406 C 62.21875 17.191406 62.90625 17.433594 63.105469 17.871094 C 62.871094 14.871094 65.511719 13.144531 67.964844 13.144531 C 69.730469 13.144531 71.394531 14.035156 71.824219 15.988281 C 73.398438 14.21875 75.269531 13.359375 76.960938 13.359375 C 79.578125 13.359375 81.761719 15.417969 81.761719 19.34375 C 81.792969 19.34375 81.820312 19.339844 81.851562 19.339844 C 82.195312 19.339844 82.492188 19.515625 82.734375 19.800781 C 83.058594 19.1875 83.484375 18.554688 84 17.964844 C 84.675781 19.714844 84.492188 22.527344 83.320312 22.957031 C 83.378906 22.957031 83.4375 22.953125 83.496094 22.953125 C 87.699219 22.953125 86.808594 29.453125 86.28125 30.445312 C 88.179688 30.539062 88.105469 34.191406 86.359375 35.742188 C 84.9375 37.007812 86.082031 39.785156 88.199219 39.785156 C 88.679688 39.785156 89.210938 39.644531 89.777344 39.304688 C 90.992188 40.21875 91.597656 44.417969 88.257812 45.972656 C 88.863281 51.816406 86.890625 66.792969 85.902344 69.257812 C 85.859375 69.371094 85.808594 69.488281 85.75 69.601562 C 85.261719 68.988281 84.832031 68.253906 84.480469 67.390625 C 83.589844 68.8125 81.820312 70.257812 79.535156 70.257812 C 78.527344 70.257812 77.421875 69.976562 76.25 69.292969 C 75.523438 70.539062 74.738281 71.472656 73.921875 72.15625 L 73.847656 71.882812 C 73.570312 71.992188 73.296875 72.046875 73.027344 72.046875 C 72.457031 72.046875 71.921875 71.800781 71.496094 71.335938 C 70.605469 70.363281 70.316406 68.609375 70.703125 66.519531 C 71.046875 64.675781 70.746094 63.070312 69.832031 61.878906 C 69.5625 61.523438 69.234375 61.226562 68.871094 60.96875 C 69.867188 60.714844 70.671875 59.871094 71.164062 58.519531 C 71.878906 56.578125 71.75 54.117188 70.871094 52.914062 L 70.597656 53.203125 C 71.375 54.269531 71.480469 56.574219 70.832031 58.34375 C 70.527344 59.175781 69.789062 60.574219 68.289062 60.613281 C 67.429688 60.164062 66.394531 59.925781 65.234375 59.925781 C 64.734375 59.925781 64.210938 59.972656 63.664062 60.0625 L 63.714844 60.496094 C 64.253906 60.40625 64.773438 60.363281 65.269531 60.363281 C 67.136719 60.363281 68.65625 60.992188 69.5625 62.175781 C 70.390625 63.257812 70.664062 64.726562 70.347656 66.425781 C 69.929688 68.671875 70.257812 70.578125 71.25 71.660156 C 71.746094 72.203125 72.363281 72.484375 73.023438 72.484375 C 73.210938 72.484375 73.402344 72.460938 73.59375 72.414062 C 72.273438 73.40625 70.886719 73.769531 69.558594 73.769531 M 44.300781 53.410156 C 43.527344 54.699219 43.605469 57.367188 44.875 59.015625 C 45.320312 59.59375 46.109375 60.28125 47.34375 60.28125 C 48.246094 60.28125 49.390625 59.914062 50.808594 58.863281 L 50.621094 58.492188 C 49.265625 59.488281 48.191406 59.835938 47.351562 59.835938 C 46.242188 59.835938 45.539062 59.234375 45.140625 58.71875 C 44.007812 57.246094 43.917969 54.796875 44.597656 53.667969 L 44.300781 53.410156 M 69.011719 32 C 65.425781 32.042969 62.53125 35.554688 62.53125 39.875 C 62.53125 44.226562 65.464844 47.753906 69.082031 47.753906 C 72.671875 47.753906 75.589844 44.277344 75.632812 39.972656 C 75.632812 39.957031 75.632812 39.941406 75.632812 39.925781 C 75.632812 39.925781 75.632812 39.921875 75.632812 39.921875 C 75.632812 39.910156 75.632812 39.890625 75.632812 39.875 C 75.632812 35.527344 72.699219 32 69.082031 32 C 69.070312 32 69.0625 32 69.050781 32 C 69.050781 32 69.046875 32 69.046875 32 C 69.035156 32 69.023438 32 69.015625 32 C 69.015625 32 69.011719 32 69.011719 32 M 41.042969 42.5 L 40.738281 42.738281 C 41.382812 43.941406 42.355469 44.585938 43.480469 44.585938 C 43.738281 44.585938 44.007812 44.550781 44.285156 44.480469 C 46.101562 44.011719 47.566406 42.132812 47.847656 39.910156 C 48.300781 36.332031 49.414062 35.570312 51.417969 35.570312 C 51.519531 35.570312 51.621094 35.570312 51.726562 35.574219 C 51.917969 35.582031 52.097656 35.585938 52.273438 35.585938 C 54.082031 35.585938 54.949219 35.171875 55.921875 32.640625 L 55.589844 32.457031 C 54.703125 34.773438 53.992188 35.148438 52.296875 35.148438 C 52.121094 35.148438 51.933594 35.144531 51.734375 35.136719 C 51.628906 35.132812 51.523438 35.132812 51.421875 35.132812 C 49.300781 35.132812 47.976562 35.996094 47.488281 39.84375 C 47.226562 41.890625 45.878906 43.621094 44.207031 44.054688 C 43.960938 44.117188 43.71875 44.148438 43.488281 44.148438 C 42.484375 44.148438 41.621094 43.574219 41.042969 42.503906 M 88.890625 40.199219 C 88.765625 40.199219 88.632812 40.214844 88.503906 40.246094 C 87.75 40.429688 88.996094 40.285156 89.105469 40.921875 C 89.203125 41.511719 88.285156 42.5625 88.757812 42.5625 C 88.792969 42.5625 88.839844 42.558594 88.890625 42.546875 C 89.640625 42.363281 90.164062 41.699219 90.058594 41.0625 C 89.96875 40.539062 89.480469 40.199219 88.890625 40.199219 "/>
<path fill-rule="nonzero" fill="rgb(94.901961%, 94.901961%, 94.901961%)" fill-opacity="1" d="M 75.632812 39.875 C 75.632812 44.226562 72.699219 47.753906 69.082031 47.753906 C 65.464844 47.753906 62.53125 44.226562 62.53125 39.875 C 62.53125 35.527344 65.464844 32 69.082031 32 C 72.699219 32 75.632812 35.527344 75.632812 39.875 "/>
<path fill-rule="nonzero" fill="rgb(100%, 100%, 100%)" fill-opacity="1" d="M 69.082031 32 C 67.617188 32 66.265625 32.585938 65.175781 33.566406 C 64.078125 34.972656 63.40625 36.859375 63.40625 38.941406 C 63.40625 43.289062 66.335938 46.816406 69.953125 46.816406 C 71.421875 46.816406 72.769531 46.230469 73.859375 45.25 C 74.957031 43.84375 75.632812 41.957031 75.632812 39.875 C 75.632812 35.527344 72.699219 32 69.082031 32 "/>
<path fill-rule="nonzero" fill="rgb(16.862745%, 10.196078%, 2.745098%)" fill-opacity="1" d="M 71.757812 39.875 C 71.757812 41.558594 70.625 42.925781 69.226562 42.925781 C 67.824219 42.925781 66.691406 41.558594 66.691406 39.875 C 66.691406 38.191406 67.824219 36.828125 69.226562 36.828125 C 70.625 36.828125 71.757812 38.191406 71.757812 39.875 "/>
<path fill-rule="nonzero" fill="rgb(12.941176%, 7.843137%, 2.352941%)" fill-opacity="1" d="M 71.074219 39.875 C 71.074219 41.105469 70.246094 42.101562 69.226562 42.101562 C 68.203125 42.101562 67.375 41.105469 67.375 39.875 C 67.375 38.648438 68.203125 37.648438 69.226562 37.648438 C 70.246094 37.648438 71.074219 38.648438 71.074219 39.875 "/>
<path fill-rule="nonzero" fill="rgb(0%, 0%, 0%)" fill-opacity="1" d="M 70.3125 39.875 C 70.3125 40.597656 69.824219 41.183594 69.226562 41.183594 C 68.625 41.183594 68.140625 40.597656 68.140625 39.875 C 68.140625 39.15625 68.625 38.570312 69.226562 38.570312 C 69.824219 38.570312 70.3125 39.15625 70.3125 39.875 "/>
<path fill-rule="nonzero" fill="rgb(16.862745%, 10.196078%, 2.745098%)" fill-opacity="1" d="M 73.769531 27.734375 C 74.351562 28.527344 74.171875 29.785156 73.394531 30.269531 C 72.035156 31.113281 70.472656 31.386719 68.925781 31.015625 C 67.539062 30.683594 66.269531 29.851562 65.335938 28.71875 C 64.667969 27.910156 64.832031 26.5625 65.683594 26.058594 L 65.6875 26.058594 C 66.210938 25.75 66.839844 25.867188 67.242188 26.371094 C 67.796875 27.058594 68.59375 27.582031 69.460938 27.792969 C 70.046875 27.933594 71.0625 28.015625 72.113281 27.371094 C 72.671875 27.027344 73.351562 27.167969 73.769531 27.734375 "/>
<path fill-rule="nonzero" fill="rgb(16.862745%, 10.196078%, 2.745098%)" fill-opacity="1" d="M 93.316406 27.558594 C 93.054688 28.570312 93.640625 29.632812 94.519531 29.691406 C 96.042969 29.796875 97.5625 29.28125 98.847656 28.1875 C 100.003906 27.199219 100.882812 25.820312 101.351562 24.328125 C 101.6875 23.265625 101.078125 22.113281 100.132812 22.070312 L 100.128906 22.070312 C 99.546875 22.046875 99.011719 22.460938 98.8125 23.117188 C 98.542969 24.019531 97.992188 24.886719 97.269531 25.503906 C 96.78125 25.917969 95.882812 26.492188 94.707031 26.417969 C 94.078125 26.375 93.503906 26.839844 93.316406 27.558594 "/>
<path fill-rule="nonzero" fill="rgb(100%, 51.764706%, 50.196078%)" fill-opacity="1" d="M 62.816406 54.691406 L 57.007812 54.691406 C 55.289062 54.691406 53.894531 53.015625 53.894531 50.949219 C 53.894531 48.882812 55.289062 47.203125 57.007812 47.203125 L 62.816406 47.203125 C 64.539062 47.203125 65.929688 48.882812 65.929688 50.949219 C 65.929688 53.015625 64.539062 54.691406 62.816406 54.691406 "/>
<path fill-rule="nonzero" fill="rgb(100%, 51.764706%, 50.196078%)" fill-opacity="1" d="M 108.753906 53.695312 L 103.019531 54.816406 C 101.324219 55.148438 99.722656 53.761719 99.445312 51.722656 C 99.171875 49.679688 100.324219 47.757812 102.019531 47.425781 L 107.753906 46.304688 C 109.453125 45.972656 111.050781 47.359375 111.328125 49.398438 C 111.601562 51.441406 110.453125 53.363281 108.753906 53.695312 "/>
<path fill-rule="nonzero" fill="rgb(85.098039%, 51.372549%, 50.196078%)" fill-opacity="1" d="M 43.480469 44.585938 C 42.355469 44.585938 41.382812 43.941406 40.738281 42.738281 L 41.042969 42.5 C 41.621094 43.570312 42.484375 44.144531 43.488281 44.144531 C 43.71875 44.144531 43.960938 44.113281 44.207031 44.050781 C 45.878906 43.621094 47.226562 41.890625 47.488281 39.84375 C 47.976562 35.996094 49.300781 35.128906 51.421875 35.128906 C 51.523438 35.128906 51.628906 35.132812 51.734375 35.136719 C 51.933594 35.144531 52.121094 35.148438 52.296875 35.148438 C 53.992188 35.148438 54.703125 34.769531 55.589844 32.453125 L 55.921875 32.636719 C 54.949219 35.167969 54.082031 35.582031 52.273438 35.582031 C 52.097656 35.582031 51.917969 35.582031 51.726562 35.574219 C 51.621094 35.570312 51.519531 35.566406 51.417969 35.566406 C 49.414062 35.566406 48.300781 36.332031 47.847656 39.90625 C 47.566406 42.128906 46.101562 44.011719 44.285156 44.476562 C 44.007812 44.550781 43.738281 44.585938 43.480469 44.585938 "/>
<path fill-rule="nonzero" fill="rgb(89.803922%, 54.117647%, 52.941176%)" fill-opacity="1" d="M 38.734375 59.019531 C 38.511719 58.5 38.367188 57.785156 38.390625 57.019531 C 38.507812 57.132812 38.628906 57.246094 38.753906 57.355469 C 38.773438 57.914062 38.890625 58.429688 39.058594 58.816406 L 38.734375 59.019531 "/>
<path fill-rule="nonzero" fill="rgb(85.098039%, 51.372549%, 50.196078%)" fill-opacity="1" d="M 38.753906 57.355469 C 38.628906 57.246094 38.507812 57.132812 38.390625 57.019531 C 38.40625 56.441406 38.519531 55.835938 38.761719 55.261719 C 39.125 54.394531 39.925781 53.296875 41.660156 52.984375 C 42.597656 52.8125 43.421875 52.761719 44.148438 52.71875 C 46 52.605469 46.757812 52.503906 46.859375 51.125 C 46.945312 49.996094 46.457031 48.921875 45.984375 47.886719 C 45.539062 46.902344 45.117188 45.972656 45.269531 45.105469 L 45.625 45.195312 C 45.503906 45.902344 45.890625 46.765625 46.304688 47.675781 C 46.78125 48.71875 47.316406 49.902344 47.222656 51.164062 C 47.085938 52.980469 45.925781 53.050781 44.164062 53.15625 C 43.449219 53.199219 42.636719 53.25 41.714844 53.417969 C 40.132812 53.703125 39.414062 54.6875 39.085938 55.460938 C 38.820312 56.082031 38.730469 56.746094 38.753906 57.355469 "/>
<path fill-rule="nonzero" fill="rgb(85.098039%, 51.372549%, 50.196078%)" fill-opacity="1" d="M 47.34375 60.28125 C 46.109375 60.28125 45.320312 59.59375 44.875 59.015625 C 43.605469 57.367188 43.527344 54.699219 44.300781 53.410156 L 44.597656 53.667969 C 43.917969 54.796875 44.007812 57.246094 45.140625 58.71875 C 45.539062 59.234375 46.242188 59.835938 47.351562 59.835938 C 48.191406 59.835938 49.265625 59.488281 50.621094 58.492188 L 50.808594 58.863281 C 49.390625 59.914062 48.246094 60.28125 47.34375 60.28125 "/>
<path fill-rule="nonzero" fill="rgb(89.803922%, 54.117647%, 52.941176%)" fill-opacity="1" d="M 73.59375 72.414062 C 73.703125 72.332031 73.8125 72.246094 73.921875 72.15625 L 73.960938 72.300781 C 73.839844 72.347656 73.71875 72.386719 73.59375 72.414062 "/>
<path fill-rule="nonzero" fill="rgb(85.098039%, 51.372549%, 50.196078%)" fill-opacity="1" d="M 73.023438 72.484375 C 72.363281 72.484375 71.746094 72.203125 71.25 71.660156 C 70.257812 70.578125 69.929688 68.671875 70.347656 66.425781 C 70.664062 64.726562 70.390625 63.257812 69.5625 62.175781 C 68.65625 60.992188 67.136719 60.363281 65.269531 60.363281 C 64.773438 60.363281 64.253906 60.40625 63.714844 60.496094 L 63.664062 60.0625 C 64.210938 59.972656 64.734375 59.929688 65.234375 59.929688 C 66.394531 59.929688 67.429688 60.164062 68.289062 60.613281 C 69.789062 60.578125 70.527344 59.175781 70.832031 58.34375 C 71.480469 56.574219 71.375 54.269531 70.597656 53.207031 L 70.871094 52.917969 C 71.75 54.117188 71.878906 56.578125 71.164062 58.519531 C 70.671875 59.871094 69.867188 60.714844 68.871094 60.96875 C 69.234375 61.226562 69.5625 61.527344 69.832031 61.878906 C 70.746094 63.070312 71.046875 64.675781 70.703125 66.523438 C 70.316406 68.609375 70.605469 70.363281 71.496094 71.335938 C 71.921875 71.804688 72.457031 72.046875 73.027344 72.046875 C 73.296875 72.046875 73.570312 71.992188 73.847656 71.882812 L 73.921875 72.15625 C 73.8125 72.246094 73.703125 72.332031 73.59375 72.414062 C 73.402344 72.460938 73.210938 72.484375 73.023438 72.484375 "/>
<path fill-rule="nonzero" fill="rgb(59.607843%, 36.078431%, 34.901961%)" fill-opacity="1" d="M 90.773438 57.460938 C 89.882812 57.460938 88.960938 56.90625 88.261719 56.246094 C 88.738281 56.496094 89.269531 56.632812 89.816406 56.632812 C 91.253906 56.632812 92.785156 55.6875 93.578125 53.425781 C 93.09375 56.476562 91.960938 57.460938 90.773438 57.460938 "/>
<path fill-rule="nonzero" fill="rgb(76.862745%, 46.666667%, 45.098039%)" fill-opacity="1" d="M 98.722656 63.734375 C 97.785156 63.734375 96.851562 63.234375 96.097656 62.289062 L 96.363281 61.984375 C 97.117188 62.9375 97.960938 63.289062 98.714844 63.289062 C 99.171875 63.289062 99.59375 63.160156 99.949219 62.960938 C 101.121094 62.296875 101.785156 60.851562 101.632812 59.285156 L 101.992188 59.234375 C 102.164062 60.992188 101.421875 62.613281 100.101562 63.355469 C 99.65625 63.609375 99.1875 63.734375 98.722656 63.734375 "/>
<path fill-rule="nonzero" fill="rgb(76.862745%, 46.666667%, 45.098039%)" fill-opacity="1" d="M 99.097656 71.753906 C 98.199219 71.753906 97.105469 71.519531 95.785156 70.925781 L 95.914062 70.515625 C 97.207031 71.097656 98.265625 71.328125 99.128906 71.328125 C 101.195312 71.328125 102.164062 70.011719 102.597656 69.019531 C 103.542969 66.863281 103.105469 63.589844 101.707031 62.40625 L 101.917969 62.046875 C 103.472656 63.367188 103.960938 66.855469 102.921875 69.222656 C 102.527344 70.121094 101.480469 71.753906 99.097656 71.753906 "/>
<path fill-rule="nonzero" fill="rgb(76.862745%, 46.666667%, 45.098039%)" fill-opacity="1" d="M 103.675781 63.789062 C 102.953125 60.496094 104.195312 58.917969 105 58.269531 C 105.664062 57.734375 106.492188 57.460938 107.273438 57.460938 C 107.953125 57.460938 108.597656 57.667969 109.058594 58.089844 L 108.839844 58.441406 C 108.46875 58.101562 107.890625 57.90625 107.253906 57.90625 C 106.574219 57.90625 105.832031 58.128906 105.203125 58.632812 C 104.476562 59.21875 103.363281 60.648438 104.03125 63.675781 L 103.675781 63.789062 "/>
<path fill-rule="nonzero" fill="rgb(81.176471%, 49.019608%, 47.45098%)" fill-opacity="1" d="M 108.171875 29.15625 C 108.109375 29.132812 108.042969 29.113281 107.976562 29.089844 C 108.042969 28.5625 107.988281 28.074219 107.84375 27.648438 C 107.785156 27.171875 107.660156 26.730469 107.46875 26.363281 L 107.777344 26.128906 C 108.199219 26.933594 108.339844 28.042969 108.171875 29.15625 "/>
<path fill-rule="nonzero" fill="rgb(76.862745%, 46.666667%, 45.098039%)" fill-opacity="1" d="M 106.734375 40.058594 L 106.535156 39.691406 C 106.90625 39.40625 107.421875 38.019531 107.382812 36.5 C 107.355469 35.414062 107.035156 33.929688 105.671875 33.011719 L 105.386719 32.820312 L 105.671875 32.628906 C 106.726562 31.921875 107.464844 30.78125 107.753906 29.417969 C 107.882812 28.816406 107.910156 28.207031 107.84375 27.648438 C 107.988281 28.074219 108.042969 28.5625 107.976562 29.089844 C 108.042969 29.113281 108.109375 29.132812 108.171875 29.15625 C 108.15625 29.28125 108.132812 29.402344 108.105469 29.527344 C 107.816406 30.894531 107.113281 32.050781 106.113281 32.824219 C 107.40625 33.847656 107.71875 35.363281 107.746094 36.484375 C 107.789062 38.097656 107.246094 39.664062 106.734375 40.058594 "/>
<path fill-rule="nonzero" fill="rgb(81.176471%, 49.019608%, 47.45098%)" fill-opacity="1" d="M 114.96875 39.804688 C 114.898438 39.625 114.824219 39.449219 114.742188 39.277344 C 114.746094 39.261719 114.75 39.246094 114.753906 39.230469 L 115.105469 39.339844 C 115.070312 39.5 115.023438 39.65625 114.96875 39.804688 "/>
<path fill-rule="nonzero" fill="rgb(76.862745%, 46.666667%, 45.098039%)" fill-opacity="1" d="M 111.75 41.914062 C 110.488281 41.914062 109.320312 41.242188 108.65625 40.074219 L 108.957031 39.828125 C 109.554688 40.871094 110.605469 41.476562 111.75 41.476562 C 111.976562 41.476562 112.203125 41.453125 112.433594 41.40625 C 113.609375 41.164062 114.488281 40.347656 114.742188 39.28125 C 114.824219 39.449219 114.898438 39.625 114.96875 39.804688 C 114.570312 40.835938 113.660156 41.59375 112.496094 41.839844 C 112.246094 41.890625 111.996094 41.914062 111.75 41.914062 "/>
<path fill-rule="nonzero" fill="rgb(76.862745%, 46.666667%, 45.098039%)" fill-opacity="1" d="M 112.816406 50.296875 L 112.546875 50 C 113.917969 48.222656 114.132812 44.605469 112.355469 42.605469 L 112.605469 42.285156 C 114.53125 44.453125 114.296875 48.375 112.816406 50.296875 "/>
<path fill-rule="nonzero" fill="rgb(100%, 100%, 100%)" fill-opacity="1" d="M 71.742188 39.503906 C 71.644531 38.554688 71.183594 37.738281 70.535156 37.265625 C 70.609375 37.246094 70.683594 37.238281 70.761719 37.238281 C 71.421875 37.238281 71.957031 37.882812 71.957031 38.675781 C 71.957031 38.984375 71.878906 39.269531 71.742188 39.503906 "/>
<path fill-rule="nonzero" fill="rgb(56.470588%, 53.333333%, 49.411765%)" fill-opacity="1" d="M 71.070312 40.066406 C 71.074219 40.003906 71.074219 39.941406 71.074219 39.875 C 71.074219 38.902344 70.554688 38.074219 69.832031 37.773438 C 70.007812 37.515625 70.253906 37.332031 70.535156 37.265625 C 71.183594 37.738281 71.644531 38.554688 71.742188 39.503906 C 71.582031 39.777344 71.34375 39.980469 71.070312 40.066406 "/>
<path fill-rule="nonzero" fill="rgb(54.509804%, 51.764706%, 49.019608%)" fill-opacity="1" d="M 70.761719 40.117188 C 70.601562 40.117188 70.445312 40.078125 70.304688 40.007812 C 70.308594 39.964844 70.3125 39.921875 70.3125 39.875 C 70.3125 39.296875 70 38.808594 69.566406 38.636719 C 69.574219 38.308594 69.671875 38.007812 69.832031 37.773438 C 70.554688 38.074219 71.074219 38.902344 71.074219 39.875 C 71.074219 39.941406 71.074219 40.003906 71.070312 40.066406 C 70.972656 40.097656 70.867188 40.117188 70.761719 40.117188 "/>
<path fill-rule="nonzero" fill="rgb(47.843137%, 47.843137%, 47.843137%)" fill-opacity="1" d="M 70.304688 40.007812 C 69.871094 39.789062 69.566406 39.277344 69.566406 38.675781 C 69.566406 38.664062 69.566406 38.648438 69.566406 38.636719 C 70 38.808594 70.3125 39.296875 70.3125 39.875 C 70.3125 39.921875 70.308594 39.964844 70.304688 40.007812 "/>
<path fill-rule="nonzero" fill="rgb(94.901961%, 94.901961%, 94.901961%)" fill-opacity="1" d="M 105.609375 37.820312 C 105.609375 42.171875 102.675781 45.699219 99.058594 45.699219 C 95.441406 45.699219 92.507812 42.171875 92.507812 37.820312 C 92.507812 33.46875 95.441406 29.945312 99.058594 29.945312 C 102.675781 29.945312 105.609375 33.46875 105.609375 37.820312 "/>
<path fill-rule="nonzero" fill="rgb(100%, 100%, 100%)" fill-opacity="1" d="M 99.058594 29.945312 C 97.589844 29.945312 96.242188 30.53125 95.152344 31.511719 C 94.054688 32.917969 93.378906 34.804688 93.378906 36.882812 C 93.378906 41.234375 96.3125 44.761719 99.929688 44.761719 C 101.394531 44.761719 102.746094 44.175781 103.835938 43.195312 C 104.933594 41.789062 105.609375 39.902344 105.609375 37.820312 C 105.609375 33.46875 102.675781 29.945312 99.058594 29.945312 "/>
<path fill-rule="nonzero" fill="rgb(16.862745%, 10.196078%, 2.745098%)" fill-opacity="1" d="M 101.734375 37.820312 C 101.734375 39.503906 100.601562 40.867188 99.199219 40.867188 C 97.800781 40.867188 96.664062 39.503906 96.664062 37.820312 C 96.664062 36.136719 97.800781 34.773438 99.199219 34.773438 C 100.601562 34.773438 101.734375 36.136719 101.734375 37.820312 "/>
<path fill-rule="nonzero" fill="rgb(12.941176%, 7.843137%, 2.352941%)" fill-opacity="1" d="M 101.050781 37.820312 C 101.050781 39.050781 100.222656 40.046875 99.199219 40.046875 C 98.179688 40.046875 97.347656 39.050781 97.347656 37.820312 C 97.347656 36.589844 98.179688 35.59375 99.199219 35.59375 C 100.222656 35.59375 101.050781 36.589844 101.050781 37.820312 "/>
<path fill-rule="nonzero" fill="rgb(0%, 0%, 0%)" fill-opacity="1" d="M 100.285156 37.820312 C 100.285156 38.542969 99.800781 39.128906 99.199219 39.128906 C 98.601562 39.128906 98.113281 38.542969 98.113281 37.820312 C 98.113281 37.097656 98.601562 36.515625 99.199219 36.515625 C 99.800781 36.515625 100.285156 37.097656 100.285156 37.820312 "/>
<path fill-rule="nonzero" fill="rgb(100%, 100%, 100%)" fill-opacity="1" d="M 101.714844 37.449219 C 101.621094 36.5 101.160156 35.683594 100.507812 35.210938 C 100.582031 35.191406 100.660156 35.183594 100.738281 35.183594 C 101.398438 35.183594 101.933594 35.828125 101.933594 36.621094 C 101.933594 36.929688 101.855469 37.214844 101.714844 37.449219 "/>
<path fill-rule="nonzero" fill="rgb(56.470588%, 53.333333%, 49.411765%)" fill-opacity="1" d="M 101.042969 38.011719 C 101.050781 37.949219 101.050781 37.886719 101.050781 37.820312 C 101.050781 36.847656 100.53125 36.019531 99.808594 35.71875 C 99.984375 35.460938 100.230469 35.277344 100.507812 35.210938 C 101.160156 35.683594 101.621094 36.5 101.71875 37.449219 C 101.558594 37.722656 101.320312 37.925781 101.046875 38.011719 "/>
<path fill-rule="nonzero" fill="rgb(54.509804%, 51.764706%, 49.019608%)" fill-opacity="1" d="M 100.738281 38.0625 C 100.578125 38.0625 100.421875 38.023438 100.28125 37.953125 C 100.285156 37.910156 100.289062 37.867188 100.289062 37.820312 C 100.289062 37.242188 99.976562 36.753906 99.542969 36.582031 C 99.550781 36.253906 99.648438 35.953125 99.808594 35.71875 C 100.53125 36.019531 101.050781 36.847656 101.050781 37.820312 C 101.050781 37.886719 101.050781 37.949219 101.042969 38.011719 C 100.945312 38.042969 100.84375 38.0625 100.738281 38.0625 "/>
<path fill-rule="nonzero" fill="rgb(47.843137%, 47.843137%, 47.843137%)" fill-opacity="1" d="M 100.28125 37.953125 C 99.847656 37.738281 99.542969 37.222656 99.542969 36.621094 C 99.542969 36.609375 99.542969 36.59375 99.542969 36.582031 C 99.976562 36.753906 100.285156 37.242188 100.285156 37.820312 C 100.285156 37.867188 100.285156 37.910156 100.28125 37.953125 "/>
<path fill-rule="nonzero" fill="rgb(97.254902%, 77.647059%, 76.862745%)" fill-opacity="1" d="M 88.757812 42.5625 C 88.285156 42.5625 89.203125 41.507812 89.105469 40.917969 C 88.996094 40.285156 87.75 40.425781 88.503906 40.242188 C 88.632812 40.210938 88.765625 40.195312 88.890625 40.195312 C 89.480469 40.195312 89.96875 40.539062 90.058594 41.0625 C 90.164062 41.695312 89.644531 42.359375 88.890625 42.542969 C 88.839844 42.554688 88.792969 42.5625 88.757812 42.5625 "/>
<path fill-rule="nonzero" fill="rgb(100%, 100%, 100%)" fill-opacity="1" d="M 89.203125 55.15625 C 88.699219 55.15625 88.171875 55.050781 87.636719 54.808594 C 86.929688 54.488281 86.6875 53.417969 87.136719 52.683594 C 87.445312 52.183594 87.992188 51.921875 88.476562 52.136719 C 89.28125 52.492188 89.980469 52.214844 90.390625 51.789062 C 90.546875 51.625 90.953125 51.128906 90.898438 50.390625 C 90.859375 49.882812 91.128906 49.410156 91.503906 49.167969 L 91.558594 49.132812 C 92.320312 48.640625 93.230469 49.289062 93.269531 50.324219 C 93.320312 51.667969 92.863281 52.992188 91.945312 53.945312 C 91.25 54.671875 90.277344 55.15625 89.203125 55.15625 "/>
<path fill-rule="nonzero" fill="rgb(100%, 83.137255%, 83.137255%)" fill-opacity="1" d="M 28.011719 8.183594 C 24.644531 8.929688 23.585938 11.273438 23.289062 13.324219 C 22.992188 15.378906 23.488281 19.09375 25.09375 18.738281 C 26.703125 18.378906 26.011719 15.050781 26.011719 15.050781 C 26.183594 14.992188 26.355469 15.050781 26.355469 15.050781 C 26.15625 16.65625 26.554688 18.378906 28.109375 18.261719 C 29.667969 18.140625 29.519531 15.347656 29.148438 14.070312 C 29.296875 13.773438 29.59375 13.742188 29.59375 13.742188 C 29.546875 14.425781 29.296875 16.863281 30.832031 16.863281 C 32.363281 16.863281 33.253906 13.742188 32.386719 11.273438 C 31.523438 8.804688 29.890625 7.765625 28.011719 8.183594 "/>
<path fill-rule="nonzero" fill="rgb(100%, 83.137255%, 83.137255%)" fill-opacity="1" d="M 131.070312 8.183594 C 134.4375 8.929688 135.496094 11.273438 135.792969 13.324219 C 136.089844 15.378906 135.597656 19.09375 133.988281 18.738281 C 132.382812 18.378906 133.074219 15.050781 133.074219 15.050781 C 132.902344 14.992188 132.726562 15.050781 132.726562 15.050781 C 132.929688 16.65625 132.53125 18.378906 130.972656 18.261719 C 129.414062 18.140625 129.5625 15.347656 129.933594 14.070312 C 129.785156 13.773438 129.488281 13.742188 129.488281 13.742188 C 129.539062 14.425781 129.785156 16.863281 128.253906 16.863281 C 126.722656 16.863281 125.832031 13.742188 126.695312 11.273438 C 127.5625 8.804688 129.191406 7.765625 131.070312 8.183594 "/>
<path fill-rule="nonzero" fill="rgb(50.980392%, 50.980392%, 50.980392%)" fill-opacity="1" d="M 14.054688 42.472656 C 12.910156 43.09375 11.5625 42.480469 11.046875 41.101562 L 0.203125 12.175781 C -0.316406 10.796875 0.195312 9.179688 1.339844 8.558594 C 2.484375 7.9375 3.832031 8.550781 4.347656 9.925781 L 15.191406 38.855469 C 15.710938 40.230469 15.199219 41.851562 14.054688 42.472656 "/>
<path fill-rule="nonzero" fill="rgb(50.980392%, 50.980392%, 50.980392%)" fill-opacity="1" d="M 18.648438 39.980469 C 17.503906 40.601562 16.15625 39.988281 15.640625 38.613281 L 4.792969 9.683594 C 4.277344 8.308594 4.789062 6.6875 5.933594 6.066406 C 7.078125 5.445312 8.425781 6.058594 8.941406 7.4375 L 19.785156 36.363281 C 20.300781 37.742188 19.792969 39.359375 18.648438 39.980469 "/>
<path fill-rule="nonzero" fill="rgb(50.980392%, 50.980392%, 50.980392%)" fill-opacity="1" d="M 23.246094 37.488281 C 22.101562 38.109375 20.753906 37.496094 20.238281 36.117188 L 9.390625 7.191406 C 8.875 5.816406 9.386719 4.195312 10.53125 3.574219 C 11.675781 2.953125 13.023438 3.566406 13.539062 4.941406 L 24.382812 33.871094 C 24.898438 35.246094 24.390625 36.867188 23.246094 37.488281 "/>
<path fill-rule="nonzero" fill="rgb(50.980392%, 50.980392%, 50.980392%)" fill-opacity="1" d="M 145.945312 39.980469 C 147.089844 40.601562 148.4375 39.988281 148.953125 38.609375 L 159.796875 9.683594 C 160.316406 8.304688 159.804688 6.6875 158.660156 6.066406 C 157.515625 5.445312 156.167969 6.058594 155.652344 7.433594 L 144.808594 36.363281 C 144.289062 37.738281 144.800781 39.359375 145.945312 39.980469 "/>
<path fill-rule="nonzero" fill="rgb(50.980392%, 50.980392%, 50.980392%)" fill-opacity="1" d="M 141.351562 37.488281 C 142.496094 38.109375 143.84375 37.496094 144.359375 36.121094 L 155.207031 7.191406 C 155.722656 5.816406 155.210938 4.195312 154.066406 3.574219 C 152.921875 2.953125 151.574219 3.566406 151.058594 4.945312 L 140.214844 33.871094 C 139.699219 35.25 140.207031 36.867188 141.351562 37.488281 "/>
<path fill-rule="nonzero" fill="rgb(50.980392%, 50.980392%, 50.980392%)" fill-opacity="1" d="M 136.753906 34.996094 C 137.898438 35.617188 139.246094 35.003906 139.761719 33.628906 L 150.609375 4.699219 C 151.125 3.324219 150.613281 1.703125 149.46875 1.082031 C 148.324219 0.460938 146.976562 1.074219 146.460938 2.453125 L 135.617188 31.378906 C 135.101562 32.753906 135.609375 34.375 136.753906 34.996094 "/>
</svg>
