<?xml version="1.0" encoding="UTF-8"?>
<svg xmlns="http://www.w3.org/2000/svg" xmlns:xlink="http://www.w3.org/1999/xlink" width="160" height="100" viewBox="0 0 160 100">
<path fill-rule="nonzero" fill="rgb(100%, 83.137255%, 83.137255%)" fill-opacity="1" d="M 74.890625 83.699219 C 76.605469 86.46875 76.085938 95.277344 75.886719 95.59375 C 75.6875 95.914062 74.492188 97.910156 76.523438 98.457031 C 78.558594 99 86.730469 99.453125 89.761719 97.320312 C 88.921875 93.824219 86.253906 90.601562 78.519531 93.734375 C 79.394531 90.828125 79.074219 85.242188 78.636719 82.792969 C 78.199219 80.339844 74.890625 83.699219 74.890625 83.699219 "/>
<path fill-rule="nonzero" fill="rgb(89.803922%, 89.803922%, 89.803922%)" fill-opacity="1" d="M 78.929688 93.570312 C 80.949219 92.792969 82.613281 92.464844 83.976562 92.464844 C 82.613281 92.464844 80.949219 92.792969 78.929688 93.570312 "/>
<path fill-rule="nonzero" fill="rgb(80.784314%, 80.784314%, 80.784314%)" fill-opacity="1" d="M 81.691406 98.910156 C 79.429688 98.910156 77.402344 98.691406 76.523438 98.457031 C 76.515625 98.453125 76.511719 98.453125 76.503906 98.449219 C 76.507812 98.453125 76.515625 98.453125 76.523438 98.457031 C 77.402344 98.691406 79.429688 98.910156 81.691406 98.910156 C 84.660156 98.910156 88.039062 98.53125 89.761719 97.320312 C 88.039062 98.53125 84.660156 98.910156 81.691406 98.910156 M 76.5 98.449219 C 76.492188 98.449219 76.484375 98.445312 76.480469 98.441406 C 76.484375 98.445312 76.492188 98.445312 76.5 98.449219 M 76.476562 98.441406 C 76.46875 98.441406 76.460938 98.4375 76.453125 98.4375 C 76.460938 98.4375 76.46875 98.441406 76.476562 98.441406 M 76.453125 98.4375 C 76.429688 98.429688 76.410156 98.421875 76.386719 98.414062 C 76.410156 98.421875 76.429688 98.429688 76.453125 98.4375 M 76.386719 98.414062 C 76.105469 98.324219 75.894531 98.203125 75.742188 98.0625 C 75.894531 98.203125 76.105469 98.324219 76.386719 98.414062 M 75.742188 98.0625 C 75.738281 98.058594 75.734375 98.054688 75.730469 98.050781 C 75.734375 98.054688 75.738281 98.058594 75.742188 98.0625 M 75.726562 98.050781 C 75.722656 98.046875 75.71875 98.042969 75.714844 98.039062 C 75.71875 98.042969 75.722656 98.050781 75.726562 98.050781 M 75.714844 98.039062 C 75.710938 98.035156 75.710938 98.035156 75.707031 98.03125 C 75.710938 98.035156 75.710938 98.035156 75.714844 98.039062 M 75.703125 98.027344 C 75.703125 98.027344 75.699219 98.019531 75.695312 98.019531 C 75.699219 98.019531 75.703125 98.027344 75.703125 98.027344 M 75.691406 98.015625 C 75.6875 98.011719 75.6875 98.007812 75.683594 98.007812 C 75.6875 98.007812 75.6875 98.011719 75.691406 98.015625 M 75.679688 98.003906 C 75.675781 98 75.675781 97.996094 75.671875 97.992188 C 75.675781 97.996094 75.679688 97.996094 75.679688 98.003906 M 75.667969 97.988281 C 75.667969 97.988281 75.664062 97.984375 75.664062 97.984375 C 75.664062 97.988281 75.667969 97.988281 75.667969 97.988281 M 75.65625 97.976562 C 75.65625 97.976562 75.652344 97.976562 75.652344 97.972656 C 75.652344 97.972656 75.65625 97.976562 75.65625 97.976562 M 78.515625 93.734375 C 78.535156 93.671875 78.554688 93.605469 78.574219 93.539062 C 78.554688 93.605469 78.535156 93.671875 78.515625 93.734375 C 78.65625 93.675781 78.792969 93.621094 78.929688 93.570312 C 78.792969 93.621094 78.65625 93.675781 78.515625 93.734375 "/>
<path fill-rule="nonzero" fill="rgb(89.803922%, 74.509804%, 74.509804%)" fill-opacity="1" d="M 81.691406 98.910156 C 79.429688 98.910156 77.402344 98.691406 76.523438 98.457031 C 76.515625 98.453125 76.507812 98.453125 76.503906 98.449219 C 76.5 98.449219 76.5 98.449219 76.5 98.449219 C 76.492188 98.449219 76.484375 98.445312 76.480469 98.441406 C 76.476562 98.441406 76.476562 98.441406 76.476562 98.441406 C 76.46875 98.441406 76.460938 98.4375 76.453125 98.433594 C 76.429688 98.429688 76.410156 98.421875 76.386719 98.414062 C 76.105469 98.324219 75.894531 98.203125 75.742188 98.0625 C 75.738281 98.054688 75.734375 98.050781 75.730469 98.050781 C 75.726562 98.050781 75.726562 98.050781 75.726562 98.050781 C 75.722656 98.046875 75.71875 98.039062 75.714844 98.039062 C 75.710938 98.035156 75.710938 98.03125 75.707031 98.027344 C 75.707031 98.027344 75.703125 98.027344 75.703125 98.027344 C 75.703125 98.023438 75.699219 98.019531 75.695312 98.019531 C 75.695312 98.015625 75.691406 98.015625 75.691406 98.015625 C 75.6875 98.015625 75.6875 98.007812 75.683594 98.007812 C 75.683594 98.007812 75.679688 98.003906 75.679688 98.003906 C 75.679688 98.003906 75.675781 98 75.671875 97.996094 C 75.671875 97.996094 75.667969 97.992188 75.667969 97.992188 C 75.667969 97.992188 75.664062 97.988281 75.664062 97.988281 C 75.660156 97.984375 75.660156 97.984375 75.65625 97.980469 C 75.65625 97.980469 75.652344 97.976562 75.652344 97.976562 C 75.324219 97.609375 75.3125 97.132812 75.410156 96.699219 C 75.800781 97.804688 78.117188 98.25 80.699219 98.25 C 84.089844 98.25 87.941406 97.480469 88.503906 96.425781 C 87.175781 93.945312 84.699219 93.226562 82.714844 93.226562 C 82.113281 93.226562 81.554688 93.292969 81.089844 93.394531 C 79.679688 93.707031 78.019531 95.785156 77.574219 95.785156 C 77.386719 95.785156 77.414062 95.414062 77.769531 94.382812 C 78.835938 91.285156 78.214844 85.660156 77.875 84.101562 C 78.207031 83.96875 78.503906 83.804688 78.761719 83.613281 C 78.941406 84.925781 79.074219 86.726562 79.074219 88.53125 C 79.074219 90.367188 78.9375 92.203125 78.574219 93.542969 C 78.554688 93.609375 78.535156 93.671875 78.515625 93.734375 C 78.65625 93.679688 78.792969 93.625 78.929688 93.574219 C 80.949219 92.796875 82.613281 92.464844 83.976562 92.464844 C 87.628906 92.464844 89.164062 94.824219 89.761719 97.324219 C 88.039062 98.535156 84.660156 98.914062 81.691406 98.914062 "/>
<path fill-rule="nonzero" fill="rgb(100%, 83.137255%, 83.137255%)" fill-opacity="1" d="M 47.660156 84.789062 C 45.945312 87.558594 46.460938 96.367188 46.660156 96.683594 C 46.863281 97.003906 48.058594 99 46.023438 99.546875 C 43.992188 100.089844 35.816406 100.542969 32.789062 98.410156 C 33.625 94.914062 36.296875 91.691406 44.03125 94.824219 C 43.152344 91.917969 43.472656 86.332031 43.910156 83.878906 C 44.347656 81.429688 47.660156 84.789062 47.660156 84.789062 "/>
<path fill-rule="nonzero" fill="rgb(80.784314%, 80.784314%, 80.784314%)" fill-opacity="1" d="M 40.859375 100 C 37.886719 100 34.507812 99.621094 32.789062 98.410156 C 34.507812 99.621094 37.886719 100 40.859375 100 "/>
<path fill-rule="nonzero" fill="rgb(89.803922%, 74.509804%, 74.509804%)" fill-opacity="1" d="M 40.859375 100 C 37.886719 100 34.507812 99.621094 32.789062 98.410156 C 33.386719 95.914062 34.921875 93.554688 38.570312 93.554688 C 40.027344 93.554688 41.824219 93.929688 44.03125 94.824219 C 43.621094 93.472656 43.472656 91.542969 43.476562 89.617188 C 43.476562 87.433594 43.671875 85.257812 43.902344 83.941406 C 44.089844 84.058594 44.300781 84.1875 44.523438 84.316406 L 44.777344 84.8125 C 44.507812 85.355469 43.582031 91.996094 44.777344 95.46875 C 45.132812 96.503906 45.160156 96.871094 44.972656 96.871094 C 44.527344 96.871094 42.867188 94.792969 41.460938 94.484375 C 40.992188 94.378906 40.433594 94.3125 39.832031 94.3125 C 37.847656 94.3125 35.375 95.03125 34.042969 97.515625 C 34.605469 98.570312 38.457031 99.339844 41.847656 99.339844 C 44.433594 99.339844 46.75 98.890625 47.136719 97.789062 C 47.292969 98.460938 47.179688 99.238281 46.023438 99.546875 C 45.144531 99.78125 43.121094 100 40.859375 100 "/>
<path fill-rule="nonzero" fill="rgb(100%, 83.137255%, 83.137255%)" fill-opacity="1" d="M 17.863281 73.699219 C 16.839844 81.058594 8.621094 79.1875 8.425781 79.082031 C 7.808594 75.527344 6.03125 73.851562 4.765625 74.800781 C 3.496094 75.75 3.730469 77.085938 5.769531 79.34375 C 3.859375 78.917969 1.601562 80.066406 0.566406 81.214844 C -0.558594 82.460938 -0.230469 83.710938 3.59375 82.929688 C 4.164062 82.8125 4.65625 83.089844 4.285156 83.378906 C -2.726562 88.839844 3.8125 89.324219 6.125 84.964844 C 4.25 90.839844 7.953125 91.578125 9.433594 83.261719 C 17.308594 84.03125 20.746094 76.804688 20.746094 76.804688 L 17.863281 73.699219 "/>
<path fill-rule="nonzero" fill="rgb(89.803922%, 74.509804%, 74.509804%)" fill-opacity="1" d="M 7.914062 83.292969 C 7.207031 83.292969 5.714844 82.058594 5.847656 80.675781 C 5.847656 80.675781 5.917969 80.609375 6.039062 80.609375 C 6.109375 80.609375 6.191406 80.632812 6.285156 80.695312 C 6.285156 80.695312 6.304688 82.269531 8.042969 83.277344 C 8.003906 83.285156 7.960938 83.292969 7.914062 83.292969 "/>
<path fill-rule="nonzero" fill="rgb(89.803922%, 74.509804%, 74.509804%)" fill-opacity="1" d="M 11.488281 80.488281 C 10.078125 80.488281 8.996094 80.101562 8.207031 79.867188 C 7.96875 78.777344 5.882812 74.792969 4.847656 74.792969 C 4.820312 74.792969 4.792969 74.792969 4.765625 74.800781 C 5 74.625 5.253906 74.539062 5.511719 74.539062 C 6.652344 74.539062 7.921875 76.1875 8.425781 79.082031 C 8.496094 79.121094 9.625 79.441406 11.09375 79.441406 C 13.320312 79.441406 16.324219 78.699219 17.59375 75.109375 C 18.007812 75.804688 18.558594 76.433594 19.273438 76.917969 C 15.984375 79.761719 13.425781 80.488281 11.488281 80.488281 "/>
<path fill-rule="nonzero" fill="rgb(89.803922%, 89.803922%, 89.803922%)" fill-opacity="1" d="M 5.769531 79.34375 C 5.695312 79.328125 5.625 79.316406 5.554688 79.304688 C 5.625 79.316406 5.695312 79.328125 5.769531 79.34375 M 5.484375 79.292969 C 5.480469 79.292969 5.480469 79.292969 5.476562 79.292969 C 5.480469 79.292969 5.480469 79.292969 5.484375 79.292969 M 4.742188 79.257812 L 4.742188 79.257812 M 4.769531 79.257812 L 4.769531 79.253906 C 4.769531 79.257812 4.769531 79.257812 4.769531 79.257812 M 4.800781 79.253906 L 4.800781 79.253906 M 4.824219 79.253906 C 4.828125 79.253906 4.828125 79.253906 4.828125 79.253906 C 4.828125 79.253906 4.828125 79.253906 4.824219 79.253906 M 4.882812 79.253906 C 4.882812 79.253906 4.886719 79.253906 4.886719 79.253906 C 4.886719 79.253906 4.882812 79.253906 4.882812 79.253906 "/>
<path fill-rule="nonzero" fill="rgb(89.803922%, 74.509804%, 74.509804%)" fill-opacity="1" d="M 0.00390625 82.410156 C -0.105469 81.296875 2.371094 79.347656 4.742188 79.257812 C 4.753906 79.257812 4.761719 79.257812 4.769531 79.257812 C 4.769531 79.257812 4.769531 79.257812 4.769531 79.253906 C 4.78125 79.253906 4.789062 79.253906 4.800781 79.253906 C 4.808594 79.253906 4.816406 79.253906 4.824219 79.253906 C 4.828125 79.253906 4.828125 79.253906 4.828125 79.253906 C 4.847656 79.253906 4.863281 79.253906 4.882812 79.253906 C 4.882812 79.253906 4.886719 79.253906 4.886719 79.253906 C 4.894531 79.253906 4.90625 79.253906 4.914062 79.253906 C 5.101562 79.253906 5.292969 79.265625 5.480469 79.292969 C 5.480469 79.292969 5.480469 79.292969 5.484375 79.292969 C 5.507812 79.296875 5.53125 79.300781 5.554688 79.304688 C 5.625 79.316406 5.699219 79.328125 5.769531 79.34375 C 2.984375 79.859375 0.769531 81.003906 0.00390625 82.410156 "/>
<path fill-rule="nonzero" fill="rgb(89.803922%, 89.803922%, 89.803922%)" fill-opacity="1" d="M 4.253906 83.402344 L 4.253906 83.402344 M 4.285156 83.378906 C 4.367188 83.3125 4.398438 83.25 4.40625 83.191406 C 4.40625 83.203125 4.40625 83.210938 4.40625 83.21875 C 4.394531 83.269531 4.355469 83.324219 4.285156 83.378906 "/>
<path fill-rule="nonzero" fill="rgb(89.803922%, 74.509804%, 74.509804%)" fill-opacity="1" d="M 1.234375 87.539062 C 0.855469 86.933594 1.492188 85.558594 4.253906 83.402344 C 4.261719 83.394531 4.273438 83.386719 4.285156 83.378906 C 4.355469 83.324219 4.394531 83.269531 4.40625 83.21875 C 4.425781 83.574219 4.527344 83.714844 4.527344 83.714844 C 3.730469 83.824219 1.277344 86.230469 1.234375 87.539062 "/>
<path fill-rule="nonzero" fill="rgb(100%, 83.137255%, 83.137255%)" fill-opacity="1" d="M 98.386719 69.222656 C 99.40625 76.582031 107.628906 74.714844 107.824219 74.605469 C 108.441406 71.050781 110.214844 69.375 111.484375 70.324219 C 112.75 71.273438 112.515625 72.609375 110.480469 74.867188 C 112.386719 74.441406 114.648438 75.585938 115.679688 76.734375 C 116.804688 77.984375 116.476562 79.234375 112.65625 78.453125 C 112.085938 78.335938 111.59375 78.609375 111.964844 78.898438 C 118.976562 84.363281 112.4375 84.847656 110.121094 80.488281 C 111.996094 86.363281 108.296875 87.101562 106.816406 78.785156 C 98.941406 79.554688 95.503906 72.324219 95.503906 72.324219 L 98.386719 69.222656 "/>
<path fill-rule="nonzero" fill="rgb(89.803922%, 74.509804%, 74.509804%)" fill-opacity="1" d="M 108.335938 78.816406 C 108.289062 78.816406 108.246094 78.8125 108.207031 78.800781 C 109.941406 77.792969 109.960938 76.21875 109.960938 76.21875 C 110.058594 76.15625 110.140625 76.136719 110.207031 76.136719 C 110.328125 76.136719 110.402344 76.199219 110.402344 76.199219 C 110.53125 77.582031 109.042969 78.816406 108.335938 78.816406 "/>
<path fill-rule="nonzero" fill="rgb(89.803922%, 74.509804%, 74.509804%)" fill-opacity="1" d="M 104.757812 76.011719 C 103.34375 76.011719 101.59375 75.621094 99.46875 74.300781 C 99.667969 73.882812 99.808594 73.386719 99.882812 72.8125 C 101.367188 74.546875 103.480469 74.964844 105.15625 74.964844 C 106.621094 74.964844 107.75 74.644531 107.824219 74.605469 C 108.328125 71.710938 109.597656 70.0625 110.734375 70.0625 C 110.996094 70.0625 111.246094 70.148438 111.484375 70.324219 C 111.457031 70.320312 111.429688 70.3125 111.398438 70.3125 C 110.363281 70.3125 108.277344 74.300781 108.039062 75.390625 C 107.25 75.625 106.167969 76.011719 104.757812 76.011719 "/>
<path fill-rule="nonzero" fill="rgb(89.803922%, 89.803922%, 89.803922%)" fill-opacity="1" d="M 116.246094 77.933594 C 116.246094 77.929688 116.246094 77.929688 116.246094 77.929688 C 116.277344 77.585938 116.0625 77.160156 115.679688 76.734375 C 115.507812 76.542969 115.304688 76.355469 115.070312 76.167969 C 115.820312 76.761719 116.292969 77.429688 116.246094 77.933594 M 115.070312 76.167969 C 115.0625 76.164062 115.050781 76.15625 115.042969 76.148438 C 115.050781 76.15625 115.0625 76.164062 115.070312 76.167969 M 115.039062 76.148438 C 115.039062 76.144531 115.035156 76.140625 115.03125 76.136719 C 115.035156 76.140625 115.039062 76.144531 115.039062 76.148438 M 115.023438 76.132812 C 115.019531 76.128906 115.015625 76.128906 115.011719 76.125 C 115.015625 76.125 115.019531 76.128906 115.023438 76.132812 M 114.996094 76.113281 C 114.996094 76.113281 114.992188 76.109375 114.992188 76.109375 C 114.992188 76.109375 114.996094 76.113281 114.996094 76.113281 M 114.980469 76.097656 C 114.976562 76.097656 114.972656 76.097656 114.972656 76.09375 C 114.976562 76.09375 114.976562 76.097656 114.980469 76.097656 M 114.953125 76.082031 C 114.953125 76.082031 114.953125 76.078125 114.953125 76.078125 C 114.953125 76.078125 114.953125 76.082031 114.953125 76.082031 M 114.933594 76.066406 C 114.933594 76.066406 114.933594 76.066406 114.933594 76.0625 C 114.933594 76.066406 114.933594 76.066406 114.933594 76.066406 "/>
<path fill-rule="nonzero" fill="rgb(89.803922%, 74.509804%, 74.509804%)" fill-opacity="1" d="M 116.246094 77.929688 C 115.476562 76.523438 113.261719 75.382812 110.480469 74.867188 C 110.757812 74.804688 111.046875 74.777344 111.335938 74.777344 C 112.628906 74.777344 113.976562 75.351562 114.933594 76.0625 C 114.933594 76.066406 114.933594 76.066406 114.933594 76.066406 C 114.941406 76.070312 114.945312 76.074219 114.953125 76.078125 C 114.953125 76.078125 114.953125 76.078125 114.953125 76.082031 C 114.960938 76.085938 114.96875 76.089844 114.972656 76.09375 C 114.976562 76.09375 114.976562 76.09375 114.980469 76.097656 C 114.984375 76.097656 114.988281 76.101562 114.992188 76.105469 C 114.992188 76.109375 114.996094 76.109375 114.996094 76.109375 C 115.003906 76.113281 115.007812 76.117188 115.011719 76.121094 C 115.015625 76.125 115.019531 76.125 115.023438 76.132812 C 115.027344 76.132812 115.027344 76.136719 115.03125 76.136719 C 115.035156 76.136719 115.039062 76.140625 115.039062 76.144531 C 115.042969 76.144531 115.042969 76.144531 115.042969 76.144531 C 115.050781 76.152344 115.0625 76.160156 115.070312 76.164062 C 115.304688 76.351562 115.507812 76.539062 115.679688 76.734375 C 116.0625 77.15625 116.277344 77.582031 116.242188 77.929688 "/>
<path fill-rule="nonzero" fill="rgb(89.803922%, 89.803922%, 89.803922%)" fill-opacity="1" d="M 112.0625 78.976562 C 112.0625 78.976562 112.0625 78.976562 112.058594 78.976562 C 112.058594 78.976562 112.0625 78.976562 112.0625 78.976562 M 111.996094 78.925781 L 111.996094 78.925781 M 111.945312 78.886719 C 111.886719 78.835938 111.851562 78.789062 111.839844 78.742188 C 111.839844 78.734375 111.839844 78.722656 111.839844 78.714844 C 111.847656 78.769531 111.878906 78.828125 111.945312 78.886719 "/>
<path fill-rule="nonzero" fill="rgb(89.803922%, 74.509804%, 74.509804%)" fill-opacity="1" d="M 115.015625 83.0625 C 114.96875 81.753906 112.519531 79.347656 111.722656 79.238281 C 111.722656 79.238281 111.824219 79.097656 111.839844 78.742188 C 111.851562 78.789062 111.886719 78.835938 111.945312 78.886719 C 111.953125 78.890625 111.957031 78.898438 111.964844 78.902344 C 111.972656 78.910156 111.984375 78.914062 111.996094 78.925781 C 111.996094 78.925781 111.996094 78.925781 112 78.925781 C 112.019531 78.945312 112.039062 78.960938 112.0625 78.976562 C 114.765625 81.105469 115.390625 82.460938 115.015625 83.058594 "/>
<path fill-rule="nonzero" fill="rgb(90.196078%, 54.509804%, 52.941176%)" fill-opacity="1" d="M 65.480469 27.894531 C 66.597656 23.625 74.570312 16.363281 81.109375 25.441406 C 84.21875 22.71875 93.148438 23.625 91.875 33.796875 C 93.867188 32.433594 96.019531 34.160156 95.699219 36.613281 C 100.804688 38.246094 101.921875 40.0625 100.484375 44.96875 C 104.234375 46.328125 105.90625 52.050781 103.117188 57.046875 C 107.523438 60.566406 106.785156 70.941406 99.925781 71.574219 C 100.167969 77.113281 94.902344 77.046875 94.105469 75.207031 C 94.066406 84.675781 83.78125 87.46875 79.433594 82.925781 C 77.441406 85.832031 68.828125 85.289062 67.3125 76.023438 C 65.800781 66.761719 60.058594 32.070312 60.058594 32.070312 L 65.480469 27.894531 "/>
<path fill-rule="nonzero" fill="rgb(100%, 60.392157%, 58.823529%)" fill-opacity="1" d="M 53.359375 22.082031 C 58.066406 17.089844 65 18.632812 65 25.804688 C 67.3125 25.625 67.792969 31.527344 65.957031 32.164062 C 70.582031 31.980469 69.625 38.609375 69.070312 39.609375 C 71.0625 39.699219 70.984375 43.332031 69.148438 44.875 C 67.3125 46.421875 69.546875 50.234375 72.738281 48.417969 C 74.011719 49.328125 74.648438 53.503906 71.140625 55.046875 C 71.78125 60.859375 69.707031 75.753906 68.671875 78.203125 C 67.632812 80.65625 63.644531 84.015625 58.542969 81.203125 C 52.402344 91.191406 42.59375 83.019531 42.59375 83.019531 C 30.234375 91.007812 24.972656 80.113281 24.496094 77.75 C 16.839844 79.023438 16.121094 71.757812 16.519531 69.304688 C 4.878906 62.222656 14.449219 49.691406 19.789062 50.78125 C 13.808594 40.246094 25.453125 35.703125 27.765625 37.613281 C 25.210938 30.710938 32.628906 27.621094 34.542969 30.800781 C 33.34375 23.535156 42.277344 22.355469 43.152344 24.171875 C 42.675781 18.449219 52.164062 16.90625 53.359375 22.082031 "/>
<path fill-rule="nonzero" fill="rgb(85.490196%, 51.764706%, 50.196078%)" fill-opacity="1" d="M 82.0625 81.695312 C 80.238281 81.695312 78.488281 81.066406 77.265625 79.785156 C 76.664062 80.660156 75.398438 81.1875 73.929688 81.1875 C 72.148438 81.1875 70.0625 80.410156 68.507812 78.546875 C 68.570312 78.433594 68.621094 78.316406 68.671875 78.203125 C 69.707031 75.753906 71.78125 60.859375 71.140625 55.046875 C 74.648438 53.503906 74.011719 49.328125 72.738281 48.417969 C 72.144531 48.753906 71.585938 48.898438 71.082031 48.898438 C 68.859375 48.898438 67.65625 46.132812 69.148438 44.875 C 70.984375 43.332031 71.0625 39.699219 69.070312 39.609375 C 69.621094 38.625 70.558594 32.160156 66.144531 32.160156 C 66.082031 32.160156 66.019531 32.160156 65.957031 32.164062 C 67.191406 31.738281 67.378906 28.9375 66.671875 27.195312 C 68.109375 25.628906 70.179688 24.339844 72.449219 24.339844 C 74.5 24.339844 76.710938 25.390625 78.765625 28.246094 C 79.613281 27.503906 80.9375 27.0625 82.34375 27.0625 C 85.570312 27.0625 89.214844 29.386719 88.417969 35.738281 C 88.851562 35.4375 89.292969 35.304688 89.714844 35.304688 C 90.601562 35.304688 91.378906 35.910156 91.707031 36.828125 C 91.777344 37.382812 91.746094 37.988281 91.613281 38.589844 C 91.308594 39.945312 90.535156 41.078125 89.429688 41.78125 L 89.128906 41.96875 L 89.429688 42.160156 C 90.859375 43.074219 91.195312 44.550781 91.226562 45.628906 C 91.265625 47.140625 90.726562 48.519531 90.335938 48.800781 L 90.542969 49.171875 C 91.078125 48.777344 91.648438 47.21875 91.605469 45.617188 C 91.578125 44.496094 91.25 42.992188 89.890625 41.972656 C 90.941406 41.207031 91.679688 40.054688 91.984375 38.695312 C 92.011719 38.574219 92.035156 38.449219 92.054688 38.328125 C 96.453125 39.777344 97.40625 41.421875 96.140625 45.75 C 97.355469 46.191406 98.324219 47.144531 98.953125 48.394531 C 98.6875 49.457031 97.761719 50.265625 96.527344 50.507812 C 96.289062 50.554688 96.046875 50.578125 95.8125 50.578125 C 94.609375 50.578125 93.503906 49.976562 92.878906 48.9375 L 92.5625 49.183594 C 93.261719 50.34375 94.484375 51.015625 95.8125 51.015625 C 96.070312 51.015625 96.332031 50.988281 96.59375 50.9375 C 97.816406 50.695312 98.773438 49.941406 99.1875 48.917969 C 100.058594 51.074219 99.972656 53.941406 98.496094 56.582031 C 102.449219 59.734375 101.785156 69.039062 95.636719 69.609375 C 95.773438 72.734375 93.953125 73.871094 92.40625 73.871094 C 91.5 73.871094 90.683594 73.476562 90.417969 72.867188 C 90.394531 78.6875 86.046875 81.695312 82.0625 81.695312 M 79.183594 79.453125 L 79.050781 79.863281 C 80.433594 80.453125 81.582031 80.6875 82.527344 80.6875 C 85.027344 80.6875 86.125 79.0625 86.539062 78.171875 C 87.632812 75.8125 87.121094 72.347656 85.484375 71.035156 L 85.265625 71.390625 C 86.730469 72.566406 87.195312 75.824219 86.199219 77.964844 C 85.742188 78.953125 84.726562 80.261719 82.558594 80.261719 C 81.648438 80.261719 80.539062 80.03125 79.183594 79.453125 M 91.109375 66.472656 C 90.289062 66.472656 89.417969 66.746094 88.722656 67.277344 C 87.878906 67.921875 86.574219 69.492188 87.332031 72.765625 L 87.703125 72.652344 C 87.003906 69.640625 88.175781 68.21875 88.933594 67.640625 C 89.597656 67.136719 90.378906 66.914062 91.089844 66.914062 C 91.757812 66.914062 92.363281 67.109375 92.753906 67.449219 L 92.988281 67.101562 C 92.5 66.679688 91.824219 66.472656 91.109375 66.472656 M 79.652344 70.972656 L 79.375 71.273438 C 80.164062 72.214844 81.144531 72.710938 82.128906 72.710938 C 82.621094 72.710938 83.113281 72.585938 83.582031 72.335938 C 84.964844 71.59375 85.746094 69.984375 85.566406 68.234375 L 85.183594 68.285156 C 85.34375 69.847656 84.652344 71.28125 83.417969 71.941406 C 83.046875 72.140625 82.601562 72.265625 82.125 72.265625 C 81.332031 72.265625 80.445312 71.917969 79.652344 70.972656 M 96.710938 51.382812 L 96.449219 51.699219 C 98.3125 53.691406 98.085938 57.289062 96.648438 59.054688 L 96.929688 59.351562 C 98.484375 57.4375 98.730469 53.539062 96.710938 51.382812 M 82.335938 39.113281 C 78.605469 39.203125 75.605469 42.675781 75.605469 46.945312 C 75.605469 51.269531 78.683594 54.777344 82.484375 54.777344 C 86.222656 54.777344 89.269531 51.375 89.359375 47.136719 C 89.359375 47.136719 89.359375 47.132812 89.359375 47.132812 C 89.359375 47.117188 89.359375 47.105469 89.359375 47.089844 C 89.359375 47.085938 89.359375 47.078125 89.359375 47.074219 C 89.359375 47.066406 89.359375 47.054688 89.359375 47.042969 C 89.359375 47.035156 89.359375 47.027344 89.359375 47.015625 C 89.359375 47.007812 89.359375 47 89.359375 46.992188 C 89.359375 46.976562 89.359375 46.960938 89.359375 46.945312 C 89.359375 42.617188 86.28125 39.113281 82.484375 39.113281 C 82.46875 39.113281 82.457031 39.113281 82.441406 39.113281 C 82.4375 39.113281 82.433594 39.113281 82.429688 39.113281 C 82.421875 39.113281 82.410156 39.113281 82.402344 39.113281 C 82.398438 39.113281 82.390625 39.113281 82.382812 39.113281 C 82.378906 39.113281 82.371094 39.113281 82.367188 39.113281 C 82.359375 39.113281 82.347656 39.113281 82.339844 39.113281 C 82.339844 39.113281 82.335938 39.113281 82.335938 39.113281 "/>
<path fill-rule="nonzero" fill="rgb(94.901961%, 57.254902%, 55.686275%)" fill-opacity="1" d="M 51.507812 82.691406 C 47.621094 82.691406 44.234375 79.867188 44.234375 79.867188 C 41.339844 81.738281 38.882812 82.453125 36.820312 82.453125 C 30.980469 82.453125 28.320312 76.710938 28.003906 75.144531 C 27.457031 75.234375 26.953125 75.277344 26.484375 75.277344 C 21.042969 75.277344 20.523438 69.597656 20.855469 67.574219 C 20.222656 67.1875 19.660156 66.785156 19.160156 66.367188 C 19.136719 65.761719 19.234375 65.101562 19.507812 64.484375 C 19.851562 63.714844 20.613281 62.734375 22.269531 62.449219 C 23.238281 62.285156 24.089844 62.234375 24.84375 62.191406 C 26.691406 62.085938 27.914062 62.015625 28.054688 60.210938 C 28.152344 58.957031 27.589844 57.78125 27.089844 56.742188 C 26.65625 55.835938 26.246094 54.980469 26.375 54.273438 L 26 54.1875 C 25.84375 55.050781 26.289062 55.972656 26.753906 56.949219 C 27.25 57.984375 27.761719 59.050781 27.671875 60.171875 C 27.566406 61.542969 26.769531 61.644531 24.824219 61.757812 C 24.0625 61.800781 23.199219 61.851562 22.214844 62.019531 C 20.394531 62.332031 19.554688 63.425781 19.167969 64.285156 C 18.914062 64.855469 18.796875 65.460938 18.777344 66.035156 C 12.023438 59.859375 18.710938 50.902344 23.175781 50.902344 C 23.382812 50.902344 23.589844 50.921875 23.785156 50.960938 C 19.21875 42.921875 26.109375 38.777344 29.535156 38.777344 C 30.132812 38.777344 30.625 38.902344 30.933594 39.15625 C 29.257812 34.625 32.378906 31.925781 34.839844 31.925781 C 35.738281 31.925781 36.554688 32.285156 37.011719 33.050781 C 36.226562 28.269531 40.324219 26.425781 42.875 26.425781 C 43.800781 26.425781 44.523438 26.671875 44.734375 27.105469 C 44.484375 24.121094 47.257812 22.402344 49.835938 22.402344 C 51.6875 22.402344 53.4375 23.292969 53.886719 25.230469 C 55.542969 23.472656 57.507812 22.617188 59.28125 22.617188 C 60.839844 22.617188 62.253906 23.277344 63.183594 24.5625 C 59.617188 26.199219 59.40625 28.675781 60.203125 31.878906 C 60.492188 33.039062 60.269531 33.980469 59.5625 34.605469 C 59.042969 35.0625 58.320312 35.289062 57.5625 35.289062 C 56.839844 35.289062 56.082031 35.078125 55.449219 34.652344 L 55.257812 35.03125 C 55.941406 35.492188 56.765625 35.71875 57.558594 35.71875 C 58.402344 35.71875 59.214844 35.460938 59.796875 34.949219 C 60.625 34.21875 60.902344 33.085938 60.570312 31.757812 C 59.800781 28.671875 60.015625 26.445312 63.421875 24.921875 C 63.988281 25.859375 64.324219 27.078125 64.324219 28.570312 C 64.355469 28.570312 64.386719 28.566406 64.414062 28.566406 C 64.777344 28.566406 65.089844 28.742188 65.34375 29.023438 C 65.683594 28.410156 66.132812 27.785156 66.671875 27.195312 C 67.378906 28.9375 67.191406 31.734375 65.957031 32.164062 C 66.019531 32.160156 66.082031 32.15625 66.144531 32.15625 C 70.558594 32.15625 69.621094 38.625 69.070312 39.609375 C 71.0625 39.699219 70.984375 43.332031 69.148438 44.875 C 67.65625 46.132812 68.859375 48.898438 71.082031 48.898438 C 71.585938 48.898438 72.144531 48.753906 72.738281 48.417969 C 74.011719 49.324219 74.648438 53.503906 71.140625 55.046875 C 71.78125 60.859375 69.707031 75.753906 68.671875 78.203125 C 68.621094 78.316406 68.570312 78.429688 68.507812 78.546875 C 68 77.933594 67.546875 77.203125 67.175781 76.347656 C 66.242188 77.757812 64.382812 79.199219 61.984375 79.199219 C 60.925781 79.199219 59.765625 78.917969 58.53125 78.238281 C 57.769531 79.476562 56.945312 80.40625 56.089844 81.082031 L 56.011719 80.8125 C 55.722656 80.921875 55.429688 80.972656 55.148438 80.972656 C 54.550781 80.972656 53.992188 80.734375 53.539062 80.265625 C 52.605469 79.300781 52.304688 77.558594 52.710938 75.480469 C 53.070312 73.644531 52.753906 72.050781 51.792969 70.863281 C 51.511719 70.515625 51.167969 70.21875 50.785156 69.957031 C 51.832031 69.707031 52.675781 68.867188 53.195312 67.527344 C 53.945312 65.59375 53.808594 63.144531 52.886719 61.953125 L 52.597656 62.238281 C 53.417969 63.300781 53.527344 65.589844 52.847656 67.351562 C 52.523438 68.179688 51.75 69.570312 50.175781 69.605469 C 49.273438 69.160156 48.183594 68.925781 46.96875 68.925781 C 46.441406 68.925781 45.890625 68.96875 45.320312 69.058594 L 45.371094 69.492188 C 45.9375 69.402344 46.484375 69.359375 47.003906 69.359375 C 48.964844 69.359375 50.5625 69.984375 51.511719 71.160156 C 52.382812 72.234375 52.667969 73.699219 52.335938 75.386719 C 51.898438 77.617188 52.242188 79.515625 53.28125 80.589844 C 53.804688 81.132812 54.453125 81.410156 55.144531 81.410156 C 55.34375 81.410156 55.542969 81.386719 55.746094 81.34375 C 54.359375 82.328125 52.902344 82.691406 51.507812 82.691406 M 64.925781 69.417969 C 65.195312 71.085938 65.660156 71.589844 66.160156 71.589844 C 66.65625 71.589844 67.1875 71.085938 67.589844 70.738281 C 67.402344 70.785156 67.214844 70.804688 67.035156 70.804688 C 65.9375 70.804688 65.074219 70.015625 64.925781 69.417969 M 24.988281 62.445312 C 24.175781 63.726562 24.257812 66.378906 25.589844 68.015625 C 26.058594 68.59375 26.886719 69.277344 28.179688 69.273438 C 29.132812 69.273438 30.332031 68.910156 31.820312 67.867188 L 31.621094 67.496094 C 30.199219 68.488281 29.070312 68.835938 28.1875 68.835938 C 27.023438 68.835938 26.289062 68.234375 25.871094 67.71875 C 24.679688 66.257812 24.585938 63.820312 25.296875 62.699219 L 24.988281 62.445312 M 50.859375 41.15625 C 47.128906 41.246094 44.128906 44.714844 44.128906 48.988281 C 44.128906 53.3125 47.210938 56.820312 51.007812 56.820312 C 54.75 56.820312 57.792969 53.414062 57.882812 49.179688 C 57.882812 49.179688 57.882812 49.175781 57.882812 49.175781 C 57.882812 49.160156 57.882812 49.144531 57.882812 49.132812 C 57.882812 49.128906 57.882812 49.121094 57.882812 49.117188 C 57.882812 49.105469 57.886719 49.097656 57.886719 49.085938 C 57.886719 49.078125 57.886719 49.066406 57.886719 49.058594 C 57.886719 49.050781 57.886719 49.042969 57.886719 49.035156 C 57.886719 49.019531 57.886719 49.003906 57.886719 48.988281 C 57.886719 44.660156 54.804688 41.15625 51.007812 41.15625 C 50.996094 41.15625 50.980469 41.15625 50.96875 41.15625 C 50.960938 41.15625 50.957031 41.15625 50.953125 41.15625 C 50.945312 41.15625 50.9375 41.15625 50.929688 41.15625 C 50.921875 41.15625 50.914062 41.15625 50.910156 41.15625 C 50.902344 41.15625 50.898438 41.15625 50.890625 41.15625 C 50.882812 41.15625 50.875 41.15625 50.867188 41.15625 C 50.863281 41.15625 50.863281 41.15625 50.859375 41.15625 M 21.566406 51.597656 L 21.242188 51.832031 C 21.921875 53.03125 22.945312 53.671875 24.121094 53.671875 C 24.398438 53.671875 24.679688 53.636719 24.96875 53.566406 C 26.875 53.097656 28.414062 51.230469 28.710938 49.019531 C 29.1875 45.460938 30.355469 44.703125 32.460938 44.703125 C 32.566406 44.703125 32.671875 44.707031 32.78125 44.707031 C 32.984375 44.714844 33.175781 44.71875 33.355469 44.71875 C 35.257812 44.71875 36.167969 44.304688 37.1875 41.789062 L 36.839844 41.609375 C 35.90625 43.910156 35.160156 44.285156 33.382812 44.285156 C 33.199219 44.285156 33 44.28125 32.792969 44.273438 C 32.679688 44.269531 32.570312 44.265625 32.460938 44.265625 C 30.234375 44.265625 28.84375 45.128906 28.332031 48.953125 C 28.058594 50.988281 26.644531 52.710938 24.890625 53.136719 C 24.628906 53.199219 24.375 53.234375 24.128906 53.234375 C 23.078125 53.234375 22.171875 52.660156 21.566406 51.597656 M 71.804688 49.304688 C 71.675781 49.304688 71.539062 49.320312 71.398438 49.351562 C 70.613281 49.535156 71.917969 49.390625 72.03125 50.023438 C 72.136719 50.609375 71.171875 51.65625 71.667969 51.65625 C 71.707031 51.65625 71.75 51.652344 71.808594 51.636719 C 72.597656 51.457031 73.144531 50.796875 73.03125 50.164062 C 72.941406 49.644531 72.425781 49.304688 71.804688 49.304688 "/>
<path fill-rule="nonzero" fill="rgb(94.901961%, 94.901961%, 94.901961%)" fill-opacity="1" d="M 57.886719 48.988281 C 57.886719 53.3125 54.804688 56.820312 51.007812 56.820312 C 47.210938 56.820312 44.128906 53.3125 44.128906 48.988281 C 44.128906 44.660156 47.210938 41.152344 51.007812 41.152344 C 54.804688 41.152344 57.886719 44.660156 57.886719 48.988281 "/>
<path fill-rule="nonzero" fill="rgb(100%, 100%, 100%)" fill-opacity="1" d="M 51.007812 41.152344 C 49.46875 41.152344 48.050781 41.738281 46.90625 42.710938 C 45.753906 44.109375 45.046875 45.988281 45.046875 48.054688 C 45.046875 52.378906 48.125 55.886719 51.921875 55.886719 C 53.460938 55.886719 54.878906 55.304688 56.027344 54.332031 C 57.175781 52.929688 57.886719 51.054688 57.886719 48.988281 C 57.886719 44.660156 54.804688 41.152344 51.007812 41.152344 "/>
<path fill-rule="nonzero" fill="rgb(16.862745%, 10.196078%, 2.745098%)" fill-opacity="1" d="M 43.207031 42.808594 C 42.289062 42.9375 41.488281 42.058594 41.597656 41.015625 C 41.792969 39.199219 42.523438 37.507812 43.707031 36.1875 C 44.769531 35 46.117188 34.210938 47.488281 33.925781 C 48.464844 33.71875 49.339844 34.640625 49.199219 35.761719 L 49.199219 35.765625 C 49.109375 36.453125 48.652344 37.011719 48.050781 37.128906 C 47.226562 37.285156 46.378906 37.78125 45.714844 38.519531 C 45.265625 39.019531 44.605469 39.976562 44.449219 41.375 C 44.367188 42.121094 43.863281 42.714844 43.207031 42.808594 "/>
<path fill-rule="nonzero" fill="rgb(16.862745%, 10.196078%, 2.745098%)" fill-opacity="1" d="M 87.074219 38.714844 C 87.980469 38.523438 88.515625 37.40625 88.132812 36.453125 C 87.464844 34.789062 86.320312 33.425781 84.84375 32.574219 C 83.515625 31.808594 82.019531 31.519531 80.640625 31.714844 C 79.652344 31.855469 79.0625 33.035156 79.492188 34.054688 L 79.496094 34.058594 C 79.761719 34.683594 80.34375 35.058594 80.949219 34.964844 C 81.777344 34.832031 82.71875 35.011719 83.546875 35.488281 C 84.105469 35.808594 84.992188 36.492188 85.511719 37.773438 C 85.789062 38.457031 86.425781 38.851562 87.074219 38.714844 "/>
<path fill-rule="nonzero" fill="rgb(100%, 51.764706%, 50.196078%)" fill-opacity="1" d="M 44.429688 63.71875 L 38.328125 63.71875 C 36.523438 63.71875 35.058594 62.054688 35.058594 59.996094 C 35.058594 57.941406 36.523438 56.273438 38.328125 56.273438 L 44.429688 56.273438 C 46.234375 56.273438 47.699219 57.941406 47.699219 59.996094 C 47.699219 62.054688 46.234375 63.71875 44.429688 63.71875 "/>
<path fill-rule="nonzero" fill="rgb(100%, 51.764706%, 50.196078%)" fill-opacity="1" d="M 92.664062 62.730469 L 86.644531 63.84375 C 84.859375 64.175781 83.183594 62.796875 82.890625 60.765625 C 82.601562 58.738281 83.8125 56.824219 85.59375 56.492188 L 91.613281 55.378906 C 93.398438 55.046875 95.078125 56.425781 95.367188 58.457031 C 95.65625 60.484375 94.445312 62.398438 92.664062 62.730469 "/>
<path fill-rule="nonzero" fill="rgb(85.098039%, 51.372549%, 50.196078%)" fill-opacity="1" d="M 24.121094 53.667969 C 22.945312 53.667969 21.921875 53.027344 21.242188 51.832031 L 21.566406 51.597656 C 22.171875 52.660156 23.078125 53.230469 24.128906 53.230469 C 24.375 53.230469 24.628906 53.199219 24.890625 53.136719 C 26.644531 52.710938 28.058594 50.988281 28.332031 48.953125 C 28.84375 45.128906 30.234375 44.265625 32.460938 44.265625 C 32.570312 44.265625 32.679688 44.269531 32.792969 44.273438 C 33 44.28125 33.199219 44.285156 33.382812 44.285156 C 35.160156 44.285156 35.90625 43.910156 36.839844 41.605469 L 37.1875 41.789062 C 36.167969 44.304688 35.257812 44.71875 33.355469 44.71875 C 33.175781 44.71875 32.984375 44.714844 32.78125 44.707031 C 32.671875 44.703125 32.566406 44.703125 32.460938 44.703125 C 30.355469 44.703125 29.1875 45.460938 28.710938 49.019531 C 28.414062 51.230469 26.875 53.097656 24.96875 53.566406 C 24.679688 53.636719 24.398438 53.671875 24.121094 53.671875 "/>
<path fill-rule="nonzero" fill="rgb(89.803922%, 54.117647%, 52.941176%)" fill-opacity="1" d="M 19.144531 68.019531 C 18.90625 67.503906 18.757812 66.796875 18.777344 66.035156 C 18.902344 66.144531 19.027344 66.257812 19.160156 66.367188 C 19.183594 66.925781 19.304688 67.433594 19.480469 67.820312 L 19.144531 68.019531 "/>
<path fill-rule="nonzero" fill="rgb(85.098039%, 51.372549%, 50.196078%)" fill-opacity="1" d="M 19.160156 66.367188 C 19.027344 66.257812 18.902344 66.144531 18.777344 66.035156 C 18.796875 65.460938 18.914062 64.855469 19.167969 64.285156 C 19.554688 63.425781 20.394531 62.332031 22.214844 62.019531 C 23.199219 61.851562 24.0625 61.800781 24.824219 61.757812 C 26.769531 61.644531 27.566406 61.542969 27.671875 60.171875 C 27.761719 59.050781 27.25 57.984375 26.753906 56.949219 C 26.289062 55.972656 25.84375 55.050781 26 54.183594 L 26.375 54.273438 C 26.246094 54.980469 26.65625 55.835938 27.089844 56.742188 C 27.589844 57.78125 28.152344 58.957031 28.054688 60.210938 C 27.914062 62.015625 26.691406 62.085938 24.84375 62.191406 C 24.089844 62.234375 23.238281 62.285156 22.269531 62.449219 C 20.613281 62.734375 19.851562 63.714844 19.507812 64.484375 C 19.234375 65.101562 19.136719 65.761719 19.160156 66.367188 "/>
<path fill-rule="nonzero" fill="rgb(85.098039%, 51.372549%, 50.196078%)" fill-opacity="1" d="M 28.179688 69.277344 C 26.886719 69.277344 26.058594 68.59375 25.589844 68.015625 C 24.257812 66.378906 24.175781 63.726562 24.988281 62.445312 L 25.296875 62.703125 C 24.585938 63.820312 24.679688 66.257812 25.871094 67.722656 C 26.289062 68.234375 27.023438 68.835938 28.1875 68.835938 C 29.070312 68.835938 30.199219 68.488281 31.621094 67.496094 L 31.820312 67.867188 C 30.332031 68.910156 29.128906 69.277344 28.179688 69.277344 "/>
<path fill-rule="nonzero" fill="rgb(89.803922%, 54.117647%, 52.941176%)" fill-opacity="1" d="M 63.421875 24.921875 C 63.347656 24.796875 63.269531 24.675781 63.183594 24.5625 C 63.289062 24.511719 63.390625 24.46875 63.5 24.421875 L 63.632812 24.832031 C 63.5625 24.859375 63.492188 24.890625 63.421875 24.921875 "/>
<path fill-rule="nonzero" fill="rgb(85.098039%, 51.372549%, 50.196078%)" fill-opacity="1" d="M 57.558594 35.71875 C 56.765625 35.71875 55.941406 35.492188 55.257812 35.03125 L 55.449219 34.652344 C 56.082031 35.078125 56.839844 35.289062 57.5625 35.289062 C 58.320312 35.289062 59.042969 35.0625 59.5625 34.605469 C 60.269531 33.980469 60.492188 33.039062 60.203125 31.878906 C 59.40625 28.675781 59.617188 26.199219 63.183594 24.5625 C 63.269531 24.675781 63.347656 24.796875 63.421875 24.921875 C 60.015625 26.445312 59.800781 28.671875 60.570312 31.757812 C 60.902344 33.085938 60.625 34.21875 59.796875 34.949219 C 59.214844 35.460938 58.402344 35.71875 57.558594 35.71875 "/>
<path fill-rule="nonzero" fill="rgb(89.803922%, 54.117647%, 52.941176%)" fill-opacity="1" d="M 55.746094 81.34375 C 55.859375 81.261719 55.976562 81.175781 56.089844 81.085938 L 56.128906 81.226562 C 56 81.273438 55.875 81.3125 55.746094 81.34375 "/>
<path fill-rule="nonzero" fill="rgb(85.098039%, 51.372549%, 50.196078%)" fill-opacity="1" d="M 55.144531 81.410156 C 54.453125 81.410156 53.804688 81.132812 53.28125 80.59375 C 52.242188 79.515625 51.898438 77.621094 52.335938 75.386719 C 52.667969 73.699219 52.382812 72.238281 51.511719 71.160156 C 50.5625 69.984375 48.964844 69.359375 47.003906 69.359375 C 46.484375 69.359375 45.9375 69.402344 45.371094 69.492188 L 45.320312 69.058594 C 45.890625 68.96875 46.441406 68.925781 46.96875 68.925781 C 48.183594 68.925781 49.273438 69.160156 50.175781 69.609375 C 51.75 69.570312 52.523438 68.179688 52.847656 67.351562 C 53.527344 65.59375 53.417969 63.300781 52.597656 62.242188 L 52.886719 61.953125 C 53.808594 63.148438 53.945312 65.597656 53.195312 67.527344 C 52.675781 68.867188 51.832031 69.707031 50.785156 69.960938 C 51.167969 70.21875 51.511719 70.515625 51.792969 70.867188 C 52.753906 72.050781 53.070312 73.648438 52.710938 75.484375 C 52.304688 77.558594 52.605469 79.300781 53.539062 80.269531 C 53.992188 80.734375 54.550781 80.976562 55.148438 80.976562 C 55.429688 80.976562 55.722656 80.921875 56.011719 80.8125 L 56.089844 81.085938 C 55.976562 81.175781 55.859375 81.261719 55.746094 81.34375 C 55.542969 81.390625 55.34375 81.410156 55.144531 81.410156 "/>
<path fill-rule="nonzero" fill="rgb(76.862745%, 46.666667%, 45.098039%)" fill-opacity="1" d="M 82.128906 72.710938 C 81.144531 72.710938 80.164062 72.214844 79.375 71.273438 L 79.652344 70.972656 C 80.445312 71.917969 81.332031 72.265625 82.125 72.265625 C 82.601562 72.265625 83.046875 72.140625 83.417969 71.941406 C 84.652344 71.28125 85.34375 69.847656 85.183594 68.285156 L 85.566406 68.234375 C 85.746094 69.984375 84.964844 71.59375 83.582031 72.335938 C 83.113281 72.585938 82.621094 72.710938 82.128906 72.710938 "/>
<path fill-rule="nonzero" fill="rgb(76.862745%, 46.666667%, 45.098039%)" fill-opacity="1" d="M 82.527344 80.6875 C 81.582031 80.6875 80.433594 80.453125 79.050781 79.863281 L 79.183594 79.453125 C 80.539062 80.03125 81.648438 80.261719 82.558594 80.261719 C 84.726562 80.261719 85.742188 78.953125 86.199219 77.964844 C 87.195312 75.824219 86.730469 72.566406 85.265625 71.390625 L 85.484375 71.035156 C 87.121094 72.34375 87.632812 75.8125 86.539062 78.167969 C 86.125 79.0625 85.027344 80.6875 82.527344 80.6875 "/>
<path fill-rule="nonzero" fill="rgb(76.862745%, 46.666667%, 45.098039%)" fill-opacity="1" d="M 87.332031 72.765625 C 86.574219 69.488281 87.878906 67.921875 88.722656 67.277344 C 89.417969 66.746094 90.289062 66.472656 91.109375 66.472656 C 91.824219 66.472656 92.5 66.679688 92.988281 67.101562 L 92.753906 67.445312 C 92.363281 67.109375 91.757812 66.914062 91.089844 66.914062 C 90.378906 66.914062 89.597656 67.136719 88.933594 67.640625 C 88.175781 68.21875 87.003906 69.640625 87.703125 72.652344 L 87.332031 72.765625 "/>
<path fill-rule="nonzero" fill="rgb(81.176471%, 49.019608%, 47.45098%)" fill-opacity="1" d="M 92.054688 38.328125 C 91.988281 38.304688 91.917969 38.28125 91.847656 38.261719 C 91.917969 37.734375 91.859375 37.25 91.707031 36.828125 C 91.648438 36.351562 91.515625 35.914062 91.3125 35.546875 L 91.636719 35.316406 C 92.082031 36.117188 92.230469 37.21875 92.054688 38.328125 "/>
<path fill-rule="nonzero" fill="rgb(76.862745%, 46.666667%, 45.098039%)" fill-opacity="1" d="M 90.542969 49.167969 L 90.335938 48.800781 C 90.726562 48.519531 91.265625 47.140625 91.226562 45.628906 C 91.195312 44.550781 90.859375 43.074219 89.429688 42.160156 L 89.128906 41.96875 L 89.429688 41.78125 C 90.535156 41.078125 91.308594 39.945312 91.613281 38.585938 C 91.746094 37.988281 91.777344 37.382812 91.707031 36.828125 C 91.859375 37.25 91.917969 37.734375 91.847656 38.261719 C 91.917969 38.28125 91.988281 38.304688 92.054688 38.328125 C 92.035156 38.449219 92.011719 38.574219 91.984375 38.695312 C 91.679688 40.054688 90.941406 41.203125 89.890625 41.972656 C 91.25 42.992188 91.578125 44.496094 91.605469 45.617188 C 91.648438 47.21875 91.078125 48.773438 90.542969 49.171875 "/>
<path fill-rule="nonzero" fill="rgb(81.176471%, 49.019608%, 47.45098%)" fill-opacity="1" d="M 99.1875 48.917969 C 99.117188 48.734375 99.039062 48.5625 98.953125 48.394531 C 98.957031 48.375 98.960938 48.359375 98.964844 48.34375 L 99.335938 48.453125 C 99.296875 48.613281 99.25 48.769531 99.1875 48.917969 "/>
<path fill-rule="nonzero" fill="rgb(76.862745%, 46.666667%, 45.098039%)" fill-opacity="1" d="M 95.8125 51.015625 C 94.484375 51.015625 93.261719 50.34375 92.5625 49.183594 L 92.878906 48.9375 C 93.503906 49.976562 94.609375 50.578125 95.8125 50.578125 C 96.046875 50.578125 96.289062 50.554688 96.527344 50.507812 C 97.761719 50.265625 98.6875 49.457031 98.953125 48.394531 C 99.039062 48.5625 99.117188 48.738281 99.1875 48.917969 C 98.773438 49.941406 97.816406 50.695312 96.59375 50.9375 C 96.332031 50.988281 96.070312 51.015625 95.8125 51.015625 "/>
<path fill-rule="nonzero" fill="rgb(76.862745%, 46.666667%, 45.098039%)" fill-opacity="1" d="M 96.929688 59.351562 L 96.648438 59.054688 C 98.085938 57.289062 98.3125 53.691406 96.449219 51.699219 L 96.710938 51.382812 C 98.730469 53.539062 98.484375 57.4375 96.929688 59.351562 "/>
<path fill-rule="nonzero" fill="rgb(16.862745%, 10.196078%, 2.745098%)" fill-opacity="1" d="M 54.410156 45.34375 C 54.410156 47.015625 53.21875 48.375 51.75 48.375 C 50.277344 48.375 49.085938 47.015625 49.085938 45.34375 C 49.085938 43.667969 50.277344 42.3125 51.75 42.3125 C 53.21875 42.3125 54.410156 43.667969 54.410156 45.34375 "/>
<path fill-rule="nonzero" fill="rgb(12.941176%, 7.843137%, 2.352941%)" fill-opacity="1" d="M 53.691406 45.34375 C 53.691406 46.566406 52.824219 47.554688 51.75 47.554688 C 50.675781 47.554688 49.804688 46.566406 49.804688 45.34375 C 49.804688 44.121094 50.675781 43.128906 51.75 43.128906 C 52.824219 43.128906 53.691406 44.121094 53.691406 45.34375 "/>
<path fill-rule="nonzero" fill="rgb(0%, 0%, 0%)" fill-opacity="1" d="M 52.890625 45.34375 C 52.890625 46.058594 52.378906 46.640625 51.75 46.640625 C 51.121094 46.640625 50.609375 46.058594 50.609375 45.34375 C 50.609375 44.625 51.121094 44.042969 51.75 44.042969 C 52.378906 44.042969 52.890625 44.625 52.890625 45.34375 "/>
<path fill-rule="nonzero" fill="rgb(100%, 100%, 100%)" fill-opacity="1" d="M 54.390625 44.972656 C 54.289062 44.027344 53.808594 43.214844 53.125 42.746094 C 53.199219 42.730469 53.28125 42.71875 53.363281 42.71875 C 54.058594 42.71875 54.621094 43.359375 54.621094 44.148438 C 54.621094 44.457031 54.535156 44.742188 54.390625 44.972656 "/>
<path fill-rule="nonzero" fill="rgb(56.470588%, 53.333333%, 49.411765%)" fill-opacity="1" d="M 53.683594 45.53125 C 53.691406 45.46875 53.691406 45.40625 53.691406 45.34375 C 53.691406 44.375 53.148438 43.550781 52.386719 43.25 C 52.570312 42.996094 52.828125 42.8125 53.125 42.746094 C 53.808594 43.214844 54.289062 44.027344 54.390625 44.972656 C 54.222656 45.246094 53.976562 45.445312 53.6875 45.53125 "/>
<path fill-rule="nonzero" fill="rgb(54.509804%, 51.764706%, 49.019608%)" fill-opacity="1" d="M 53.363281 45.582031 C 53.195312 45.582031 53.03125 45.542969 52.882812 45.472656 C 52.886719 45.429688 52.890625 45.386719 52.890625 45.339844 C 52.890625 44.765625 52.5625 44.28125 52.109375 44.109375 C 52.117188 43.785156 52.21875 43.484375 52.386719 43.25 C 53.148438 43.550781 53.691406 44.375 53.691406 45.339844 C 53.691406 45.40625 53.691406 45.46875 53.683594 45.53125 C 53.582031 45.5625 53.476562 45.582031 53.363281 45.582031 "/>
<path fill-rule="nonzero" fill="rgb(47.843137%, 47.843137%, 47.843137%)" fill-opacity="1" d="M 52.882812 45.472656 C 52.429688 45.257812 52.109375 44.746094 52.109375 44.148438 C 52.109375 44.136719 52.109375 44.121094 52.109375 44.109375 C 52.5625 44.28125 52.890625 44.765625 52.890625 45.34375 C 52.890625 45.386719 52.886719 45.429688 52.882812 45.472656 "/>
<path fill-rule="nonzero" fill="rgb(94.901961%, 94.901961%, 94.901961%)" fill-opacity="1" d="M 89.359375 46.941406 C 89.359375 51.269531 86.28125 54.777344 82.484375 54.777344 C 78.683594 54.777344 75.605469 51.269531 75.605469 46.941406 C 75.605469 42.617188 78.683594 39.109375 82.484375 39.109375 C 86.28125 39.109375 89.359375 42.617188 89.359375 46.941406 "/>
<path fill-rule="nonzero" fill="rgb(100%, 100%, 100%)" fill-opacity="1" d="M 82.484375 39.109375 C 80.941406 39.109375 79.527344 39.695312 78.382812 40.667969 C 77.230469 42.066406 76.519531 43.941406 76.519531 46.011719 C 76.519531 50.335938 79.601562 53.84375 83.398438 53.84375 C 84.9375 53.84375 86.355469 53.261719 87.5 52.289062 C 88.652344 50.886719 89.359375 49.011719 89.359375 46.941406 C 89.359375 42.617188 86.28125 39.109375 82.484375 39.109375 "/>
<path fill-rule="nonzero" fill="rgb(16.862745%, 10.196078%, 2.745098%)" fill-opacity="1" d="M 85.886719 43.300781 C 85.886719 44.972656 84.695312 46.328125 83.226562 46.328125 C 81.753906 46.328125 80.5625 44.972656 80.5625 43.300781 C 80.5625 41.625 81.753906 40.269531 83.226562 40.269531 C 84.695312 40.269531 85.886719 41.625 85.886719 43.300781 "/>
<path fill-rule="nonzero" fill="rgb(12.941176%, 7.843137%, 2.352941%)" fill-opacity="1" d="M 85.019531 43.300781 C 85.019531 44.519531 84.148438 45.511719 83.074219 45.511719 C 82 45.511719 81.132812 44.519531 81.132812 43.300781 C 81.132812 42.078125 82 41.085938 83.074219 41.085938 C 84.148438 41.085938 85.019531 42.078125 85.019531 43.300781 "/>
<path fill-rule="nonzero" fill="rgb(0%, 0%, 0%)" fill-opacity="1" d="M 84.214844 43.300781 C 84.214844 44.015625 83.703125 44.597656 83.074219 44.597656 C 82.445312 44.597656 81.933594 44.015625 81.933594 43.300781 C 81.933594 42.582031 82.445312 42 83.074219 42 C 83.703125 42 84.214844 42.582031 84.214844 43.300781 "/>
<path fill-rule="nonzero" fill="rgb(100%, 100%, 100%)" fill-opacity="1" d="M 85.867188 42.929688 C 85.765625 41.984375 85.28125 41.171875 84.597656 40.703125 C 84.675781 40.6875 84.757812 40.675781 84.839844 40.675781 C 85.535156 40.675781 86.09375 41.316406 86.09375 42.105469 C 86.09375 42.414062 86.011719 42.695312 85.867188 42.929688 "/>
<path fill-rule="nonzero" fill="rgb(56.470588%, 53.333333%, 49.411765%)" fill-opacity="1" d="M 85.007812 43.523438 C 85.015625 43.449219 85.019531 43.375 85.019531 43.300781 C 85.019531 42.378906 84.527344 41.59375 83.828125 41.257812 C 84.011719 40.976562 84.285156 40.773438 84.597656 40.703125 C 85.28125 41.171875 85.765625 41.984375 85.867188 42.929688 C 85.671875 43.246094 85.363281 43.46875 85.007812 43.523438 "/>
<path fill-rule="nonzero" fill="rgb(54.509804%, 51.764706%, 49.019608%)" fill-opacity="1" d="M 84.839844 43.539062 C 84.613281 43.539062 84.398438 43.46875 84.214844 43.347656 C 84.214844 43.332031 84.214844 43.316406 84.214844 43.300781 C 84.214844 42.789062 83.957031 42.347656 83.582031 42.136719 C 83.582031 42.125 83.582031 42.117188 83.582031 42.105469 C 83.582031 41.789062 83.675781 41.496094 83.828125 41.257812 C 84.527344 41.59375 85.019531 42.378906 85.019531 43.300781 C 85.019531 43.375 85.015625 43.449219 85.007812 43.523438 C 84.953125 43.53125 84.898438 43.539062 84.839844 43.539062 "/>
<path fill-rule="nonzero" fill="rgb(47.843137%, 47.843137%, 47.843137%)" fill-opacity="1" d="M 84.214844 43.347656 C 83.84375 43.105469 83.59375 42.65625 83.582031 42.136719 C 83.957031 42.347656 84.214844 42.789062 84.214844 43.300781 C 84.214844 43.316406 84.214844 43.332031 84.214844 43.347656 "/>
<path fill-rule="nonzero" fill="rgb(97.254902%, 77.647059%, 76.862745%)" fill-opacity="1" d="M 71.667969 51.65625 C 71.171875 51.65625 72.136719 50.609375 72.03125 50.023438 C 71.917969 49.390625 70.613281 49.535156 71.398438 49.351562 C 71.539062 49.320312 71.675781 49.304688 71.804688 49.304688 C 72.425781 49.304688 72.941406 49.644531 73.03125 50.164062 C 73.144531 50.796875 72.597656 51.457031 71.808594 51.636719 C 71.75 51.652344 71.707031 51.65625 71.667969 51.65625 "/>
<path fill-rule="nonzero" fill="rgb(18.039216%, 5.882353%, 1.960784%)" fill-opacity="1" d="M 73.113281 58.738281 C 72.8125 59.683594 71.800781 60.566406 70.511719 60.671875 C 69.21875 60.773438 66.207031 61.5 65.894531 64.707031 C 65.578125 67.910156 68.917969 69.015625 70.414062 67.53125 C 71.910156 66.046875 72.191406 63.496094 71.242188 62.238281 C 73.535156 60.914062 73.113281 58.738281 73.113281 58.738281 "/>
<path fill-rule="nonzero" fill="rgb(66.27451%, 40%, 38.823529%)" fill-opacity="1" d="M 66.160156 71.589844 C 65.660156 71.589844 65.195312 71.085938 64.925781 69.421875 C 65.074219 70.015625 65.9375 70.804688 67.035156 70.804688 C 67.214844 70.804688 67.402344 70.785156 67.589844 70.738281 C 67.1875 71.085938 66.65625 71.589844 66.160156 71.589844 "/>
<path fill-rule="nonzero" fill="rgb(66.27451%, 90.588235%, 100%)" fill-opacity="1" d="M 147.664062 5.617188 L 99.4375 5.617188 C 95.894531 5.617188 93.019531 8.886719 93.019531 12.925781 L 93.019531 32.636719 C 93.019531 36.671875 95.894531 39.945312 99.4375 39.945312 L 99.734375 39.945312 L 93.796875 62.632812 L 107.707031 39.945312 L 147.664062 39.945312 C 151.210938 39.945312 154.082031 36.671875 154.082031 32.636719 L 154.082031 12.925781 C 154.082031 8.886719 151.210938 5.617188 147.664062 5.617188 "/>
</svg>
