<?xml version="1.0" encoding="UTF-8"?>
<svg xmlns="http://www.w3.org/2000/svg" xmlns:xlink="http://www.w3.org/1999/xlink" width="160" height="100" viewBox="0 0 160 100">
<path fill-rule="nonzero" fill="rgb(100%, 83.137255%, 83.137255%)" fill-opacity="1" d="M 80.003906 74.761719 C 77.859375 77.957031 78.507812 88.125 78.757812 88.492188 C 79.003906 88.859375 80.503906 91.167969 77.957031 91.796875 C 75.410156 92.425781 65.175781 92.949219 61.382812 90.484375 C 62.433594 86.449219 65.777344 82.730469 75.460938 86.34375 C 74.363281 82.992188 74.761719 76.542969 75.3125 73.714844 C 75.859375 70.882812 80.003906 74.761719 80.003906 74.761719 "/>
<path fill-rule="nonzero" fill="rgb(89.803922%, 89.803922%, 89.803922%)" fill-opacity="1" d="M 64.34375 86.003906 C 65.414062 85.308594 66.8125 84.878906 68.625 84.878906 C 69.738281 84.878906 71.003906 85.039062 72.453125 85.398438 C 71.003906 85.039062 69.738281 84.878906 68.625 84.878906 C 66.8125 84.878906 65.417969 85.308594 64.34375 86.003906 "/>
<path fill-rule="nonzero" fill="rgb(80.784314%, 80.784314%, 80.784314%)" fill-opacity="1" d="M 77.972656 91.792969 C 77.972656 91.792969 77.976562 91.789062 77.976562 91.789062 C 77.976562 91.789062 77.972656 91.792969 77.972656 91.792969 M 77.988281 91.789062 C 77.992188 91.789062 77.992188 91.785156 77.992188 91.785156 C 77.992188 91.785156 77.992188 91.789062 77.988281 91.789062 M 78.007812 91.785156 L 78.007812 91.785156 M 78.023438 91.777344 L 78.023438 91.777344 M 78.039062 91.773438 L 78.039062 91.773438 M 61.382812 90.484375 C 61.835938 88.746094 62.714844 87.066406 64.34375 86.003906 C 62.714844 87.066406 61.835938 88.746094 61.382812 90.484375 M 73.78125 85.769531 C 73.742188 85.757812 73.707031 85.75 73.671875 85.738281 C 73.707031 85.746094 73.742188 85.757812 73.78125 85.769531 M 73.65625 85.734375 C 73.605469 85.71875 73.550781 85.703125 73.5 85.6875 C 73.550781 85.699219 73.605469 85.71875 73.65625 85.734375 M 73.480469 85.679688 C 73.410156 85.660156 73.339844 85.640625 73.269531 85.621094 C 73.339844 85.640625 73.410156 85.660156 73.480469 85.679688 M 73.234375 85.609375 C 73.183594 85.59375 73.132812 85.582031 73.085938 85.566406 C 73.132812 85.578125 73.183594 85.59375 73.234375 85.609375 M 73.074219 85.5625 C 73.019531 85.550781 72.964844 85.535156 72.914062 85.519531 C 72.964844 85.535156 73.019531 85.550781 73.074219 85.5625 M 72.902344 85.515625 L 72.902344 85.515625 M 72.832031 85.496094 C 72.707031 85.464844 72.578125 85.429688 72.453125 85.398438 C 72.578125 85.429688 72.707031 85.464844 72.832031 85.496094 "/>
<path fill-rule="nonzero" fill="rgb(89.803922%, 74.509804%, 74.509804%)" fill-opacity="1" d="M 71.488281 92.320312 C 67.769531 92.320312 63.539062 91.882812 61.382812 90.484375 C 61.835938 88.746094 62.714844 87.0625 64.34375 86.003906 C 65.417969 85.308594 66.8125 84.878906 68.625 84.878906 C 69.738281 84.878906 71.003906 85.039062 72.453125 85.398438 C 72.578125 85.429688 72.703125 85.460938 72.832031 85.496094 C 72.855469 85.503906 72.878906 85.507812 72.902344 85.515625 C 72.90625 85.515625 72.910156 85.515625 72.914062 85.515625 C 72.964844 85.53125 73.019531 85.546875 73.074219 85.5625 C 73.078125 85.5625 73.082031 85.5625 73.085938 85.5625 C 73.132812 85.578125 73.183594 85.589844 73.234375 85.605469 C 73.246094 85.609375 73.257812 85.613281 73.269531 85.617188 C 73.339844 85.636719 73.410156 85.65625 73.480469 85.675781 C 73.488281 85.679688 73.492188 85.679688 73.5 85.683594 C 73.550781 85.699219 73.605469 85.714844 73.65625 85.730469 C 73.660156 85.730469 73.664062 85.730469 73.671875 85.734375 C 73.707031 85.746094 73.742188 85.757812 73.78125 85.769531 C 74.316406 85.933594 74.878906 86.125 75.460938 86.34375 C 74.949219 84.785156 74.761719 82.554688 74.765625 80.335938 C 74.765625 78.253906 74.933594 76.175781 75.152344 74.65625 C 75.476562 74.878906 75.851562 75.066406 76.265625 75.21875 C 75.839844 77.023438 75.0625 83.511719 76.398438 87.089844 C 76.84375 88.28125 76.878906 88.707031 76.640625 88.707031 C 76.082031 88.707031 74.003906 86.308594 72.242188 85.949219 C 71.65625 85.832031 70.960938 85.753906 70.207031 85.753906 C 67.71875 85.753906 64.621094 86.582031 62.957031 89.449219 C 63.660156 90.667969 68.484375 91.554688 72.730469 91.554688 C 75.964844 91.554688 78.863281 91.039062 79.351562 89.765625 C 79.539062 90.523438 79.40625 91.402344 78.039062 91.769531 C 78.035156 91.773438 78.03125 91.773438 78.023438 91.777344 C 78.019531 91.777344 78.011719 91.777344 78.007812 91.78125 C 78 91.78125 77.996094 91.78125 77.992188 91.785156 C 77.992188 91.785156 77.992188 91.785156 77.988281 91.785156 C 77.984375 91.785156 77.980469 91.789062 77.976562 91.789062 C 77.976562 91.789062 77.972656 91.789062 77.972656 91.789062 C 77.96875 91.792969 77.960938 91.792969 77.957031 91.792969 C 76.855469 92.066406 74.320312 92.320312 71.488281 92.320312 "/>
<path fill-rule="nonzero" fill="rgb(100%, 83.137255%, 83.137255%)" fill-opacity="1" d="M 132.722656 76.019531 C 130.570312 79.214844 131.226562 89.382812 131.472656 89.75 C 131.726562 90.117188 133.222656 92.425781 130.671875 93.054688 C 128.125 93.683594 117.894531 94.207031 114.097656 91.742188 C 115.144531 87.707031 118.492188 83.984375 128.175781 87.601562 C 127.078125 84.25 127.480469 77.800781 128.027344 74.972656 C 128.578125 72.140625 132.722656 76.019531 132.722656 76.019531 "/>
<path fill-rule="nonzero" fill="rgb(80.784314%, 80.784314%, 80.784314%)" fill-opacity="1" d="M 130.691406 93.050781 L 130.691406 93.046875 L 130.691406 93.050781 M 130.707031 93.042969 C 130.707031 93.042969 130.707031 93.042969 130.710938 93.042969 C 130.707031 93.042969 130.707031 93.042969 130.707031 93.042969 M 130.71875 93.039062 C 130.726562 93.039062 130.726562 93.039062 130.726562 93.039062 C 130.726562 93.039062 130.726562 93.039062 130.71875 93.039062 M 130.742188 93.035156 L 130.742188 93.035156 M 130.753906 93.03125 L 130.753906 93.03125 M 130.769531 93.027344 C 130.769531 93.027344 130.777344 93.027344 130.777344 93.027344 C 130.777344 93.027344 130.769531 93.027344 130.769531 93.027344 M 130.804688 93.015625 L 130.804688 93.015625 M 130.820312 93.011719 L 130.820312 93.011719 M 130.839844 93.007812 L 130.839844 93.007812 M 130.855469 93.003906 L 130.855469 93.003906 M 130.867188 93 L 130.867188 93 M 130.882812 92.996094 L 130.882812 92.996094 M 130.960938 92.972656 L 130.960938 92.972656 "/>
<path fill-rule="nonzero" fill="rgb(89.803922%, 74.509804%, 74.509804%)" fill-opacity="1" d="M 124.203125 93.578125 C 120.566406 93.578125 116.4375 93.160156 114.246094 91.835938 L 117.507812 91.835938 L 117.492188 91.769531 C 119.441406 92.410156 122.574219 92.8125 125.449219 92.8125 C 128.679688 92.8125 131.578125 92.300781 132.070312 91.023438 C 132.246094 91.746094 132.140625 92.570312 130.957031 92.96875 C 130.9375 92.976562 130.910156 92.988281 130.882812 92.996094 C 130.882812 92.996094 130.875 92.996094 130.867188 93 C 130.859375 93.003906 130.859375 93.003906 130.851562 93.003906 C 130.847656 93.007812 130.847656 93.007812 130.839844 93.007812 C 130.839844 93.011719 130.839844 93.011719 130.839844 93.011719 C 130.832031 93.011719 130.824219 93.011719 130.816406 93.015625 C 130.816406 93.015625 130.8125 93.015625 130.804688 93.019531 C 130.796875 93.019531 130.78125 93.023438 130.777344 93.027344 C 130.777344 93.027344 130.769531 93.027344 130.769531 93.027344 C 130.769531 93.03125 130.761719 93.03125 130.753906 93.03125 C 130.753906 93.03125 130.753906 93.03125 130.753906 93.035156 C 130.746094 93.035156 130.746094 93.035156 130.742188 93.035156 C 130.734375 93.039062 130.726562 93.039062 130.726562 93.039062 C 130.726562 93.039062 130.726562 93.042969 130.71875 93.042969 C 130.71875 93.042969 130.710938 93.042969 130.710938 93.042969 C 130.707031 93.042969 130.707031 93.042969 130.707031 93.042969 C 130.699219 93.046875 130.699219 93.046875 130.691406 93.046875 C 130.683594 93.050781 130.675781 93.050781 130.671875 93.050781 C 129.574219 93.324219 127.035156 93.574219 124.203125 93.574219 M 129.355469 89.964844 C 128.828125 89.96875 126.945312 87.824219 125.25 87.285156 L 125.714844 86.800781 C 126.488281 87.011719 127.304688 87.277344 128.175781 87.601562 C 127.921875 86.8125 127.746094 85.855469 127.632812 84.816406 L 128.238281 84.191406 L 127.535156 83.59375 C 127.5 82.9375 127.480469 82.265625 127.480469 81.59375 C 127.480469 80.226562 127.558594 78.867188 127.660156 77.660156 L 128.714844 77.984375 C 128.335938 80.667969 128.035156 85.457031 129.109375 88.347656 C 129.558594 89.539062 129.59375 89.964844 129.355469 89.964844 M 117 89.058594 L 116.710938 87.5 C 117.808594 86.679688 119.269531 86.152344 121.230469 86.136719 L 121.800781 87.070312 C 120.15625 87.238281 118.386719 87.800781 117 89.058594 "/>
<path fill-rule="nonzero" fill="rgb(100%, 83.137255%, 83.137255%)" fill-opacity="1" d="M 43.9375 46.09375 C 40.53125 45.148438 35.550781 39.488281 35.476562 39.214844 C 37.871094 35.875 37.757812 32.847656 35.925781 32.335938 C 34.089844 31.824219 33.191406 33.082031 33.042969 36.816406 C 30.675781 35.871094 27.800781 42.070312 32.890625 43.421875 C 35.550781 47.980469 45.097656 51.910156 45.097656 51.910156 L 43.9375 46.09375 "/>
<path fill-rule="nonzero" fill="rgb(89.803922%, 74.509804%, 74.509804%)" fill-opacity="1" d="M 42.515625 46.472656 C 39.734375 44.566406 35.578125 41.503906 34.652344 39.609375 C 35.363281 38.507812 36.953125 33.136719 35.925781 32.335938 C 36.804688 32.582031 37.289062 33.40625 37.289062 34.570312 C 37.289062 35.828125 36.71875 37.476562 35.476562 39.214844 C 35.542969 39.464844 39.671875 44.171875 42.980469 45.730469 C 42.8125 45.96875 42.660156 46.214844 42.515625 46.472656 "/>
<path fill-rule="nonzero" fill="rgb(90.196078%, 54.509804%, 52.941176%)" fill-opacity="1" d="M 91.785156 10.347656 C 90.386719 5.421875 80.402344 -2.960938 72.214844 7.519531 C 68.324219 4.375 57.140625 5.421875 58.738281 17.164062 C 56.242188 15.589844 53.546875 17.582031 53.945312 20.410156 C 47.554688 22.296875 46.15625 24.394531 47.957031 30.054688 C 43.261719 31.628906 41.164062 38.230469 44.660156 43.996094 C 39.144531 48.058594 40.066406 60.035156 48.652344 60.769531 C 48.355469 67.164062 54.945312 67.082031 55.941406 64.960938 C 55.992188 75.890625 68.871094 79.113281 74.3125 73.871094 C 76.808594 77.226562 87.589844 76.597656 89.488281 65.90625 C 91.386719 55.210938 98.574219 15.171875 98.574219 15.171875 L 91.785156 10.347656 "/>
<path fill-rule="nonzero" fill="rgb(100%, 60.392157%, 58.823529%)" fill-opacity="1" d="M 106.957031 3.640625 C 101.070312 -2.125 92.382812 -0.34375 92.382812 7.9375 C 89.488281 7.730469 88.890625 14.542969 91.1875 15.277344 C 85.394531 15.066406 86.59375 22.71875 87.292969 23.871094 C 84.796875 23.976562 84.894531 28.167969 87.1875 29.949219 C 89.488281 31.734375 86.691406 36.136719 82.699219 34.039062 C 81.101562 35.085938 80.304688 39.910156 84.695312 41.691406 C 83.898438 48.398438 86.492188 65.589844 87.792969 68.421875 C 89.085938 71.25 94.082031 75.128906 100.472656 71.878906 C 108.160156 83.410156 120.4375 73.976562 120.4375 73.976562 C 135.914062 83.199219 142.503906 70.621094 143.101562 67.894531 C 152.6875 69.363281 153.589844 60.976562 153.089844 58.148438 C 167.664062 49.972656 155.683594 35.507812 148.992188 36.765625 C 156.484375 24.605469 141.90625 19.363281 139.011719 21.566406 C 142.203125 13.597656 132.917969 10.035156 130.523438 13.703125 C 132.019531 5.316406 120.839844 3.957031 119.742188 6.050781 C 120.339844 -0.550781 108.457031 -2.332031 106.957031 3.640625 "/>
<path fill-rule="nonzero" fill="rgb(94.901961%, 57.254902%, 55.686275%)" fill-opacity="1" d="M 108.1875 64.898438 C 107.867188 63.0625 108.238281 61.472656 109.269531 60.289062 C 109.621094 59.890625 110.042969 59.542969 110.527344 59.257812 L 111.167969 63.410156 L 108.1875 64.898438 "/>
<path fill-rule="nonzero" fill="rgb(85.490196%, 51.764706%, 50.196078%)" fill-opacity="1" d="M 71.171875 72.449219 C 66.179688 72.449219 60.734375 68.980469 60.703125 62.257812 C 60.375 62.960938 59.355469 63.414062 58.214844 63.414062 C 56.28125 63.414062 54 62.105469 54.171875 58.496094 C 46.472656 57.839844 45.644531 47.101562 50.589844 43.460938 C 48.78125 40.480469 48.644531 37.246094 49.65625 34.777344 C 50.210938 35.875 51.367188 36.679688 52.828125 36.945312 C 53.15625 37.007812 53.484375 37.035156 53.804688 37.035156 C 55.46875 37.035156 57.003906 36.261719 57.875 34.921875 L 57.480469 34.636719 C 56.695312 35.839844 55.316406 36.53125 53.804688 36.53125 C 53.511719 36.53125 53.210938 36.503906 52.910156 36.449219 C 51.441406 36.183594 50.320312 35.324219 49.929688 34.183594 C 50.707031 32.660156 51.960938 31.492188 53.542969 30.960938 C 51.96875 26.003906 53.128906 24.09375 58.519531 22.433594 C 58.542969 22.5625 58.566406 22.6875 58.597656 22.816406 C 58.980469 24.382812 59.902344 25.710938 61.21875 26.597656 C 59.523438 27.773438 59.109375 29.511719 59.074219 30.804688 C 59.019531 32.652344 59.730469 34.449219 60.40625 34.90625 L 60.664062 34.484375 C 60.175781 34.152344 59.5 32.5625 59.550781 30.820312 C 59.585938 29.574219 60.007812 27.871094 61.800781 26.816406 L 62.175781 26.597656 L 61.800781 26.375 C 60.414062 25.566406 59.445312 24.257812 59.0625 22.691406 C 58.960938 22.269531 58.90625 21.847656 58.902344 21.4375 C 59.070312 19.960938 60.21875 18.902344 61.589844 18.902344 C 62.113281 18.902344 62.667969 19.058594 63.210938 19.402344 C 62.214844 12.070312 66.773438 9.386719 70.816406 9.386719 C 72.574219 9.386719 74.238281 9.898438 75.296875 10.753906 C 77.871094 7.460938 80.640625 6.242188 83.207031 6.242188 C 85.996094 6.242188 88.546875 7.679688 90.335938 9.445312 C 89.402344 11.441406 89.621094 14.773438 91.1875 15.277344 C 91.109375 15.273438 91.035156 15.273438 90.957031 15.273438 C 85.425781 15.273438 86.601562 22.734375 87.292969 23.871094 C 84.796875 23.976562 84.894531 28.167969 87.1875 29.949219 C 89.066406 31.402344 87.554688 34.59375 84.773438 34.59375 C 84.140625 34.59375 83.441406 34.429688 82.699219 34.039062 C 81.101562 35.085938 80.304688 39.910156 84.695312 41.691406 C 83.898438 48.398438 86.492188 65.589844 87.792969 68.421875 C 87.863281 68.582031 87.949219 68.746094 88.046875 68.914062 C 86.113281 70.996094 83.550781 71.859375 81.351562 71.859375 C 79.511719 71.859375 77.925781 71.253906 77.175781 70.246094 C 75.644531 71.722656 73.453125 72.449219 71.171875 72.449219 M 66.738281 60.144531 C 64.691406 61.65625 64.050781 65.660156 65.417969 68.378906 C 65.933594 69.40625 67.3125 71.285156 70.441406 71.285156 C 71.625 71.285156 73.0625 71.015625 74.796875 70.332031 L 74.628906 69.863281 C 72.929688 70.53125 71.539062 70.796875 70.402344 70.796875 C 67.6875 70.796875 66.414062 69.28125 65.839844 68.144531 C 64.597656 65.671875 65.175781 61.914062 67.011719 60.554688 L 66.738281 60.144531 M 59.722656 55.386719 C 60.613281 55.386719 61.589844 55.640625 62.417969 56.226562 C 63.371094 56.894531 64.835938 58.535156 63.960938 62.011719 L 64.421875 62.140625 C 65.375 58.359375 63.742188 56.550781 62.683594 55.808594 C 61.808594 55.191406 60.71875 54.878906 59.695312 54.878906 C 58.800781 54.878906 57.953125 55.117188 57.34375 55.601562 L 57.632812 56.003906 C 58.125 55.613281 58.886719 55.386719 59.722656 55.386719 M 66.636719 56.914062 C 66.414062 58.933594 67.386719 60.789062 69.121094 61.644531 C 69.710938 61.933594 70.324219 62.074219 70.9375 62.074219 C 72.171875 62.074219 73.398438 61.503906 74.386719 60.417969 L 74.039062 60.070312 C 73.046875 61.164062 71.9375 61.566406 70.945312 61.566406 C 70.347656 61.566406 69.792969 61.417969 69.328125 61.191406 C 67.78125 60.425781 66.914062 58.773438 67.113281 56.972656 L 66.636719 56.914062 M 52.683594 37.457031 C 50.152344 39.949219 50.457031 44.449219 52.410156 46.65625 L 52.761719 46.316406 C 50.960938 44.277344 50.675781 40.125 53.011719 37.824219 L 52.683594 37.457031 M 61.886719 32.449219 C 61.941406 37.390625 65.777344 41.375 70.496094 41.375 C 75.25 41.375 79.105469 37.328125 79.105469 32.335938 C 79.105469 27.375 75.300781 23.347656 70.585938 23.296875 C 70.570312 23.292969 70.558594 23.292969 70.542969 23.292969 C 70.542969 23.292969 70.539062 23.292969 70.535156 23.292969 C 70.523438 23.292969 70.507812 23.292969 70.496094 23.292969 C 65.738281 23.292969 61.882812 27.34375 61.882812 32.335938 C 61.882812 32.355469 61.886719 32.371094 61.886719 32.390625 C 61.886719 32.410156 61.886719 32.429688 61.886719 32.445312 L 61.886719 32.449219 "/>
<path fill-rule="nonzero" fill="rgb(94.901961%, 57.254902%, 55.686275%)" fill-opacity="1" d="M 109.425781 73.597656 C 109.179688 73.597656 108.925781 73.589844 108.671875 73.570312 C 109.054688 70.796875 111.324219 68.660156 114.070312 68.660156 C 115.703125 68.660156 117.164062 69.414062 118.167969 70.601562 C 117.035156 71.378906 113.445312 73.597656 109.425781 73.597656 M 133.320312 71.863281 C 134.640625 69.996094 135.308594 68.46875 135.371094 68.328125 C 135.371094 68.320312 135.371094 68.316406 135.371094 68.316406 C 136.25 68.152344 137.050781 67.8125 137.789062 67.328125 C 136.890625 68.84375 135.429688 70.636719 133.320312 71.863281 M 103.570312 71.65625 C 102.539062 70.882812 101.546875 69.839844 100.632812 68.460938 C 99.085938 69.246094 97.632812 69.566406 96.3125 69.566406 C 93.304688 69.566406 90.976562 67.90625 89.804688 66.277344 C 89.324219 67.3125 88.726562 68.1875 88.046875 68.914062 C 87.949219 68.746094 87.863281 68.582031 87.792969 68.421875 C 86.492188 65.589844 83.898438 48.398438 84.695312 41.691406 C 80.304688 39.910156 81.101562 35.085938 82.699219 34.039062 C 83.441406 34.429688 84.140625 34.59375 84.773438 34.59375 C 87.554688 34.59375 89.066406 31.402344 87.1875 29.953125 C 84.894531 28.167969 84.796875 23.976562 87.292969 23.871094 C 86.601562 22.734375 85.425781 15.273438 90.957031 15.273438 C 91.035156 15.273438 91.109375 15.273438 91.1875 15.277344 C 89.621094 14.777344 89.402344 11.445312 90.335938 9.445312 C 91.0625 10.152344 91.660156 10.914062 92.101562 11.65625 C 92.425781 11.328125 92.8125 11.125 93.269531 11.125 C 93.304688 11.125 93.339844 11.125 93.382812 11.128906 C 93.382812 9.433594 93.789062 8.042969 94.476562 6.964844 C 98.628906 8.722656 98.882812 11.28125 97.933594 14.808594 C 97.519531 16.34375 97.863281 17.648438 98.90625 18.492188 C 99.628906 19.085938 100.648438 19.382812 101.703125 19.382812 C 102.699219 19.382812 103.726562 19.117188 104.589844 18.585938 L 104.554688 18.527344 C 104.632812 18.527344 104.703125 18.523438 104.78125 18.511719 C 105.003906 18.476562 105.230469 18.460938 105.460938 18.460938 C 106.3125 18.460938 107.21875 18.683594 108.035156 19.117188 C 108.738281 19.488281 109.839844 20.277344 110.492188 21.753906 C 110.796875 22.4375 111.433594 22.871094 112.132812 22.871094 C 112.238281 22.871094 112.34375 22.859375 112.453125 22.835938 C 113.585938 22.617188 114.253906 21.332031 113.777344 20.226562 C 112.9375 18.308594 111.511719 16.734375 109.65625 15.75 C 108.335938 15.046875 106.875 14.691406 105.460938 14.691406 C 105.101562 14.691406 104.746094 14.714844 104.394531 14.761719 C 103.15625 14.921875 102.417969 16.285156 102.960938 17.460938 L 102.960938 17.464844 C 103.164062 17.894531 103.5 18.222656 103.902344 18.394531 C 103.210938 18.722656 102.441406 18.886719 101.695312 18.886719 C 100.753906 18.886719 99.847656 18.621094 99.191406 18.097656 C 98.308594 17.375 98.035156 16.289062 98.390625 14.949219 C 99.382812 11.28125 99.136719 8.4375 94.773438 6.546875 C 95.933594 5.035156 97.722656 4.261719 99.691406 4.261719 C 101.914062 4.261719 104.378906 5.246094 106.453125 7.277344 C 107.015625 5.035156 109.199219 4.011719 111.519531 4.011719 C 114.746094 4.011719 118.222656 5.992188 117.90625 9.4375 C 118.167969 8.9375 119.074219 8.65625 120.234375 8.65625 C 123.433594 8.65625 128.5625 10.78125 127.578125 16.300781 C 128.15625 15.417969 129.167969 15.003906 130.296875 15.003906 C 133.382812 15.003906 137.285156 18.117188 135.1875 23.347656 C 135.570312 23.054688 136.1875 22.910156 136.9375 22.910156 C 141.234375 22.910156 149.855469 27.695312 144.136719 36.976562 C 144.382812 36.929688 144.640625 36.90625 144.902344 36.90625 C 150.523438 36.90625 158.957031 47.359375 150.265625 54.492188 C 150.257812 53.792969 150.109375 53.050781 149.773438 52.351562 C 149.292969 51.359375 148.238281 50.101562 145.964844 49.738281 C 144.726562 49.542969 143.644531 49.484375 142.6875 49.433594 C 140.257812 49.304688 139.257812 49.191406 139.125 47.605469 C 139.011719 46.308594 139.652344 45.078125 140.269531 43.886719 C 140.859375 42.757812 141.417969 41.691406 141.21875 40.695312 L 140.75 40.800781 C 140.910156 41.613281 140.398438 42.601562 139.855469 43.648438 C 139.230469 44.847656 138.519531 46.203125 138.648438 47.652344 C 138.746094 48.828125 139.28125 49.363281 140.136719 49.632812 C 140.101562 49.632812 140.082031 49.644531 140.082031 49.664062 C 140.164062 53.015625 139.855469 55.550781 139.273438 57.53125 C 139.027344 57.582031 138.765625 57.605469 138.476562 57.605469 C 137.375 57.605469 135.960938 57.207031 134.175781 56.058594 L 133.929688 56.488281 C 135.800781 57.691406 137.296875 58.113281 138.484375 58.113281 L 138.492188 58.113281 C 138.703125 58.113281 138.90625 58.101562 139.105469 58.074219 C 137.894531 61.65625 135.714844 63.316406 133.328125 64.894531 C 130.566406 62.003906 128.183594 60.582031 126.945312 60.582031 C 126.335938 60.582031 125.996094 60.925781 126.03125 61.605469 C 126.03125 61.609375 126.03125 61.609375 126.03125 61.609375 C 126.03125 61.613281 126.03125 61.621094 126.03125 61.625 C 126.03125 61.625 126.03125 61.628906 126.03125 61.628906 C 126.03125 61.636719 126.03125 61.640625 126.03125 61.648438 C 126.054688 61.941406 126.09375 62.230469 126.144531 62.511719 L 122.941406 59.203125 L 119.9375 64.808594 L 116.648438 63.324219 L 117.949219 57.046875 L 110.191406 57.046875 L 110.410156 58.445312 C 108.792969 58.152344 107.96875 56.757812 107.605469 55.894531 C 106.753906 53.863281 106.886719 51.21875 107.914062 49.996094 L 107.554688 49.664062 C 106.402344 51.042969 106.226562 53.867188 107.167969 56.097656 C 107.816406 57.644531 108.878906 58.613281 110.183594 58.902344 C 109.707031 59.203125 109.277344 59.542969 108.917969 59.949219 C 107.789062 61.246094 107.367188 62.964844 107.710938 64.941406 L 104.679688 59.554688 L 99.742188 64.855469 L 104.695312 68.664062 L 103.734375 71.460938 C 103.699219 71.449219 103.667969 71.441406 103.640625 71.433594 L 103.570312 71.65625 M 91.976562 66.058594 C 91.847656 67.460938 92.539062 68.003906 93.484375 68.003906 C 94.996094 68.003906 97.167969 66.632812 97.800781 65.1875 C 96.945312 66.019531 95.433594 66.503906 94.027344 66.503906 C 93.277344 66.503906 92.542969 66.363281 91.976562 66.058594 M 101.292969 34.808594 C 101.351562 39.75 105.1875 43.734375 109.902344 43.734375 C 114.660156 43.734375 118.519531 39.6875 118.519531 34.695312 C 118.519531 29.734375 114.710938 25.707031 110 25.65625 C 109.996094 25.65625 109.996094 25.65625 109.996094 25.65625 C 109.980469 25.65625 109.964844 25.65625 109.953125 25.65625 C 109.953125 25.65625 109.953125 25.65625 109.945312 25.65625 C 109.929688 25.652344 109.917969 25.652344 109.902344 25.652344 C 105.152344 25.652344 101.292969 29.703125 101.292969 34.695312 C 101.292969 34.710938 101.292969 34.730469 101.292969 34.75 C 101.292969 34.769531 101.292969 34.789062 101.292969 34.804688 C 101.292969 34.808594 101.292969 34.808594 101.292969 34.808594 M 133.128906 29.75 C 135.765625 29.75 137.226562 30.628906 137.824219 34.734375 C 138.199219 37.285156 140.121094 39.441406 142.511719 39.980469 C 142.871094 40.0625 143.230469 40.101562 143.566406 40.101562 C 145.042969 40.101562 146.320312 39.363281 147.171875 37.980469 L 146.769531 37.707031 C 146.011719 38.9375 144.875 39.597656 143.558594 39.597656 C 143.25 39.597656 142.933594 39.5625 142.609375 39.488281 C 140.410156 38.992188 138.640625 37.007812 138.296875 34.65625 C 137.65625 30.242188 135.914062 29.25 133.128906 29.25 C 132.988281 29.25 132.855469 29.25 132.714844 29.253906 C 132.457031 29.261719 132.210938 29.265625 131.976562 29.265625 C 129.75 29.265625 128.816406 28.835938 127.648438 26.179688 L 127.214844 26.390625 C 128.484375 29.292969 129.625 29.769531 132.007812 29.769531 C 132.238281 29.769531 132.476562 29.765625 132.730469 29.757812 C 132.863281 29.753906 132.996094 29.753906 133.128906 29.753906 M 83.867188 35.0625 C 83.089844 35.0625 82.445312 35.457031 82.328125 36.054688 C 82.1875 36.785156 82.875 37.546875 83.863281 37.757812 C 83.933594 37.773438 83.992188 37.78125 84.039062 37.78125 C 84.65625 37.78125 83.453125 36.570312 83.582031 35.890625 C 83.722656 35.164062 85.359375 35.328125 84.371094 35.117188 C 84.199219 35.082031 84.03125 35.0625 83.863281 35.0625 M 124.378906 70.976562 L 124.351562 70.914062 C 124.421875 70.90625 124.492188 70.898438 124.5625 70.886719 C 124.5 70.914062 124.4375 70.945312 124.378906 70.976562 M 126.425781 65.886719 L 127.234375 65.441406 C 127.3125 65.582031 127.359375 65.664062 127.359375 65.664062 C 127.347656 65.667969 127.332031 65.671875 127.316406 65.671875 C 127.3125 65.675781 127.3125 65.675781 127.304688 65.675781 C 127.277344 65.683594 127.246094 65.691406 127.21875 65.695312 C 127.210938 65.695312 127.210938 65.699219 127.210938 65.699219 C 126.9375 65.761719 126.679688 65.824219 126.425781 65.886719 M 140.761719 65.042969 C 140.558594 65.042969 140.355469 65.035156 140.144531 65.027344 C 141.695312 62.941406 142.792969 60.125 143.53125 57.238281 C 143.933594 55.671875 144.21875 54.085938 144.417969 52.582031 C 144.425781 52.542969 144.429688 52.5 144.429688 52.460938 C 144.558594 51.425781 144.53125 50.640625 144.394531 50.054688 C 144.867188 50.097656 145.367188 50.152344 145.886719 50.238281 C 147.964844 50.566406 148.914062 51.695312 149.34375 52.582031 C 149.707031 53.335938 149.820312 54.144531 149.777344 54.875 C 149.1875 55.316406 148.535156 55.742188 147.8125 56.148438 C 148.21875 58.484375 147.574219 65.042969 140.761719 65.042969 M 144.191406 50.042969 C 143.40625 50.015625 142.746094 49.96875 142.195312 49.914062 C 142.351562 49.921875 142.503906 49.929688 142.667969 49.9375 C 143.144531 49.960938 143.652344 49.988281 144.191406 50.035156 C 144.191406 50.039062 144.191406 50.039062 144.191406 50.042969 "/>
<path fill-rule="nonzero" fill="rgb(94.901961%, 94.901961%, 94.901961%)" fill-opacity="1" d="M 101.292969 34.695312 C 101.292969 39.6875 105.152344 43.734375 109.902344 43.734375 C 114.660156 43.734375 118.519531 39.6875 118.519531 34.695312 C 118.519531 29.703125 114.660156 25.652344 109.902344 25.652344 C 105.152344 25.652344 101.292969 29.703125 101.292969 34.695312 "/>
<path fill-rule="nonzero" fill="rgb(100%, 100%, 100%)" fill-opacity="1" d="M 109.902344 25.652344 C 111.835938 25.652344 113.605469 26.328125 115.039062 27.449219 C 116.480469 29.066406 117.375 31.230469 117.375 33.621094 C 117.375 38.613281 113.515625 42.660156 108.757812 42.660156 C 106.832031 42.660156 105.0625 41.988281 103.621094 40.863281 C 102.1875 39.246094 101.292969 37.082031 101.292969 34.695312 C 101.292969 29.703125 105.152344 25.652344 109.902344 25.652344 "/>
<path fill-rule="nonzero" fill="rgb(16.862745%, 10.196078%, 2.745098%)" fill-opacity="1" d="M 112.453125 22.835938 C 113.585938 22.617188 114.253906 21.332031 113.777344 20.226562 C 112.9375 18.308594 111.511719 16.734375 109.65625 15.75 C 108 14.867188 106.121094 14.53125 104.394531 14.761719 C 103.15625 14.921875 102.417969 16.28125 102.960938 17.460938 L 102.960938 17.464844 C 103.296875 18.1875 104.027344 18.621094 104.78125 18.511719 C 105.820312 18.359375 107 18.566406 108.035156 19.117188 C 108.738281 19.488281 109.839844 20.277344 110.492188 21.753906 C 110.839844 22.542969 111.640625 22.996094 112.453125 22.835938 "/>
<path fill-rule="nonzero" fill="rgb(16.862745%, 10.196078%, 2.745098%)" fill-opacity="1" d="M 66.753906 22.019531 C 65.617188 21.796875 64.949219 20.511719 65.429688 19.40625 C 66.265625 17.488281 67.695312 15.914062 69.546875 14.929688 C 71.207031 14.046875 73.082031 13.714844 74.8125 13.941406 C 76.046875 14.105469 76.789062 15.464844 76.246094 16.640625 L 76.242188 16.648438 C 75.910156 17.367188 75.179688 17.800781 74.425781 17.691406 C 73.386719 17.539062 72.207031 17.746094 71.171875 18.296875 C 70.472656 18.667969 69.363281 19.457031 68.710938 20.933594 C 68.367188 21.722656 67.566406 22.175781 66.753906 22.019531 "/>
<path fill-rule="nonzero" fill="rgb(100%, 65.490196%, 63.921569%)" fill-opacity="1" d="M 118.148438 51.703125 L 125.777344 51.703125 C 128.042969 51.703125 129.875 49.777344 129.875 47.402344 C 129.875 45.03125 128.042969 43.105469 125.777344 43.105469 L 118.148438 43.105469 C 115.882812 43.105469 114.050781 45.03125 114.050781 47.402344 C 114.050781 49.777344 115.882812 51.703125 118.148438 51.703125 "/>
<path fill-rule="nonzero" fill="rgb(100%, 65.490196%, 63.921569%)" fill-opacity="1" d="M 57.746094 50.554688 L 65.289062 51.84375 C 67.519531 52.222656 69.621094 50.632812 69.984375 48.292969 C 70.347656 45.949219 68.832031 43.742188 66.601562 43.359375 L 59.0625 42.074219 C 56.832031 41.691406 54.726562 43.28125 54.363281 45.625 C 54 47.96875 55.515625 50.175781 57.746094 50.554688 "/>
<path fill-rule="nonzero" fill="rgb(85.098039%, 51.372549%, 50.196078%)" fill-opacity="1" d="M 143.566406 40.101562 C 143.230469 40.101562 142.871094 40.058594 142.511719 39.980469 C 140.121094 39.441406 138.199219 37.285156 137.824219 34.730469 C 137.226562 30.625 135.765625 29.75 133.128906 29.75 C 132.996094 29.75 132.863281 29.753906 132.730469 29.757812 C 132.476562 29.761719 132.238281 29.765625 132.003906 29.765625 C 129.625 29.765625 128.484375 29.289062 127.210938 26.386719 L 127.648438 26.175781 C 128.816406 28.832031 129.75 29.265625 131.976562 29.265625 C 132.210938 29.265625 132.457031 29.261719 132.714844 29.253906 C 132.855469 29.25 132.988281 29.246094 133.128906 29.246094 C 135.914062 29.246094 137.65625 30.238281 138.296875 34.65625 C 138.640625 37.003906 140.410156 38.992188 142.609375 39.484375 C 142.933594 39.558594 143.25 39.59375 143.558594 39.59375 C 144.875 39.59375 146.011719 38.9375 146.769531 37.707031 L 147.171875 37.980469 C 146.320312 39.359375 145.042969 40.101562 143.566406 40.101562 "/>
<path fill-rule="nonzero" fill="rgb(85.098039%, 51.372549%, 50.196078%)" fill-opacity="1" d="M 138.492188 58.113281 L 138.484375 58.113281 C 137.296875 58.113281 135.800781 57.691406 133.929688 56.488281 L 134.175781 56.058594 C 135.960938 57.207031 137.375 57.605469 138.480469 57.605469 C 138.765625 57.605469 139.027344 57.578125 139.273438 57.53125 C 139.214844 57.71875 139.160156 57.898438 139.105469 58.074219 C 138.90625 58.101562 138.703125 58.113281 138.492188 58.113281 "/>
<path fill-rule="nonzero" fill="rgb(89.803922%, 54.117647%, 52.941176%)" fill-opacity="1" d="M 94.476562 6.964844 C 94.351562 6.914062 94.230469 6.863281 94.097656 6.8125 L 94.265625 6.339844 C 94.441406 6.40625 94.609375 6.476562 94.773438 6.546875 C 94.667969 6.679688 94.570312 6.820312 94.476562 6.964844 "/>
<path fill-rule="nonzero" fill="rgb(85.098039%, 51.372549%, 50.196078%)" fill-opacity="1" d="M 101.703125 19.382812 C 100.648438 19.382812 99.628906 19.082031 98.90625 18.492188 C 97.863281 17.648438 97.519531 16.339844 97.933594 14.808594 C 98.882812 11.28125 98.628906 8.722656 94.476562 6.964844 C 94.570312 6.820312 94.667969 6.679688 94.773438 6.546875 C 99.136719 8.4375 99.382812 11.28125 98.390625 14.945312 C 98.035156 16.285156 98.308594 17.375 99.191406 18.09375 C 99.847656 18.621094 100.753906 18.882812 101.695312 18.882812 C 102.441406 18.882812 103.210938 18.722656 103.902344 18.394531 C 104.105469 18.480469 104.324219 18.527344 104.546875 18.527344 L 104.554688 18.527344 L 104.589844 18.585938 C 103.726562 19.117188 102.699219 19.382812 101.703125 19.382812 "/>
<path fill-rule="nonzero" fill="rgb(15.294118%, 9.019608%, 2.352941%)" fill-opacity="1" d="M 104.546875 18.527344 C 104.324219 18.527344 104.105469 18.480469 103.902344 18.394531 C 104.050781 18.320312 104.203125 18.238281 104.34375 18.152344 L 104.554688 18.527344 L 104.546875 18.527344 "/>
<path fill-rule="nonzero" fill="rgb(89.803922%, 54.117647%, 52.941176%)" fill-opacity="1" d="M 103.5625 71.933594 C 103.542969 71.925781 103.515625 71.917969 103.492188 71.910156 L 103.570312 71.65625 C 103.59375 71.671875 103.621094 71.691406 103.640625 71.710938 L 103.5625 71.933594 "/>
<path fill-rule="nonzero" fill="rgb(85.098039%, 51.372549%, 50.196078%)" fill-opacity="1" d="M 103.640625 71.710938 C 103.621094 71.695312 103.59375 71.675781 103.570312 71.65625 L 103.640625 71.429688 C 103.667969 71.441406 103.699219 71.453125 103.734375 71.460938 L 103.640625 71.710938 M 107.796875 65.09375 L 107.710938 64.941406 C 107.367188 62.964844 107.789062 61.242188 108.917969 59.949219 C 109.277344 59.542969 109.707031 59.203125 110.183594 58.902344 C 108.878906 58.613281 107.816406 57.644531 107.167969 56.09375 C 106.226562 53.867188 106.402344 51.039062 107.554688 49.660156 L 107.914062 49.992188 C 106.886719 51.214844 106.753906 53.863281 107.605469 55.894531 C 107.96875 56.753906 108.792969 58.152344 110.410156 58.445312 L 110.527344 59.257812 C 110.042969 59.542969 109.621094 59.890625 109.269531 60.289062 C 108.238281 61.472656 107.867188 63.0625 108.1875 64.898438 L 107.796875 65.09375 "/>
<path fill-rule="nonzero" fill="rgb(76.862745%, 46.666667%, 45.098039%)" fill-opacity="1" d="M 70.9375 62.074219 C 70.324219 62.074219 69.710938 61.933594 69.121094 61.644531 C 67.386719 60.789062 66.414062 58.933594 66.636719 56.914062 L 67.113281 56.972656 C 66.914062 58.773438 67.78125 60.425781 69.328125 61.191406 C 69.792969 61.417969 70.347656 61.566406 70.945312 61.566406 C 71.9375 61.566406 73.046875 61.164062 74.039062 60.070312 L 74.386719 60.417969 C 73.398438 61.503906 72.171875 62.074219 70.9375 62.074219 "/>
<path fill-rule="nonzero" fill="rgb(76.862745%, 46.666667%, 45.098039%)" fill-opacity="1" d="M 70.441406 71.285156 C 67.3125 71.285156 65.933594 69.40625 65.417969 68.378906 C 64.050781 65.660156 64.691406 61.65625 66.738281 60.144531 L 67.011719 60.554688 C 65.175781 61.914062 64.597656 65.671875 65.839844 68.144531 C 66.414062 69.28125 67.6875 70.796875 70.402344 70.796875 C 71.539062 70.796875 72.929688 70.53125 74.628906 69.863281 L 74.796875 70.332031 C 73.0625 71.015625 71.625 71.285156 70.441406 71.285156 "/>
<path fill-rule="nonzero" fill="rgb(76.862745%, 46.666667%, 45.098039%)" fill-opacity="1" d="M 64.421875 62.140625 L 63.960938 62.011719 C 64.835938 58.535156 63.371094 56.894531 62.417969 56.226562 C 61.589844 55.640625 60.613281 55.386719 59.722656 55.386719 C 58.886719 55.386719 58.125 55.613281 57.632812 56.003906 L 57.34375 55.601562 C 57.953125 55.117188 58.800781 54.878906 59.695312 54.878906 C 60.71875 54.878906 61.808594 55.191406 62.683594 55.808594 C 63.742188 56.550781 65.375 58.359375 64.421875 62.140625 "/>
<path fill-rule="nonzero" fill="rgb(81.176471%, 49.019608%, 47.45098%)" fill-opacity="1" d="M 58.519531 22.433594 C 58.289062 21.140625 58.472656 19.847656 59.035156 18.914062 L 59.441406 19.183594 C 59.070312 19.796875 58.886719 20.59375 58.902344 21.4375 C 58.871094 21.714844 58.871094 22.007812 58.914062 22.3125 C 58.78125 22.351562 58.648438 22.394531 58.519531 22.433594 "/>
<path fill-rule="nonzero" fill="rgb(76.862745%, 46.666667%, 45.098039%)" fill-opacity="1" d="M 60.40625 34.90625 C 59.730469 34.449219 59.019531 32.652344 59.074219 30.804688 C 59.109375 29.511719 59.523438 27.773438 61.21875 26.597656 C 59.902344 25.710938 58.980469 24.382812 58.597656 22.816406 C 58.566406 22.6875 58.542969 22.5625 58.519531 22.433594 C 58.648438 22.394531 58.78125 22.351562 58.914062 22.3125 C 58.871094 22.007812 58.871094 21.714844 58.902344 21.4375 C 58.90625 21.847656 58.960938 22.269531 59.0625 22.691406 C 59.445312 24.257812 60.414062 25.566406 61.800781 26.375 L 62.175781 26.597656 L 61.800781 26.816406 C 60.007812 27.871094 59.585938 29.574219 59.550781 30.820312 C 59.5 32.5625 60.175781 34.152344 60.664062 34.484375 L 60.40625 34.90625 "/>
<path fill-rule="nonzero" fill="rgb(81.176471%, 49.019608%, 47.45098%)" fill-opacity="1" d="M 49.65625 34.777344 C 49.542969 34.554688 49.457031 34.324219 49.394531 34.082031 L 49.859375 33.953125 C 49.878906 34.03125 49.902344 34.109375 49.929688 34.183594 C 49.828125 34.375 49.738281 34.574219 49.65625 34.777344 "/>
<path fill-rule="nonzero" fill="rgb(76.862745%, 46.666667%, 45.098039%)" fill-opacity="1" d="M 53.804688 37.035156 C 53.484375 37.035156 53.15625 37.007812 52.828125 36.945312 C 51.367188 36.679688 50.210938 35.875 49.65625 34.777344 C 49.738281 34.574219 49.828125 34.375 49.929688 34.183594 C 50.320312 35.324219 51.441406 36.183594 52.910156 36.449219 C 53.210938 36.503906 53.511719 36.53125 53.804688 36.53125 C 55.316406 36.53125 56.695312 35.839844 57.480469 34.636719 L 57.875 34.921875 C 57.003906 36.261719 55.46875 37.035156 53.804688 37.035156 "/>
<path fill-rule="nonzero" fill="rgb(76.862745%, 46.666667%, 45.098039%)" fill-opacity="1" d="M 52.410156 46.65625 C 50.457031 44.449219 50.152344 39.949219 52.683594 37.457031 L 53.011719 37.824219 C 50.675781 40.125 50.960938 44.277344 52.761719 46.316406 L 52.410156 46.65625 "/>
<path fill-rule="nonzero" fill="rgb(16.862745%, 10.196078%, 2.745098%)" fill-opacity="1" d="M 103.59375 36.671875 C 103.59375 38.605469 105.089844 40.171875 106.929688 40.171875 C 108.773438 40.171875 110.261719 38.605469 110.261719 36.671875 C 110.261719 34.742188 108.773438 33.175781 106.929688 33.175781 C 105.089844 33.175781 103.59375 34.742188 103.59375 36.671875 "/>
<path fill-rule="nonzero" fill="rgb(12.941176%, 7.843137%, 2.352941%)" fill-opacity="1" d="M 104.492188 36.671875 C 104.492188 38.085938 105.582031 39.226562 106.929688 39.226562 C 108.273438 39.226562 109.363281 38.085938 109.363281 36.671875 C 109.363281 35.261719 108.273438 34.117188 106.929688 34.117188 C 105.582031 34.117188 104.492188 35.261719 104.492188 36.671875 "/>
<path fill-rule="nonzero" fill="rgb(0%, 0%, 0%)" fill-opacity="1" d="M 105.496094 36.671875 C 105.496094 37.5 106.136719 38.171875 106.929688 38.171875 C 107.71875 38.171875 108.355469 37.5 108.355469 36.671875 C 108.355469 35.84375 107.71875 35.175781 106.929688 35.175781 C 106.136719 35.175781 105.496094 35.84375 105.496094 36.671875 "/>
<path fill-rule="nonzero" fill="rgb(100%, 100%, 100%)" fill-opacity="1" d="M 103.621094 36.25 C 103.4375 35.980469 103.332031 35.652344 103.332031 35.296875 C 103.332031 34.386719 104.035156 33.648438 104.90625 33.648438 C 105.011719 33.648438 105.109375 33.65625 105.207031 33.675781 C 104.351562 34.21875 103.746094 35.15625 103.621094 36.25 "/>
<path fill-rule="nonzero" fill="rgb(56.470588%, 53.333333%, 49.411765%)" fill-opacity="1" d="M 104.507812 36.894531 C 104.140625 36.792969 103.832031 36.558594 103.621094 36.25 C 103.746094 35.15625 104.351562 34.21875 105.207031 33.675781 C 105.574219 33.753906 105.898438 33.964844 106.128906 34.257812 C 105.179688 34.605469 104.492188 35.554688 104.492188 36.671875 C 104.492188 36.746094 104.5 36.820312 104.507812 36.894531 "/>
<path fill-rule="nonzero" fill="rgb(54.509804%, 51.764706%, 49.019608%)" fill-opacity="1" d="M 104.90625 36.949219 C 104.765625 36.949219 104.632812 36.929688 104.507812 36.894531 C 104.5 36.820312 104.492188 36.746094 104.492188 36.671875 C 104.492188 35.554688 105.179688 34.605469 106.128906 34.257812 C 106.339844 34.53125 106.464844 34.875 106.480469 35.25 C 105.910156 35.449219 105.496094 36.011719 105.496094 36.671875 C 105.496094 36.722656 105.503906 36.773438 105.503906 36.824219 C 105.320312 36.902344 105.117188 36.949219 104.90625 36.949219 "/>
<path fill-rule="nonzero" fill="rgb(47.843137%, 47.843137%, 47.843137%)" fill-opacity="1" d="M 105.503906 36.824219 C 105.503906 36.773438 105.496094 36.722656 105.496094 36.671875 C 105.496094 36.011719 105.910156 35.449219 106.480469 35.25 C 106.480469 35.265625 106.480469 35.28125 106.480469 35.296875 C 106.480469 35.984375 106.082031 36.578125 105.503906 36.824219 "/>
<path fill-rule="nonzero" fill="rgb(94.901961%, 94.901961%, 94.901961%)" fill-opacity="1" d="M 61.882812 32.335938 C 61.882812 37.328125 65.738281 41.375 70.496094 41.375 C 75.25 41.375 79.105469 37.328125 79.105469 32.335938 C 79.105469 27.34375 75.25 23.292969 70.496094 23.292969 C 65.738281 23.292969 61.882812 27.34375 61.882812 32.335938 "/>
<path fill-rule="nonzero" fill="rgb(100%, 100%, 100%)" fill-opacity="1" d="M 70.496094 23.292969 C 72.425781 23.292969 74.199219 23.96875 75.632812 25.089844 C 77.074219 26.707031 77.960938 28.875 77.960938 31.261719 C 77.960938 36.253906 74.105469 40.300781 69.351562 40.300781 C 67.421875 40.300781 65.648438 39.628906 64.214844 38.503906 C 62.773438 36.886719 61.882812 34.722656 61.882812 32.335938 C 61.882812 27.34375 65.738281 23.292969 70.496094 23.292969 "/>
<path fill-rule="nonzero" fill="rgb(16.862745%, 10.196078%, 2.745098%)" fill-opacity="1" d="M 64.183594 34.316406 C 64.183594 36.246094 65.675781 37.8125 67.515625 37.8125 C 69.359375 37.8125 70.847656 36.246094 70.847656 34.316406 C 70.847656 32.382812 69.359375 30.816406 67.515625 30.816406 C 65.675781 30.816406 64.183594 32.382812 64.183594 34.316406 "/>
<path fill-rule="nonzero" fill="rgb(12.941176%, 7.843137%, 2.352941%)" fill-opacity="1" d="M 65.082031 34.316406 C 65.082031 35.726562 66.171875 36.871094 67.515625 36.871094 C 68.863281 36.871094 69.949219 35.726562 69.949219 34.316406 C 69.949219 32.902344 68.863281 31.761719 67.515625 31.761719 C 66.171875 31.761719 65.082031 32.902344 65.082031 34.316406 "/>
<path fill-rule="nonzero" fill="rgb(0%, 0%, 0%)" fill-opacity="1" d="M 66.089844 34.316406 C 66.089844 35.144531 66.730469 35.8125 67.515625 35.8125 C 68.304688 35.8125 68.945312 35.144531 68.945312 34.316406 C 68.945312 33.488281 68.304688 32.816406 67.515625 32.816406 C 66.730469 32.816406 66.089844 33.488281 66.089844 34.316406 "/>
<path fill-rule="nonzero" fill="rgb(100%, 100%, 100%)" fill-opacity="1" d="M 64.210938 33.890625 C 64.027344 33.621094 63.921875 33.292969 63.921875 32.9375 C 63.921875 32.027344 64.625 31.289062 65.496094 31.289062 C 65.597656 31.289062 65.699219 31.296875 65.796875 31.316406 C 64.941406 31.863281 64.335938 32.796875 64.210938 33.890625 "/>
<path fill-rule="nonzero" fill="rgb(56.470588%, 53.333333%, 49.411765%)" fill-opacity="1" d="M 65.09375 34.535156 C 64.730469 34.433594 64.417969 34.203125 64.210938 33.890625 C 64.335938 32.796875 64.941406 31.863281 65.796875 31.316406 C 66.167969 31.394531 66.492188 31.605469 66.71875 31.902344 C 65.765625 32.246094 65.082031 33.199219 65.082031 34.316406 C 65.082031 34.390625 65.085938 34.460938 65.09375 34.535156 "/>
<path fill-rule="nonzero" fill="rgb(54.509804%, 51.764706%, 49.019608%)" fill-opacity="1" d="M 65.496094 34.589844 C 65.355469 34.589844 65.222656 34.570312 65.09375 34.535156 C 65.085938 34.460938 65.082031 34.390625 65.082031 34.316406 C 65.082031 33.199219 65.765625 32.246094 66.71875 31.902344 C 66.929688 32.171875 67.058594 32.515625 67.066406 32.890625 C 66.5 33.089844 66.089844 33.652344 66.089844 34.316406 C 66.089844 34.367188 66.089844 34.414062 66.097656 34.464844 C 65.910156 34.546875 65.707031 34.589844 65.496094 34.589844 "/>
<path fill-rule="nonzero" fill="rgb(47.843137%, 47.843137%, 47.843137%)" fill-opacity="1" d="M 66.097656 34.464844 C 66.089844 34.414062 66.089844 34.367188 66.089844 34.316406 C 66.089844 33.652344 66.5 33.089844 67.066406 32.890625 C 67.066406 32.90625 67.066406 32.921875 67.066406 32.9375 C 67.066406 33.628906 66.667969 34.21875 66.097656 34.464844 "/>
<path fill-rule="nonzero" fill="rgb(97.254902%, 77.647059%, 76.862745%)" fill-opacity="1" d="M 84.039062 37.777344 C 83.992188 37.777344 83.933594 37.769531 83.863281 37.753906 C 82.875 37.542969 82.1875 36.78125 82.328125 36.054688 C 82.445312 35.453125 83.089844 35.0625 83.863281 35.0625 C 84.03125 35.0625 84.199219 35.078125 84.371094 35.117188 C 85.359375 35.328125 83.722656 35.160156 83.582031 35.890625 C 83.453125 36.566406 84.65625 37.777344 84.039062 37.777344 "/>
<path fill-rule="nonzero" fill="rgb(16.862745%, 10.196078%, 2.745098%)" fill-opacity="1" d="M 82.539062 48.226562 C 81.535156 48.984375 81.109375 52.390625 81.109375 52.390625 C 87.023438 54.300781 99.25 51.84375 104.449219 48.636719 C 105.679688 55.941406 100.738281 62.902344 89.429688 62.558594 C 86.699219 62.011719 83.253906 59.761719 84.878906 53.824219 C 83.296875 54.257812 80.882812 53.644531 80.003906 53.074219 C 80.199219 51.230469 81.5625 48.347656 82.539062 48.226562 "/>
<path fill-rule="nonzero" fill="rgb(36.862745%, 7.058824%, 7.058824%)" fill-opacity="1" d="M 104.371094 53.199219 C 98.917969 53.59375 93.085938 56.808594 91.976562 62.492188 C 99.261719 61.949219 103.375 58.035156 104.371094 53.199219 "/>
<path fill-rule="nonzero" fill="rgb(66.27451%, 40%, 38.823529%)" fill-opacity="1" d="M 93.484375 68 C 92.539062 68 91.847656 67.460938 91.976562 66.058594 C 92.542969 66.363281 93.277344 66.503906 94.027344 66.503906 C 95.433594 66.503906 96.945312 66.019531 97.800781 65.1875 C 97.167969 66.632812 94.996094 68 93.484375 68 "/>
<path fill-rule="nonzero" fill="rgb(50.980392%, 50.980392%, 50.980392%)" fill-opacity="1" d="M 114.070312 80.117188 C 111.0625 80.117188 108.617188 77.550781 108.617188 74.390625 C 108.617188 71.226562 111.0625 68.660156 114.070312 68.660156 C 117.085938 68.660156 119.523438 71.226562 119.523438 74.390625 C 119.523438 77.550781 117.085938 80.117188 114.070312 80.117188 M 130.53125 78.542969 L 130.53125 70.054688 L 124.507812 71.253906 L 122.933594 67.816406 L 128.371094 64.804688 L 122.941406 59.203125 L 119.9375 64.804688 L 116.648438 63.320312 L 117.949219 57.046875 L 110.191406 57.046875 L 111.167969 63.410156 L 107.796875 65.09375 L 104.679688 59.550781 L 99.742188 64.851562 L 104.695312 68.660156 L 103.375 72.5 L 97.476562 70.667969 L 97.335938 77.308594 L 103.515625 77.011719 L 104.785156 80.289062 L 99.523438 83.550781 L 104.5 89.09375 L 108.449219 84.132812 L 111.75 85.519531 L 110.640625 91.835938 L 117.507812 91.835938 L 116.355469 85.527344 L 119.917969 83.988281 L 123.222656 89.390625 L 128.238281 84.191406 L 123.453125 80.117188 L 124.691406 76.75 L 130.53125 78.542969 "/>
<path fill-rule="nonzero" fill="rgb(100%, 83.137255%, 83.137255%)" fill-opacity="1" d="M 140.082031 49.660156 C 140.320312 59.71875 137.09375 62.40625 133.328125 64.894531 C 129.179688 60.558594 125.890625 59.519531 126.03125 61.648438 C 126.179688 63.773438 127.359375 65.660156 127.359375 65.660156 C 121.421875 67.050781 120.304688 67.800781 121.195312 69.171875 C 122.089844 70.542969 122.996094 71.140625 124.5625 70.882812 C 122.152344 71.992188 122.601562 74.457031 124.191406 74.808594 C 124.808594 77.453125 128.863281 76.960938 131.492188 74.121094 C 134.121094 71.28125 135.371094 68.316406 135.371094 68.316406 C 140.910156 67.277344 143.550781 59.128906 144.417969 52.582031 C 144.566406 51.484375 144.535156 50.65625 144.394531 50.046875 C 141.332031 49.972656 140.082031 49.511719 140.082031 49.660156 "/>
<path fill-rule="nonzero" fill="rgb(45.882353%, 45.882353%, 45.882353%)" fill-opacity="1" d="M 126.644531 76.546875 C 127.832031 76.546875 129.265625 76.011719 130.53125 75.011719 C 129.265625 76.011719 127.832031 76.546875 126.644531 76.546875 M 122.945312 73.613281 C 122.757812 72.941406 122.941406 72.121094 123.65625 71.472656 C 122.945312 72.121094 122.757812 72.941406 122.945312 73.613281 "/>
<path fill-rule="nonzero" fill="rgb(85.098039%, 51.372549%, 50.196078%)" fill-opacity="1" d="M 143.53125 57.234375 C 143.933594 55.671875 144.21875 54.082031 144.417969 52.582031 C 144.425781 52.539062 144.429688 52.5 144.429688 52.457031 C 144.429688 52.5 144.425781 52.539062 144.417969 52.582031 C 144.21875 54.082031 143.933594 55.671875 143.53125 57.234375 M 144.289062 50.042969 C 144.261719 50.042969 144.226562 50.039062 144.191406 50.039062 C 144.191406 50.039062 144.191406 50.035156 144.191406 50.035156 C 144.226562 50.035156 144.261719 50.039062 144.289062 50.042969 "/>
<path fill-rule="nonzero" fill="rgb(89.803922%, 74.509804%, 74.509804%)" fill-opacity="1" d="M 126.644531 76.546875 C 125.429688 76.546875 124.464844 75.988281 124.191406 74.808594 C 123.558594 74.667969 123.117188 74.195312 122.945312 73.613281 C 122.757812 72.941406 122.945312 72.121094 123.65625 71.472656 C 123.894531 71.253906 124.199219 71.050781 124.5625 70.882812 C 123.296875 73.191406 124.023438 74.074219 125.324219 74.074219 C 126.410156 74.074219 127.902344 73.449219 128.949219 72.523438 C 128.230469 74.003906 126.65625 74.550781 125.632812 75.300781 C 125.933594 75.53125 126.300781 75.636719 126.707031 75.636719 C 129.117188 75.636719 133.019531 71.957031 134.457031 68.199219 C 134.324219 68.054688 135.710938 67.695312 138.886719 65.253906 C 141.796875 63.015625 143.664062 54.523438 144.191406 50.039062 C 144.226562 50.039062 144.261719 50.042969 144.289062 50.042969 C 144.324219 50.042969 144.355469 50.046875 144.382812 50.050781 C 144.523438 50.636719 144.566406 51.414062 144.429688 52.457031 C 144.429688 52.5 144.421875 52.539062 144.417969 52.582031 C 144.21875 54.082031 143.933594 55.671875 143.53125 57.234375 C 142.1875 62.492188 139.644531 67.515625 135.371094 68.316406 C 135.371094 68.316406 135.371094 68.320312 135.371094 68.328125 C 135.289062 68.523438 134.03125 71.382812 131.492188 74.121094 C 131.191406 74.449219 130.867188 74.746094 130.53125 75.011719 C 129.265625 76.011719 127.832031 76.546875 126.644531 76.546875 "/>
<path fill-rule="nonzero" fill="rgb(85.098039%, 51.372549%, 50.196078%)" fill-opacity="1" d="M 127.210938 65.695312 C 127.210938 65.695312 127.210938 65.695312 127.21875 65.695312 C 127.210938 65.695312 127.210938 65.695312 127.210938 65.695312 M 127.304688 65.671875 C 127.3125 65.671875 127.3125 65.671875 127.320312 65.671875 C 127.3125 65.671875 127.3125 65.671875 127.304688 65.671875 "/>
<path fill-rule="nonzero" fill="rgb(89.803922%, 74.509804%, 74.509804%)" fill-opacity="1" d="M 121 68.109375 C 121.359375 67.324219 123.09375 66.664062 127.210938 65.695312 C 127.210938 65.695312 127.210938 65.695312 127.21875 65.695312 C 127.246094 65.6875 127.277344 65.679688 127.304688 65.671875 C 127.3125 65.671875 127.3125 65.671875 127.316406 65.671875 C 127.332031 65.667969 127.347656 65.664062 127.359375 65.660156 C 127.359375 65.660156 127.3125 65.582031 127.234375 65.4375 C 126.972656 64.976562 126.40625 63.84375 126.144531 62.511719 C 126.09375 62.230469 126.054688 61.941406 126.03125 61.648438 C 126.03125 61.640625 126.03125 61.636719 126.03125 61.628906 C 126.03125 61.628906 126.03125 61.628906 126.03125 61.625 C 126.03125 61.621094 126.03125 61.613281 126.03125 61.609375 C 126.03125 61.609375 126.03125 61.609375 126.03125 61.605469 C 126.011719 61.199219 126.128906 60.921875 126.347656 60.753906 C 125.703125 61.867188 127.632812 65.144531 128.34375 65.628906 C 127.066406 66.074219 121 68.109375 121 68.109375 "/>
<path fill-rule="nonzero" fill="rgb(89.803922%, 54.117647%, 52.941176%)" fill-opacity="1" d="M 149.808594 56.664062 L 149.378906 56.433594 C 149.589844 56.015625 149.738281 55.472656 149.777344 54.875 C 149.941406 54.746094 150.109375 54.621094 150.265625 54.492188 C 150.273438 55.324219 150.089844 56.097656 149.808594 56.664062 "/>
<path fill-rule="nonzero" fill="rgb(85.098039%, 51.372549%, 50.196078%)" fill-opacity="1" d="M 149.777344 54.875 C 149.820312 54.144531 149.707031 53.335938 149.34375 52.582031 C 148.914062 51.691406 147.964844 50.566406 145.886719 50.234375 C 145.367188 50.152344 144.867188 50.09375 144.394531 50.050781 C 144.394531 50.050781 144.394531 50.046875 144.394531 50.046875 C 144.386719 50.046875 144.382812 50.046875 144.382812 50.046875 C 144.359375 49.964844 144.320312 49.925781 144.277344 49.925781 C 144.234375 49.925781 144.199219 49.964844 144.191406 50.035156 C 143.652344 49.988281 143.144531 49.960938 142.667969 49.9375 C 142.503906 49.929688 142.351562 49.921875 142.195312 49.910156 C 141 49.789062 140.363281 49.632812 140.160156 49.632812 C 140.152344 49.632812 140.144531 49.632812 140.136719 49.632812 C 139.28125 49.363281 138.746094 48.828125 138.648438 47.652344 C 138.519531 46.203125 139.230469 44.847656 139.855469 43.648438 C 140.398438 42.601562 140.910156 41.613281 140.75 40.800781 L 141.21875 40.695312 C 141.417969 41.691406 140.859375 42.757812 140.269531 43.886719 C 139.652344 45.078125 139.011719 46.3125 139.125 47.605469 C 139.257812 49.191406 140.257812 49.304688 142.6875 49.433594 C 143.644531 49.484375 144.726562 49.542969 145.964844 49.738281 C 148.242188 50.101562 149.292969 51.359375 149.773438 52.351562 C 150.109375 53.050781 150.257812 53.792969 150.265625 54.492188 C 150.109375 54.621094 149.941406 54.75 149.78125 54.875 "/>
<path fill-rule="nonzero" fill="rgb(89.803922%, 74.509804%, 74.509804%)" fill-opacity="1" d="M 144.394531 50.050781 C 144.386719 50.050781 144.382812 50.050781 144.382812 50.050781 C 144.382812 50.050781 144.382812 50.046875 144.382812 50.046875 C 144.382812 50.046875 144.390625 50.046875 144.394531 50.046875 C 144.394531 50.046875 144.394531 50.050781 144.394531 50.050781 M 142.195312 49.910156 C 141.394531 49.867188 140.699219 49.804688 140.136719 49.632812 C 140.144531 49.632812 140.152344 49.632812 140.15625 49.632812 C 140.363281 49.632812 141 49.789062 142.195312 49.910156 "/>
<path fill-rule="nonzero" fill="rgb(76.470588%, 46.27451%, 45.098039%)" fill-opacity="1" d="M 144.382812 50.046875 C 144.355469 50.042969 144.320312 50.042969 144.289062 50.042969 C 144.261719 50.039062 144.226562 50.035156 144.191406 50.035156 C 144.199219 49.964844 144.234375 49.925781 144.277344 49.925781 C 144.320312 49.925781 144.359375 49.964844 144.382812 50.046875 "/>
<path fill-rule="nonzero" fill="rgb(80.784314%, 67.058824%, 67.058824%)" fill-opacity="1" d="M 144.382812 50.050781 C 144.355469 50.046875 144.324219 50.046875 144.289062 50.042969 C 144.320312 50.042969 144.355469 50.042969 144.382812 50.042969 C 144.382812 50.042969 144.382812 50.046875 144.382812 50.046875 "/>
<path fill-rule="nonzero" fill="rgb(50.980392%, 50.980392%, 50.980392%)" fill-opacity="1" d="M 15.339844 39.472656 C 12.445312 38.59375 10.773438 35.417969 11.609375 32.378906 C 12.445312 29.339844 15.46875 27.589844 18.363281 28.464844 C 21.257812 29.34375 22.925781 32.519531 22.09375 35.558594 C 21.257812 38.59375 18.234375 40.347656 15.339844 39.472656 M 31.566406 42.75 L 33.808594 34.59375 L 27.703125 33.992188 L 27.101562 30.234375 L 33.121094 28.925781 L 29.378906 21.957031 L 25.019531 26.46875 L 22.25 24.085938 L 25.160156 18.4375 L 17.703125 16.175781 L 16.960938 22.574219 L 13.277344 23.210938 L 11.75 16.980469 L 5.601562 20.636719 L 9.351562 25.734375 L 7.070312 29.039062 L 1.894531 25.5625 L 0 31.898438 L 6.011719 33.410156 L 6.375 36.9375 L 0.453125 38.535156 L 3.773438 45.3125 L 8.878906 41.695312 L 11.683594 43.988281 L 8.945312 49.730469 L 15.539062 51.730469 L 16.105469 45.332031 L 19.933594 44.890625 L 21.675781 51.042969 L 27.871094 47.507812 L 24.351562 42.203125 L 26.425781 39.324219 L 31.566406 42.75 "/>
<path fill-rule="nonzero" fill="rgb(74.509804%, 74.509804%, 74.509804%)" fill-opacity="1" d="M 9.722656 36.503906 C 7.8125 34.050781 8.625 30.042969 11.535156 27.550781 C 13.003906 26.289062 14.726562 25.660156 16.320312 25.660156 C 17.878906 25.660156 19.308594 26.265625 20.253906 27.476562 C 19.621094 26.902344 18.652344 26.609375 17.546875 26.609375 C 13.921875 26.609375 8.871094 29.769531 9.722656 36.503906 "/>
</svg>
