<?xml version="1.0" encoding="UTF-8"?>
<svg xmlns="http://www.w3.org/2000/svg" xmlns:xlink="http://www.w3.org/1999/xlink" width="160" height="100" viewBox="0 0 160 100">
<path fill-rule="nonzero" fill="rgb(98.039216%, 81.568627%, 18.431373%)" fill-opacity="1" d="M 150.144531 19.695312 C 150.144531 15.324219 144.691406 11.785156 137.992188 11.847656 C 131.617188 11.90625 126.253906 15.441406 126.195312 19.625 C 126.171875 21.699219 127.371094 23.589844 129.351562 25 C 132.109375 26.964844 133.867188 29.4375 133.867188 32.109375 L 133.867188 33.367188 L 143.074219 33.367188 L 143.074219 31.75 C 143.074219 29.261719 144.414062 26.832031 146.988281 25.003906 C 148.945312 23.609375 150.144531 21.746094 150.144531 19.695312 "/>
<path fill-rule="nonzero" fill="rgb(98.823529%, 90.196078%, 57.647059%)" fill-opacity="1" d="M 134.246094 20.875 C 134.066406 20.875 133.816406 20.785156 133.453125 20.574219 C 131.285156 19.320312 131.074219 17.152344 132.992188 15.726562 C 134.027344 14.957031 135.46875 14.566406 136.925781 14.566406 C 138.152344 14.566406 139.382812 14.847656 140.386719 15.421875 C 142.554688 16.675781 137.765625 15.960938 135.847656 17.382812 C 134.253906 18.570312 135.167969 20.875 134.246094 20.875 "/>
<path fill-rule="nonzero" fill="rgb(83.137255%, 69.019608%, 69.019608%)" fill-opacity="1" d="M 123.492188 58.269531 C 126.941406 57.105469 135.234375 50.414062 135.378906 47.523438 C 135.523438 44.632812 133.9375 40.332031 135.613281 40.109375 C 137.296875 39.890625 140.410156 40.519531 140.363281 43.441406 C 140.3125 46.363281 138.777344 47.714844 139.019531 48.277344 C 139.253906 48.84375 141.84375 50.132812 141.84375 50.226562 C 141.84375 50.320312 141.84375 52.300781 141.84375 52.644531 C 141.84375 52.992188 141.84375 54.152344 141.84375 54.46875 C 141.84375 54.78125 142.28125 55.503906 141.609375 55.914062 C 140.9375 56.320312 136.050781 56.507812 134.707031 55.347656 C 132.457031 57.921875 128.144531 64.707031 126.132812 65.054688 C 124.117188 65.398438 123.492188 58.269531 123.492188 58.269531 "/>
<path fill-rule="nonzero" fill="rgb(92.941176%, 77.254902%, 77.254902%)" fill-opacity="1" d="M 142.117188 46.949219 C 141.15625 47 139.546875 47.585938 140.070312 48.371094 C 140.597656 49.15625 141.609375 50.507812 140.886719 51.261719 C 140.167969 52.015625 139.066406 53.117188 140.460938 53.554688 C 141.84375 53.996094 138.929688 55.976562 141.035156 56.382812 C 143.136719 56.792969 146.253906 53.554688 146.007812 50.792969 C 145.773438 48.027344 142.910156 46.90625 142.117188 46.949219 "/>
<path fill-rule="nonzero" fill="rgb(100%, 83.137255%, 83.137255%)" fill-opacity="1" d="M 136.65625 49.964844 C 137.328125 48.875 140.023438 47.640625 141.980469 48.269531 C 143.9375 48.894531 143.492188 50.277344 140.394531 50.824219 C 137.296875 51.367188 137.480469 51.914062 137.480469 51.914062 C 137.480469 51.914062 139.941406 53.460938 139.117188 54.570312 C 138.28125 55.683594 134.707031 55.347656 134.707031 55.347656 C 134.707031 55.347656 129.722656 63.515625 125.636719 65.066406 C 125.347656 64.878906 123.65625 58.832031 123.492188 58.269531 C 125.984375 56.875 130.226562 54.9375 134.40625 49.648438 C 135.378906 49.691406 136.65625 49.964844 136.65625 49.964844 "/>
<path fill-rule="nonzero" fill="rgb(89.803922%, 89.803922%, 89.803922%)" fill-opacity="1" d="M 77.636719 100 C 50.675781 100 28.820312 97.484375 28.820312 94.382812 C 28.820312 92.894531 33.855469 91.539062 42.078125 90.535156 C 41.203125 91.140625 40.664062 91.890625 40.34375 92.660156 C 42.460938 93.519531 46.617188 93.789062 50.277344 93.789062 C 53.058594 93.789062 55.550781 93.632812 56.628906 93.464844 C 56.640625 93.464844 56.648438 93.460938 56.65625 93.460938 C 56.660156 93.460938 56.660156 93.460938 56.660156 93.460938 C 56.667969 93.460938 56.679688 93.457031 56.6875 93.457031 C 56.6875 93.457031 56.6875 93.457031 56.691406 93.457031 C 56.699219 93.453125 56.707031 93.453125 56.714844 93.453125 C 56.71875 93.453125 56.71875 93.453125 56.71875 93.453125 C 56.746094 93.445312 56.773438 93.441406 56.796875 93.4375 C 56.800781 93.4375 56.800781 93.4375 56.800781 93.4375 C 57.144531 93.371094 57.402344 93.285156 57.59375 93.1875 C 57.59375 93.1875 57.59375 93.183594 57.597656 93.183594 C 57.601562 93.183594 57.605469 93.179688 57.609375 93.179688 C 57.609375 93.175781 57.609375 93.175781 57.609375 93.175781 C 57.613281 93.175781 57.621094 93.171875 57.625 93.171875 C 57.625 93.167969 57.625 93.167969 57.625 93.167969 C 57.628906 93.167969 57.632812 93.164062 57.636719 93.164062 C 57.636719 93.164062 57.640625 93.164062 57.640625 93.160156 C 57.644531 93.160156 57.648438 93.160156 57.648438 93.15625 C 57.652344 93.15625 57.652344 93.152344 57.65625 93.152344 C 57.660156 93.152344 57.660156 93.152344 57.664062 93.148438 C 57.664062 93.148438 57.667969 93.144531 57.671875 93.144531 C 57.671875 93.144531 57.671875 93.144531 57.675781 93.144531 C 57.679688 93.140625 57.683594 93.136719 57.6875 93.136719 C 57.6875 93.136719 57.6875 93.132812 57.6875 93.132812 C 58.597656 92.566406 57.613281 91.621094 57.414062 91.441406 C 57.324219 91.359375 57.183594 90.472656 57.140625 89.285156 C 63.375 88.953125 70.316406 88.769531 77.636719 88.769531 C 83.234375 88.769531 88.609375 88.878906 93.617188 89.078125 C 93.558594 89.972656 93.445312 90.597656 93.375 90.667969 C 93.148438 90.878906 91.84375 92.132812 93.722656 92.605469 C 93.722656 92.609375 93.722656 92.609375 93.730469 92.609375 C 93.738281 92.609375 93.746094 92.613281 93.753906 92.617188 C 93.761719 92.617188 93.777344 92.621094 93.792969 92.625 C 93.792969 92.625 93.792969 92.625 93.800781 92.625 C 93.800781 92.628906 93.808594 92.628906 93.820312 92.628906 C 93.820312 92.628906 93.820312 92.628906 93.828125 92.628906 C 93.835938 92.632812 93.835938 92.632812 93.84375 92.632812 C 93.84375 92.632812 93.851562 92.636719 93.851562 92.636719 C 93.859375 92.636719 93.859375 92.636719 93.859375 92.636719 C 93.867188 92.640625 93.875 92.640625 93.882812 92.640625 C 93.882812 92.640625 93.882812 92.640625 93.890625 92.640625 C 93.898438 92.644531 93.898438 92.644531 93.90625 92.648438 C 93.90625 92.648438 93.914062 92.648438 93.914062 92.648438 C 93.921875 92.648438 93.921875 92.648438 93.929688 92.652344 C 93.929688 92.652344 93.941406 92.652344 93.941406 92.652344 C 93.949219 92.652344 93.957031 92.652344 93.957031 92.65625 C 93.964844 92.65625 93.964844 92.65625 93.964844 92.65625 C 93.972656 92.660156 93.980469 92.660156 93.988281 92.660156 C 93.988281 92.660156 93.988281 92.664062 93.996094 92.664062 C 94.003906 92.664062 94.003906 92.664062 94.011719 92.667969 C 94.019531 92.667969 94.019531 92.667969 94.019531 92.667969 C 94.027344 92.667969 94.035156 92.667969 94.042969 92.671875 C 94.054688 92.671875 94.0625 92.671875 94.070312 92.675781 C 94.070312 92.675781 94.070312 92.675781 94.078125 92.675781 C 94.085938 92.675781 94.09375 92.679688 94.101562 92.679688 C 94.109375 92.683594 94.117188 92.683594 94.125 92.683594 C 94.132812 92.683594 94.132812 92.683594 94.132812 92.683594 C 94.140625 92.6875 94.148438 92.6875 94.15625 92.6875 C 94.191406 92.695312 94.230469 92.699219 94.269531 92.703125 C 94.289062 92.707031 94.296875 92.710938 94.3125 92.710938 C 94.328125 92.710938 94.335938 92.714844 94.34375 92.714844 C 94.34375 92.714844 94.34375 92.714844 94.351562 92.714844 C 94.402344 92.722656 94.457031 92.726562 94.515625 92.734375 C 94.53125 92.738281 94.539062 92.738281 94.554688 92.738281 C 94.554688 92.742188 94.5625 92.742188 94.570312 92.742188 C 95.792969 92.886719 98.042969 93.007812 100.515625 93.007812 C 104.175781 93.007812 108.332031 92.742188 110.445312 91.882812 C 110.183594 91.246094 109.773438 90.625 109.140625 90.085938 C 119.730469 91.117188 126.453125 92.65625 126.453125 94.378906 C 126.453125 97.480469 104.59375 99.992188 77.636719 99.992188 M 54.175781 90.121094 C 53.3125 89.917969 52.496094 89.753906 51.730469 89.625 C 52.441406 89.570312 53.167969 89.523438 53.90625 89.476562 C 53.984375 89.707031 54.074219 89.921875 54.175781 90.121094 M 96.609375 89.347656 C 96.632812 89.304688 96.660156 89.257812 96.683594 89.210938 C 96.828125 89.21875 96.972656 89.226562 97.121094 89.234375 C 96.949219 89.269531 96.789062 89.308594 96.609375 89.347656 "/>
<path fill-rule="nonzero" fill="rgb(100%, 83.137255%, 83.137255%)" fill-opacity="1" d="M 92.152344 82.242188 C 94.253906 84.203125 93.617188 90.441406 93.375 90.667969 C 93.128906 90.890625 91.660156 92.308594 94.160156 92.695312 C 96.660156 93.078125 106.714844 93.402344 110.445312 91.890625 C 109.417969 89.414062 106.132812 87.128906 96.609375 89.347656 C 97.695312 87.289062 97.296875 83.332031 96.761719 81.597656 C 96.222656 79.859375 92.152344 82.242188 92.152344 82.242188 "/>
<path fill-rule="nonzero" fill="rgb(89.803922%, 89.803922%, 89.803922%)" fill-opacity="1" d="M 97.175781 89.21875 C 97.921875 89.054688 98.625 88.921875 99.296875 88.8125 C 98.625 88.921875 97.921875 89.054688 97.175781 89.21875 M 96.683594 89.210938 C 97.574219 87.332031 97.355469 84.054688 96.917969 82.175781 C 97.355469 84.054688 97.574219 87.332031 96.683594 89.210938 M 99.359375 88.800781 C 100.023438 88.691406 100.648438 88.613281 101.238281 88.554688 C 100.648438 88.613281 100.023438 88.691406 99.359375 88.800781 "/>
<path fill-rule="nonzero" fill="rgb(80.784314%, 80.784314%, 80.784314%)" fill-opacity="1" d="M 100.515625 93.015625 C 98.042969 93.015625 95.792969 92.894531 94.570312 92.75 C 95.792969 92.894531 98.042969 93.015625 100.515625 93.015625 C 104.175781 93.015625 108.332031 92.75 110.445312 91.890625 C 108.332031 92.75 104.175781 93.015625 100.515625 93.015625 M 94.554688 92.746094 C 94.539062 92.746094 94.53125 92.742188 94.515625 92.742188 C 94.53125 92.742188 94.539062 92.746094 94.554688 92.746094 M 94.515625 92.742188 C 94.457031 92.734375 94.402344 92.726562 94.351562 92.722656 C 94.402344 92.730469 94.457031 92.734375 94.515625 92.742188 M 94.34375 92.71875 C 94.335938 92.71875 94.328125 92.71875 94.3125 92.71875 C 94.328125 92.71875 94.335938 92.71875 94.34375 92.71875 M 94.273438 92.710938 C 94.230469 92.703125 94.191406 92.699219 94.160156 92.691406 C 94.148438 92.691406 94.140625 92.691406 94.132812 92.691406 C 94.140625 92.691406 94.148438 92.691406 94.160156 92.691406 C 94.191406 92.699219 94.230469 92.703125 94.273438 92.710938 M 94.125 92.6875 C 94.117188 92.6875 94.109375 92.683594 94.101562 92.683594 C 94.109375 92.6875 94.117188 92.6875 94.125 92.6875 M 94.101562 92.683594 C 94.09375 92.683594 94.085938 92.679688 94.078125 92.679688 C 94.085938 92.679688 94.09375 92.683594 94.101562 92.683594 M 94.070312 92.679688 C 94.0625 92.679688 94.054688 92.675781 94.046875 92.675781 C 94.054688 92.675781 94.0625 92.679688 94.070312 92.679688 M 94.046875 92.675781 C 94.035156 92.671875 94.027344 92.671875 94.019531 92.671875 C 94.027344 92.671875 94.035156 92.671875 94.046875 92.675781 M 94.011719 92.671875 C 94.003906 92.667969 94.003906 92.667969 93.996094 92.667969 C 94.003906 92.667969 94.003906 92.667969 94.011719 92.671875 M 93.988281 92.664062 C 93.980469 92.664062 93.972656 92.660156 93.964844 92.660156 C 93.972656 92.660156 93.980469 92.664062 93.988281 92.664062 M 93.957031 92.660156 C 93.957031 92.65625 93.949219 92.65625 93.941406 92.65625 C 93.949219 92.65625 93.957031 92.65625 93.957031 92.660156 M 93.933594 92.652344 C 93.921875 92.652344 93.921875 92.652344 93.914062 92.648438 C 93.921875 92.652344 93.921875 92.652344 93.933594 92.652344 M 93.90625 92.648438 C 93.898438 92.644531 93.898438 92.644531 93.890625 92.644531 C 93.898438 92.644531 93.898438 92.644531 93.90625 92.648438 M 93.882812 92.640625 C 93.875 92.640625 93.867188 92.640625 93.859375 92.640625 C 93.867188 92.640625 93.875 92.640625 93.882812 92.640625 M 93.851562 92.636719 C 93.851562 92.636719 93.84375 92.632812 93.84375 92.632812 C 93.84375 92.632812 93.851562 92.632812 93.851562 92.636719 M 93.828125 92.628906 C 93.820312 92.628906 93.820312 92.628906 93.820312 92.628906 C 93.820312 92.628906 93.820312 92.628906 93.828125 92.628906 M 93.800781 92.625 C 93.792969 92.625 93.792969 92.621094 93.792969 92.621094 C 93.792969 92.625 93.792969 92.625 93.800781 92.625 M 93.753906 92.613281 L 93.753906 92.613281 M 93.730469 92.605469 C 93.722656 92.605469 93.722656 92.605469 93.722656 92.605469 C 93.722656 92.605469 93.722656 92.605469 93.730469 92.605469 M 96.609375 89.347656 C 96.632812 89.300781 96.660156 89.257812 96.683594 89.210938 C 96.660156 89.257812 96.632812 89.300781 96.609375 89.347656 "/>
<path fill-rule="nonzero" fill="rgb(89.803922%, 74.509804%, 74.509804%)" fill-opacity="1" d="M 100.515625 93.015625 C 98.042969 93.015625 95.792969 92.894531 94.570312 92.75 C 94.5625 92.746094 94.554688 92.746094 94.554688 92.746094 C 94.539062 92.746094 94.53125 92.742188 94.515625 92.742188 C 94.457031 92.734375 94.402344 92.730469 94.351562 92.722656 C 94.34375 92.722656 94.34375 92.722656 94.34375 92.71875 C 94.335938 92.71875 94.328125 92.71875 94.3125 92.71875 C 94.296875 92.714844 94.289062 92.710938 94.273438 92.710938 C 94.230469 92.707031 94.191406 92.699219 94.160156 92.695312 C 94.148438 92.695312 94.140625 92.691406 94.132812 92.691406 C 94.132812 92.691406 94.132812 92.691406 94.125 92.691406 C 94.117188 92.691406 94.109375 92.6875 94.101562 92.6875 C 94.09375 92.683594 94.085938 92.683594 94.078125 92.683594 C 94.070312 92.683594 94.070312 92.683594 94.070312 92.683594 C 94.0625 92.679688 94.054688 92.679688 94.046875 92.675781 C 94.039062 92.675781 94.027344 92.671875 94.019531 92.671875 C 94.019531 92.671875 94.019531 92.671875 94.011719 92.671875 C 94.003906 92.671875 94.003906 92.667969 93.996094 92.667969 C 93.988281 92.667969 93.988281 92.667969 93.988281 92.667969 C 93.980469 92.667969 93.972656 92.664062 93.964844 92.664062 C 93.964844 92.664062 93.964844 92.664062 93.957031 92.660156 C 93.957031 92.660156 93.949219 92.660156 93.941406 92.660156 C 93.941406 92.660156 93.933594 92.65625 93.933594 92.65625 C 93.925781 92.65625 93.925781 92.65625 93.914062 92.65625 C 93.914062 92.652344 93.90625 92.652344 93.90625 92.652344 C 93.898438 92.652344 93.898438 92.652344 93.890625 92.648438 C 93.882812 92.648438 93.882812 92.648438 93.882812 92.648438 C 93.875 92.644531 93.867188 92.644531 93.859375 92.644531 C 93.859375 92.644531 93.859375 92.644531 93.851562 92.644531 C 93.851562 92.640625 93.84375 92.640625 93.84375 92.640625 C 93.835938 92.640625 93.835938 92.636719 93.828125 92.636719 C 93.820312 92.636719 93.820312 92.636719 93.820312 92.636719 C 93.8125 92.632812 93.800781 92.632812 93.800781 92.632812 C 93.792969 92.632812 93.792969 92.632812 93.792969 92.632812 C 93.777344 92.628906 93.761719 92.625 93.753906 92.621094 C 93.746094 92.621094 93.738281 92.617188 93.730469 92.613281 C 93.722656 92.613281 93.722656 92.613281 93.722656 92.613281 C 92.710938 92.359375 92.621094 91.878906 92.792969 91.457031 C 93.269531 92.238281 96.117188 92.554688 99.296875 92.554688 C 103.46875 92.554688 108.210938 92.007812 108.898438 91.261719 C 107.265625 89.503906 104.222656 88.996094 101.78125 88.996094 C 101.035156 88.996094 100.347656 89.042969 99.773438 89.113281 C 98.042969 89.335938 96.003906 90.808594 95.453125 90.808594 C 95.21875 90.808594 95.257812 90.546875 95.695312 89.8125 C 97.007812 87.617188 96.238281 83.636719 95.824219 82.53125 C 96.230469 82.4375 96.59375 82.320312 96.917969 82.183594 C 97.355469 84.0625 97.574219 87.339844 96.683594 89.21875 C 96.660156 89.265625 96.632812 89.3125 96.609375 89.355469 C 96.804688 89.3125 96.988281 89.269531 97.175781 89.226562 C 97.921875 89.0625 98.625 88.929688 99.296875 88.820312 C 99.3125 88.816406 99.335938 88.8125 99.359375 88.808594 C 100.023438 88.703125 100.648438 88.621094 101.238281 88.5625 C 101.988281 88.492188 102.6875 88.457031 103.332031 88.457031 C 107.824219 88.457031 109.707031 90.128906 110.445312 91.898438 C 108.332031 92.757812 104.175781 93.023438 100.515625 93.023438 "/>
<path fill-rule="nonzero" fill="rgb(100%, 83.137255%, 83.137255%)" fill-opacity="1" d="M 58.640625 83.011719 C 56.53125 84.972656 57.171875 91.214844 57.414062 91.4375 C 57.660156 91.664062 59.132812 93.078125 56.628906 93.464844 C 54.128906 93.851562 44.070312 94.171875 40.34375 92.660156 C 41.375 90.183594 44.660156 87.902344 54.175781 90.121094 C 53.097656 88.0625 53.492188 84.105469 54.03125 82.367188 C 54.570312 80.632812 58.640625 83.011719 58.640625 83.011719 "/>
<path fill-rule="nonzero" fill="rgb(80.784314%, 80.784314%, 80.784314%)" fill-opacity="1" d="M 50.277344 93.789062 C 53.058594 93.789062 55.550781 93.632812 56.628906 93.464844 C 56.640625 93.464844 56.648438 93.460938 56.65625 93.460938 C 56.648438 93.460938 56.640625 93.464844 56.628906 93.464844 C 55.550781 93.632812 53.058594 93.789062 50.277344 93.789062 M 56.660156 93.460938 C 56.667969 93.460938 56.679688 93.457031 56.6875 93.457031 C 56.679688 93.457031 56.667969 93.460938 56.660156 93.460938 M 56.691406 93.457031 C 56.699219 93.453125 56.707031 93.453125 56.714844 93.453125 C 56.707031 93.453125 56.699219 93.453125 56.691406 93.457031 M 56.71875 93.453125 C 56.746094 93.449219 56.773438 93.441406 56.796875 93.4375 C 56.773438 93.441406 56.746094 93.445312 56.71875 93.453125 M 56.800781 93.4375 C 57.144531 93.371094 57.402344 93.289062 57.59375 93.1875 C 57.402344 93.289062 57.144531 93.371094 56.800781 93.4375 M 57.59375 93.1875 C 57.601562 93.183594 57.605469 93.183594 57.609375 93.179688 C 57.605469 93.179688 57.601562 93.183594 57.59375 93.1875 M 57.609375 93.175781 C 57.613281 93.175781 57.621094 93.171875 57.625 93.171875 C 57.621094 93.171875 57.613281 93.175781 57.609375 93.175781 M 57.625 93.167969 C 57.628906 93.167969 57.632812 93.164062 57.636719 93.164062 C 57.632812 93.164062 57.628906 93.167969 57.625 93.167969 M 57.640625 93.160156 C 57.644531 93.160156 57.648438 93.15625 57.648438 93.15625 C 57.648438 93.15625 57.644531 93.160156 57.640625 93.160156 M 57.65625 93.152344 C 57.660156 93.152344 57.660156 93.148438 57.664062 93.148438 C 57.660156 93.148438 57.660156 93.152344 57.65625 93.152344 M 57.671875 93.144531 C 57.671875 93.140625 57.671875 93.140625 57.675781 93.140625 C 57.671875 93.140625 57.671875 93.144531 57.671875 93.144531 M 57.6875 93.132812 L 57.6875 93.132812 "/>
<path fill-rule="nonzero" fill="rgb(89.803922%, 74.509804%, 74.509804%)" fill-opacity="1" d="M 50.277344 93.789062 C 46.617188 93.789062 42.460938 93.519531 40.34375 92.660156 C 41.078125 90.890625 42.96875 89.21875 47.457031 89.21875 C 49.253906 89.21875 51.460938 89.488281 54.175781 90.121094 C 53.675781 89.164062 53.492188 87.796875 53.492188 86.433594 C 53.496094 84.886719 53.734375 83.34375 54.019531 82.410156 C 54.25 82.496094 54.507812 82.585938 54.785156 82.675781 L 55.097656 83.027344 C 54.765625 83.414062 53.625 88.117188 55.097656 90.578125 C 55.535156 91.308594 55.570312 91.570312 55.335938 91.570312 C 54.789062 91.570312 52.746094 90.097656 51.011719 89.878906 C 50.441406 89.804688 49.753906 89.757812 49.011719 89.757812 C 46.570312 89.757812 43.527344 90.269531 41.890625 92.027344 C 42.582031 92.773438 47.320312 93.320312 51.492188 93.320312 C 54.671875 93.320312 57.519531 93.003906 58 92.21875 C 58.125 92.53125 58.109375 92.871094 57.6875 93.132812 C 57.6875 93.132812 57.6875 93.132812 57.6875 93.136719 C 57.683594 93.136719 57.679688 93.140625 57.675781 93.140625 C 57.671875 93.144531 57.671875 93.144531 57.671875 93.144531 C 57.667969 93.144531 57.667969 93.148438 57.664062 93.148438 C 57.660156 93.148438 57.660156 93.152344 57.65625 93.152344 C 57.652344 93.152344 57.652344 93.15625 57.648438 93.15625 C 57.648438 93.15625 57.644531 93.160156 57.640625 93.160156 C 57.640625 93.160156 57.636719 93.160156 57.636719 93.164062 C 57.632812 93.164062 57.628906 93.167969 57.625 93.167969 C 57.621094 93.171875 57.613281 93.175781 57.609375 93.175781 C 57.605469 93.179688 57.601562 93.179688 57.597656 93.183594 C 57.59375 93.183594 57.59375 93.183594 57.59375 93.183594 C 57.402344 93.285156 57.144531 93.371094 56.800781 93.433594 C 56.800781 93.433594 56.800781 93.433594 56.796875 93.433594 C 56.773438 93.441406 56.746094 93.445312 56.71875 93.449219 C 56.71875 93.449219 56.71875 93.449219 56.714844 93.449219 C 56.707031 93.453125 56.699219 93.453125 56.691406 93.453125 C 56.6875 93.453125 56.6875 93.453125 56.6875 93.457031 C 56.679688 93.457031 56.667969 93.457031 56.660156 93.460938 C 56.660156 93.460938 56.660156 93.460938 56.65625 93.460938 C 56.648438 93.460938 56.640625 93.464844 56.628906 93.464844 C 55.550781 93.632812 53.058594 93.785156 50.277344 93.785156 "/>
<path fill-rule="nonzero" fill="rgb(100%, 83.137255%, 83.137255%)" fill-opacity="1" d="M 21.980469 75.15625 C 20.722656 80.371094 10.605469 79.046875 10.367188 78.96875 C 9.605469 76.449219 7.421875 75.265625 5.863281 75.9375 C 4.304688 76.609375 4.589844 77.554688 7.097656 79.15625 C 4.75 78.851562 1.96875 79.664062 0.695312 80.480469 C -0.6875 81.363281 -0.28125 82.25 4.421875 81.695312 C 5.125 81.613281 5.726562 81.808594 5.269531 82.011719 C -3.355469 85.882812 4.6875 86.222656 7.539062 83.136719 C 5.230469 87.296875 9.78125 87.820312 11.605469 81.929688 C 21.296875 82.476562 25.527344 77.355469 25.527344 77.355469 L 21.980469 75.15625 "/>
<path fill-rule="nonzero" fill="rgb(89.803922%, 74.509804%, 74.509804%)" fill-opacity="1" d="M 9.738281 81.953125 C 8.867188 81.953125 7.03125 81.078125 7.195312 80.097656 C 7.195312 80.097656 7.285156 80.050781 7.429688 80.050781 C 7.515625 80.050781 7.617188 80.066406 7.734375 80.113281 C 7.734375 80.113281 7.757812 81.226562 9.894531 81.941406 C 9.847656 81.949219 9.792969 81.949219 9.738281 81.949219 "/>
<path fill-rule="nonzero" fill="rgb(89.803922%, 74.509804%, 74.509804%)" fill-opacity="1" d="M 14.136719 79.964844 C 12.402344 79.964844 11.070312 79.691406 10.097656 79.523438 C 9.804688 78.753906 7.242188 75.929688 5.964844 75.929688 C 5.929688 75.929688 5.894531 75.933594 5.863281 75.9375 C 6.152344 75.8125 6.460938 75.75 6.78125 75.75 C 8.183594 75.75 9.746094 76.917969 10.367188 78.96875 C 10.453125 78.996094 11.84375 79.226562 13.648438 79.226562 C 16.390625 79.222656 20.085938 78.699219 21.648438 76.152344 C 22.15625 76.648438 22.832031 77.09375 23.714844 77.4375 C 19.667969 79.449219 16.519531 79.964844 14.136719 79.964844 "/>
<path fill-rule="nonzero" fill="rgb(89.803922%, 89.803922%, 89.803922%)" fill-opacity="1" d="M 0.00390625 81.324219 C -0.00390625 81.285156 0 81.246094 0.0078125 81.203125 C 0 81.246094 -0.00390625 81.285156 0.00390625 81.324219 M 0.0078125 81.203125 C 0.0078125 81.199219 0.0078125 81.195312 0.0078125 81.195312 C 0.0078125 81.195312 0.0078125 81.199219 0.0078125 81.203125 M 0.0117188 81.191406 C 0.0117188 81.191406 0.0117188 81.1875 0.0117188 81.183594 C 0.0117188 81.1875 0.0117188 81.191406 0.0117188 81.191406 M 0.0117188 81.179688 C 0.0117188 81.175781 0.015625 81.175781 0.015625 81.175781 C 0.015625 81.175781 0.0117188 81.175781 0.0117188 81.179688 M 0.015625 81.167969 C 0.015625 81.167969 0.015625 81.167969 0.015625 81.164062 C 0.015625 81.167969 0.015625 81.167969 0.015625 81.167969 M 0.0195312 81.15625 L 0.0195312 81.15625 M 0.0234375 81.144531 L 0.0234375 81.144531 M 0.0273438 81.136719 L 0.0273438 81.136719 M 0.03125 81.125 L 0.03125 81.125 M 0.6875 80.484375 C 0.6875 80.484375 0.6875 80.484375 0.691406 80.480469 C 0.6875 80.484375 0.6875 80.484375 0.6875 80.484375 M 0.707031 80.472656 L 0.707031 80.472656 M 7.097656 79.15625 C 7.085938 79.152344 7.070312 79.152344 7.058594 79.148438 C 7.070312 79.152344 7.085938 79.152344 7.097656 79.15625 M 6.949219 79.136719 C 6.945312 79.136719 6.9375 79.136719 6.933594 79.136719 C 6.9375 79.136719 6.945312 79.136719 6.949219 79.136719 "/>
<path fill-rule="nonzero" fill="rgb(89.803922%, 74.509804%, 74.509804%)" fill-opacity="1" d="M 0.00390625 81.324219 C -0.00390625 81.285156 0 81.246094 0.0078125 81.203125 C 0.0078125 81.199219 0.0078125 81.195312 0.0078125 81.195312 C 0.0078125 81.195312 0.0078125 81.195312 0.0117188 81.191406 C 0.0117188 81.191406 0.0117188 81.1875 0.0117188 81.183594 C 0.0117188 81.183594 0.0117188 81.179688 0.0117188 81.179688 C 0.0117188 81.175781 0.015625 81.175781 0.015625 81.175781 C 0.015625 81.171875 0.015625 81.171875 0.015625 81.167969 C 0.015625 81.167969 0.015625 81.167969 0.015625 81.164062 C 0.015625 81.164062 0.0195312 81.160156 0.0195312 81.15625 C 0.0195312 81.152344 0.0234375 81.148438 0.0234375 81.148438 C 0.0234375 81.148438 0.0234375 81.144531 0.0234375 81.144531 C 0.0234375 81.144531 0.0273438 81.140625 0.0273438 81.136719 C 0.0273438 81.132812 0.03125 81.128906 0.03125 81.125 C 0.113281 80.925781 0.34375 80.707031 0.6875 80.484375 C 0.6875 80.484375 0.6875 80.484375 0.691406 80.484375 C 0.695312 80.480469 0.699219 80.476562 0.707031 80.472656 C 1.796875 79.78125 3.972656 79.089844 6.046875 79.089844 C 6.34375 79.089844 6.644531 79.105469 6.933594 79.136719 C 6.9375 79.136719 6.945312 79.136719 6.949219 79.136719 C 6.984375 79.140625 7.023438 79.148438 7.058594 79.148438 C 7.070312 79.152344 7.085938 79.152344 7.097656 79.15625 C 3.671875 79.519531 0.949219 80.328125 0.00390625 81.324219 "/>
<path fill-rule="nonzero" fill="rgb(89.803922%, 89.803922%, 89.803922%)" fill-opacity="1" d="M 5.152344 82.066406 L 5.152344 82.066406 M 5.230469 82.03125 C 5.230469 82.03125 5.230469 82.03125 5.234375 82.03125 C 5.234375 82.03125 5.230469 82.03125 5.230469 82.03125 M 5.269531 82.011719 C 5.273438 82.011719 5.277344 82.007812 5.28125 82.007812 C 5.277344 82.007812 5.273438 82.011719 5.269531 82.011719 M 5.28125 82.007812 C 5.375 81.964844 5.414062 81.921875 5.421875 81.882812 C 5.421875 81.886719 5.421875 81.894531 5.421875 81.898438 C 5.40625 81.933594 5.359375 81.96875 5.28125 82.007812 "/>
<path fill-rule="nonzero" fill="rgb(89.803922%, 74.509804%, 74.509804%)" fill-opacity="1" d="M 1.515625 84.960938 C 1.058594 84.535156 1.824219 83.574219 5.152344 82.066406 C 5.179688 82.054688 5.203125 82.042969 5.230469 82.03125 C 5.230469 82.03125 5.234375 82.03125 5.234375 82.03125 C 5.246094 82.023438 5.257812 82.015625 5.269531 82.011719 C 5.273438 82.011719 5.277344 82.007812 5.28125 82.007812 C 5.359375 81.96875 5.40625 81.933594 5.421875 81.898438 C 5.445312 82.152344 5.570312 82.25 5.570312 82.25 C 4.589844 82.328125 1.574219 84.03125 1.515625 84.960938 "/>
<path fill-rule="nonzero" fill="rgb(90.196078%, 54.509804%, 52.941176%)" fill-opacity="1" d="M 80.570312 42.707031 C 81.945312 39.683594 91.753906 34.539062 99.796875 40.972656 C 103.625 39.042969 114.617188 39.683594 113.050781 46.890625 C 115.5 45.925781 118.144531 47.148438 117.757812 48.882812 C 124.035156 50.042969 125.410156 51.328125 123.640625 54.804688 C 128.25 55.769531 130.3125 59.820312 126.882812 63.359375 C 132.304688 65.851562 131.390625 73.203125 122.960938 73.652344 C 123.25 77.574219 116.777344 77.527344 115.792969 76.226562 C 115.742188 82.929688 103.089844 84.910156 97.742188 81.691406 C 95.289062 83.75 84.691406 83.367188 82.828125 76.804688 C 80.964844 70.242188 73.898438 45.667969 73.898438 45.667969 L 80.570312 42.707031 "/>
<path fill-rule="nonzero" fill="rgb(100%, 60.392157%, 58.823529%)" fill-opacity="1" d="M 65.65625 38.589844 C 71.445312 35.054688 79.980469 36.148438 79.980469 41.230469 C 82.828125 41.101562 83.414062 45.28125 81.160156 45.730469 C 86.851562 45.601562 85.671875 50.300781 84.984375 51.007812 C 87.4375 51.070312 87.339844 53.644531 85.085938 54.738281 C 82.828125 55.832031 85.574219 58.535156 89.5 57.246094 C 91.066406 57.890625 91.851562 60.851562 87.535156 61.941406 C 88.324219 66.0625 85.769531 76.609375 84.496094 78.347656 C 83.21875 80.085938 78.3125 82.464844 72.035156 80.46875 C 64.480469 87.546875 52.410156 81.757812 52.410156 81.757812 C 37.203125 87.417969 30.726562 79.699219 30.140625 78.027344 C 20.71875 78.925781 19.835938 73.78125 20.328125 72.042969 C 6.003906 67.027344 17.777344 58.148438 24.351562 58.921875 C 16.992188 51.457031 31.316406 48.242188 34.164062 49.59375 C 31.023438 44.703125 40.148438 42.515625 42.503906 44.765625 C 41.03125 39.621094 52.019531 38.785156 53.097656 40.070312 C 52.511719 36.019531 64.183594 34.925781 65.65625 38.589844 "/>
<path fill-rule="nonzero" fill="rgb(85.490196%, 51.764706%, 50.196078%)" fill-opacity="1" d="M 100.96875 80.820312 C 98.730469 80.820312 96.578125 80.375 95.074219 79.46875 C 94.335938 80.085938 92.773438 80.460938 90.960938 80.460938 C 88.769531 80.460938 86.210938 79.910156 84.296875 78.589844 C 84.371094 78.507812 84.4375 78.425781 84.496094 78.347656 C 85.769531 76.609375 88.324219 66.0625 87.535156 61.941406 C 91.851562 60.851562 91.066406 57.890625 89.5 57.246094 C 88.769531 57.484375 88.085938 57.585938 87.460938 57.585938 C 84.726562 57.585938 83.246094 55.628906 85.085938 54.738281 C 87.339844 53.644531 87.4375 51.070312 84.984375 51.007812 C 85.664062 50.308594 86.820312 45.730469 81.386719 45.730469 C 81.3125 45.730469 81.234375 45.730469 81.160156 45.730469 C 82.675781 45.429688 82.90625 43.445312 82.035156 42.214844 C 83.804688 41.101562 86.351562 40.1875 89.140625 40.1875 C 91.667969 40.1875 94.394531 40.933594 96.917969 42.957031 C 97.960938 42.429688 99.59375 42.117188 101.328125 42.117188 C 105.289062 42.117188 109.773438 43.765625 108.792969 48.261719 C 109.328125 48.050781 109.871094 47.957031 110.386719 47.957031 C 111.480469 47.957031 112.433594 48.386719 112.839844 49.035156 C 112.929688 49.429688 112.894531 49.859375 112.726562 50.28125 C 112.351562 51.242188 111.398438 52.046875 110.039062 52.542969 L 109.667969 52.679688 L 110.039062 52.8125 C 111.804688 53.460938 112.214844 54.507812 112.25 55.269531 C 112.296875 56.339844 111.632812 57.316406 111.15625 57.519531 L 111.40625 57.777344 C 112.070312 57.5 112.773438 56.398438 112.71875 55.261719 C 112.675781 54.46875 112.273438 53.402344 110.605469 52.679688 C 111.902344 52.136719 112.804688 51.320312 113.1875 50.359375 C 113.21875 50.273438 113.242188 50.183594 113.269531 50.097656 C 118.679688 51.125 119.851562 52.289062 118.292969 55.355469 C 119.789062 55.671875 120.984375 56.34375 121.753906 57.226562 C 121.429688 57.980469 120.289062 58.554688 118.777344 58.726562 C 118.476562 58.761719 118.179688 58.777344 117.894531 58.777344 C 116.40625 58.777344 115.054688 58.351562 114.285156 57.613281 L 113.890625 57.789062 C 114.757812 58.609375 116.261719 59.085938 117.894531 59.085938 C 118.210938 59.085938 118.535156 59.066406 118.851562 59.03125 C 120.363281 58.859375 121.535156 58.324219 122.046875 57.597656 C 123.113281 59.128906 123.007812 61.160156 121.195312 63.027344 C 126.058594 65.265625 125.242188 71.855469 117.675781 72.257812 C 117.847656 74.472656 115.605469 75.277344 113.703125 75.277344 C 112.589844 75.277344 111.585938 74.996094 111.253906 74.566406 C 111.230469 78.691406 105.875 80.820312 100.96875 80.820312 M 97.433594 79.230469 L 97.265625 79.523438 C 98.972656 79.941406 100.378906 80.105469 101.542969 80.105469 C 104.617188 80.105469 105.96875 78.953125 106.480469 78.320312 C 107.832031 76.652344 107.199219 74.195312 105.183594 73.265625 L 104.910156 73.519531 C 106.722656 74.351562 107.289062 76.660156 106.066406 78.179688 C 105.5 78.875 104.253906 79.804688 101.585938 79.804688 C 100.46875 79.804688 99.101562 79.640625 97.433594 79.230469 M 112.101562 70.035156 C 111.097656 70.035156 110.023438 70.230469 109.164062 70.605469 C 108.128906 71.0625 106.527344 72.171875 107.457031 74.492188 L 107.910156 74.414062 C 107.054688 72.28125 108.496094 71.273438 109.433594 70.863281 C 110.242188 70.503906 111.203125 70.347656 112.078125 70.347656 C 112.902344 70.347656 113.648438 70.488281 114.132812 70.726562 L 114.417969 70.480469 C 113.816406 70.183594 112.984375 70.035156 112.101562 70.035156 M 98.007812 73.222656 L 97.667969 73.4375 C 98.640625 74.101562 99.847656 74.453125 101.058594 74.453125 C 101.65625 74.453125 102.265625 74.367188 102.839844 74.1875 C 104.546875 73.664062 105.5 72.523438 105.28125 71.285156 L 104.8125 71.320312 C 105.015625 72.425781 104.15625 73.441406 102.636719 73.910156 C 102.183594 74.050781 101.640625 74.140625 101.050781 74.140625 C 100.074219 74.140625 98.988281 73.894531 98.007812 73.222656 M 118.996094 59.34375 L 118.671875 59.570312 C 120.96875 60.980469 120.6875 63.53125 118.921875 64.78125 L 119.261719 64.992188 C 121.179688 63.636719 121.480469 60.875 118.996094 59.34375 M 101.308594 50.652344 C 96.722656 50.71875 93.027344 53.175781 93.027344 56.203125 C 93.027344 59.265625 96.820312 61.75 101.488281 61.75 C 106.089844 61.75 109.835938 59.339844 109.949219 56.339844 C 109.949219 56.339844 109.949219 56.335938 109.949219 56.332031 C 109.949219 56.324219 109.949219 56.3125 109.949219 56.304688 C 109.949219 56.300781 109.949219 56.296875 109.949219 56.292969 C 109.949219 56.285156 109.949219 56.277344 109.949219 56.269531 C 109.949219 56.265625 109.949219 56.257812 109.949219 56.253906 C 109.949219 56.246094 109.949219 56.242188 109.949219 56.234375 C 109.949219 56.222656 109.949219 56.210938 109.949219 56.199219 C 109.949219 53.136719 106.164062 50.652344 101.488281 50.652344 C 101.472656 50.652344 101.457031 50.652344 101.441406 50.652344 C 101.441406 50.652344 101.429688 50.652344 101.421875 50.652344 C 101.414062 50.652344 101.40625 50.652344 101.390625 50.652344 C 101.382812 50.652344 101.375 50.652344 101.367188 50.652344 C 101.359375 50.652344 101.351562 50.652344 101.351562 50.652344 C 101.335938 50.652344 101.324219 50.652344 101.316406 50.652344 C 101.308594 50.652344 101.308594 50.652344 101.308594 50.652344 "/>
<path fill-rule="nonzero" fill="rgb(94.901961%, 57.254902%, 55.686275%)" fill-opacity="1" d="M 63.378906 81.527344 C 58.59375 81.527344 54.425781 79.527344 54.425781 79.527344 C 50.867188 80.851562 47.84375 81.359375 45.304688 81.359375 C 38.121094 81.359375 34.847656 77.289062 34.457031 76.179688 C 33.785156 76.246094 33.164062 76.273438 32.585938 76.273438 C 25.894531 76.273438 25.253906 72.25 25.660156 70.816406 C 24.882812 70.542969 24.191406 70.257812 23.578125 69.960938 C 23.546875 69.535156 23.664062 69.066406 24.003906 68.628906 C 24.429688 68.082031 25.359375 67.390625 27.402344 67.1875 C 28.59375 67.070312 29.640625 67.035156 30.570312 67.003906 C 32.84375 66.929688 34.34375 66.878906 34.519531 65.601562 C 34.640625 64.710938 33.945312 63.878906 33.335938 63.144531 C 32.800781 62.5 32.296875 61.894531 32.453125 61.394531 L 31.992188 61.332031 C 31.800781 61.945312 32.34375 62.597656 32.921875 63.292969 C 33.527344 64.023438 34.160156 64.777344 34.050781 65.574219 C 33.917969 66.546875 32.941406 66.617188 30.546875 66.695312 C 29.609375 66.726562 28.542969 66.761719 27.332031 66.882812 C 25.09375 67.105469 24.058594 67.878906 23.585938 68.488281 C 23.273438 68.890625 23.128906 69.320312 23.105469 69.726562 C 14.796875 65.351562 23.019531 59.007812 28.515625 59.007812 C 28.773438 59.007812 29.023438 59.019531 29.265625 59.050781 C 23.648438 53.351562 32.125 50.417969 36.339844 50.417969 C 37.078125 50.417969 37.683594 50.507812 38.0625 50.6875 C 36.003906 47.476562 39.839844 45.5625 42.867188 45.5625 C 43.976562 45.5625 44.976562 45.820312 45.542969 46.359375 C 44.574219 42.972656 49.617188 41.667969 52.757812 41.667969 C 53.894531 41.667969 54.785156 41.839844 55.042969 42.148438 C 54.734375 40.035156 58.152344 38.820312 61.320312 38.820312 C 63.597656 38.820312 65.75 39.449219 66.304688 40.824219 C 68.339844 39.578125 70.757812 38.972656 72.945312 38.972656 C 74.859375 38.972656 76.601562 39.4375 77.746094 40.347656 C 73.355469 41.507812 73.09375 43.261719 74.078125 45.53125 C 74.433594 46.351562 74.160156 47.019531 73.289062 47.460938 C 72.648438 47.785156 71.757812 47.945312 70.828125 47.945312 C 69.9375 47.945312 69.007812 47.796875 68.230469 47.496094 L 67.988281 47.761719 C 68.835938 48.089844 69.847656 48.25 70.824219 48.25 C 71.863281 48.25 72.859375 48.070312 73.574219 47.707031 C 74.597656 47.1875 74.9375 46.386719 74.53125 45.445312 C 73.582031 43.261719 73.847656 41.679688 78.039062 40.601562 C 78.734375 41.265625 79.148438 42.132812 79.148438 43.1875 C 79.183594 43.1875 79.222656 43.183594 79.257812 43.183594 C 79.707031 43.183594 80.085938 43.308594 80.402344 43.507812 C 80.816406 43.074219 81.371094 42.628906 82.035156 42.214844 C 82.90625 43.445312 82.675781 45.429688 81.160156 45.730469 C 81.234375 45.730469 81.3125 45.730469 81.386719 45.730469 C 86.820312 45.730469 85.664062 50.308594 84.984375 51.007812 C 87.4375 51.070312 87.339844 53.644531 85.085938 54.738281 C 83.246094 55.628906 84.726562 57.585938 87.460938 57.585938 C 88.085938 57.585938 88.769531 57.484375 89.5 57.246094 C 91.066406 57.890625 91.851562 60.851562 87.535156 61.945312 C 88.324219 66.0625 85.769531 76.609375 84.496094 78.347656 C 84.4375 78.425781 84.371094 78.507812 84.296875 78.589844 C 83.667969 78.15625 83.109375 77.640625 82.660156 77.03125 C 81.507812 78.03125 79.222656 79.050781 76.265625 79.050781 C 74.96875 79.050781 73.539062 78.855469 72.023438 78.371094 C 71.082031 79.25 70.070312 79.90625 69.015625 80.386719 L 68.917969 80.195312 C 68.5625 80.273438 68.207031 80.3125 67.859375 80.3125 C 67.121094 80.3125 66.433594 80.140625 65.878906 79.808594 C 64.726562 79.125 64.355469 77.890625 64.855469 76.417969 C 65.300781 75.121094 64.910156 73.988281 63.730469 73.148438 C 63.382812 72.902344 62.957031 72.691406 62.488281 72.507812 C 63.777344 72.328125 64.8125 71.734375 65.453125 70.785156 C 66.375 69.417969 66.207031 67.679688 65.074219 66.835938 L 64.71875 67.039062 C 65.726562 67.789062 65.863281 69.414062 65.023438 70.660156 C 64.628906 71.246094 63.675781 72.230469 61.738281 72.257812 C 60.628906 71.941406 59.289062 71.773438 57.792969 71.773438 C 57.144531 71.773438 56.464844 71.804688 55.765625 71.871094 L 55.828125 72.175781 C 56.523438 72.113281 57.195312 72.082031 57.835938 72.082031 C 60.25 72.082031 62.214844 72.523438 63.382812 73.359375 C 64.453125 74.121094 64.804688 75.15625 64.398438 76.351562 C 63.859375 77.933594 64.28125 79.277344 65.5625 80.039062 C 66.207031 80.421875 67.003906 80.621094 67.851562 80.621094 C 68.097656 80.621094 68.34375 80.605469 68.59375 80.570312 C 66.886719 81.269531 65.09375 81.527344 63.378906 81.527344 M 79.886719 72.125 C 80.222656 73.304688 80.792969 73.660156 81.40625 73.660156 C 82.019531 73.660156 82.671875 73.304688 83.167969 73.058594 C 82.933594 73.09375 82.703125 73.105469 82.484375 73.105469 C 81.128906 73.105469 80.070312 72.546875 79.886719 72.125 M 30.746094 67.183594 C 29.746094 68.089844 29.847656 69.972656 31.484375 71.132812 C 32.0625 71.539062 33.082031 72.023438 34.675781 72.023438 C 35.84375 72.023438 37.320312 71.765625 39.15625 71.023438 L 38.910156 70.761719 C 37.160156 71.464844 35.769531 71.710938 34.683594 71.710938 C 33.253906 71.710938 32.34375 71.285156 31.832031 70.921875 C 30.367188 69.886719 30.25 68.160156 31.128906 67.367188 L 30.746094 67.183594 M 62.578125 52.101562 C 57.992188 52.164062 54.300781 54.625 54.300781 57.648438 C 54.300781 60.714844 58.089844 63.199219 62.761719 63.199219 C 67.367188 63.199219 71.109375 60.789062 71.222656 57.789062 C 71.222656 57.785156 71.222656 57.785156 71.222656 57.78125 C 71.222656 57.773438 71.222656 57.761719 71.222656 57.753906 C 71.222656 57.75 71.222656 57.746094 71.222656 57.742188 C 71.222656 57.734375 71.222656 57.726562 71.222656 57.71875 C 71.222656 57.714844 71.222656 57.707031 71.222656 57.699219 C 71.226562 57.695312 71.226562 57.691406 71.226562 57.683594 C 71.226562 57.671875 71.226562 57.660156 71.226562 57.648438 C 71.226562 54.585938 67.4375 52.101562 62.761719 52.101562 C 62.746094 52.101562 62.730469 52.101562 62.710938 52.101562 C 62.707031 52.101562 62.699219 52.101562 62.695312 52.101562 C 62.683594 52.101562 62.675781 52.101562 62.664062 52.101562 C 62.65625 52.101562 62.648438 52.101562 62.640625 52.101562 C 62.632812 52.101562 62.625 52.101562 62.617188 52.101562 C 62.609375 52.101562 62.597656 52.101562 62.585938 52.101562 C 62.585938 52.101562 62.582031 52.101562 62.578125 52.101562 M 26.535156 59.5 L 26.140625 59.664062 C 26.972656 60.511719 28.230469 60.96875 29.679688 60.96875 C 30.019531 60.96875 30.367188 60.941406 30.722656 60.890625 C 33.070312 60.5625 34.960938 59.238281 35.328125 57.671875 C 35.914062 55.152344 37.351562 54.617188 39.941406 54.617188 C 40.070312 54.617188 40.203125 54.617188 40.335938 54.617188 C 40.585938 54.625 40.820312 54.625 41.042969 54.625 C 43.382812 54.625 44.503906 54.332031 45.757812 52.550781 L 45.328125 52.421875 C 44.179688 54.054688 43.261719 54.320312 41.074219 54.320312 C 40.847656 54.320312 40.605469 54.316406 40.351562 54.3125 C 40.210938 54.308594 40.074219 54.304688 39.941406 54.304688 C 37.203125 54.304688 35.492188 54.914062 34.863281 57.625 C 34.527344 59.066406 32.785156 60.285156 30.625 60.589844 C 30.304688 60.636719 29.996094 60.65625 29.691406 60.65625 C 28.398438 60.65625 27.28125 60.253906 26.535156 59.5 M 88.347656 57.875 C 88.1875 57.875 88.023438 57.886719 87.855469 57.90625 C 86.882812 58.039062 88.496094 57.9375 88.632812 58.382812 C 88.761719 58.800781 87.574219 59.542969 88.179688 59.542969 C 88.226562 59.542969 88.285156 59.535156 88.359375 59.527344 C 89.328125 59.398438 90 58.933594 89.863281 58.484375 C 89.75 58.117188 89.117188 57.875 88.347656 57.875 "/>
<path fill-rule="nonzero" fill="rgb(94.901961%, 94.901961%, 94.901961%)" fill-opacity="1" d="M 71.226562 57.648438 C 71.226562 60.714844 67.4375 63.199219 62.761719 63.199219 C 58.089844 63.199219 54.300781 60.714844 54.300781 57.648438 C 54.300781 54.585938 58.089844 52.101562 62.761719 52.101562 C 67.4375 52.101562 71.226562 54.585938 71.226562 57.648438 "/>
<path fill-rule="nonzero" fill="rgb(100%, 100%, 100%)" fill-opacity="1" d="M 62.761719 52.101562 C 60.867188 52.101562 59.125 52.515625 57.714844 53.203125 C 56.300781 54.195312 55.425781 55.523438 55.425781 56.992188 C 55.425781 60.054688 59.214844 62.539062 63.886719 62.539062 C 65.78125 62.539062 67.527344 62.125 68.9375 61.4375 C 70.351562 60.445312 71.226562 59.113281 71.226562 57.648438 C 71.226562 54.585938 67.4375 52.101562 62.761719 52.101562 "/>
<path fill-rule="nonzero" fill="rgb(16.862745%, 10.196078%, 2.745098%)" fill-opacity="1" d="M 53.164062 53.273438 C 52.035156 53.363281 51.046875 52.742188 51.1875 52.003906 C 51.425781 50.71875 52.320312 49.519531 53.777344 48.582031 C 55.085938 47.742188 56.746094 47.183594 58.429688 46.980469 C 59.632812 46.835938 60.710938 47.488281 60.535156 48.28125 L 60.535156 48.285156 C 60.429688 48.769531 59.867188 49.167969 59.125 49.25 C 58.109375 49.363281 57.066406 49.710938 56.25 50.234375 C 55.699219 50.589844 54.882812 51.265625 54.691406 52.257812 C 54.589844 52.785156 53.96875 53.207031 53.164062 53.273438 "/>
<path fill-rule="nonzero" fill="rgb(16.862745%, 10.196078%, 2.745098%)" fill-opacity="1" d="M 107.144531 50.371094 C 108.261719 50.238281 108.914062 49.449219 108.4375 48.769531 C 107.621094 47.59375 106.214844 46.625 104.394531 46.023438 C 102.765625 45.480469 100.921875 45.277344 99.222656 45.414062 C 98.007812 45.515625 97.28125 46.351562 97.816406 47.074219 C 98.148438 47.519531 98.859375 47.785156 99.601562 47.714844 C 100.621094 47.621094 101.78125 47.75 102.796875 48.085938 C 103.488281 48.316406 104.578125 48.800781 105.21875 49.707031 C 105.558594 50.191406 106.34375 50.46875 107.144531 50.371094 "/>
<path fill-rule="nonzero" fill="rgb(100%, 51.764706%, 50.196078%)" fill-opacity="1" d="M 54.667969 68.085938 L 47.164062 68.085938 C 44.941406 68.085938 43.140625 66.90625 43.140625 65.449219 C 43.140625 63.992188 44.941406 62.8125 47.164062 62.8125 L 54.667969 62.8125 C 56.890625 62.8125 58.691406 63.992188 58.691406 65.449219 C 58.691406 66.90625 56.890625 68.085938 54.667969 68.085938 "/>
<path fill-rule="nonzero" fill="rgb(100%, 51.764706%, 50.196078%)" fill-opacity="1" d="M 114.019531 67.382812 L 106.609375 68.175781 C 104.417969 68.410156 102.355469 67.433594 101.996094 65.996094 C 101.640625 64.558594 103.128906 63.203125 105.324219 62.96875 L 112.726562 62.179688 C 114.917969 61.945312 116.988281 62.917969 117.34375 64.359375 C 117.703125 65.796875 116.210938 67.152344 114.019531 67.382812 "/>
<path fill-rule="nonzero" fill="rgb(85.098039%, 51.372549%, 50.196078%)" fill-opacity="1" d="M 29.679688 60.96875 C 28.230469 60.96875 26.972656 60.511719 26.140625 59.667969 L 26.535156 59.5 C 27.28125 60.253906 28.398438 60.65625 29.691406 60.65625 C 29.996094 60.65625 30.304688 60.636719 30.625 60.589844 C 32.785156 60.289062 34.527344 59.066406 34.863281 57.625 C 35.492188 54.914062 37.203125 54.308594 39.941406 54.308594 C 40.074219 54.308594 40.210938 54.308594 40.351562 54.3125 C 40.605469 54.316406 40.847656 54.320312 41.074219 54.320312 C 43.261719 54.320312 44.179688 54.054688 45.328125 52.421875 L 45.757812 52.550781 C 44.503906 54.332031 43.382812 54.625 41.042969 54.625 C 40.820312 54.625 40.585938 54.625 40.335938 54.617188 C 40.203125 54.617188 40.070312 54.617188 39.941406 54.617188 C 37.351562 54.617188 35.914062 55.152344 35.328125 57.671875 C 34.960938 59.238281 33.070312 60.5625 30.722656 60.894531 C 30.367188 60.941406 30.019531 60.96875 29.679688 60.96875 "/>
<path fill-rule="nonzero" fill="rgb(89.803922%, 54.117647%, 52.941176%)" fill-opacity="1" d="M 23.554688 71.132812 C 23.261719 70.769531 23.078125 70.265625 23.105469 69.726562 C 23.257812 69.804688 23.414062 69.886719 23.578125 69.960938 C 23.601562 70.355469 23.753906 70.71875 23.972656 70.992188 L 23.554688 71.132812 "/>
<path fill-rule="nonzero" fill="rgb(85.098039%, 51.372549%, 50.196078%)" fill-opacity="1" d="M 23.578125 69.960938 C 23.414062 69.882812 23.257812 69.804688 23.105469 69.726562 C 23.128906 69.320312 23.273438 68.890625 23.585938 68.488281 C 24.058594 67.878906 25.09375 67.105469 27.332031 66.882812 C 28.542969 66.761719 29.609375 66.726562 30.546875 66.695312 C 32.941406 66.617188 33.917969 66.546875 34.050781 65.574219 C 34.160156 64.777344 33.527344 64.023438 32.921875 63.292969 C 32.34375 62.597656 31.800781 61.945312 31.992188 61.332031 L 32.453125 61.394531 C 32.296875 61.894531 32.800781 62.5 33.335938 63.144531 C 33.945312 63.878906 34.640625 64.710938 34.519531 65.601562 C 34.34375 66.878906 32.84375 66.929688 30.570312 67.003906 C 29.640625 67.035156 28.59375 67.070312 27.402344 67.1875 C 25.359375 67.390625 24.429688 68.082031 24.003906 68.628906 C 23.664062 69.066406 23.546875 69.535156 23.578125 69.960938 "/>
<path fill-rule="nonzero" fill="rgb(85.098039%, 51.372549%, 50.196078%)" fill-opacity="1" d="M 34.675781 72.023438 C 33.082031 72.023438 32.0625 71.539062 31.484375 71.132812 C 29.847656 69.972656 29.746094 68.089844 30.746094 67.183594 L 31.128906 67.367188 C 30.25 68.160156 30.367188 69.886719 31.832031 70.921875 C 32.34375 71.285156 33.253906 71.710938 34.683594 71.710938 C 35.769531 71.710938 37.160156 71.464844 38.910156 70.761719 L 39.15625 71.023438 C 37.320312 71.765625 35.84375 72.023438 34.675781 72.023438 "/>
<path fill-rule="nonzero" fill="rgb(89.803922%, 54.117647%, 52.941176%)" fill-opacity="1" d="M 78.039062 40.601562 C 77.945312 40.511719 77.847656 40.429688 77.746094 40.347656 C 77.871094 40.3125 78 40.28125 78.132812 40.25 L 78.296875 40.539062 C 78.210938 40.558594 78.125 40.582031 78.039062 40.601562 "/>
<path fill-rule="nonzero" fill="rgb(85.098039%, 51.372549%, 50.196078%)" fill-opacity="1" d="M 70.824219 48.25 C 69.847656 48.25 68.835938 48.089844 67.988281 47.761719 L 68.230469 47.496094 C 69.007812 47.796875 69.9375 47.945312 70.828125 47.945312 C 71.757812 47.945312 72.648438 47.785156 73.289062 47.460938 C 74.160156 47.019531 74.433594 46.351562 74.078125 45.53125 C 73.09375 43.261719 73.355469 41.507812 77.746094 40.347656 C 77.847656 40.429688 77.945312 40.511719 78.039062 40.601562 C 73.847656 41.679688 73.582031 43.261719 74.53125 45.445312 C 74.9375 46.386719 74.597656 47.1875 73.574219 47.707031 C 72.859375 48.070312 71.863281 48.25 70.824219 48.25 "/>
<path fill-rule="nonzero" fill="rgb(89.803922%, 54.117647%, 52.941176%)" fill-opacity="1" d="M 68.59375 80.570312 C 68.734375 80.511719 68.875 80.453125 69.015625 80.386719 L 69.066406 80.488281 C 68.910156 80.523438 68.75 80.550781 68.59375 80.570312 "/>
<path fill-rule="nonzero" fill="rgb(85.098039%, 51.372549%, 50.196078%)" fill-opacity="1" d="M 67.851562 80.621094 C 67.003906 80.621094 66.207031 80.421875 65.5625 80.039062 C 64.28125 79.277344 63.859375 77.933594 64.398438 76.351562 C 64.804688 75.15625 64.453125 74.121094 63.382812 73.359375 C 62.214844 72.523438 60.25 72.082031 57.835938 72.082031 C 57.195312 72.082031 56.523438 72.113281 55.828125 72.175781 L 55.765625 71.871094 C 56.464844 71.804688 57.144531 71.773438 57.792969 71.773438 C 59.289062 71.773438 60.628906 71.941406 61.738281 72.257812 C 63.675781 72.230469 64.628906 71.246094 65.023438 70.660156 C 65.863281 69.414062 65.726562 67.789062 64.71875 67.039062 L 65.074219 66.835938 C 66.207031 67.679688 66.375 69.414062 65.453125 70.785156 C 64.8125 71.734375 63.777344 72.328125 62.488281 72.507812 C 62.957031 72.691406 63.382812 72.898438 63.730469 73.148438 C 64.910156 73.988281 65.300781 75.121094 64.855469 76.417969 C 64.355469 77.890625 64.726562 79.125 65.878906 79.808594 C 66.433594 80.140625 67.121094 80.308594 67.859375 80.308594 C 68.207031 80.308594 68.5625 80.273438 68.917969 80.195312 L 69.015625 80.386719 C 68.875 80.453125 68.734375 80.511719 68.59375 80.570312 C 68.34375 80.605469 68.097656 80.621094 67.851562 80.621094 "/>
<path fill-rule="nonzero" fill="rgb(76.862745%, 46.666667%, 45.098039%)" fill-opacity="1" d="M 101.058594 74.453125 C 99.847656 74.453125 98.640625 74.105469 97.667969 73.4375 L 98.007812 73.222656 C 98.988281 73.894531 100.074219 74.140625 101.050781 74.140625 C 101.640625 74.140625 102.183594 74.050781 102.636719 73.910156 C 104.15625 73.441406 105.015625 72.425781 104.8125 71.320312 L 105.28125 71.285156 C 105.5 72.523438 104.546875 73.664062 102.839844 74.191406 C 102.265625 74.367188 101.65625 74.453125 101.058594 74.453125 "/>
<path fill-rule="nonzero" fill="rgb(76.862745%, 46.666667%, 45.098039%)" fill-opacity="1" d="M 101.542969 80.105469 C 100.378906 80.105469 98.972656 79.941406 97.265625 79.523438 L 97.433594 79.234375 C 99.101562 79.640625 100.46875 79.804688 101.585938 79.804688 C 104.253906 79.804688 105.5 78.878906 106.066406 78.179688 C 107.289062 76.660156 106.722656 74.355469 104.910156 73.519531 L 105.183594 73.269531 C 107.199219 74.195312 107.832031 76.652344 106.480469 78.324219 C 105.96875 78.953125 104.617188 80.105469 101.542969 80.105469 "/>
<path fill-rule="nonzero" fill="rgb(76.862745%, 46.666667%, 45.098039%)" fill-opacity="1" d="M 107.457031 74.492188 C 106.527344 72.175781 108.128906 71.0625 109.164062 70.605469 C 110.023438 70.230469 111.097656 70.035156 112.101562 70.035156 C 112.984375 70.035156 113.816406 70.183594 114.417969 70.480469 L 114.132812 70.726562 C 113.648438 70.488281 112.902344 70.347656 112.078125 70.347656 C 111.203125 70.347656 110.242188 70.507812 109.433594 70.863281 C 108.496094 71.273438 107.054688 72.28125 107.910156 74.414062 L 107.457031 74.492188 "/>
<path fill-rule="nonzero" fill="rgb(81.176471%, 49.019608%, 47.45098%)" fill-opacity="1" d="M 113.269531 50.097656 C 113.1875 50.082031 113.097656 50.066406 113.015625 50.050781 C 113.097656 49.679688 113.023438 49.335938 112.839844 49.035156 C 112.765625 48.699219 112.605469 48.390625 112.355469 48.128906 L 112.757812 47.964844 C 113.300781 48.53125 113.484375 49.3125 113.269531 50.097656 "/>
<path fill-rule="nonzero" fill="rgb(76.862745%, 46.666667%, 45.098039%)" fill-opacity="1" d="M 111.40625 57.78125 L 111.15625 57.519531 C 111.632812 57.316406 112.296875 56.339844 112.25 55.269531 C 112.214844 54.507812 111.804688 53.460938 110.039062 52.816406 L 109.667969 52.679688 L 110.039062 52.542969 C 111.398438 52.046875 112.355469 51.246094 112.726562 50.285156 C 112.894531 49.859375 112.929688 49.429688 112.839844 49.035156 C 113.023438 49.335938 113.097656 49.679688 113.015625 50.050781 C 113.097656 50.066406 113.1875 50.082031 113.269531 50.097656 C 113.242188 50.1875 113.21875 50.273438 113.1875 50.359375 C 112.804688 51.320312 111.902344 52.136719 110.605469 52.679688 C 112.273438 53.402344 112.675781 54.46875 112.71875 55.261719 C 112.773438 56.398438 112.070312 57.5 111.40625 57.78125 "/>
<path fill-rule="nonzero" fill="rgb(81.176471%, 49.019608%, 47.45098%)" fill-opacity="1" d="M 122.046875 57.601562 C 121.957031 57.472656 121.859375 57.347656 121.753906 57.230469 C 121.761719 57.21875 121.769531 57.207031 121.769531 57.195312 L 122.222656 57.273438 C 122.183594 57.386719 122.117188 57.496094 122.046875 57.601562 "/>
<path fill-rule="nonzero" fill="rgb(76.862745%, 46.666667%, 45.098039%)" fill-opacity="1" d="M 117.894531 59.085938 C 116.261719 59.085938 114.757812 58.609375 113.890625 57.789062 L 114.289062 57.613281 C 115.054688 58.351562 116.40625 58.777344 117.894531 58.777344 C 118.179688 58.777344 118.476562 58.761719 118.777344 58.726562 C 120.289062 58.554688 121.429688 57.984375 121.753906 57.230469 C 121.859375 57.347656 121.957031 57.472656 122.046875 57.601562 C 121.535156 58.324219 120.363281 58.859375 118.851562 59.03125 C 118.535156 59.066406 118.210938 59.085938 117.894531 59.085938 "/>
<path fill-rule="nonzero" fill="rgb(76.862745%, 46.666667%, 45.098039%)" fill-opacity="1" d="M 119.261719 64.992188 L 118.921875 64.78125 C 120.6875 63.53125 120.96875 60.980469 118.671875 59.570312 L 118.996094 59.347656 C 121.480469 60.875 121.179688 63.636719 119.261719 64.992188 "/>
<path fill-rule="nonzero" fill="rgb(16.862745%, 10.196078%, 2.745098%)" fill-opacity="1" d="M 66.949219 55.066406 C 66.949219 56.253906 65.484375 57.214844 63.675781 57.214844 C 61.867188 57.214844 60.402344 56.253906 60.402344 55.066406 C 60.402344 53.882812 61.867188 52.921875 63.675781 52.921875 C 65.484375 52.921875 66.949219 53.882812 66.949219 55.066406 "/>
<path fill-rule="nonzero" fill="rgb(12.941176%, 7.843137%, 2.352941%)" fill-opacity="1" d="M 66.066406 55.066406 C 66.066406 55.933594 64.996094 56.636719 63.675781 56.636719 C 62.351562 56.636719 61.28125 55.933594 61.28125 55.066406 C 61.28125 54.203125 62.351562 53.5 63.675781 53.5 C 64.996094 53.5 66.066406 54.203125 66.066406 55.066406 "/>
<path fill-rule="nonzero" fill="rgb(0%, 0%, 0%)" fill-opacity="1" d="M 65.078125 55.066406 C 65.078125 55.578125 64.449219 55.988281 63.675781 55.988281 C 62.898438 55.988281 62.269531 55.578125 62.269531 55.066406 C 62.269531 54.558594 62.898438 54.148438 63.675781 54.148438 C 64.449219 54.148438 65.078125 54.558594 65.078125 55.066406 "/>
<path fill-rule="nonzero" fill="rgb(100%, 100%, 100%)" fill-opacity="1" d="M 66.925781 54.808594 C 66.800781 54.136719 66.207031 53.5625 65.367188 53.230469 C 65.460938 53.21875 65.558594 53.210938 65.660156 53.210938 C 66.515625 53.210938 67.207031 53.664062 67.207031 54.222656 C 67.207031 54.441406 67.101562 54.640625 66.925781 54.808594 "/>
<path fill-rule="nonzero" fill="rgb(56.470588%, 53.333333%, 49.411765%)" fill-opacity="1" d="M 66.058594 55.203125 C 66.0625 55.160156 66.066406 55.113281 66.066406 55.066406 C 66.066406 54.382812 65.394531 53.800781 64.460938 53.585938 C 64.683594 53.40625 65.003906 53.277344 65.367188 53.230469 C 66.207031 53.5625 66.800781 54.136719 66.925781 54.808594 C 66.71875 55 66.414062 55.140625 66.058594 55.203125 "/>
<path fill-rule="nonzero" fill="rgb(54.509804%, 51.764706%, 49.019608%)" fill-opacity="1" d="M 65.660156 55.238281 C 65.453125 55.238281 65.253906 55.210938 65.070312 55.160156 C 65.074219 55.128906 65.078125 55.097656 65.078125 55.066406 C 65.078125 54.660156 64.675781 54.316406 64.117188 54.195312 C 64.128906 53.964844 64.253906 53.753906 64.460938 53.585938 C 65.394531 53.800781 66.066406 54.382812 66.066406 55.066406 C 66.066406 55.113281 66.0625 55.160156 66.058594 55.203125 C 65.929688 55.226562 65.796875 55.238281 65.660156 55.238281 "/>
<path fill-rule="nonzero" fill="rgb(47.843137%, 47.843137%, 47.843137%)" fill-opacity="1" d="M 65.070312 55.160156 C 64.511719 55.007812 64.117188 54.644531 64.117188 54.222656 C 64.117188 54.214844 64.117188 54.203125 64.117188 54.195312 C 64.675781 54.316406 65.078125 54.660156 65.078125 55.066406 C 65.078125 55.097656 65.074219 55.128906 65.070312 55.160156 "/>
<path fill-rule="nonzero" fill="rgb(94.901961%, 94.901961%, 94.901961%)" fill-opacity="1" d="M 109.949219 56.203125 C 109.949219 59.265625 106.164062 61.75 101.488281 61.75 C 96.820312 61.75 93.027344 59.265625 93.027344 56.203125 C 93.027344 53.136719 96.820312 50.652344 101.488281 50.652344 C 106.164062 50.652344 109.949219 53.136719 109.949219 56.203125 "/>
<path fill-rule="nonzero" fill="rgb(100%, 100%, 100%)" fill-opacity="1" d="M 101.488281 50.652344 C 99.59375 50.652344 97.855469 51.066406 96.449219 51.757812 C 95.03125 52.75 94.160156 54.078125 94.160156 55.542969 C 94.160156 58.605469 97.945312 61.089844 102.621094 61.089844 C 104.515625 61.089844 106.253906 60.675781 107.667969 59.988281 C 109.085938 58.996094 109.949219 57.667969 109.949219 56.203125 C 109.949219 53.136719 106.164062 50.652344 101.488281 50.652344 "/>
<path fill-rule="nonzero" fill="rgb(16.862745%, 10.196078%, 2.745098%)" fill-opacity="1" d="M 105.679688 53.621094 C 105.679688 54.804688 104.214844 55.769531 102.402344 55.769531 C 100.597656 55.769531 99.125 54.804688 99.125 53.621094 C 99.125 52.433594 100.597656 51.472656 102.402344 51.472656 C 104.214844 51.472656 105.679688 52.433594 105.679688 53.621094 "/>
<path fill-rule="nonzero" fill="rgb(12.941176%, 7.843137%, 2.352941%)" fill-opacity="1" d="M 104.609375 53.621094 C 104.609375 54.488281 103.542969 55.1875 102.214844 55.1875 C 100.898438 55.1875 99.828125 54.488281 99.828125 53.621094 C 99.828125 52.753906 100.898438 52.054688 102.214844 52.054688 C 103.542969 52.054688 104.609375 52.753906 104.609375 53.621094 "/>
<path fill-rule="nonzero" fill="rgb(0%, 0%, 0%)" fill-opacity="1" d="M 103.625 53.621094 C 103.625 54.128906 102.992188 54.539062 102.214844 54.539062 C 101.449219 54.539062 100.816406 54.128906 100.816406 53.621094 C 100.816406 53.113281 101.449219 52.699219 102.214844 52.699219 C 102.992188 52.699219 103.625 53.113281 103.625 53.621094 "/>
<path fill-rule="nonzero" fill="rgb(100%, 100%, 100%)" fill-opacity="1" d="M 105.65625 53.359375 C 105.535156 52.691406 104.933594 52.113281 104.09375 51.78125 C 104.191406 51.769531 104.289062 51.761719 104.394531 51.761719 C 105.242188 51.761719 105.9375 52.21875 105.9375 52.777344 C 105.9375 52.992188 105.832031 53.195312 105.65625 53.359375 "/>
<path fill-rule="nonzero" fill="rgb(56.470588%, 53.333333%, 49.411765%)" fill-opacity="1" d="M 104.601562 53.78125 C 104.609375 53.726562 104.609375 53.675781 104.609375 53.621094 C 104.609375 52.96875 104.003906 52.414062 103.148438 52.175781 C 103.375 51.976562 103.703125 51.832031 104.09375 51.78125 C 104.933594 52.113281 105.535156 52.691406 105.65625 53.359375 C 105.410156 53.585938 105.03125 53.742188 104.601562 53.78125 "/>
<path fill-rule="nonzero" fill="rgb(54.509804%, 51.764706%, 49.019608%)" fill-opacity="1" d="M 104.394531 53.789062 C 104.109375 53.789062 103.851562 53.742188 103.625 53.65625 C 103.625 53.644531 103.625 53.632812 103.625 53.621094 C 103.625 53.257812 103.308594 52.949219 102.847656 52.796875 C 102.847656 52.789062 102.847656 52.78125 102.847656 52.777344 C 102.847656 52.550781 102.960938 52.34375 103.148438 52.175781 C 104.003906 52.414062 104.609375 52.96875 104.609375 53.621094 C 104.609375 53.675781 104.609375 53.726562 104.601562 53.78125 C 104.53125 53.785156 104.464844 53.789062 104.394531 53.789062 "/>
<path fill-rule="nonzero" fill="rgb(47.843137%, 47.843137%, 47.843137%)" fill-opacity="1" d="M 103.625 53.65625 C 103.164062 53.484375 102.855469 53.164062 102.847656 52.796875 C 103.308594 52.949219 103.625 53.257812 103.625 53.621094 C 103.625 53.632812 103.625 53.644531 103.625 53.65625 "/>
<path fill-rule="nonzero" fill="rgb(97.254902%, 77.647059%, 76.862745%)" fill-opacity="1" d="M 88.179688 59.542969 C 87.574219 59.542969 88.761719 58.800781 88.632812 58.382812 C 88.496094 57.9375 86.882812 58.039062 87.855469 57.910156 C 88.023438 57.886719 88.1875 57.875 88.347656 57.875 C 89.117188 57.875 89.75 58.117188 89.863281 58.484375 C 90 58.933594 89.328125 59.398438 88.359375 59.527344 C 88.285156 59.539062 88.226562 59.542969 88.179688 59.542969 "/>
<path fill-rule="nonzero" fill="rgb(18.039216%, 5.882353%, 1.960784%)" fill-opacity="1" d="M 89.960938 64.558594 C 89.59375 65.226562 88.347656 65.855469 86.757812 65.925781 C 85.171875 66 81.464844 66.515625 81.078125 68.785156 C 80.695312 71.054688 84.800781 71.839844 86.640625 70.785156 C 88.480469 69.734375 88.828125 67.929688 87.660156 67.039062 C 90.484375 66.097656 89.960938 64.558594 89.960938 64.558594 "/>
<path fill-rule="nonzero" fill="rgb(66.27451%, 40%, 38.823529%)" fill-opacity="1" d="M 81.40625 73.660156 C 80.792969 73.660156 80.222656 73.304688 79.886719 72.125 C 80.070312 72.546875 81.128906 73.105469 82.484375 73.105469 C 82.703125 73.105469 82.933594 73.089844 83.167969 73.058594 C 82.671875 73.304688 82.019531 73.660156 81.40625 73.660156 "/>
<path fill-rule="nonzero" fill="rgb(56.078431%, 56.078431%, 56.078431%)" fill-opacity="1" d="M 141.285156 22.585938 C 141.019531 22.636719 140.773438 22.726562 140.566406 22.816406 C 139.503906 23.285156 138.6875 24.21875 138.914062 24.703125 C 138.945312 24.777344 139.050781 25.003906 139.8125 25.003906 C 140.960938 25.003906 141.648438 24.714844 141.828125 24.152344 C 142.011719 23.609375 141.6875 22.96875 141.285156 22.585938 M 136.105469 22.601562 C 135.644531 22.898438 135.332031 23.269531 135.199219 23.6875 C 135 24.378906 135.539062 24.96875 136.15625 25.066406 C 136.699219 25.152344 137.183594 24.835938 137.457031 24.214844 C 137.75 23.542969 137.0625 22.945312 136.105469 22.601562 M 139.425781 33.101562 C 139.359375 32.941406 137.984375 29.179688 141.460938 27.304688 C 143.167969 26.386719 144.074219 25.429688 144.066406 24.539062 C 144.066406 23.875 143.566406 23.269531 142.578125 22.746094 C 142.425781 22.664062 142.273438 22.609375 142.109375 22.578125 C 142.5 23.066406 142.714844 23.699219 142.53125 24.253906 C 142.386719 24.710938 141.828125 25.472656 139.8125 25.472656 C 138.6875 25.472656 138.332031 25.078125 138.226562 24.839844 C 137.871094 24.078125 138.960938 22.957031 140.160156 22.425781 C 140.328125 22.351562 140.5 22.289062 140.667969 22.238281 C 139.335938 21.859375 138.007812 21.855469 136.925781 22.21875 L 136.714844 22.292969 C 137.789062 22.75 138.519531 23.496094 138.144531 24.34375 C 137.691406 25.394531 136.738281 25.640625 135.992188 25.523438 C 135.03125 25.371094 134.207031 24.5625 134.496094 23.597656 C 134.632812 23.148438 134.949219 22.742188 135.402344 22.40625 L 135.332031 22.390625 C 134.214844 22.175781 132.757812 22.257812 132.328125 23.195312 C 131.429688 25.132812 134.78125 26.890625 136.859375 27.765625 C 138.761719 28.566406 138.179688 30.285156 137.605469 31.945312 C 137.472656 32.328125 137.34375 32.714844 137.238281 33.085938 L 136.535156 33.003906 C 136.640625 32.625 136.769531 32.234375 136.90625 31.84375 C 137.441406 30.269531 137.953125 28.785156 136.472656 28.160156 C 134.222656 27.214844 130.613281 25.292969 131.640625 23.058594 C 132.191406 21.871094 133.988281 21.640625 135.53125 21.9375 C 135.6875 21.96875 135.839844 22.003906 135.992188 22.046875 C 136.179688 21.953125 136.382812 21.871094 136.601562 21.800781 C 137.917969 21.355469 139.503906 21.371094 141.082031 21.84375 C 141.246094 21.890625 141.414062 21.972656 141.566406 22.078125 C 142.09375 22.050781 142.601562 22.148438 143.03125 22.378906 C 144.171875 22.988281 144.789062 23.734375 144.789062 24.539062 C 144.789062 25.574219 143.800781 26.65625 141.921875 27.667969 C 138.792969 29.355469 140.113281 32.953125 140.121094 32.988281 L 139.425781 33.101562 "/>
<path fill-rule="nonzero" fill="rgb(60.784314%, 60.784314%, 60.784314%)" fill-opacity="1" d="M 142.910156 34.375 L 133.429688 34.375 C 132.675781 34.375 132.070312 33.976562 132.070312 33.480469 C 132.070312 32.988281 132.675781 32.585938 133.429688 32.585938 L 142.910156 32.585938 C 143.664062 32.585938 144.277344 32.988281 144.277344 33.480469 C 144.277344 33.976562 143.664062 34.375 142.910156 34.375 "/>
<path fill-rule="nonzero" fill="rgb(71.372549%, 71.372549%, 71.372549%)" fill-opacity="1" d="M 138.664062 33.824219 L 133.703125 33.824219 C 133.453125 33.824219 133.257812 33.691406 133.257812 33.527344 L 133.257812 33.347656 C 133.257812 33.183594 133.453125 33.054688 133.703125 33.054688 L 138.664062 33.054688 C 138.90625 33.054688 139.109375 33.183594 139.109375 33.347656 L 139.109375 33.527344 C 139.109375 33.691406 138.90625 33.824219 138.664062 33.824219 "/>
<path fill-rule="nonzero" fill="rgb(60.784314%, 60.784314%, 60.784314%)" fill-opacity="1" d="M 142.910156 36.167969 L 133.429688 36.167969 C 132.675781 36.167969 132.070312 35.765625 132.070312 35.273438 C 132.070312 34.777344 132.675781 34.375 133.429688 34.375 L 142.910156 34.375 C 143.664062 34.375 144.277344 34.777344 144.277344 35.273438 C 144.277344 35.765625 143.664062 36.167969 142.910156 36.167969 "/>
<path fill-rule="nonzero" fill="rgb(71.372549%, 71.372549%, 71.372549%)" fill-opacity="1" d="M 138.664062 35.71875 L 133.703125 35.71875 C 133.453125 35.71875 133.257812 35.585938 133.257812 35.421875 L 133.257812 35.242188 C 133.257812 35.078125 133.453125 34.949219 133.703125 34.949219 L 138.664062 34.949219 C 138.90625 34.949219 139.109375 35.078125 139.109375 35.242188 L 139.109375 35.421875 C 139.109375 35.585938 138.90625 35.71875 138.664062 35.71875 "/>
<path fill-rule="nonzero" fill="rgb(60.784314%, 60.784314%, 60.784314%)" fill-opacity="1" d="M 142.910156 37.957031 L 133.429688 37.957031 C 132.675781 37.957031 132.070312 37.554688 132.070312 37.0625 C 132.070312 36.566406 132.675781 36.167969 133.429688 36.167969 L 142.910156 36.167969 C 143.664062 36.167969 144.277344 36.566406 144.277344 37.0625 C 144.277344 37.554688 143.664062 37.957031 142.910156 37.957031 "/>
<path fill-rule="nonzero" fill="rgb(98.039216%, 81.568627%, 18.431373%)" fill-opacity="1" d="M 138.726562 8.054688 C 137.804688 8.054688 137.0625 7.566406 137.0625 6.960938 L 137.0625 1.089844 C 137.0625 0.488281 137.804688 0 138.726562 0 C 139.640625 0 140.386719 0.488281 140.386719 1.089844 L 140.386719 6.960938 C 140.386719 7.566406 139.640625 8.054688 138.726562 8.054688 "/>
<path fill-rule="nonzero" fill="rgb(98.039216%, 81.568627%, 18.431373%)" fill-opacity="1" d="M 152.578125 12.75 C 151.808594 12.425781 151.582031 11.75 152.085938 11.242188 L 156.941406 6.308594 C 157.433594 5.800781 158.46875 5.65625 159.238281 5.984375 C 160.015625 6.308594 160.230469 6.984375 159.730469 7.492188 L 154.882812 12.425781 C 154.382812 12.933594 153.355469 13.078125 152.578125 12.75 "/>
<path fill-rule="nonzero" fill="rgb(98.039216%, 81.568627%, 18.431373%)" fill-opacity="1" d="M 123.753906 12.75 C 124.53125 12.425781 124.746094 11.75 124.246094 11.242188 L 119.398438 6.308594 C 118.898438 5.800781 117.871094 5.65625 117.09375 5.984375 C 116.324219 6.308594 116.097656 6.984375 116.601562 7.492188 L 121.457031 12.425781 C 121.949219 12.933594 122.984375 13.078125 123.753906 12.75 "/>
<path fill-rule="nonzero" fill="rgb(71.372549%, 71.372549%, 71.372549%)" fill-opacity="1" d="M 138.664062 37.519531 L 133.703125 37.519531 C 133.453125 37.519531 133.257812 37.390625 133.257812 37.226562 L 133.257812 37.046875 C 133.257812 36.882812 133.453125 36.75 133.703125 36.75 L 138.664062 36.75 C 138.90625 36.75 139.109375 36.882812 139.109375 37.046875 L 139.109375 37.226562 C 139.109375 37.390625 138.90625 37.519531 138.664062 37.519531 "/>
</svg>
