<?xml version="1.0" encoding="UTF-8"?>
<svg xmlns="http://www.w3.org/2000/svg" xmlns:xlink="http://www.w3.org/1999/xlink" width="160" height="100" viewBox="0 0 160 100">
<path fill-rule="nonzero" fill="rgb(32.941176%, 56.862745%, 66.27451%)" fill-opacity="1" d="M 149.230469 76.269531 C 151.519531 78.058594 155.644531 83.242188 157.753906 87.574219 C 143.820312 79.765625 121.914062 82.949219 121.914062 82.949219 C 121.914062 82.949219 127.414062 75.894531 127.503906 75.699219 C 127.597656 75.5 142.40625 73.53125 142.40625 73.53125 L 149.230469 76.269531 "/>
<path fill-rule="nonzero" fill="rgb(76.862745%, 76.470588%, 70.980392%)" fill-opacity="1" d="M 150.511719 70.972656 L 159.3125 78.191406 C 148.953125 75.5 128.511719 77.402344 121.914062 82.949219 C 119.894531 73.335938 125.121094 69.59375 125.121094 69.59375 L 138.503906 69.855469 L 150.511719 70.972656 "/>
<path fill-rule="nonzero" fill="rgb(32.941176%, 56.862745%, 66.27451%)" fill-opacity="1" d="M 89.738281 91.804688 C 89.738281 92.167969 92.488281 96.890625 92.671875 98.664062 C 95.695312 89.476562 109.355469 81.734375 121.914062 82.949219 C 107.796875 77.929688 106.421875 77.402344 106.421875 77.402344 L 96.0625 83.503906 L 89.738281 91.804688 "/>
<path fill-rule="nonzero" fill="rgb(90.196078%, 54.509804%, 52.941176%)" fill-opacity="1" d="M 89.175781 9.226562 C 91.003906 4.832031 104.054688 -2.640625 114.757812 6.703125 C 119.847656 3.898438 134.46875 4.832031 132.378906 15.296875 C 135.640625 13.898438 139.164062 15.671875 138.644531 18.195312 C 146.996094 19.875 148.824219 21.746094 146.476562 26.789062 C 152.609375 28.191406 155.351562 34.078125 150.78125 39.214844 C 157.992188 42.835938 156.785156 53.511719 145.5625 54.164062 C 145.953125 59.863281 137.339844 59.796875 136.035156 57.902344 C 135.96875 67.644531 119.132812 70.515625 112.019531 65.84375 C 108.753906 68.835938 94.65625 68.273438 92.179688 58.742188 C 89.699219 49.214844 80.300781 13.523438 80.300781 13.523438 L 89.175781 9.226562 "/>
<path fill-rule="nonzero" fill="rgb(100%, 60.392157%, 58.823529%)" fill-opacity="1" d="M 69.335938 3.246094 C 77.039062 -1.894531 88.394531 -0.304688 88.394531 7.074219 C 92.179688 6.890625 92.960938 12.960938 89.960938 13.617188 C 97.53125 13.429688 95.964844 20.25 95.050781 21.277344 C 98.3125 21.371094 98.183594 25.109375 95.179688 26.695312 C 92.179688 28.285156 95.832031 32.210938 101.054688 30.339844 C 103.144531 31.273438 104.1875 35.574219 98.445312 37.160156 C 99.488281 43.140625 96.09375 58.464844 94.398438 60.988281 C 92.699219 63.507812 86.175781 66.964844 77.820312 64.070312 C 67.769531 74.347656 51.714844 65.9375 51.714844 65.9375 C 31.484375 74.160156 22.871094 62.949219 22.089844 60.519531 C 9.558594 61.828125 8.382812 54.351562 9.035156 51.828125 C -10.019531 44.542969 5.640625 31.648438 14.386719 32.769531 C 4.597656 21.933594 23.652344 17.261719 27.441406 19.222656 C 23.261719 12.121094 35.402344 8.945312 38.535156 12.214844 C 36.574219 4.738281 51.195312 3.527344 52.628906 5.394531 C 51.847656 -0.492188 67.378906 -2.082031 69.335938 3.246094 "/>
<path fill-rule="nonzero" fill="rgb(85.490196%, 51.764706%, 50.196078%)" fill-opacity="1" d="M 116.316406 64.578125 C 113.328125 64.578125 110.46875 63.929688 108.464844 62.613281 C 107.484375 63.511719 105.410156 64.054688 103.003906 64.054688 C 100.085938 64.054688 96.679688 63.257812 94.132812 61.339844 C 94.230469 61.21875 94.320312 61.101562 94.398438 60.988281 C 94.914062 60.21875 95.589844 58.257812 96.25 55.738281 C 97.078125 55.261719 97.757812 54.699219 98.261719 54.148438 C 97.742188 54.480469 97.121094 54.78125 96.425781 55.039062 C 97.164062 52.089844 97.859375 48.5 98.269531 45.167969 C 100.199219 45.4375 101.777344 46.003906 102.851562 46.839844 C 104.273438 47.945312 104.742188 49.449219 104.199219 51.1875 C 103.484375 53.484375 104.046875 55.4375 105.746094 56.542969 C 106.605469 57.097656 107.667969 57.386719 108.796875 57.386719 C 109.324219 57.386719 109.867188 57.324219 110.410156 57.195312 L 110.214844 56.769531 C 109.738281 56.882812 109.265625 56.9375 108.804688 56.9375 C 107.824219 56.9375 106.90625 56.6875 106.171875 56.210938 C 104.640625 55.214844 104.144531 53.421875 104.808594 51.285156 C 105.398438 49.398438 104.882812 47.753906 103.3125 46.535156 C 102.847656 46.175781 102.285156 45.867188 101.660156 45.601562 C 103.371094 45.34375 104.753906 44.480469 105.605469 43.101562 C 106.832031 41.113281 106.609375 38.59375 105.097656 37.367188 L 104.628906 37.660156 C 105.96875 38.75 106.148438 41.109375 105.03125 42.917969 C 104.507812 43.769531 103.242188 45.203125 100.664062 45.242188 C 99.949219 45.019531 99.164062 44.847656 98.320312 44.730469 C 98.664062 41.75 98.765625 39.007812 98.445312 37.160156 C 104.1875 35.574219 103.144531 31.273438 101.054688 30.339844 C 100.085938 30.6875 99.171875 30.835938 98.34375 30.835938 C 94.707031 30.835938 92.734375 27.992188 95.179688 26.695312 C 98.183594 25.109375 98.3125 21.371094 95.050781 21.277344 C 95.949219 20.265625 97.488281 13.613281 90.261719 13.613281 C 90.160156 13.613281 90.0625 13.613281 89.960938 13.617188 C 91.972656 13.175781 92.285156 10.296875 91.125 8.507812 C 93.480469 6.894531 96.867188 5.566406 100.582031 5.566406 C 103.9375 5.566406 107.558594 6.648438 110.921875 9.585938 C 112.308594 8.824219 114.480469 8.367188 116.78125 8.367188 C 122.0625 8.367188 128.023438 10.757812 126.722656 17.292969 C 127.433594 16.988281 128.15625 16.851562 128.839844 16.851562 C 130.300781 16.851562 131.566406 17.472656 132.105469 18.417969 C 132.222656 18.988281 132.171875 19.609375 131.953125 20.226562 C 131.457031 21.621094 130.1875 22.789062 128.375 23.511719 L 127.886719 23.707031 L 128.375 23.902344 C 130.390625 24.710938 131.078125 25.945312 131.261719 26.980469 L 127.535156 27.207031 C 127.445312 22.808594 122.441406 19.265625 116.277344 19.265625 C 116.257812 19.265625 116.234375 19.265625 116.214844 19.265625 C 116.203125 19.265625 116.195312 19.265625 116.1875 19.265625 C 116.175781 19.265625 116.164062 19.269531 116.148438 19.269531 C 116.136719 19.269531 116.128906 19.269531 116.117188 19.269531 C 116.105469 19.269531 116.097656 19.269531 116.085938 19.269531 C 116.074219 19.269531 116.058594 19.269531 116.046875 19.269531 C 116.042969 19.269531 116.039062 19.269531 116.035156 19.269531 C 109.929688 19.363281 105.023438 22.933594 105.023438 27.324219 C 105.023438 30.203125 107.132812 32.730469 110.304688 34.15625 L 111.132812 37.792969 C 111.246094 38.292969 112.09375 38.664062 113.078125 38.664062 C 113.15625 38.664062 113.234375 38.660156 113.316406 38.65625 L 114.039062 38.613281 C 114.03125 38.648438 114.027344 38.664062 114.027344 38.664062 L 114.871094 38.664062 L 114.910156 38.558594 L 116.640625 38.457031 L 116.5625 38.664062 C 116.5625 38.664062 118.15625 38.855469 119.234375 38.855469 C 119.773438 38.855469 120.183594 38.808594 120.203125 38.664062 C 120.207031 38.621094 120.25 38.46875 120.324219 38.234375 L 126.679688 37.851562 L 120.265625 39.066406 C 117.40625 39.605469 115.703125 41.703125 116.457031 43.746094 C 117.09375 45.464844 119.257812 46.601562 121.628906 46.601562 C 122.082031 46.601562 122.539062 46.558594 123 46.472656 L 132.652344 44.644531 C 135.511719 44.105469 137.214844 42.007812 136.460938 39.964844 C 136.027344 38.796875 134.890625 37.898438 133.464844 37.441406 L 137.164062 37.21875 C 138.234375 37.15625 139 36.671875 138.878906 36.132812 L 138.164062 32.988281 C 138.382812 33.003906 138.601562 33.011719 138.824219 33.011719 C 139.246094 33.011719 139.675781 32.984375 140.105469 32.929688 C 142.109375 32.683594 143.671875 31.90625 144.351562 30.851562 C 145.773438 33.074219 145.636719 36.019531 143.222656 38.738281 C 149.6875 41.984375 148.605469 51.554688 138.542969 52.140625 C 138.761719 55.359375 135.785156 56.523438 133.253906 56.523438 C 131.765625 56.523438 130.429688 56.121094 130 55.492188 C 129.957031 61.484375 122.839844 64.578125 116.316406 64.578125 M 111.605469 62.269531 L 111.386719 62.691406 C 113.652344 63.300781 115.527344 63.539062 117.078125 63.539062 C 121.171875 63.539062 122.96875 61.867188 123.644531 60.949219 C 125.4375 58.523438 124.597656 54.957031 121.921875 53.609375 L 121.5625 53.976562 C 123.960938 55.183594 124.71875 58.535156 123.09375 60.738281 C 122.34375 61.753906 120.679688 63.101562 117.128906 63.101562 C 115.644531 63.101562 113.824219 62.867188 111.605469 62.269531 M 131.128906 48.914062 C 129.789062 48.914062 128.363281 49.195312 127.21875 49.742188 C 125.835938 50.40625 123.703125 52.019531 124.945312 55.386719 L 125.550781 55.273438 C 124.410156 52.175781 126.324219 50.710938 127.566406 50.113281 C 128.652344 49.597656 129.929688 49.367188 131.09375 49.367188 C 132.1875 49.367188 133.179688 49.570312 133.820312 49.917969 L 134.199219 49.558594 C 133.402344 49.128906 132.300781 48.914062 131.128906 48.914062 M 112.375 53.542969 L 111.921875 53.851562 C 113.214844 54.820312 114.820312 55.332031 116.429688 55.332031 C 117.230469 55.332031 118.035156 55.203125 118.804688 54.949219 C 121.070312 54.183594 122.347656 52.527344 122.050781 50.730469 L 121.429688 50.78125 C 121.691406 52.386719 120.554688 53.863281 118.535156 54.539062 C 117.929688 54.746094 117.203125 54.875 116.417969 54.875 C 115.121094 54.875 113.671875 54.515625 112.375 53.542969 M 140.292969 33.386719 L 139.863281 33.714844 C 142.917969 35.761719 142.546875 39.464844 140.191406 41.28125 L 140.652344 41.585938 C 143.203125 39.617188 143.601562 35.609375 140.292969 33.386719 M 138.824219 32.5625 C 138.566406 32.5625 138.308594 32.550781 138.058594 32.53125 L 136.945312 27.632812 C 136.832031 27.132812 135.980469 26.761719 135 26.761719 C 134.921875 26.761719 134.839844 26.765625 134.761719 26.769531 L 131.886719 26.945312 C 131.707031 25.875 131.039062 24.609375 129.136719 23.707031 C 130.855469 22.917969 132.0625 21.734375 132.5625 20.335938 C 132.605469 20.210938 132.644531 20.085938 132.675781 19.957031 C 139.875 21.449219 141.433594 23.140625 139.359375 27.597656 C 141.347656 28.050781 142.9375 29.03125 143.96875 30.316406 C 143.527344 31.410156 142.015625 32.242188 139.996094 32.488281 C 139.601562 32.539062 139.210938 32.5625 138.824219 32.5625 "/>
<path fill-rule="nonzero" fill="rgb(94.901961%, 57.254902%, 55.686275%)" fill-opacity="1" d="M 66.304688 65.601562 C 59.941406 65.601562 54.398438 62.699219 54.398438 62.699219 C 49.660156 64.621094 45.640625 65.359375 42.261719 65.359375 C 32.707031 65.359375 28.351562 59.449219 27.832031 57.839844 C 26.9375 57.933594 26.113281 57.976562 25.34375 57.976562 C 16.441406 57.976562 15.589844 52.128906 16.128906 50.046875 C 15.09375 49.652344 14.171875 49.238281 13.359375 48.808594 C 13.320312 48.1875 13.476562 47.503906 13.929688 46.867188 C 14.492188 46.078125 15.730469 45.070312 18.449219 44.777344 C 20.03125 44.605469 21.425781 44.554688 22.660156 44.511719 C 25.683594 44.402344 27.679688 44.328125 27.914062 42.472656 C 28.074219 41.183594 27.152344 39.972656 26.335938 38.90625 C 25.628906 37.972656 24.957031 37.09375 25.167969 36.367188 L 24.554688 36.273438 C 24.296875 37.164062 25.019531 38.113281 25.789062 39.121094 C 26.597656 40.179688 27.433594 41.277344 27.289062 42.433594 C 27.113281 43.84375 25.8125 43.949219 22.628906 44.0625 C 21.378906 44.109375 19.96875 44.160156 18.355469 44.332031 C 15.375 44.65625 14 45.78125 13.367188 46.664062 C 12.953125 47.253906 12.761719 47.875 12.734375 48.464844 C 1.671875 42.109375 12.617188 32.898438 19.929688 32.898438 C 20.269531 32.898438 20.605469 32.917969 20.925781 32.957031 C 13.453125 24.683594 24.726562 20.417969 30.339844 20.417969 C 31.316406 20.417969 32.125 20.550781 32.628906 20.8125 C 29.886719 16.148438 34.988281 13.371094 39.023438 13.371094 C 40.496094 13.371094 41.824219 13.742188 42.578125 14.527344 C 41.289062 9.609375 48 7.714844 52.175781 7.714844 C 53.691406 7.714844 54.871094 7.964844 55.214844 8.414062 C 54.808594 5.339844 59.351562 3.574219 63.566406 3.574219 C 66.597656 3.574219 69.460938 4.488281 70.195312 6.484375 C 72.90625 4.675781 76.125 3.796875 79.03125 3.796875 C 81.582031 3.796875 83.894531 4.476562 85.417969 5.792969 C 79.574219 7.480469 79.230469 10.03125 80.539062 13.324219 C 81.011719 14.515625 80.648438 15.488281 79.488281 16.128906 C 78.640625 16.597656 77.453125 16.832031 76.21875 16.832031 C 75.03125 16.832031 73.792969 16.617188 72.757812 16.179688 L 72.441406 16.566406 C 73.5625 17.039062 74.910156 17.273438 76.210938 17.273438 C 77.589844 17.273438 78.917969 17.011719 79.871094 16.484375 C 81.230469 15.730469 81.683594 14.566406 81.140625 13.199219 C 79.882812 10.027344 80.230469 7.730469 85.808594 6.164062 C 86.734375 7.132812 87.28125 8.386719 87.28125 9.917969 C 87.332031 9.917969 87.382812 9.917969 87.433594 9.917969 C 88.027344 9.917969 88.535156 10.097656 88.949219 10.386719 C 89.503906 9.757812 90.242188 9.113281 91.125 8.507812 C 92.285156 10.296875 91.972656 13.175781 89.960938 13.617188 C 90.0625 13.613281 90.160156 13.613281 90.261719 13.613281 C 97.488281 13.613281 95.949219 20.265625 95.050781 21.277344 C 98.3125 21.371094 98.183594 25.109375 95.179688 26.695312 C 92.734375 27.992188 94.707031 30.835938 98.34375 30.835938 C 99.171875 30.835938 100.085938 30.6875 101.054688 30.339844 C 103.144531 31.273438 104.1875 35.574219 98.445312 37.160156 C 98.765625 39.007812 98.664062 41.75 98.320312 44.730469 C 97.414062 44.605469 96.441406 44.539062 95.410156 44.539062 C 94.550781 44.539062 93.648438 44.585938 92.714844 44.675781 L 92.800781 45.121094 C 93.726562 45.03125 94.617188 44.984375 95.46875 44.984375 C 96.464844 44.984375 97.402344 45.046875 98.269531 45.167969 C 97.859375 48.5 97.164062 52.089844 96.425781 55.039062 C 94.9375 55.585938 93.105469 55.925781 91.160156 55.925781 C 89.179688 55.925781 87.082031 55.570312 85.121094 54.71875 C 87.523438 56.34375 89.75 56.953125 91.691406 56.953125 C 93.480469 56.953125 95.027344 56.441406 96.25 55.738281 C 95.589844 58.257812 94.914062 60.21875 94.398438 60.988281 C 94.320312 61.101562 94.230469 61.21875 94.132812 61.339844 C 93.296875 60.707031 92.554688 59.957031 91.953125 59.074219 C 90.421875 60.527344 87.382812 62.007812 83.449219 62.007812 C 81.722656 62.007812 79.820312 61.722656 77.804688 61.023438 C 74.382812 64.519531 70.191406 65.601562 66.304688 65.601562 M 22.894531 44.773438 C 21.5625 46.089844 21.699219 48.820312 23.878906 50.503906 C 24.648438 51.097656 26.003906 51.800781 28.121094 51.800781 C 29.675781 51.800781 31.640625 51.421875 34.082031 50.351562 L 33.753906 49.96875 C 31.425781 50.992188 29.578125 51.347656 28.132812 51.347656 C 26.230469 51.347656 25.023438 50.730469 24.339844 50.199219 C 22.390625 48.695312 22.234375 46.1875 23.402344 45.035156 L 22.894531 44.773438 M 51.066406 35.527344 L 54.605469 43.054688 C 54.832031 43.539062 55.695312 43.863281 56.648438 43.863281 C 56.8125 43.863281 56.984375 43.855469 57.15625 43.832031 L 62.957031 43.113281 C 62.925781 43.183594 62.90625 43.226562 62.90625 43.226562 L 66.546875 42.996094 L 66.707031 42.644531 L 68.796875 42.386719 L 69.847656 42.386719 L 69.917969 42.246094 L 84.179688 40.472656 C 85.292969 40.332031 85.980469 39.769531 85.714844 39.210938 L 81.871094 31.027344 C 81.644531 30.542969 80.78125 30.21875 79.828125 30.21875 C 79.660156 30.21875 79.488281 30.226562 79.320312 30.25 L 76.734375 30.570312 C 76.472656 26.285156 71.539062 22.867188 65.488281 22.867188 C 65.464844 22.867188 65.441406 22.867188 65.421875 22.867188 C 65.414062 22.867188 65.402344 22.867188 65.394531 22.867188 C 65.382812 22.867188 65.367188 22.867188 65.355469 22.867188 C 65.34375 22.867188 65.335938 22.867188 65.324219 22.867188 C 65.3125 22.867188 65.304688 22.867188 65.292969 22.867188 C 65.28125 22.867188 65.265625 22.867188 65.253906 22.867188 C 65.25 22.867188 65.246094 22.867188 65.242188 22.867188 C 59.136719 22.960938 54.230469 26.53125 54.230469 30.925781 C 54.230469 31.753906 54.402344 32.554688 54.730469 33.308594 L 52.296875 33.613281 C 51.917969 33.660156 51.589844 33.753906 51.328125 33.882812 C 51.15625 32.71875 50.246094 31.621094 48.726562 30.980469 L 40.128906 27.347656 C 39.273438 26.984375 38.335938 26.8125 37.410156 26.8125 C 35.582031 26.8125 33.796875 27.488281 32.796875 28.699219 C 31.296875 30.519531 32.140625 32.871094 34.6875 33.945312 L 43.285156 37.578125 C 44.140625 37.9375 45.074219 38.109375 46 38.109375 C 47.832031 38.109375 49.613281 37.4375 50.613281 36.226562 C 50.800781 36 50.949219 35.765625 51.066406 35.527344 M 17.292969 33.609375 L 16.765625 33.851562 C 17.878906 35.082031 19.550781 35.742188 21.480469 35.742188 C 21.929688 35.742188 22.390625 35.707031 22.863281 35.632812 C 25.984375 35.15625 28.503906 33.234375 28.988281 30.957031 C 29.769531 27.296875 31.683594 26.519531 35.128906 26.519531 C 35.300781 26.519531 35.476562 26.519531 35.652344 26.523438 C 35.984375 26.53125 36.296875 26.535156 36.59375 26.535156 C 39.707031 26.53125 41.195312 26.109375 42.863281 23.519531 L 42.296875 23.332031 C 40.769531 25.699219 39.546875 26.085938 36.636719 26.085938 C 36.335938 26.085938 36.011719 26.082031 35.671875 26.074219 C 35.488281 26.070312 35.308594 26.070312 35.128906 26.070312 C 31.484375 26.070312 29.207031 26.953125 28.371094 30.890625 C 27.921875 32.984375 25.605469 34.757812 22.734375 35.195312 C 22.308594 35.261719 21.894531 35.292969 21.492188 35.292969 C 19.773438 35.292969 18.28125 34.707031 17.292969 33.609375 M 99.53125 31.253906 C 99.316406 31.253906 99.09375 31.269531 98.867188 31.300781 C 97.574219 31.488281 99.714844 31.34375 99.898438 31.992188 C 100.070312 32.59375 98.492188 33.671875 99.304688 33.671875 C 99.363281 33.671875 99.441406 33.667969 99.535156 33.652344 C 100.824219 33.464844 101.722656 32.785156 101.539062 32.136719 C 101.386719 31.601562 100.546875 31.253906 99.53125 31.253906 "/>
<path fill-rule="nonzero" fill="rgb(94.901961%, 94.901961%, 94.901961%)" fill-opacity="1" d="M 76.742188 30.925781 C 76.742188 35.375 71.703125 38.984375 65.488281 38.984375 C 59.269531 38.984375 54.230469 35.375 54.230469 30.925781 C 54.230469 26.472656 59.269531 22.867188 65.488281 22.867188 C 71.703125 22.867188 76.742188 26.472656 76.742188 30.925781 "/>
<path fill-rule="nonzero" fill="rgb(100%, 100%, 100%)" fill-opacity="1" d="M 65.488281 22.867188 C 62.964844 22.867188 60.648438 23.464844 58.769531 24.46875 C 56.886719 25.910156 55.726562 27.839844 55.726562 29.96875 C 55.726562 34.417969 60.765625 38.023438 66.984375 38.023438 C 69.503906 38.023438 71.824219 37.425781 73.699219 36.421875 C 75.582031 34.984375 76.742188 33.054688 76.742188 30.925781 C 76.742188 26.472656 71.703125 22.867188 65.488281 22.867188 "/>
<path fill-rule="nonzero" fill="rgb(16.862745%, 10.196078%, 2.745098%)" fill-opacity="1" d="M 70.085938 30.925781 C 70.085938 32.648438 68.136719 34.042969 65.730469 34.042969 C 63.324219 34.042969 61.375 32.648438 61.375 30.925781 C 61.375 29.203125 63.324219 27.804688 65.730469 27.804688 C 68.136719 27.804688 70.085938 29.203125 70.085938 30.925781 "/>
<path fill-rule="nonzero" fill="rgb(12.941176%, 7.843137%, 2.352941%)" fill-opacity="1" d="M 68.914062 30.925781 C 68.914062 32.183594 67.488281 33.203125 65.730469 33.203125 C 63.972656 33.203125 62.550781 32.183594 62.550781 30.925781 C 62.550781 29.667969 63.972656 28.648438 65.730469 28.648438 C 67.488281 28.648438 68.914062 29.667969 68.914062 30.925781 "/>
<path fill-rule="nonzero" fill="rgb(0%, 0%, 0%)" fill-opacity="1" d="M 67.597656 30.925781 C 67.597656 31.664062 66.761719 32.261719 65.730469 32.261719 C 64.699219 32.261719 63.863281 31.664062 63.863281 30.925781 C 63.863281 30.1875 64.699219 29.589844 65.730469 29.589844 C 66.761719 29.589844 67.597656 30.1875 67.597656 30.925781 "/>
<path fill-rule="nonzero" fill="rgb(16.862745%, 10.196078%, 2.745098%)" fill-opacity="1" d="M 52.730469 22.597656 C 51.246094 22.402344 50.371094 21.253906 51 20.273438 C 52.09375 18.5625 53.960938 17.15625 56.382812 16.28125 C 58.554688 15.492188 61.003906 15.195312 63.265625 15.398438 C 64.882812 15.542969 65.847656 16.757812 65.140625 17.804688 L 65.136719 17.8125 C 64.703125 18.453125 63.746094 18.839844 62.757812 18.742188 C 61.402344 18.605469 59.859375 18.789062 58.503906 19.28125 C 57.589844 19.613281 56.140625 20.316406 55.292969 21.632812 C 54.839844 22.335938 53.792969 22.738281 52.730469 22.597656 "/>
<path fill-rule="nonzero" fill="rgb(16.862745%, 10.196078%, 2.745098%)" fill-opacity="1" d="M 124.523438 20.355469 C 126.007812 20.160156 126.878906 19.011719 126.253906 18.03125 C 125.160156 16.320312 123.292969 14.914062 120.871094 14.039062 C 118.699219 13.25 116.25 12.953125 113.988281 13.15625 C 112.371094 13.300781 111.40625 14.515625 112.113281 15.5625 L 112.117188 15.570312 C 112.554688 16.210938 113.507812 16.597656 114.496094 16.5 C 115.851562 16.363281 117.394531 16.546875 118.75 17.039062 C 119.664062 17.371094 121.113281 18.074219 121.960938 19.390625 C 122.414062 20.09375 123.460938 20.496094 124.523438 20.355469 "/>
<path fill-rule="nonzero" fill="rgb(100%, 65.490196%, 63.921569%)" fill-opacity="1" d="M 43.285156 37.578125 L 34.6875 33.945312 C 32.140625 32.871094 31.296875 30.519531 32.796875 28.699219 C 34.300781 26.875 37.582031 26.273438 40.128906 27.347656 L 48.726562 30.980469 C 51.269531 32.054688 52.117188 34.40625 50.613281 36.226562 C 49.113281 38.046875 45.832031 38.652344 43.285156 37.578125 "/>
<path fill-rule="nonzero" fill="rgb(100%, 65.490196%, 63.921569%)" fill-opacity="1" d="M 132.652344 44.648438 L 123 46.472656 C 120.140625 47.015625 117.214844 45.792969 116.457031 43.746094 C 115.703125 41.703125 117.40625 39.605469 120.265625 39.066406 L 129.917969 37.238281 C 132.777344 36.699219 135.703125 37.917969 136.460938 39.964844 C 137.214844 42.011719 135.511719 44.105469 132.652344 44.648438 "/>
<path fill-rule="nonzero" fill="rgb(85.098039%, 51.372549%, 50.196078%)" fill-opacity="1" d="M 21.480469 35.742188 C 19.550781 35.742188 17.878906 35.082031 16.765625 33.855469 L 17.292969 33.609375 C 18.28125 34.707031 19.773438 35.292969 21.492188 35.292969 C 21.894531 35.292969 22.308594 35.261719 22.734375 35.195312 C 25.605469 34.757812 27.921875 32.984375 28.371094 30.890625 C 29.207031 26.953125 31.484375 26.070312 35.128906 26.070312 C 35.308594 26.070312 35.488281 26.070312 35.671875 26.074219 C 36.011719 26.082031 36.335938 26.085938 36.636719 26.085938 C 39.546875 26.085938 40.769531 25.699219 42.296875 23.332031 L 42.863281 23.519531 C 41.195312 26.109375 39.707031 26.53125 36.59375 26.535156 C 36.296875 26.535156 35.984375 26.53125 35.652344 26.523438 C 35.476562 26.519531 35.300781 26.515625 35.128906 26.515625 C 31.683594 26.515625 29.769531 27.296875 28.988281 30.957031 C 28.503906 33.230469 25.984375 35.15625 22.863281 35.632812 C 22.390625 35.707031 21.929688 35.742188 21.480469 35.742188 "/>
<path fill-rule="nonzero" fill="rgb(89.803922%, 54.117647%, 52.941176%)" fill-opacity="1" d="M 13.328125 50.507812 C 12.941406 49.976562 12.695312 49.246094 12.734375 48.464844 C 12.933594 48.582031 13.144531 48.695312 13.359375 48.808594 C 13.394531 49.382812 13.59375 49.90625 13.882812 50.300781 L 13.328125 50.507812 "/>
<path fill-rule="nonzero" fill="rgb(85.098039%, 51.372549%, 50.196078%)" fill-opacity="1" d="M 13.359375 48.808594 C 13.144531 48.695312 12.933594 48.582031 12.734375 48.464844 C 12.761719 47.875 12.953125 47.253906 13.367188 46.664062 C 14 45.78125 15.375 44.65625 18.355469 44.332031 C 19.96875 44.160156 21.378906 44.109375 22.628906 44.0625 C 25.8125 43.949219 27.113281 43.84375 27.289062 42.433594 C 27.433594 41.277344 26.597656 40.179688 25.789062 39.121094 C 25.019531 38.113281 24.296875 37.164062 24.554688 36.273438 L 25.167969 36.367188 C 24.957031 37.09375 25.628906 37.972656 26.335938 38.90625 C 27.152344 39.972656 28.074219 41.183594 27.914062 42.472656 C 27.679688 44.328125 25.683594 44.402344 22.660156 44.511719 C 21.425781 44.554688 20.03125 44.605469 18.449219 44.777344 C 15.730469 45.070312 14.492188 46.078125 13.929688 46.867188 C 13.476562 47.503906 13.320312 48.1875 13.359375 48.808594 "/>
<path fill-rule="nonzero" fill="rgb(85.098039%, 51.372549%, 50.196078%)" fill-opacity="1" d="M 28.121094 51.800781 C 26.003906 51.800781 24.648438 51.097656 23.878906 50.503906 C 21.699219 48.820312 21.5625 46.089844 22.894531 44.773438 L 23.402344 45.035156 C 22.234375 46.1875 22.390625 48.695312 24.339844 50.199219 C 25.023438 50.730469 26.230469 51.347656 28.132812 51.347656 C 29.578125 51.347656 31.425781 50.992188 33.753906 49.96875 L 34.082031 50.351562 C 31.640625 51.421875 29.675781 51.800781 28.121094 51.800781 "/>
<path fill-rule="nonzero" fill="rgb(89.803922%, 54.117647%, 52.941176%)" fill-opacity="1" d="M 85.808594 6.164062 C 85.683594 6.035156 85.554688 5.914062 85.417969 5.792969 C 85.585938 5.746094 85.757812 5.699219 85.933594 5.652344 L 86.152344 6.070312 C 86.035156 6.101562 85.921875 6.132812 85.808594 6.164062 "/>
<path fill-rule="nonzero" fill="rgb(85.098039%, 51.372549%, 50.196078%)" fill-opacity="1" d="M 76.210938 17.277344 C 74.910156 17.277344 73.5625 17.039062 72.441406 16.566406 L 72.757812 16.179688 C 73.792969 16.617188 75.03125 16.832031 76.21875 16.832031 C 77.453125 16.832031 78.640625 16.597656 79.488281 16.128906 C 80.648438 15.488281 81.011719 14.515625 80.539062 13.324219 C 79.230469 10.03125 79.574219 7.480469 85.417969 5.792969 C 85.554688 5.914062 85.683594 6.035156 85.808594 6.164062 C 80.230469 7.730469 79.882812 10.027344 81.140625 13.199219 C 81.683594 14.566406 81.230469 15.730469 79.871094 16.484375 C 78.917969 17.011719 77.589844 17.277344 76.210938 17.277344 "/>
<path fill-rule="nonzero" fill="rgb(76.862745%, 46.666667%, 45.098039%)" fill-opacity="1" d="M 108.796875 57.386719 C 107.667969 57.386719 106.605469 57.097656 105.746094 56.542969 C 104.046875 55.4375 103.484375 53.484375 104.199219 51.1875 C 104.742188 49.449219 104.273438 47.945312 102.851562 46.839844 C 101.777344 46.003906 100.199219 45.4375 98.269531 45.167969 C 98.285156 45.023438 98.304688 44.875 98.320312 44.730469 C 99.164062 44.847656 99.949219 45.019531 100.664062 45.242188 C 103.242188 45.203125 104.507812 43.769531 105.03125 42.917969 C 106.148438 41.109375 105.96875 38.75 104.628906 37.660156 L 105.097656 37.367188 C 106.609375 38.59375 106.832031 41.113281 105.605469 43.101562 C 104.753906 44.480469 103.371094 45.34375 101.660156 45.601562 C 102.285156 45.867188 102.847656 46.175781 103.3125 46.535156 C 104.882812 47.753906 105.398438 49.398438 104.808594 51.285156 C 104.144531 53.421875 104.640625 55.214844 106.171875 56.210938 C 106.90625 56.6875 107.824219 56.9375 108.804688 56.9375 C 109.265625 56.9375 109.738281 56.882812 110.214844 56.769531 L 110.410156 57.195312 C 109.867188 57.324219 109.324219 57.386719 108.796875 57.386719 "/>
<path fill-rule="nonzero" fill="rgb(85.098039%, 51.372549%, 50.196078%)" fill-opacity="1" d="M 98.269531 45.167969 C 97.402344 45.046875 96.464844 44.984375 95.46875 44.984375 C 94.617188 44.984375 93.726562 45.03125 92.800781 45.121094 L 92.714844 44.675781 C 93.648438 44.585938 94.550781 44.539062 95.410156 44.539062 C 96.441406 44.539062 97.414062 44.605469 98.320312 44.730469 C 98.304688 44.875 98.285156 45.023438 98.269531 45.167969 "/>
<path fill-rule="nonzero" fill="rgb(76.862745%, 46.666667%, 45.098039%)" fill-opacity="1" d="M 116.429688 55.332031 C 114.820312 55.332031 113.214844 54.824219 111.921875 53.855469 L 112.375 53.542969 C 113.671875 54.519531 115.121094 54.875 116.417969 54.875 C 117.203125 54.875 117.929688 54.746094 118.535156 54.542969 C 120.554688 53.863281 121.691406 52.386719 121.429688 50.78125 L 122.050781 50.730469 C 122.347656 52.527344 121.070312 54.183594 118.804688 54.949219 C 118.035156 55.207031 117.230469 55.332031 116.429688 55.332031 "/>
<path fill-rule="nonzero" fill="rgb(76.862745%, 46.666667%, 45.098039%)" fill-opacity="1" d="M 117.078125 63.539062 C 115.527344 63.539062 113.652344 63.300781 111.386719 62.691406 L 111.605469 62.269531 C 113.824219 62.867188 115.644531 63.101562 117.128906 63.101562 C 120.679688 63.101562 122.34375 61.753906 123.09375 60.742188 C 124.71875 58.535156 123.960938 55.183594 121.5625 53.976562 L 121.921875 53.609375 C 124.597656 54.957031 125.4375 58.527344 123.644531 60.949219 C 122.96875 61.867188 121.171875 63.539062 117.078125 63.539062 "/>
<path fill-rule="nonzero" fill="rgb(76.862745%, 46.666667%, 45.098039%)" fill-opacity="1" d="M 124.945312 55.390625 C 123.703125 52.019531 125.835938 50.40625 127.21875 49.746094 C 128.363281 49.195312 129.789062 48.917969 131.128906 48.917969 C 132.300781 48.917969 133.402344 49.128906 134.199219 49.558594 L 133.820312 49.917969 C 133.179688 49.570312 132.1875 49.371094 131.09375 49.371094 C 129.929688 49.371094 128.652344 49.597656 127.566406 50.117188 C 126.324219 50.710938 124.410156 52.175781 125.550781 55.273438 L 124.945312 55.390625 "/>
<path fill-rule="nonzero" fill="rgb(81.176471%, 49.019608%, 47.45098%)" fill-opacity="1" d="M 132.675781 19.957031 C 132.5625 19.933594 132.453125 19.914062 132.339844 19.890625 C 132.449219 19.351562 132.355469 18.847656 132.105469 18.417969 C 132.011719 17.925781 131.792969 17.476562 131.460938 17.101562 L 131.992188 16.859375 C 132.71875 17.683594 132.960938 18.816406 132.675781 19.957031 "/>
<path fill-rule="nonzero" fill="rgb(76.862745%, 46.666667%, 45.098039%)" fill-opacity="1" d="M 131.261719 26.980469 C 131.078125 25.945312 130.390625 24.710938 128.375 23.902344 L 127.886719 23.707031 L 128.375 23.511719 C 130.1875 22.789062 131.457031 21.621094 131.953125 20.226562 C 132.171875 19.609375 132.222656 18.984375 132.105469 18.414062 C 132.355469 18.847656 132.449219 19.351562 132.339844 19.890625 C 132.453125 19.910156 132.5625 19.933594 132.675781 19.957031 C 132.644531 20.085938 132.605469 20.210938 132.5625 20.335938 C 132.0625 21.734375 130.855469 22.917969 129.136719 23.707031 C 131.039062 24.605469 131.707031 25.875 131.886719 26.941406 L 131.261719 26.980469 "/>
<path fill-rule="nonzero" fill="rgb(81.176471%, 49.019608%, 47.45098%)" fill-opacity="1" d="M 144.351562 30.851562 C 144.234375 30.667969 144.105469 30.488281 143.96875 30.316406 C 143.972656 30.296875 143.980469 30.28125 143.984375 30.265625 L 144.589844 30.378906 C 144.53125 30.542969 144.453125 30.699219 144.351562 30.851562 "/>
<path fill-rule="nonzero" fill="rgb(76.862745%, 46.666667%, 45.098039%)" fill-opacity="1" d="M 138.824219 33.011719 C 138.601562 33.011719 138.382812 33.003906 138.164062 32.988281 L 138.058594 32.53125 C 138.308594 32.550781 138.566406 32.5625 138.824219 32.5625 C 139.210938 32.5625 139.601562 32.539062 139.996094 32.488281 C 142.015625 32.242188 143.527344 31.410156 143.96875 30.3125 C 144.105469 30.488281 144.234375 30.667969 144.351562 30.851562 C 143.671875 31.90625 142.109375 32.683594 140.105469 32.933594 C 139.675781 32.984375 139.246094 33.011719 138.824219 33.011719 "/>
<path fill-rule="nonzero" fill="rgb(76.862745%, 46.666667%, 45.098039%)" fill-opacity="1" d="M 140.652344 41.585938 L 140.191406 41.285156 C 142.546875 39.464844 142.917969 35.765625 139.867188 33.714844 L 140.292969 33.390625 C 143.601562 35.609375 143.203125 39.621094 140.652344 41.585938 "/>
<path fill-rule="nonzero" fill="rgb(100%, 100%, 100%)" fill-opacity="1" d="M 70.054688 30.546875 C 69.890625 29.574219 69.101562 28.738281 67.980469 28.253906 C 68.109375 28.234375 68.238281 28.226562 68.375 28.226562 C 69.511719 28.226562 70.429688 28.886719 70.429688 29.699219 C 70.429688 30.015625 70.292969 30.304688 70.054688 30.546875 "/>
<path fill-rule="nonzero" fill="rgb(56.470588%, 53.333333%, 49.411765%)" fill-opacity="1" d="M 68.902344 31.121094 C 68.910156 31.054688 68.914062 30.992188 68.914062 30.925781 C 68.914062 29.929688 68.019531 29.082031 66.777344 28.773438 C 67.074219 28.507812 67.496094 28.320312 67.980469 28.253906 C 69.101562 28.738281 69.890625 29.574219 70.054688 30.546875 C 69.78125 30.824219 69.375 31.03125 68.902344 31.121094 "/>
<path fill-rule="nonzero" fill="rgb(54.509804%, 51.764706%, 49.019608%)" fill-opacity="1" d="M 68.375 31.171875 C 68.097656 31.171875 67.832031 31.128906 67.589844 31.058594 C 67.59375 31.015625 67.597656 30.96875 67.597656 30.925781 C 67.597656 30.332031 67.0625 29.832031 66.320312 29.65625 C 66.332031 29.320312 66.503906 29.015625 66.777344 28.773438 C 68.019531 29.082031 68.914062 29.929688 68.914062 30.925781 C 68.914062 30.992188 68.910156 31.054688 68.902344 31.121094 C 68.734375 31.152344 68.554688 31.167969 68.375 31.167969 "/>
<path fill-rule="nonzero" fill="rgb(47.843137%, 47.843137%, 47.843137%)" fill-opacity="1" d="M 67.589844 31.058594 C 66.84375 30.839844 66.320312 30.3125 66.320312 29.699219 C 66.320312 29.683594 66.320312 29.667969 66.320312 29.65625 C 67.0625 29.832031 67.597656 30.332031 67.597656 30.925781 C 67.597656 30.96875 67.59375 31.015625 67.589844 31.058594 "/>
<path fill-rule="nonzero" fill="rgb(94.901961%, 94.901961%, 94.901961%)" fill-opacity="1" d="M 127.535156 27.324219 C 127.535156 31.777344 122.496094 35.382812 116.277344 35.382812 C 110.0625 35.382812 105.023438 31.777344 105.023438 27.324219 C 105.023438 22.875 110.0625 19.265625 116.277344 19.265625 C 122.496094 19.265625 127.535156 22.875 127.535156 27.324219 "/>
<path fill-rule="nonzero" fill="rgb(100%, 100%, 100%)" fill-opacity="1" d="M 116.277344 19.265625 C 113.757812 19.265625 111.441406 19.867188 109.5625 20.867188 C 107.679688 22.308594 106.519531 24.238281 106.519531 26.367188 C 106.519531 30.820312 111.558594 34.425781 117.777344 34.425781 C 120.296875 34.425781 122.617188 33.824219 124.492188 32.824219 C 126.375 31.382812 127.535156 29.453125 127.535156 27.324219 C 127.535156 22.875 122.496094 19.265625 116.277344 19.265625 "/>
<path fill-rule="nonzero" fill="rgb(16.862745%, 10.196078%, 2.745098%)" fill-opacity="1" d="M 120.878906 27.324219 C 120.878906 29.046875 118.929688 30.445312 116.523438 30.445312 C 114.117188 30.445312 112.167969 29.046875 112.167969 27.324219 C 112.167969 25.601562 114.117188 24.207031 116.523438 24.207031 C 118.929688 24.207031 120.878906 25.601562 120.878906 27.324219 "/>
<path fill-rule="nonzero" fill="rgb(12.941176%, 7.843137%, 2.352941%)" fill-opacity="1" d="M 119.707031 27.324219 C 119.707031 28.582031 118.28125 29.601562 116.523438 29.601562 C 114.765625 29.601562 113.34375 28.582031 113.34375 27.324219 C 113.34375 26.066406 114.765625 25.046875 116.523438 25.046875 C 118.28125 25.046875 119.707031 26.066406 119.707031 27.324219 "/>
<path fill-rule="nonzero" fill="rgb(0%, 0%, 0%)" fill-opacity="1" d="M 118.390625 27.324219 C 118.390625 28.0625 117.554688 28.664062 116.523438 28.664062 C 115.492188 28.664062 114.65625 28.0625 114.65625 27.324219 C 114.65625 26.585938 115.492188 25.988281 116.523438 25.988281 C 117.554688 25.988281 118.390625 26.585938 118.390625 27.324219 "/>
<path fill-rule="nonzero" fill="rgb(100%, 100%, 100%)" fill-opacity="1" d="M 120.847656 26.945312 C 120.683594 25.972656 119.894531 25.140625 118.773438 24.65625 C 118.902344 24.636719 119.03125 24.628906 119.167969 24.628906 C 120.300781 24.628906 121.222656 25.285156 121.222656 26.097656 C 121.222656 26.414062 121.085938 26.707031 120.847656 26.945312 "/>
<path fill-rule="nonzero" fill="rgb(56.470588%, 53.333333%, 49.411765%)" fill-opacity="1" d="M 119.695312 27.523438 C 119.703125 27.457031 119.707031 27.390625 119.707031 27.324219 C 119.707031 26.328125 118.8125 25.484375 117.570312 25.175781 C 117.867188 24.910156 118.289062 24.722656 118.773438 24.65625 C 119.894531 25.140625 120.683594 25.972656 120.847656 26.945312 C 120.574219 27.226562 120.167969 27.433594 119.695312 27.523438 "/>
<path fill-rule="nonzero" fill="rgb(54.509804%, 51.764706%, 49.019608%)" fill-opacity="1" d="M 119.167969 27.570312 C 118.890625 27.570312 118.625 27.53125 118.382812 27.460938 C 118.386719 27.414062 118.390625 27.371094 118.390625 27.324219 C 118.390625 26.734375 117.855469 26.234375 117.113281 26.058594 C 117.125 25.722656 117.292969 25.417969 117.570312 25.175781 C 118.8125 25.484375 119.707031 26.328125 119.707031 27.324219 C 119.707031 27.390625 119.703125 27.457031 119.695312 27.523438 C 119.527344 27.554688 119.347656 27.570312 119.167969 27.570312 "/>
<path fill-rule="nonzero" fill="rgb(47.843137%, 47.843137%, 47.843137%)" fill-opacity="1" d="M 118.382812 27.460938 C 117.636719 27.238281 117.113281 26.714844 117.113281 26.097656 C 117.113281 26.085938 117.113281 26.070312 117.113281 26.058594 C 117.855469 26.234375 118.390625 26.734375 118.390625 27.324219 C 118.390625 27.371094 118.386719 27.414062 118.382812 27.460938 "/>
<path fill-rule="nonzero" fill="rgb(97.254902%, 77.647059%, 76.862745%)" fill-opacity="1" d="M 99.304688 33.671875 C 98.492188 33.671875 100.070312 32.59375 99.898438 31.992188 C 99.714844 31.339844 97.574219 31.488281 98.867188 31.300781 C 99.09375 31.269531 99.316406 31.253906 99.53125 31.253906 C 100.546875 31.253906 101.386719 31.601562 101.539062 32.136719 C 101.722656 32.785156 100.824219 33.464844 99.535156 33.652344 C 99.441406 33.664062 99.363281 33.671875 99.304688 33.671875 "/>
<path fill-rule="nonzero" fill="rgb(59.607843%, 36.078431%, 34.901961%)" fill-opacity="1" d="M 96.25 55.738281 C 96.308594 55.507812 96.367188 55.273438 96.425781 55.039062 C 97.121094 54.78125 97.742188 54.480469 98.261719 54.148438 C 97.757812 54.699219 97.078125 55.261719 96.25 55.738281 "/>
<path fill-rule="nonzero" fill="rgb(66.27451%, 40%, 38.823529%)" fill-opacity="1" d="M 91.691406 56.953125 C 89.75 56.953125 87.523438 56.34375 85.121094 54.71875 C 87.082031 55.570312 89.179688 55.925781 91.160156 55.925781 C 93.105469 55.925781 94.9375 55.585938 96.425781 55.039062 C 96.367188 55.273438 96.308594 55.507812 96.25 55.738281 C 95.027344 56.441406 93.480469 56.953125 91.691406 56.953125 "/>
<path fill-rule="nonzero" fill="rgb(18.039216%, 5.882353%, 1.960784%)" fill-opacity="1" d="M 92.167969 52.894531 C 97.171875 52.625 102.90625 51.152344 106.621094 48.925781 C 109.9375 46.941406 111.101562 43.777344 107.722656 41.839844 L 107.542969 41.738281 C 105.78125 40.730469 103.394531 40.570312 101.332031 41.226562 C 96.402344 42.785156 87.214844 43.523438 81.292969 42.195312 C 79 41.679688 76.503906 42.28125 75.019531 43.636719 L 74.917969 43.726562 C 72.335938 46.082031 74.34375 48.835938 77.921875 50.386719 C 82.707031 52.457031 87.066406 53.167969 92.167969 52.894531 "/>
<path fill-rule="nonzero" fill="rgb(100%, 100%, 100%)" fill-opacity="1" d="M 82.042969 42.34375 C 87.636719 43.394531 95.644531 42.796875 100.5 41.46875 C 100.046875 44.289062 98.265625 45.785156 91.839844 46.21875 C 85.449219 46.648438 82.492188 44.808594 82.042969 42.34375 "/>
<path fill-rule="nonzero" fill="rgb(100%, 100%, 100%)" fill-opacity="1" d="M 100.851562 51.351562 C 98.054688 52.191406 94.996094 52.742188 92.167969 52.894531 C 88.519531 53.089844 85.25 52.769531 81.933594 51.820312 C 83.589844 50.097656 86.871094 49.792969 91.414062 49.574219 C 96.078125 49.355469 99.871094 49.421875 100.851562 51.351562 "/>
<path fill-rule="nonzero" fill="rgb(98.039216%, 83.921569%, 83.137255%)" fill-opacity="1" d="M 56.648438 43.863281 C 55.695312 43.863281 54.832031 43.539062 54.605469 43.054688 L 51.066406 35.527344 C 51.324219 34.988281 51.410156 34.429688 51.328125 33.882812 C 51.589844 33.753906 51.917969 33.660156 52.296875 33.613281 L 54.730469 33.308594 C 56.078125 36.429688 60.007812 38.742188 64.730469 38.964844 C 63.886719 40.953125 63.148438 42.667969 62.957031 43.113281 L 57.15625 43.832031 C 56.984375 43.855469 56.8125 43.863281 56.648438 43.863281 "/>
<path fill-rule="nonzero" fill="rgb(98.039216%, 98.039216%, 98.039216%)" fill-opacity="1" d="M 64.730469 38.964844 C 60.007812 38.742188 56.078125 36.429688 54.730469 33.308594 L 56.59375 33.078125 C 58.070312 35.601562 61.289062 37.472656 65.171875 37.921875 C 65.023438 38.273438 64.875 38.625 64.730469 38.964844 "/>
<path fill-rule="nonzero" fill="rgb(100%, 100%, 100%)" fill-opacity="1" d="M 65.171875 37.921875 C 61.289062 37.472656 58.070312 35.601562 56.59375 33.078125 L 61.90625 32.417969 C 62.644531 33.386719 64.082031 34.042969 65.730469 34.042969 C 66.113281 34.042969 66.484375 34.007812 66.839844 33.941406 C 66.359375 35.109375 65.757812 36.539062 65.171875 37.921875 "/>
<path fill-rule="nonzero" fill="rgb(68.235294%, 65.882353%, 63.137255%)" fill-opacity="1" d="M 65.730469 34.042969 C 64.082031 34.042969 62.644531 33.386719 61.90625 32.417969 L 63.15625 32.261719 C 63.730469 32.832031 64.671875 33.203125 65.730469 33.203125 C 66.28125 33.203125 66.800781 33.101562 67.25 32.925781 C 67.128906 33.234375 66.988281 33.574219 66.839844 33.941406 C 66.484375 34.007812 66.113281 34.042969 65.730469 34.042969 "/>
<path fill-rule="nonzero" fill="rgb(67.058824%, 65.098039%, 62.745098%)" fill-opacity="1" d="M 65.730469 33.203125 C 64.671875 33.203125 63.730469 32.832031 63.15625 32.261719 L 64.75 32.0625 C 65.035156 32.1875 65.371094 32.261719 65.730469 32.261719 C 66.320312 32.261719 66.847656 32.0625 67.191406 31.757812 L 67.726562 31.691406 C 67.628906 31.964844 67.464844 32.390625 67.25 32.925781 C 66.800781 33.101562 66.28125 33.203125 65.730469 33.203125 "/>
<path fill-rule="nonzero" fill="rgb(61.960784%, 61.960784%, 61.960784%)" fill-opacity="1" d="M 65.730469 32.261719 C 65.371094 32.261719 65.035156 32.1875 64.75 32.0625 L 67.191406 31.757812 C 66.847656 32.066406 66.320312 32.261719 65.730469 32.261719 "/>
<path fill-rule="nonzero" fill="rgb(100%, 87.058824%, 86.27451%)" fill-opacity="1" d="M 51.066406 35.527344 L 50.757812 34.871094 C 50.585938 34.5 50.824219 34.132812 51.328125 33.882812 C 51.410156 34.429688 51.324219 34.988281 51.066406 35.527344 "/>
<path fill-rule="nonzero" fill="rgb(98.039216%, 83.921569%, 83.137255%)" fill-opacity="1" d="M 66.707031 42.644531 L 68.496094 38.691406 C 69.246094 38.542969 69.960938 38.339844 70.636719 38.09375 L 68.796875 42.386719 L 66.707031 42.644531 "/>
<path fill-rule="nonzero" fill="rgb(98.039216%, 98.039216%, 98.039216%)" fill-opacity="1" d="M 68.496094 38.691406 L 68.851562 37.914062 C 69.550781 37.828125 70.230469 37.699219 70.878906 37.523438 L 70.636719 38.09375 C 69.960938 38.339844 69.246094 38.542969 68.496094 38.691406 "/>
<path fill-rule="nonzero" fill="rgb(100%, 100%, 100%)" fill-opacity="1" d="M 68.851562 37.914062 L 71.90625 31.171875 L 73.703125 30.949219 L 70.878906 37.523438 C 70.230469 37.699219 69.550781 37.828125 68.851562 37.914062 "/>
<path fill-rule="nonzero" fill="rgb(98.039216%, 83.921569%, 83.137255%)" fill-opacity="1" d="M 69.917969 42.246094 L 72.378906 37.296875 C 74.949219 35.867188 76.632812 33.664062 76.738281 31.171875 C 76.738281 31.15625 76.738281 31.140625 76.738281 31.125 C 76.738281 31.121094 76.742188 31.117188 76.742188 31.113281 C 76.742188 31.101562 76.742188 31.085938 76.742188 31.074219 C 76.742188 31.070312 76.742188 31.0625 76.742188 31.058594 C 76.742188 31.046875 76.742188 31.035156 76.742188 31.027344 C 76.742188 31.015625 76.742188 31.007812 76.742188 31 C 76.742188 30.992188 76.742188 30.980469 76.742188 30.976562 C 76.742188 30.960938 76.742188 30.941406 76.742188 30.925781 C 76.742188 30.804688 76.738281 30.6875 76.734375 30.570312 L 79.320312 30.25 C 79.488281 30.226562 79.660156 30.21875 79.828125 30.21875 C 80.78125 30.21875 81.644531 30.542969 81.871094 31.027344 L 85.714844 39.210938 C 85.980469 39.769531 85.292969 40.332031 84.179688 40.472656 L 69.917969 42.246094 "/>
<path fill-rule="nonzero" fill="rgb(98.039216%, 98.039216%, 98.039216%)" fill-opacity="1" d="M 72.378906 37.296875 L 72.542969 36.964844 C 72.945312 36.800781 73.332031 36.621094 73.699219 36.421875 C 75.507812 35.039062 76.652344 33.203125 76.738281 31.171875 C 76.632812 33.664062 74.949219 35.867188 72.378906 37.296875 M 76.738281 31.171875 C 76.738281 31.15625 76.738281 31.140625 76.738281 31.125 C 76.738281 31.140625 76.738281 31.15625 76.738281 31.171875 M 76.742188 31.117188 C 76.742188 31.101562 76.742188 31.089844 76.742188 31.074219 C 76.742188 31.085938 76.742188 31.101562 76.742188 31.117188 M 76.742188 31.058594 C 76.742188 31.046875 76.742188 31.035156 76.742188 31.027344 C 76.742188 31.035156 76.742188 31.046875 76.742188 31.058594 M 76.742188 31 C 76.742188 30.992188 76.742188 30.980469 76.742188 30.976562 C 76.742188 30.984375 76.742188 30.988281 76.742188 31 "/>
<path fill-rule="nonzero" fill="rgb(100%, 100%, 100%)" fill-opacity="1" d="M 72.542969 36.964844 L 75.660156 30.703125 L 75.65625 30.703125 L 76.734375 30.570312 C 76.738281 30.6875 76.742188 30.804688 76.742188 30.925781 C 76.742188 30.941406 76.742188 30.957031 76.742188 30.976562 C 76.742188 30.984375 76.742188 30.988281 76.742188 31 C 76.742188 31.007812 76.742188 31.015625 76.742188 31.027344 C 76.742188 31.035156 76.742188 31.046875 76.742188 31.058594 C 76.742188 31.066406 76.742188 31.070312 76.742188 31.074219 C 76.742188 31.089844 76.742188 31.101562 76.742188 31.113281 C 76.742188 31.117188 76.738281 31.121094 76.738281 31.125 C 76.738281 31.140625 76.738281 31.15625 76.738281 31.171875 C 76.652344 33.203125 75.507812 35.039062 73.699219 36.421875 C 73.332031 36.621094 72.945312 36.800781 72.542969 36.964844 "/>
<path fill-rule="nonzero" fill="rgb(94.509804%, 81.568627%, 81.176471%)" fill-opacity="1" d="M 113.078125 38.664062 C 112.09375 38.664062 111.246094 38.292969 111.132812 37.792969 L 110.304688 34.15625 C 111.664062 34.765625 113.214844 35.175781 114.882812 35.324219 C 114.457031 36.984375 114.109375 38.335938 114.039062 38.613281 L 113.316406 38.65625 C 113.234375 38.660156 113.15625 38.664062 113.078125 38.664062 "/>
<path fill-rule="nonzero" fill="rgb(98.039216%, 98.039216%, 98.039216%)" fill-opacity="1" d="M 114.882812 35.324219 C 113.214844 35.175781 111.664062 34.765625 110.304688 34.15625 L 109.832031 32.078125 C 111.277344 33.109375 113.113281 33.859375 115.167969 34.207031 C 115.070312 34.589844 114.976562 34.964844 114.882812 35.324219 "/>
<path fill-rule="nonzero" fill="rgb(100%, 100%, 100%)" fill-opacity="1" d="M 115.167969 34.207031 C 113.113281 33.859375 111.277344 33.109375 109.832031 32.078125 L 109.199219 29.292969 C 109.078125 28.753906 109.84375 28.269531 110.914062 28.207031 L 112.3125 28.121094 C 112.769531 29.371094 114.28125 30.3125 116.128906 30.429688 C 115.839844 31.578125 115.492188 32.933594 115.167969 34.207031 "/>
<path fill-rule="nonzero" fill="rgb(94.509804%, 81.568627%, 81.176471%)" fill-opacity="1" d="M 114.910156 38.5625 L 116.128906 35.382812 C 116.179688 35.382812 116.230469 35.382812 116.277344 35.382812 C 116.792969 35.382812 117.296875 35.359375 117.789062 35.3125 L 116.640625 38.457031 L 114.910156 38.5625 "/>
<path fill-rule="nonzero" fill="rgb(98.039216%, 98.039216%, 98.039216%)" fill-opacity="1" d="M 116.277344 35.382812 C 116.230469 35.382812 116.179688 35.382812 116.128906 35.382812 L 116.515625 34.375 C 116.929688 34.410156 117.351562 34.425781 117.777344 34.425781 C 117.890625 34.425781 118.003906 34.425781 118.117188 34.421875 L 117.789062 35.3125 C 117.296875 35.359375 116.792969 35.382812 116.277344 35.382812 "/>
<path fill-rule="nonzero" fill="rgb(100%, 100%, 100%)" fill-opacity="1" d="M 117.777344 34.425781 C 117.351562 34.425781 116.929688 34.410156 116.515625 34.375 L 118.101562 30.234375 C 118.878906 30.015625 119.550781 29.644531 120.035156 29.171875 L 118.117188 34.421875 C 118.003906 34.425781 117.890625 34.425781 117.777344 34.425781 "/>
<path fill-rule="nonzero" fill="rgb(94.509804%, 81.568627%, 81.176471%)" fill-opacity="1" d="M 120.328125 38.234375 C 120.546875 37.53125 121.039062 36.066406 121.59375 34.429688 C 125.035156 33.109375 127.40625 30.542969 127.53125 27.574219 C 127.53125 27.558594 127.53125 27.542969 127.535156 27.527344 C 127.535156 27.523438 127.535156 27.519531 127.535156 27.515625 C 127.535156 27.5 127.535156 27.488281 127.535156 27.476562 C 127.535156 27.472656 127.535156 27.464844 127.535156 27.460938 C 127.535156 27.449219 127.535156 27.4375 127.535156 27.425781 C 127.535156 27.414062 127.535156 27.40625 127.535156 27.398438 C 127.535156 27.390625 127.535156 27.382812 127.535156 27.375 C 127.535156 27.359375 127.535156 27.34375 127.535156 27.324219 C 127.535156 27.285156 127.535156 27.246094 127.535156 27.203125 L 131.261719 26.980469 C 131.292969 27.148438 131.308594 27.3125 131.316406 27.46875 C 131.382812 29.023438 130.496094 30.441406 129.859375 30.734375 L 130.199219 31.113281 C 131.082031 30.707031 132.011719 29.105469 131.941406 27.457031 C 131.933594 27.292969 131.917969 27.121094 131.886719 26.941406 L 134.761719 26.769531 C 134.839844 26.765625 134.921875 26.761719 135 26.761719 C 135.980469 26.761719 136.832031 27.132812 136.945312 27.632812 L 138.058594 32.527344 C 136.394531 32.390625 134.914062 31.800781 134.023438 30.871094 L 133.507812 31.125 C 134.53125 32.195312 136.25 32.863281 138.164062 32.988281 L 138.878906 36.132812 C 139 36.671875 138.234375 37.15625 137.164062 37.21875 L 133.464844 37.441406 C 132.789062 37.226562 132.050781 37.109375 131.289062 37.109375 C 130.835938 37.109375 130.375 37.152344 129.917969 37.238281 L 126.679688 37.851562 L 120.328125 38.234375 "/>
<path fill-rule="nonzero" fill="rgb(100%, 87.058824%, 86.27451%)" fill-opacity="1" d="M 126.679688 37.851562 L 129.917969 37.238281 C 130.375 37.152344 130.835938 37.109375 131.289062 37.109375 C 132.050781 37.109375 132.789062 37.226562 133.464844 37.445312 L 126.679688 37.851562 "/>
<path fill-rule="nonzero" fill="rgb(91.372549%, 79.607843%, 79.215686%)" fill-opacity="1" d="M 130.199219 31.113281 L 129.859375 30.734375 C 130.496094 30.441406 131.382812 29.023438 131.316406 27.46875 C 131.308594 27.316406 131.292969 27.152344 131.261719 26.980469 L 131.886719 26.945312 C 131.917969 27.121094 131.933594 27.292969 131.941406 27.457031 C 132.011719 29.105469 131.082031 30.707031 130.199219 31.113281 "/>
<path fill-rule="nonzero" fill="rgb(91.372549%, 79.607843%, 79.215686%)" fill-opacity="1" d="M 138.164062 32.988281 C 136.25 32.863281 134.53125 32.199219 133.507812 31.125 L 134.023438 30.875 C 134.914062 31.804688 136.394531 32.390625 138.058594 32.53125 L 138.164062 32.988281 "/>
<path fill-rule="nonzero" fill="rgb(98.039216%, 98.039216%, 98.039216%)" fill-opacity="1" d="M 121.59375 34.429688 C 121.65625 34.253906 121.714844 34.078125 121.777344 33.898438 C 122.753906 33.628906 123.667969 33.265625 124.492188 32.824219 C 126.300781 31.441406 127.445312 29.605469 127.53125 27.574219 C 127.40625 30.542969 125.035156 33.109375 121.59375 34.429688 M 127.53125 27.574219 C 127.53125 27.558594 127.53125 27.542969 127.535156 27.527344 C 127.53125 27.542969 127.53125 27.558594 127.53125 27.574219 M 127.535156 27.515625 C 127.535156 27.503906 127.535156 27.488281 127.535156 27.476562 C 127.535156 27.492188 127.535156 27.503906 127.535156 27.515625 M 127.535156 27.460938 C 127.535156 27.449219 127.535156 27.4375 127.535156 27.425781 C 127.535156 27.4375 127.535156 27.449219 127.535156 27.460938 M 127.535156 27.398438 C 127.535156 27.390625 127.535156 27.386719 127.535156 27.375 C 127.535156 27.382812 127.535156 27.390625 127.535156 27.398438 "/>
<path fill-rule="nonzero" fill="rgb(100%, 100%, 100%)" fill-opacity="1" d="M 121.777344 33.898438 C 122.734375 31.09375 123.808594 27.992188 124.003906 27.417969 L 127.535156 27.207031 C 127.535156 27.246094 127.535156 27.285156 127.535156 27.324219 C 127.535156 27.34375 127.535156 27.359375 127.535156 27.375 C 127.535156 27.382812 127.535156 27.390625 127.535156 27.398438 C 127.535156 27.410156 127.535156 27.417969 127.535156 27.425781 C 127.535156 27.4375 127.535156 27.449219 127.535156 27.460938 C 127.535156 27.464844 127.535156 27.472656 127.535156 27.476562 C 127.535156 27.488281 127.535156 27.503906 127.535156 27.515625 C 127.535156 27.519531 127.535156 27.523438 127.535156 27.527344 C 127.53125 27.542969 127.53125 27.558594 127.53125 27.574219 C 127.445312 29.605469 126.300781 31.441406 124.492188 32.824219 C 123.667969 33.265625 122.753906 33.628906 121.777344 33.898438 "/>
<path fill-rule="nonzero" fill="rgb(68.235294%, 65.882353%, 63.137255%)" fill-opacity="1" d="M 116.128906 30.429688 C 114.28125 30.3125 112.769531 29.371094 112.3125 28.121094 L 113.507812 28.050781 C 113.910156 28.910156 115.015625 29.542969 116.335938 29.597656 C 116.273438 29.859375 116.203125 30.140625 116.128906 30.429688 M 118.101562 30.234375 L 118.542969 29.085938 C 119.132812 28.738281 119.542969 28.242188 119.667969 27.679688 L 120.601562 27.621094 L 120.035156 29.171875 C 119.550781 29.644531 118.878906 30.015625 118.101562 30.234375 "/>
<path fill-rule="nonzero" fill="rgb(67.058824%, 65.098039%, 62.745098%)" fill-opacity="1" d="M 116.335938 29.597656 C 115.015625 29.542969 113.910156 28.910156 113.507812 28.050781 L 114.886719 27.96875 C 115.203125 28.382812 115.816406 28.664062 116.523438 28.664062 C 116.539062 28.664062 116.554688 28.664062 116.570312 28.660156 C 116.503906 28.933594 116.425781 29.25 116.335938 29.597656 M 118.542969 29.085938 L 119.066406 27.714844 L 119.667969 27.679688 C 119.542969 28.242188 119.132812 28.738281 118.542969 29.085938 "/>
<path fill-rule="nonzero" fill="rgb(61.960784%, 61.960784%, 61.960784%)" fill-opacity="1" d="M 116.523438 28.664062 C 115.816406 28.664062 115.203125 28.382812 114.886719 27.96875 L 116.765625 27.855469 C 116.722656 28.039062 116.65625 28.316406 116.570312 28.660156 C 116.554688 28.664062 116.539062 28.664062 116.523438 28.664062 "/>
<path fill-rule="nonzero" fill="rgb(16.862745%, 10.196078%, 2.745098%)" fill-opacity="1" d="M 83.890625 33.839844 L 82.214844 33.25 C 85.996094 30.40625 93.542969 28.402344 100.015625 28.511719 C 104.917969 28.585938 108.820312 29.742188 111.300781 31.859375 L 109.558594 32.398438 C 106.898438 30.128906 102.867188 29.597656 99.957031 29.554688 C 94.070312 29.484375 87.308594 31.269531 83.890625 33.839844 "/>
<path fill-rule="nonzero" fill="rgb(98.039216%, 83.921569%, 83.137255%)" fill-opacity="1" d="M 62.90625 43.226562 C 62.90625 43.226562 62.925781 43.183594 62.957031 43.113281 L 66.707031 42.644531 L 66.546875 42.996094 L 62.90625 43.226562 "/>
<path fill-rule="nonzero" fill="rgb(100%, 100%, 100%)" fill-opacity="1" d="M 70.035156 31.402344 C 70.058594 31.300781 70.074219 31.199219 70.082031 31.09375 L 72.046875 30.859375 L 71.90625 31.171875 L 70.035156 31.402344 "/>
<path fill-rule="nonzero" fill="rgb(68.235294%, 65.882353%, 63.137255%)" fill-opacity="1" d="M 68.789062 31.558594 C 68.828125 31.453125 68.863281 31.347656 68.882812 31.238281 L 70.082031 31.09375 C 70.074219 31.199219 70.058594 31.300781 70.035156 31.402344 L 68.789062 31.558594 "/>
<path fill-rule="nonzero" fill="rgb(67.058824%, 65.098039%, 62.745098%)" fill-opacity="1" d="M 67.726562 31.691406 C 67.789062 31.507812 67.824219 31.394531 67.816406 31.367188 L 68.882812 31.238281 C 68.863281 31.347656 68.828125 31.453125 68.789062 31.558594 L 67.726562 31.691406 "/>
<path fill-rule="nonzero" fill="rgb(99.215686%, 93.72549%, 93.72549%)" fill-opacity="1" d="M 62.957031 43.113281 C 63.148438 42.667969 63.886719 40.953125 64.730469 38.964844 C 64.980469 38.976562 65.234375 38.984375 65.488281 38.984375 C 66.527344 38.984375 67.539062 38.882812 68.496094 38.691406 L 66.707031 42.644531 L 62.957031 43.113281 "/>
<path fill-rule="nonzero" fill="rgb(99.215686%, 99.215686%, 99.215686%)" fill-opacity="1" d="M 65.488281 38.984375 C 65.234375 38.984375 64.980469 38.976562 64.730469 38.964844 C 64.875 38.621094 65.023438 38.273438 65.171875 37.921875 C 65.761719 37.988281 66.367188 38.023438 66.984375 38.023438 C 67.621094 38.023438 68.242188 37.988281 68.851562 37.914062 L 68.496094 38.691406 C 67.539062 38.882812 66.527344 38.984375 65.488281 38.984375 "/>
<path fill-rule="nonzero" fill="rgb(100%, 100%, 100%)" fill-opacity="1" d="M 66.984375 38.023438 C 66.367188 38.023438 65.761719 37.988281 65.171875 37.921875 C 65.757812 36.539062 66.359375 35.109375 66.839844 33.941406 C 68.496094 33.628906 69.769531 32.636719 70.035156 31.402344 L 71.90625 31.171875 L 68.851562 37.914062 C 68.242188 37.988281 67.621094 38.027344 66.984375 38.027344 "/>
<path fill-rule="nonzero" fill="rgb(87.843137%, 87.058824%, 85.882353%)" fill-opacity="1" d="M 66.839844 33.941406 C 66.988281 33.574219 67.128906 33.234375 67.25 32.925781 C 67.988281 32.636719 68.550781 32.148438 68.789062 31.558594 L 70.035156 31.402344 C 69.769531 32.636719 68.496094 33.628906 66.839844 33.941406 "/>
<path fill-rule="nonzero" fill="rgb(87.45098%, 86.666667%, 85.882353%)" fill-opacity="1" d="M 67.25 32.925781 C 67.464844 32.390625 67.628906 31.964844 67.726562 31.691406 L 68.789062 31.558594 C 68.550781 32.148438 67.988281 32.636719 67.25 32.925781 "/>
<path fill-rule="nonzero" fill="rgb(98.039216%, 83.921569%, 83.137255%)" fill-opacity="1" d="M 69.847656 42.386719 L 68.796875 42.386719 L 69.917969 42.246094 L 69.847656 42.386719 "/>
<path fill-rule="nonzero" fill="rgb(100%, 100%, 100%)" fill-opacity="1" d="M 73.703125 30.949219 L 73.742188 30.859375 L 75.65625 30.703125 L 73.703125 30.949219 "/>
<path fill-rule="nonzero" fill="rgb(99.215686%, 93.72549%, 93.72549%)" fill-opacity="1" d="M 68.796875 42.386719 L 70.636719 38.09375 C 71.253906 37.863281 71.835938 37.597656 72.378906 37.296875 L 69.917969 42.246094 L 68.796875 42.386719 "/>
<path fill-rule="nonzero" fill="rgb(99.215686%, 99.215686%, 99.215686%)" fill-opacity="1" d="M 70.636719 38.09375 L 70.878906 37.523438 C 71.460938 37.371094 72.015625 37.183594 72.542969 36.964844 L 72.378906 37.296875 C 71.835938 37.597656 71.253906 37.863281 70.636719 38.09375 "/>
<path fill-rule="nonzero" fill="rgb(100%, 100%, 100%)" fill-opacity="1" d="M 70.878906 37.523438 L 73.703125 30.949219 L 75.65625 30.703125 L 75.660156 30.703125 L 72.542969 36.964844 C 72.015625 37.183594 71.460938 37.371094 70.878906 37.523438 "/>
<path fill-rule="nonzero" fill="rgb(94.509804%, 81.568627%, 81.176471%)" fill-opacity="1" d="M 114.871094 38.664062 L 114.027344 38.664062 C 114.027344 38.664062 114.03125 38.648438 114.039062 38.613281 L 114.910156 38.5625 L 114.871094 38.664062 "/>
<path fill-rule="nonzero" fill="rgb(67.058824%, 65.098039%, 62.745098%)" fill-opacity="1" d="M 118.289062 27.761719 C 118.3125 27.714844 118.332031 27.667969 118.347656 27.621094 L 119.101562 27.621094 L 119.066406 27.714844 L 118.289062 27.761719 "/>
<path fill-rule="nonzero" fill="rgb(61.960784%, 61.960784%, 61.960784%)" fill-opacity="1" d="M 116.765625 27.855469 C 116.792969 27.734375 116.8125 27.65625 116.816406 27.621094 L 118.347656 27.621094 C 118.332031 27.667969 118.3125 27.714844 118.289062 27.761719 L 116.765625 27.855469 "/>
<path fill-rule="nonzero" fill="rgb(98.039216%, 92.941176%, 92.941176%)" fill-opacity="1" d="M 114.039062 38.613281 C 114.109375 38.335938 114.457031 36.984375 114.882812 35.324219 C 115.292969 35.359375 115.707031 35.378906 116.128906 35.382812 L 114.910156 38.5625 L 114.039062 38.613281 "/>
<path fill-rule="nonzero" fill="rgb(99.215686%, 99.215686%, 99.215686%)" fill-opacity="1" d="M 116.128906 35.382812 C 115.707031 35.378906 115.292969 35.359375 114.882812 35.324219 C 114.976562 34.964844 115.070312 34.589844 115.167969 34.210938 C 115.605469 34.285156 116.058594 34.339844 116.515625 34.375 L 116.128906 35.382812 "/>
<path fill-rule="nonzero" fill="rgb(100%, 100%, 100%)" fill-opacity="1" d="M 116.515625 34.375 C 116.058594 34.339844 115.605469 34.285156 115.167969 34.207031 C 115.492188 32.933594 115.839844 31.578125 116.128906 30.429688 C 116.257812 30.441406 116.390625 30.445312 116.523438 30.445312 C 117.082031 30.445312 117.613281 30.367188 118.101562 30.230469 L 116.515625 34.375 "/>
<path fill-rule="nonzero" fill="rgb(87.843137%, 87.058824%, 85.882353%)" fill-opacity="1" d="M 116.523438 30.445312 C 116.390625 30.445312 116.257812 30.441406 116.128906 30.433594 C 116.203125 30.140625 116.273438 29.859375 116.335938 29.601562 C 116.398438 29.601562 116.460938 29.605469 116.523438 29.605469 C 117.289062 29.605469 117.992188 29.410156 118.542969 29.085938 L 118.101562 30.234375 C 117.613281 30.371094 117.082031 30.445312 116.523438 30.445312 "/>
<path fill-rule="nonzero" fill="rgb(87.45098%, 86.666667%, 85.882353%)" fill-opacity="1" d="M 116.523438 29.601562 C 116.460938 29.601562 116.398438 29.601562 116.335938 29.597656 C 116.425781 29.25 116.503906 28.933594 116.570312 28.660156 C 117.367188 28.648438 118.042969 28.273438 118.289062 27.761719 L 119.066406 27.714844 L 118.542969 29.085938 C 117.992188 29.410156 117.289062 29.601562 116.523438 29.601562 "/>
<path fill-rule="nonzero" fill="rgb(85.490196%, 85.490196%, 85.490196%)" fill-opacity="1" d="M 116.570312 28.660156 C 116.65625 28.316406 116.722656 28.039062 116.765625 27.855469 L 118.289062 27.761719 C 118.042969 28.277344 117.367188 28.648438 116.570312 28.660156 "/>
<path fill-rule="nonzero" fill="rgb(94.509804%, 81.568627%, 81.176471%)" fill-opacity="1" d="M 119.234375 38.855469 C 118.15625 38.855469 116.5625 38.667969 116.5625 38.667969 L 116.640625 38.457031 L 120.328125 38.234375 C 120.25 38.472656 120.207031 38.621094 120.203125 38.667969 C 120.183594 38.808594 119.773438 38.855469 119.234375 38.855469 "/>
<path fill-rule="nonzero" fill="rgb(100%, 100%, 100%)" fill-opacity="1" d="M 120.863281 27.605469 C 120.875 27.515625 120.878906 27.421875 120.878906 27.324219 L 124.039062 27.324219 C 124.039062 27.324219 124.027344 27.355469 124.003906 27.417969 L 120.863281 27.605469 "/>
<path fill-rule="nonzero" fill="rgb(68.235294%, 65.882353%, 63.137255%)" fill-opacity="1" d="M 120.601562 27.625 L 120.710938 27.324219 L 120.878906 27.324219 C 120.878906 27.421875 120.875 27.515625 120.863281 27.605469 L 120.601562 27.621094 "/>
<path fill-rule="nonzero" fill="rgb(98.039216%, 92.941176%, 92.941176%)" fill-opacity="1" d="M 116.640625 38.457031 L 117.789062 35.3125 C 119.152344 35.179688 120.433594 34.878906 121.59375 34.429688 C 121.039062 36.066406 120.546875 37.53125 120.328125 38.234375 L 116.640625 38.457031 "/>
<path fill-rule="nonzero" fill="rgb(99.215686%, 99.215686%, 99.215686%)" fill-opacity="1" d="M 117.789062 35.3125 L 118.117188 34.421875 C 119.402344 34.394531 120.636719 34.210938 121.777344 33.898438 C 121.714844 34.078125 121.65625 34.253906 121.59375 34.429688 C 120.433594 34.878906 119.152344 35.179688 117.789062 35.3125 "/>
<path fill-rule="nonzero" fill="rgb(100%, 100%, 100%)" fill-opacity="1" d="M 118.117188 34.421875 L 120.035156 29.171875 C 120.492188 28.726562 120.789062 28.1875 120.863281 27.605469 L 124.003906 27.417969 C 123.808594 27.992188 122.734375 31.09375 121.777344 33.898438 C 120.636719 34.210938 119.402344 34.394531 118.117188 34.421875 "/>
<path fill-rule="nonzero" fill="rgb(87.843137%, 87.058824%, 85.882353%)" fill-opacity="1" d="M 120.035156 29.171875 L 120.601562 27.625 L 120.863281 27.605469 C 120.789062 28.1875 120.492188 28.726562 120.035156 29.171875 "/>
<path fill-rule="nonzero" fill="rgb(16.862745%, 10.196078%, 2.745098%)" fill-opacity="1" d="M 51.457031 37.457031 C 51.21875 37.363281 27.375 27.984375 18.839844 26.550781 C 15.113281 25.925781 11.871094 26.195312 10.144531 27.277344 C 8.90625 28.054688 8.703125 29.109375 9.628906 29.957031 L 7.859375 30.46875 C 6.515625 29.242188 6.796875 27.730469 8.574219 26.613281 C 10.851562 25.1875 14.925781 24.792969 19.46875 25.558594 C 28.332031 27.046875 51.703125 36.238281 52.691406 36.625 L 51.457031 37.457031 "/>
<path fill-rule="nonzero" fill="rgb(16.862745%, 10.196078%, 2.745098%)" fill-opacity="1" d="M 135.921875 36.792969 L 114.328125 38.09375 C 113.351562 38.152344 112.460938 37.804688 112.351562 37.3125 L 110.601562 29.613281 C 110.492188 29.128906 111.183594 28.691406 112.15625 28.632812 L 133.746094 27.332031 C 134.726562 27.273438 135.613281 27.625 135.726562 28.113281 L 137.476562 35.8125 C 137.585938 36.296875 136.890625 36.738281 135.921875 36.792969 Z M 137.75 26.785156 C 137.613281 26.179688 136.515625 25.746094 135.300781 25.820312 L 109.957031 27.347656 C 108.757812 27.417969 107.898438 27.960938 108.035156 28.5625 L 110.328125 38.640625 C 110.464844 39.246094 111.5625 39.679688 112.773438 39.605469 L 138.121094 38.082031 C 139.320312 38.007812 140.175781 37.464844 140.042969 36.867188 L 137.75 26.785156 "/>
<path fill-rule="nonzero" fill="rgb(16.862745%, 10.196078%, 2.745098%)" fill-opacity="1" d="M 82.671875 40.148438 L 58.203125 43.191406 C 57.175781 43.320312 56.136719 43.003906 55.894531 42.488281 L 52.410156 35.074219 C 52.171875 34.570312 52.792969 34.0625 53.804688 33.9375 L 78.273438 30.890625 C 79.300781 30.761719 80.339844 31.082031 80.582031 31.597656 L 84.0625 39.007812 C 84.300781 39.511719 83.683594 40.023438 82.671875 40.148438 Z M 87.179688 39.839844 L 82.617188 30.128906 C 82.316406 29.492188 81.03125 29.097656 79.757812 29.257812 L 51.019531 32.832031 C 49.769531 32.988281 49.003906 33.617188 49.296875 34.242188 L 53.859375 43.953125 C 54.160156 44.59375 55.445312 44.984375 56.71875 44.824219 L 85.457031 41.25 C 86.707031 41.09375 87.472656 40.464844 87.179688 39.839844 "/>
<path fill-rule="nonzero" fill="rgb(90.196078%, 89.803922%, 82.745098%)" fill-opacity="1" d="M 107.335938 63.753906 C 110.5 58.046875 133.765625 55.289062 133.765625 55.289062 L 160 72.316406 C 139.097656 72.417969 126.175781 76.253906 121.914062 82.949219 C 113.792969 81.71875 107.335938 63.753906 107.335938 63.753906 "/>
<path fill-rule="nonzero" fill="rgb(83.921569%, 83.529412%, 77.254902%)" fill-opacity="1" d="M 85.199219 88.066406 C 87.8125 90.722656 88.363281 95.449219 88.363281 95.449219 C 93.585938 89.445312 104.585938 80.289062 121.914062 82.949219 C 116.273438 78.519531 105.824219 74.777344 105.824219 74.777344 C 105.824219 74.777344 95.878906 80.386719 94.734375 80.980469 C 93.585938 81.570312 85.199219 88.066406 85.199219 88.066406 "/>
<path fill-rule="nonzero" fill="rgb(94.901961%, 94.509804%, 87.45098%)" fill-opacity="1" d="M 107.335938 63.753906 C 114.074219 67.199219 120.125 75.960938 121.914062 82.949219 C 116.136719 80.488281 95.511719 80.882812 84.375 91.804688 C 79.808594 83.300781 71.496094 70.054688 67.554688 68.183594 C 74.75 63.261719 98.675781 60.703125 107.335938 63.753906 "/>
<path fill-rule="nonzero" fill="rgb(100%, 83.137255%, 83.137255%)" fill-opacity="1" d="M 45.886719 67.878906 C 47.949219 75.074219 56.96875 81.519531 72.503906 81.765625 C 71.863281 86.984375 83.273438 89.738281 83.414062 89.640625 C 80.386719 83.539062 77.648438 80.289062 77.648438 80.289062 C 84.511719 79.207031 85.0625 74.484375 82.039062 73.695312 C 79.011719 72.910156 74.929688 74.386719 73.328125 76.699219 C 66.472656 77.328125 54.914062 77.527344 50.355469 66.46875 C 50.28125 66.289062 48.488281 67.222656 45.886719 67.878906 "/>
</svg>
