<?xml version="1.0" standalone="no"?>
<!DOCTYPE svg PUBLIC "-//W3C//DTD SVG 20010904//EN"
 "http://www.w3.org/TR/2001/REC-SVG-20010904/DTD/svg10.dtd">
<svg version="1.0" xmlns="http://www.w3.org/2000/svg"
 width="1012.000000pt" height="175.000000pt" viewBox="0 0 1012.000000 175.000000"
 preserveAspectRatio="xMidYMid meet">
<metadata>
Created by potrace 1.16, written by Peter Selinger 2001-2019
</metadata>
<g transform="translate(0.000000,175.000000) scale(0.100000,-0.100000)"
fill="#000000" stroke="none">
<path d="M156 1573 c-8 -54 -7 -73 4 -73 6 0 10 9 10 21 0 41 18 59 60 59 l40
0 0 -120 0 -120 -30 0 c-16 0 -30 -4 -30 -10 0 -6 33 -10 80 -10 47 0 80 4 80
10 0 6 -13 10 -30 10 l-30 0 0 120 0 120 40 0 c42 0 60 -18 60 -59 0 -12 5
-21 11 -21 8 0 10 13 5 38 -3 20 -6 45 -6 55 0 15 -13 17 -129 17 l-128 0 -7
-37z"/>
<path d="M2270 1600 c0 -5 6 -10 14 -10 17 0 26 -22 26 -65 0 -32 -1 -33 -29
-22 -64 24 -131 -41 -117 -116 11 -57 36 -71 123 -72 52 0 78 4 80 13 3 6 -2
12 -11 12 -14 0 -16 19 -16 135 l0 135 -35 0 c-19 0 -35 -4 -35 -10z m18 -122
c7 -7 12 -37 12 -68 0 -60 -11 -80 -46 -80 -26 0 -40 15 -49 53 -18 69 41 137
83 95z"/>
<path d="M472 1578 c2 -15 10 -23 23 -23 30 0 27 39 -3 43 -20 3 -23 0 -20
-20z"/>
<path d="M1842 1578 c2 -15 10 -23 23 -23 30 0 27 39 -3 43 -20 3 -23 0 -20
-20z"/>
<path d="M7906 1541 c-3 -4 -19 -11 -36 -14 -16 -4 -30 -11 -30 -18 0 -7 11
-8 30 -4 l30 7 0 -111 0 -111 -25 0 c-14 0 -25 -4 -25 -10 0 -6 30 -10 70 -10
40 0 70 4 70 10 0 6 -11 10 -25 10 l-25 0 0 130 c0 107 -3 130 -14 130 -8 0
-17 -4 -20 -9z"/>
<path d="M9036 1529 c-41 -32 -34 -99 8 -83 19 7 21 41 4 47 -10 3 -10 7 1 20
30 37 81 8 81 -44 0 -40 -13 -63 -72 -127 -26 -30 -48 -58 -48 -63 0 -5 35 -9
79 -9 l79 0 6 31 c8 42 8 49 -4 49 -5 0 -10 -9 -10 -20 0 -17 -7 -20 -51 -20
l-50 0 60 58 c54 51 61 62 61 95 0 76 -83 114 -144 66z"/>
<path d="M4226 1499 c-41 -32 -34 -99 8 -83 19 7 21 41 4 47 -10 3 -10 7 1 20
30 37 81 8 81 -44 0 -40 -13 -63 -72 -127 -26 -30 -48 -58 -48 -63 0 -5 35 -9
79 -9 l79 0 6 31 c8 42 8 49 -4 49 -5 0 -10 -9 -10 -20 0 -17 -7 -20 -51 -20
l-50 0 60 58 c54 51 61 62 61 95 0 76 -83 114 -144 66z"/>
<path d="M5456 1511 c-3 -4 -19 -11 -36 -14 -16 -4 -30 -11 -30 -18 0 -7 11
-8 30 -4 l30 7 0 -111 0 -111 -25 0 c-14 0 -25 -4 -25 -10 0 -6 30 -10 70 -10
40 0 70 4 70 10 0 6 -11 10 -25 10 l-25 0 0 130 c0 107 -3 130 -14 130 -8 0
-17 -4 -20 -9z"/>
<path d="M6521 1501 c-54 -54 -53 -218 2 -256 22 -16 63 -20 92 -9 30 12 45
60 45 143 0 71 -3 83 -26 110 -31 37 -83 42 -113 12z m89 -20 c5 -11 10 -60
10 -110 0 -79 -3 -94 -21 -112 -48 -48 -87 38 -73 161 3 30 11 61 16 68 16 19
56 14 68 -7z"/>
<path d="M7640 1455 l0 -65 -65 0 c-51 0 -65 -3 -65 -15 0 -12 14 -15 65 -15
l65 0 0 -65 c0 -37 4 -65 10 -65 6 0 10 28 10 65 l0 65 65 0 c51 0 65 3 65 15
0 12 -14 15 -65 15 l-65 0 0 65 c0 37 -4 65 -10 65 -6 0 -10 -28 -10 -65z"/>
<path d="M8820 1455 l0 -65 -65 0 c-51 0 -65 -3 -65 -15 0 -12 14 -15 65 -15
l65 0 0 -65 c0 -37 4 -65 10 -65 6 0 10 28 10 65 l0 65 65 0 c51 0 65 3 65 15
0 12 -14 15 -65 15 l-65 0 0 65 c0 37 -4 65 -10 65 -6 0 -10 -28 -10 -65z"/>
<path d="M468 1503 c-22 -5 -24 -23 -3 -23 12 0 15 -14 15 -70 0 -56 -3 -70
-15 -70 -8 0 -15 -4 -15 -10 0 -5 23 -10 50 -10 28 0 50 5 50 10 0 6 -7 10
-15 10 -12 0 -15 16 -15 85 0 90 -1 92 -52 78z"/>
<path d="M578 1503 c-22 -5 -24 -23 -3 -23 12 0 15 -14 15 -70 0 -56 -3 -70
-15 -70 -8 0 -15 -4 -15 -10 0 -5 23 -10 50 -10 28 0 50 5 50 10 0 6 -7 10
-15 10 -24 0 -21 112 3 133 23 21 48 22 56 1 3 -9 6 -42 6 -75 0 -46 -3 -59
-15 -59 -8 0 -15 -4 -15 -10 0 -5 23 -10 50 -10 28 0 50 5 50 10 0 6 -10 10
-21 10 -20 0 -21 4 -17 61 5 64 24 93 58 87 22 -5 28 -148 5 -148 -8 0 -15 -4
-15 -10 0 -5 23 -10 50 -10 28 0 50 5 50 10 0 6 -7 10 -15 10 -11 0 -15 17
-17 72 -3 67 -5 73 -31 88 -24 13 -30 13 -55 0 -24 -14 -30 -14 -54 -1 -22 13
-33 13 -58 4 -16 -6 -30 -7 -30 -2 0 9 -22 10 -52 2z"/>
<path d="M939 1481 c-58 -58 -28 -155 53 -168 30 -4 41 -1 62 20 26 26 34 47
17 47 -5 0 -16 -11 -25 -25 -9 -14 -25 -25 -36 -25 -26 0 -60 34 -60 60 0 18
7 20 65 20 36 0 65 4 65 9 0 4 -5 22 -11 40 -21 58 -83 69 -130 22z m91 -10
c18 -34 11 -41 -35 -41 -49 0 -53 5 -29 38 19 27 50 29 64 3z"/>
<path d="M1248 1503 c-22 -5 -24 -23 -3 -23 12 0 15 -19 15 -110 0 -91 -3
-110 -15 -110 -8 0 -15 -4 -15 -10 0 -5 23 -10 50 -10 28 0 50 5 50 10 0 6 -7
10 -15 10 -10 0 -15 10 -15 29 0 28 2 29 33 25 40 -6 94 25 103 61 9 37 -3 90
-26 110 -19 17 -119 28 -162 18z m128 -34 c38 -42 13 -139 -36 -139 -29 0 -40
23 -40 82 0 44 4 59 18 67 25 15 37 13 58 -10z"/>
<path d="M1499 1481 c-58 -58 -28 -155 53 -168 30 -4 41 -1 62 20 26 26 34 47
17 47 -5 0 -16 -11 -25 -25 -9 -14 -25 -25 -36 -25 -26 0 -60 34 -60 60 0 18
7 20 65 20 36 0 65 4 65 9 0 4 -5 22 -11 40 -21 58 -83 69 -130 22z m91 -10
c18 -34 11 -41 -35 -41 -49 0 -53 5 -29 38 19 27 50 29 64 3z"/>
<path d="M1678 1503 c-22 -5 -24 -23 -3 -23 12 0 15 -14 15 -70 0 -56 -3 -70
-15 -70 -8 0 -15 -4 -15 -10 0 -5 25 -10 55 -10 30 0 55 5 55 10 0 6 -9 10
-20 10 -18 0 -20 7 -20 58 0 36 6 66 15 78 13 17 14 17 15 2 0 -11 8 -18 18
-18 26 0 33 10 21 31 -12 23 -37 24 -61 2 -17 -15 -18 -15 -18 0 0 17 -9 19
-42 10z"/>
<path d="M1838 1503 c-22 -5 -24 -23 -3 -23 12 0 15 -14 15 -70 0 -56 -3 -70
-15 -70 -8 0 -15 -4 -15 -10 0 -5 23 -10 50 -10 28 0 50 5 50 10 0 6 -7 10
-15 10 -12 0 -15 16 -15 85 0 90 -1 92 -52 78z"/>
<path d="M1969 1481 c-57 -58 -28 -155 51 -167 50 -7 97 24 106 71 19 102 -86
166 -157 96z m100 -5 c18 -21 24 -77 12 -108 -15 -39 -58 -48 -83 -18 -22 27
-24 88 -2 118 17 25 56 29 73 8z"/>
<path d="M4040 1330 c0 -18 7 -20 60 -20 53 0 60 2 60 20 0 18 -7 20 -60 20
-53 0 -60 -2 -60 -20z"/>
<path d="M5220 1330 c0 -18 7 -20 60 -20 53 0 60 2 60 20 0 18 -7 20 -60 20
-53 0 -60 -2 -60 -20z"/>
<path d="M4200 985 l0 -115 -562 0 c-543 0 -561 1 -545 18 18 20 23 42 9 42
-4 0 -25 -17 -45 -38 l-37 -37 39 -38 c21 -20 41 -37 45 -37 12 0 6 23 -11 42
-16 17 2 18 545 18 l562 0 0 -115 c0 -70 4 -115 10 -115 6 0 10 45 10 115 l0
115 580 0 580 0 0 -115 c0 -70 4 -115 10 -115 6 0 10 45 10 115 l0 115 580 0
580 0 0 -115 c0 -96 3 -115 15 -115 12 0 15 19 15 115 l0 115 575 0 575 0 0
-115 c0 -96 3 -115 15 -115 12 0 15 19 15 115 l0 115 575 0 575 0 0 -115 c0
-96 3 -115 15 -115 12 0 15 19 15 115 l0 115 557 0 c433 0 554 -3 545 -12 -11
-11 -17 -48 -8 -48 5 0 76 70 76 75 0 5 -71 75 -76 75 -9 0 -3 -37 8 -48 9 -9
-112 -12 -545 -12 l-557 0 0 115 c0 96 -3 115 -15 115 -12 0 -15 -19 -15 -115
l0 -115 -575 0 -575 0 0 115 c0 96 -3 115 -15 115 -12 0 -15 -19 -15 -115 l0
-115 -575 0 -575 0 0 115 c0 96 -3 115 -15 115 -12 0 -15 -19 -15 -115 l0
-115 -580 0 -580 0 0 115 c0 70 -4 115 -10 115 -6 0 -10 -45 -10 -115 l0 -115
-580 0 -580 0 0 115 c0 70 -4 115 -10 115 -6 0 -10 -45 -10 -115z"/>
<path d="M474 460 c-140 -70 -92 -290 63 -290 38 0 51 6 79 34 33 33 47 86 24
86 -5 0 -10 -9 -10 -19 0 -35 -48 -81 -84 -81 -116 0 -148 204 -40 255 46 22
82 5 109 -52 11 -23 23 -42 28 -43 4 0 7 29 7 65 0 67 -5 76 -24 49 -10 -14
-14 -14 -41 0 -40 21 -62 20 -111 -4z"/>
<path d="M1494 466 c-34 -15 -44 -32 -44 -77 0 -19 -5 -29 -15 -29 -8 0 -15
-4 -15 -10 0 -5 7 -10 15 -10 12 0 15 -14 15 -70 0 -56 -3 -70 -15 -70 -8 0
-15 -4 -15 -10 0 -5 23 -10 50 -10 28 0 50 5 50 10 0 6 -7 10 -15 10 -12 0
-15 14 -15 70 l0 70 40 0 40 0 0 -66 c0 -57 -3 -67 -20 -71 -37 -10 -20 -23
30 -23 28 0 50 5 50 10 0 6 -7 10 -15 10 -13 0 -15 22 -15 134 0 130 -1 134
-22 140 -33 8 -49 7 -84 -8z m70 -37 c13 -65 10 -69 -40 -69 l-47 0 6 37 c11
65 70 88 81 32z"/>
<path d="M7415 459 c-11 -11 -28 -27 -37 -36 -27 -24 -23 -79 7 -108 13 -14
29 -25 35 -25 6 0 10 -25 10 -60 0 -58 -1 -60 -20 -50 -17 9 -20 17 -14 47 6
31 4 35 -12 31 -11 -2 -20 -13 -22 -26 -4 -27 23 -72 43 -72 8 0 18 -7 23 -17
7 -12 13 -14 23 -4 8 6 26 20 41 31 52 39 45 127 -13 152 -27 12 -29 17 -29
65 0 52 0 53 25 41 28 -12 30 -19 14 -35 -15 -15 -3 -33 22 -33 13 0 19 7 19
21 0 32 -17 55 -50 69 -16 7 -30 16 -30 21 0 14 -13 9 -35 -12z m15 -74 c0
-46 -7 -54 -28 -33 -22 22 -8 78 20 78 4 0 8 -20 8 -45z m55 -125 c21 -24 14
-65 -15 -80 -19 -10 -20 -7 -20 45 0 59 7 66 35 35z"/>
<path d="M8595 459 c-11 -11 -28 -27 -37 -36 -27 -24 -23 -79 7 -108 13 -14
29 -25 35 -25 6 0 10 -25 10 -60 0 -58 -1 -60 -20 -50 -17 9 -20 17 -14 47 6
31 4 35 -12 31 -11 -2 -20 -13 -22 -26 -4 -27 23 -72 43 -72 8 0 18 -7 23 -17
7 -12 13 -14 23 -4 8 6 26 20 41 31 52 39 45 127 -13 152 -27 12 -29 17 -29
65 0 52 0 53 25 41 28 -12 30 -19 14 -35 -15 -15 -3 -33 22 -33 13 0 19 7 19
21 0 32 -17 55 -50 69 -16 7 -30 16 -30 21 0 14 -13 9 -35 -12z m15 -74 c0
-46 -7 -54 -28 -33 -22 22 -8 78 20 78 4 0 8 -20 8 -45z m55 -125 c21 -24 14
-65 -15 -80 -19 -10 -20 -7 -20 45 0 59 7 66 35 35z"/>
<path d="M1060 461 c0 -5 7 -11 15 -15 12 -4 15 -28 15 -126 0 -100 -2 -120
-15 -120 -8 0 -15 -4 -15 -10 0 -5 23 -10 50 -10 28 0 50 5 50 10 0 6 -7 10
-15 10 -24 0 -21 112 3 133 23 21 48 22 56 1 3 -9 6 -42 6 -75 0 -46 -3 -59
-15 -59 -8 0 -15 -4 -15 -10 0 -5 23 -10 50 -10 28 0 50 5 50 10 0 6 -9 10
-20 10 -18 0 -20 7 -20 75 0 71 -1 76 -26 87 -19 9 -33 9 -55 1 l-29 -11 0 59
0 59 -35 0 c-19 0 -35 -4 -35 -9z"/>
<path d="M7646 431 c-3 -4 -19 -11 -36 -14 -16 -4 -30 -11 -30 -18 0 -7 11 -8
30 -4 l30 7 0 -111 0 -111 -25 0 c-14 0 -25 -4 -25 -10 0 -6 30 -10 70 -10 40
0 70 4 70 10 0 6 -11 10 -25 10 l-25 0 0 130 c0 107 -3 130 -14 130 -8 0 -17
-4 -20 -9z"/>
<path d="M7801 421 c-54 -54 -53 -218 2 -256 22 -16 63 -20 92 -9 30 12 45 60
45 143 0 71 -3 83 -26 110 -31 37 -83 42 -113 12z m89 -20 c5 -11 10 -60 10
-110 0 -79 -3 -94 -21 -112 -48 -48 -87 38 -73 161 3 30 11 61 16 68 16 19 56
14 68 -7z"/>
<path d="M8011 421 c-54 -54 -53 -218 2 -256 22 -16 63 -20 92 -9 30 12 45 60
45 143 0 71 -3 83 -26 110 -31 37 -83 42 -113 12z m89 -20 c5 -11 10 -60 10
-110 0 -79 -3 -94 -21 -112 -48 -48 -87 38 -73 161 3 30 11 61 16 68 16 19 56
14 68 -7z"/>
<path d="M8826 431 c-3 -4 -19 -11 -36 -14 -16 -4 -30 -11 -30 -18 0 -7 11 -8
30 -4 l30 7 0 -111 0 -111 -25 0 c-14 0 -25 -4 -25 -10 0 -6 30 -10 70 -10 40
0 70 4 70 10 0 6 -11 10 -25 10 l-25 0 0 130 c0 107 -3 130 -14 130 -8 0 -17
-4 -20 -9z"/>
<path d="M8981 421 c-54 -54 -53 -218 2 -256 22 -16 63 -20 92 -9 30 12 45 60
45 143 0 71 -3 83 -26 110 -31 37 -83 42 -113 12z m89 -20 c5 -11 10 -60 10
-110 0 -79 -3 -94 -21 -112 -48 -48 -87 38 -73 161 3 30 11 61 16 68 16 19 56
14 68 -7z"/>
<path d="M9191 421 c-54 -54 -53 -218 2 -256 22 -16 63 -20 92 -9 30 12 45 60
45 143 0 71 -3 83 -26 110 -31 37 -83 42 -113 12z m89 -20 c5 -11 10 -60 10
-110 0 -79 -3 -94 -21 -112 -48 -48 -87 38 -73 161 3 30 11 61 16 68 16 19 56
14 68 -7z"/>
<path d="M718 359 c-26 -15 -24 -59 3 -59 17 0 20 5 17 25 -4 20 -1 25 16 25
26 0 46 -18 46 -41 0 -11 -12 -18 -39 -23 -26 -4 -47 -15 -60 -32 -26 -33 -26
-39 -1 -64 24 -24 72 -26 94 -4 9 8 16 11 16 6 0 -16 30 -23 51 -12 20 11 27
60 9 60 -5 0 -10 -9 -10 -20 0 -11 -4 -20 -10 -20 -6 0 -10 28 -10 64 0 58 -3
67 -26 85 -29 23 -68 27 -96 10z m80 -120 c-4 -38 -30 -59 -55 -43 -9 6 -18
15 -21 22 -5 16 35 52 59 52 17 0 20 -5 17 -31z"/>
<path d="M907 352 c-10 -10 -17 -28 -17 -40 0 -22 34 -52 60 -52 9 0 26 -7 38
-16 18 -12 20 -19 12 -35 -17 -30 -58 -25 -78 11 -23 40 -32 38 -32 -7 l0 -38
48 -2 c63 -2 92 17 92 62 0 37 -21 54 -83 69 -42 10 -32 41 13 41 29 0 36 -4
38 -22 5 -35 22 -27 22 10 0 33 -1 34 -48 36 -36 1 -53 -4 -65 -17z"/>
<path d="M1679 341 c-57 -58 -28 -155 51 -167 50 -7 97 24 106 71 19 102 -86
166 -157 96z m100 -5 c18 -21 24 -77 12 -108 -15 -39 -58 -48 -83 -18 -22 27
-24 88 -2 118 17 25 56 29 73 8z"/>
<path d="M1840 351 c0 -5 8 -11 19 -14 10 -2 21 -16 25 -31 13 -52 48 -136 56
-136 5 0 16 23 25 50 9 28 20 50 24 50 4 0 15 -22 25 -50 10 -27 21 -50 26
-50 4 0 22 38 39 85 20 52 38 85 47 85 8 0 14 5 14 10 0 6 -18 10 -40 10 -22
0 -40 -4 -40 -10 0 -5 5 -10 10 -10 14 0 12 -18 -7 -69 l-17 -44 -18 54 c-12
33 -15 55 -8 57 5 2 10 8 10 13 0 5 -43 9 -95 9 -52 0 -95 -4 -95 -9z m133
-37 c-1 -11 -7 -34 -13 -50 l-12 -29 -19 50 c-10 28 -19 51 -19 53 0 2 15 2
33 0 26 -2 32 -7 30 -24z"/>
</g>
</svg>
