<svg version="1.1" xmlns="http://www.w3.org/2000/svg" xmlns:xlink="http://www.w3.org/1999/xlink" width="1212" height="824"><defs><clipPath id="vDlBJohyVFNN"><path fill="none" stroke="none" d=" M 0 0 L 1212 0 L 1212 824 L 0 824 L 0 0 Z"/></clipPath></defs><g transform="scale(1,1)" clip-path="url(#vDlBJohyVFNN)"><g><rect fill="rgb(255,255,255)" stroke="none" x="0" y="0" width="1212" height="824" fill-opacity="1"/><path fill="none" stroke="rgb(192,192,192)" paint-order="fill stroke markers" d=" M 6.5 0.5 L 6.5 824.5 M 6.5 0.5 L 6.5 824.5 M 81.5 0.5 L 81.5 824.5 M 156.5 0.5 L 156.5 824.5 M 231.5 0.5 L 231.5 824.5 M 306.5 0.5 L 306.5 824.5 M 381.5 0.5 L 381.5 824.5 M 456.5 0.5 L 456.5 824.5 M 531.5 0.5 L 531.5 824.5 M 681.5 0.5 L 681.5 824.5 M 756.5 0.5 L 756.5 824.5 M 831.5 0.5 L 831.5 824.5 M 905.5 0.5 L 905.5 824.5 M 980.5 0.5 L 980.5 824.5 M 1056.5 0.5 L 1056.5 824.5 M 1131.5 0.5 L 1131.5 824.5 M 1206.5 0.5 L 1206.5 824.5" stroke-opacity="1" stroke-linecap="round" stroke-linejoin="round" stroke-miterlimit="10"/><path fill="none" stroke="rgb(192,192,192)" paint-order="fill stroke markers" d=" M 21.5 0.5 L 21.5 824.5 M 36.5 0.5 L 36.5 824.5 M 51.5 0.5 L 51.5 824.5 M 66.5 0.5 L 66.5 824.5 M 96.5 0.5 L 96.5 824.5 M 111.5 0.5 L 111.5 824.5 M 126.5 0.5 L 126.5 824.5 M 141.5 0.5 L 141.5 824.5 M 171.5 0.5 L 171.5 824.5 M 186.5 0.5 L 186.5 824.5 M 201.5 0.5 L 201.5 824.5 M 216.5 0.5 L 216.5 824.5 M 246.5 0.5 L 246.5 824.5 M 261.5 0.5 L 261.5 824.5 M 276.5 0.5 L 276.5 824.5 M 291.5 0.5 L 291.5 824.5 M 321.5 0.5 L 321.5 824.5 M 336.5 0.5 L 336.5 824.5 M 351.5 0.5 L 351.5 824.5 M 366.5 0.5 L 366.5 824.5 M 396.5 0.5 L 396.5 824.5 M 411.5 0.5 L 411.5 824.5 M 426.5 0.5 L 426.5 824.5 M 441.5 0.5 L 441.5 824.5 M 471.5 0.5 L 471.5 824.5 M 486.5 0.5 L 486.5 824.5 M 501.5 0.5 L 501.5 824.5 M 516.5 0.5 L 516.5 824.5 M 546.5 0.5 L 546.5 824.5 M 561.5 0.5 L 561.5 824.5 M 576.5 0.5 L 576.5 824.5 M 591.5 0.5 L 591.5 824.5 M 621.5 0.5 L 621.5 824.5 M 636.5 0.5 L 636.5 824.5 M 651.5 0.5 L 651.5 824.5 M 666.5 0.5 L 666.5 824.5 M 696.5 0.5 L 696.5 824.5 M 711.5 0.5 L 711.5 824.5 M 725.5 0.5 L 725.5 824.5 M 740.5 0.5 L 740.5 824.5 M 770.5 0.5 L 770.5 824.5 M 785.5 0.5 L 785.5 824.5 M 800.5 0.5 L 800.5 824.5 M 815.5 0.5 L 815.5 824.5 M 845.5 0.5 L 845.5 824.5 M 860.5 0.5 L 860.5 824.5 M 875.5 0.5 L 875.5 824.5 M 890.5 0.5 L 890.5 824.5 M 920.5 0.5 L 920.5 824.5 M 935.5 0.5 L 935.5 824.5 M 950.5 0.5 L 950.5 824.5 M 965.5 0.5 L 965.5 824.5 M 995.5 0.5 L 995.5 824.5 M 1010.5 0.5 L 1010.5 824.5 M 1026.5 0.5 L 1026.5 824.5 M 1041.5 0.5 L 1041.5 824.5 M 1071.5 0.5 L 1071.5 824.5 M 1086.5 0.5 L 1086.5 824.5 M 1101.5 0.5 L 1101.5 824.5 M 1116.5 0.5 L 1116.5 824.5 M 1146.5 0.5 L 1146.5 824.5 M 1161.5 0.5 L 1161.5 824.5 M 1176.5 0.5 L 1176.5 824.5 M 1191.5 0.5 L 1191.5 824.5" stroke-opacity="0.23529411764705882" stroke-linecap="round" stroke-linejoin="round" stroke-miterlimit="10"/><path fill="none" stroke="rgb(192,192,192)" paint-order="fill stroke markers" d=" M 0.5 60.5 L 1212.5 60.5 M 0.5 60.5 L 1212.5 60.5 M 0.5 135.5 L 1212.5 135.5 M 0.5 210.5 L 1212.5 210.5 M 0.5 285.5 L 1212.5 285.5 M 0.5 360.5 L 1212.5 360.5 M 0.5 435.5 L 1212.5 435.5 M 0.5 586.5 L 1212.5 586.5 M 0.5 661.5 L 1212.5 661.5 M 0.5 736.5 L 1212.5 736.5 M 0.5 811.5 L 1212.5 811.5" stroke-opacity="1" stroke-linecap="round" stroke-linejoin="round" stroke-miterlimit="10"/><path fill="none" stroke="rgb(192,192,192)" paint-order="fill stroke markers" d=" M 0.5 0.5 L 1212.5 0.5 M 0.5 15.5 L 1212.5 15.5 M 0.5 30.5 L 1212.5 30.5 M 0.5 45.5 L 1212.5 45.5 M 0.5 75.5 L 1212.5 75.5 M 0.5 90.5 L 1212.5 90.5 M 0.5 105.5 L 1212.5 105.5 M 0.5 120.5 L 1212.5 120.5 M 0.5 150.5 L 1212.5 150.5 M 0.5 165.5 L 1212.5 165.5 M 0.5 180.5 L 1212.5 180.5 M 0.5 195.5 L 1212.5 195.5 M 0.5 225.5 L 1212.5 225.5 M 0.5 240.5 L 1212.5 240.5 M 0.5 255.5 L 1212.5 255.5 M 0.5 270.5 L 1212.5 270.5 M 0.5 300.5 L 1212.5 300.5 M 0.5 315.5 L 1212.5 315.5 M 0.5 330.5 L 1212.5 330.5 M 0.5 345.5 L 1212.5 345.5 M 0.5 376.5 L 1212.5 376.5 M 0.5 391.5 L 1212.5 391.5 M 0.5 406.5 L 1212.5 406.5 M 0.5 421.5 L 1212.5 421.5 M 0.5 451.5 L 1212.5 451.5 M 0.5 466.5 L 1212.5 466.5 M 0.5 481.5 L 1212.5 481.5 M 0.5 496.5 L 1212.5 496.5 M 0.5 526.5 L 1212.5 526.5 M 0.5 541.5 L 1212.5 541.5 M 0.5 556.5 L 1212.5 556.5 M 0.5 571.5 L 1212.5 571.5 M 0.5 601.5 L 1212.5 601.5 M 0.5 616.5 L 1212.5 616.5 M 0.5 631.5 L 1212.5 631.5 M 0.5 646.5 L 1212.5 646.5 M 0.5 676.5 L 1212.5 676.5 M 0.5 691.5 L 1212.5 691.5 M 0.5 706.5 L 1212.5 706.5 M 0.5 721.5 L 1212.5 721.5 M 0.5 751.5 L 1212.5 751.5 M 0.5 766.5 L 1212.5 766.5 M 0.5 781.5 L 1212.5 781.5 M 0.5 796.5 L 1212.5 796.5" stroke-opacity="0.23529411764705882" stroke-linecap="round" stroke-linejoin="round" stroke-miterlimit="10"/><path fill="none" stroke="rgb(37,37,37)" paint-order="fill stroke markers" d=" M 606.5 2.5 L 606.5 824.5" stroke-opacity="1" stroke-miterlimit="10"/><path fill="none" stroke="rgb(37,37,37)" paint-order="fill stroke markers" d=" M 606.5 1.5 L 594.5 13.5" stroke-opacity="1" stroke-miterlimit="10"/><path fill="none" stroke="rgb(37,37,37)" paint-order="fill stroke markers" d=" M 606.5 1.5 L 618.5 13.5" stroke-opacity="1" stroke-miterlimit="10"/><path fill="none" stroke="rgb(37,37,37)" paint-order="fill stroke markers" d=" M 0.5 511.5 L 1210.5 511.5" stroke-opacity="1" stroke-miterlimit="10"/><path fill="none" stroke="rgb(37,37,37)" paint-order="fill stroke markers" d=" M 1211.5 511.5 L 1199.5 499.5" stroke-opacity="1" stroke-miterlimit="10"/><path fill="none" stroke="rgb(37,37,37)" paint-order="fill stroke markers" d=" M 1211.5 511.5 L 1199.5 523.5" stroke-opacity="1" stroke-miterlimit="10"/><text fill="rgb(37,37,37)" stroke="none" font-family="geogebra-sans-serif, sans-serif" font-size="36px" font-style="normal" font-weight="normal" text-decoration="normal" x="64" y="551" text-anchor="start" dominant-baseline="alphabetic" fill-opacity="1">–7</text><text fill="none" stroke="rgb(255,255,255)" font-family="geogebra-sans-serif, sans-serif" font-size="36px" font-style="normal" font-weight="normal" text-decoration="normal" x="64" y="551" text-anchor="start" dominant-baseline="alphabetic" stroke-opacity="1" stroke-linejoin="bevel" stroke-miterlimit="10" stroke-width="3">–7</text><text fill="rgb(37,37,37)" stroke="none" font-family="geogebra-sans-serif, sans-serif" font-size="36px" font-style="normal" font-weight="normal" text-decoration="normal" x="64" y="551" text-anchor="start" dominant-baseline="alphabetic" fill-opacity="1">–7</text><text fill="rgb(37,37,37)" stroke="none" font-family="geogebra-sans-serif, sans-serif" font-size="36px" font-style="normal" font-weight="normal" text-decoration="normal" x="139" y="551" text-anchor="start" dominant-baseline="alphabetic" fill-opacity="1">–6</text><text fill="none" stroke="rgb(255,255,255)" font-family="geogebra-sans-serif, sans-serif" font-size="36px" font-style="normal" font-weight="normal" text-decoration="normal" x="139" y="551" text-anchor="start" dominant-baseline="alphabetic" stroke-opacity="1" stroke-linejoin="bevel" stroke-miterlimit="10" stroke-width="3">–6</text><text fill="rgb(37,37,37)" stroke="none" font-family="geogebra-sans-serif, sans-serif" font-size="36px" font-style="normal" font-weight="normal" text-decoration="normal" x="139" y="551" text-anchor="start" dominant-baseline="alphabetic" fill-opacity="1">–6</text><text fill="rgb(37,37,37)" stroke="none" font-family="geogebra-sans-serif, sans-serif" font-size="36px" font-style="normal" font-weight="normal" text-decoration="normal" x="214" y="551" text-anchor="start" dominant-baseline="alphabetic" fill-opacity="1">–5</text><text fill="none" stroke="rgb(255,255,255)" font-family="geogebra-sans-serif, sans-serif" font-size="36px" font-style="normal" font-weight="normal" text-decoration="normal" x="214" y="551" text-anchor="start" dominant-baseline="alphabetic" stroke-opacity="1" stroke-linejoin="bevel" stroke-miterlimit="10" stroke-width="3">–5</text><text fill="rgb(37,37,37)" stroke="none" font-family="geogebra-sans-serif, sans-serif" font-size="36px" font-style="normal" font-weight="normal" text-decoration="normal" x="214" y="551" text-anchor="start" dominant-baseline="alphabetic" fill-opacity="1">–5</text><text fill="rgb(37,37,37)" stroke="none" font-family="geogebra-sans-serif, sans-serif" font-size="36px" font-style="normal" font-weight="normal" text-decoration="normal" x="289" y="551" text-anchor="start" dominant-baseline="alphabetic" fill-opacity="1">–4</text><text fill="none" stroke="rgb(255,255,255)" font-family="geogebra-sans-serif, sans-serif" font-size="36px" font-style="normal" font-weight="normal" text-decoration="normal" x="289" y="551" text-anchor="start" dominant-baseline="alphabetic" stroke-opacity="1" stroke-linejoin="bevel" stroke-miterlimit="10" stroke-width="3">–4</text><text fill="rgb(37,37,37)" stroke="none" font-family="geogebra-sans-serif, sans-serif" font-size="36px" font-style="normal" font-weight="normal" text-decoration="normal" x="289" y="551" text-anchor="start" dominant-baseline="alphabetic" fill-opacity="1">–4</text><text fill="rgb(37,37,37)" stroke="none" font-family="geogebra-sans-serif, sans-serif" font-size="36px" font-style="normal" font-weight="normal" text-decoration="normal" x="364" y="551" text-anchor="start" dominant-baseline="alphabetic" fill-opacity="1">–3</text><text fill="none" stroke="rgb(255,255,255)" font-family="geogebra-sans-serif, sans-serif" font-size="36px" font-style="normal" font-weight="normal" text-decoration="normal" x="364" y="551" text-anchor="start" dominant-baseline="alphabetic" stroke-opacity="1" stroke-linejoin="bevel" stroke-miterlimit="10" stroke-width="3">–3</text><text fill="rgb(37,37,37)" stroke="none" font-family="geogebra-sans-serif, sans-serif" font-size="36px" font-style="normal" font-weight="normal" text-decoration="normal" x="364" y="551" text-anchor="start" dominant-baseline="alphabetic" fill-opacity="1">–3</text><text fill="rgb(37,37,37)" stroke="none" font-family="geogebra-sans-serif, sans-serif" font-size="36px" font-style="normal" font-weight="normal" text-decoration="normal" x="439" y="551" text-anchor="start" dominant-baseline="alphabetic" fill-opacity="1">–2</text><text fill="none" stroke="rgb(255,255,255)" font-family="geogebra-sans-serif, sans-serif" font-size="36px" font-style="normal" font-weight="normal" text-decoration="normal" x="439" y="551" text-anchor="start" dominant-baseline="alphabetic" stroke-opacity="1" stroke-linejoin="bevel" stroke-miterlimit="10" stroke-width="3">–2</text><text fill="rgb(37,37,37)" stroke="none" font-family="geogebra-sans-serif, sans-serif" font-size="36px" font-style="normal" font-weight="normal" text-decoration="normal" x="439" y="551" text-anchor="start" dominant-baseline="alphabetic" fill-opacity="1">–2</text><text fill="rgb(37,37,37)" stroke="none" font-family="geogebra-sans-serif, sans-serif" font-size="36px" font-style="normal" font-weight="normal" text-decoration="normal" x="514" y="551" text-anchor="start" dominant-baseline="alphabetic" fill-opacity="1">–1</text><text fill="none" stroke="rgb(255,255,255)" font-family="geogebra-sans-serif, sans-serif" font-size="36px" font-style="normal" font-weight="normal" text-decoration="normal" x="514" y="551" text-anchor="start" dominant-baseline="alphabetic" stroke-opacity="1" stroke-linejoin="bevel" stroke-miterlimit="10" stroke-width="3">–1</text><text fill="rgb(37,37,37)" stroke="none" font-family="geogebra-sans-serif, sans-serif" font-size="36px" font-style="normal" font-weight="normal" text-decoration="normal" x="514" y="551" text-anchor="start" dominant-baseline="alphabetic" fill-opacity="1">–1</text><text fill="rgb(37,37,37)" stroke="none" font-family="geogebra-sans-serif, sans-serif" font-size="36px" font-style="normal" font-weight="normal" text-decoration="normal" x="673" y="551" text-anchor="start" dominant-baseline="alphabetic" fill-opacity="1">1</text><text fill="none" stroke="rgb(255,255,255)" font-family="geogebra-sans-serif, sans-serif" font-size="36px" font-style="normal" font-weight="normal" text-decoration="normal" x="673" y="551" text-anchor="start" dominant-baseline="alphabetic" stroke-opacity="1" stroke-linejoin="bevel" stroke-miterlimit="10" stroke-width="3">1</text><text fill="rgb(37,37,37)" stroke="none" font-family="geogebra-sans-serif, sans-serif" font-size="36px" font-style="normal" font-weight="normal" text-decoration="normal" x="673" y="551" text-anchor="start" dominant-baseline="alphabetic" fill-opacity="1">1</text><text fill="rgb(37,37,37)" stroke="none" font-family="geogebra-sans-serif, sans-serif" font-size="36px" font-style="normal" font-weight="normal" text-decoration="normal" x="748" y="551" text-anchor="start" dominant-baseline="alphabetic" fill-opacity="1">2</text><text fill="none" stroke="rgb(255,255,255)" font-family="geogebra-sans-serif, sans-serif" font-size="36px" font-style="normal" font-weight="normal" text-decoration="normal" x="748" y="551" text-anchor="start" dominant-baseline="alphabetic" stroke-opacity="1" stroke-linejoin="bevel" stroke-miterlimit="10" stroke-width="3">2</text><text fill="rgb(37,37,37)" stroke="none" font-family="geogebra-sans-serif, sans-serif" font-size="36px" font-style="normal" font-weight="normal" text-decoration="normal" x="748" y="551" text-anchor="start" dominant-baseline="alphabetic" fill-opacity="1">2</text><text fill="rgb(37,37,37)" stroke="none" font-family="geogebra-sans-serif, sans-serif" font-size="36px" font-style="normal" font-weight="normal" text-decoration="normal" x="823" y="551" text-anchor="start" dominant-baseline="alphabetic" fill-opacity="1">3</text><text fill="none" stroke="rgb(255,255,255)" font-family="geogebra-sans-serif, sans-serif" font-size="36px" font-style="normal" font-weight="normal" text-decoration="normal" x="823" y="551" text-anchor="start" dominant-baseline="alphabetic" stroke-opacity="1" stroke-linejoin="bevel" stroke-miterlimit="10" stroke-width="3">3</text><text fill="rgb(37,37,37)" stroke="none" font-family="geogebra-sans-serif, sans-serif" font-size="36px" font-style="normal" font-weight="normal" text-decoration="normal" x="823" y="551" text-anchor="start" dominant-baseline="alphabetic" fill-opacity="1">3</text><text fill="rgb(37,37,37)" stroke="none" font-family="geogebra-sans-serif, sans-serif" font-size="36px" font-style="normal" font-weight="normal" text-decoration="normal" x="898" y="551" text-anchor="start" dominant-baseline="alphabetic" fill-opacity="1">4</text><text fill="none" stroke="rgb(255,255,255)" font-family="geogebra-sans-serif, sans-serif" font-size="36px" font-style="normal" font-weight="normal" text-decoration="normal" x="898" y="551" text-anchor="start" dominant-baseline="alphabetic" stroke-opacity="1" stroke-linejoin="bevel" stroke-miterlimit="10" stroke-width="3">4</text><text fill="rgb(37,37,37)" stroke="none" font-family="geogebra-sans-serif, sans-serif" font-size="36px" font-style="normal" font-weight="normal" text-decoration="normal" x="898" y="551" text-anchor="start" dominant-baseline="alphabetic" fill-opacity="1">4</text><text fill="rgb(37,37,37)" stroke="none" font-family="geogebra-sans-serif, sans-serif" font-size="36px" font-style="normal" font-weight="normal" text-decoration="normal" x="973" y="551" text-anchor="start" dominant-baseline="alphabetic" fill-opacity="1">5</text><text fill="none" stroke="rgb(255,255,255)" font-family="geogebra-sans-serif, sans-serif" font-size="36px" font-style="normal" font-weight="normal" text-decoration="normal" x="973" y="551" text-anchor="start" dominant-baseline="alphabetic" stroke-opacity="1" stroke-linejoin="bevel" stroke-miterlimit="10" stroke-width="3">5</text><text fill="rgb(37,37,37)" stroke="none" font-family="geogebra-sans-serif, sans-serif" font-size="36px" font-style="normal" font-weight="normal" text-decoration="normal" x="973" y="551" text-anchor="start" dominant-baseline="alphabetic" fill-opacity="1">5</text><text fill="rgb(37,37,37)" stroke="none" font-family="geogebra-sans-serif, sans-serif" font-size="36px" font-style="normal" font-weight="normal" text-decoration="normal" x="1048" y="551" text-anchor="start" dominant-baseline="alphabetic" fill-opacity="1">6</text><text fill="none" stroke="rgb(255,255,255)" font-family="geogebra-sans-serif, sans-serif" font-size="36px" font-style="normal" font-weight="normal" text-decoration="normal" x="1048" y="551" text-anchor="start" dominant-baseline="alphabetic" stroke-opacity="1" stroke-linejoin="bevel" stroke-miterlimit="10" stroke-width="3">6</text><text fill="rgb(37,37,37)" stroke="none" font-family="geogebra-sans-serif, sans-serif" font-size="36px" font-style="normal" font-weight="normal" text-decoration="normal" x="1048" y="551" text-anchor="start" dominant-baseline="alphabetic" fill-opacity="1">6</text><text fill="rgb(37,37,37)" stroke="none" font-family="geogebra-sans-serif, sans-serif" font-size="36px" font-style="normal" font-weight="normal" text-decoration="normal" x="1123" y="551" text-anchor="start" dominant-baseline="alphabetic" fill-opacity="1">7</text><text fill="none" stroke="rgb(255,255,255)" font-family="geogebra-sans-serif, sans-serif" font-size="36px" font-style="normal" font-weight="normal" text-decoration="normal" x="1123" y="551" text-anchor="start" dominant-baseline="alphabetic" stroke-opacity="1" stroke-linejoin="bevel" stroke-miterlimit="10" stroke-width="3">7</text><text fill="rgb(37,37,37)" stroke="none" font-family="geogebra-sans-serif, sans-serif" font-size="36px" font-style="normal" font-weight="normal" text-decoration="normal" x="1123" y="551" text-anchor="start" dominant-baseline="alphabetic" fill-opacity="1">7</text><text fill="rgb(37,37,37)" stroke="none" font-family="geogebra-sans-serif, sans-serif" font-size="36px" font-style="normal" font-weight="normal" text-decoration="normal" x="553" y="828" text-anchor="start" dominant-baseline="alphabetic" fill-opacity="1">–4</text><text fill="none" stroke="rgb(255,255,255)" font-family="geogebra-sans-serif, sans-serif" font-size="36px" font-style="normal" font-weight="normal" text-decoration="normal" x="553" y="828" text-anchor="start" dominant-baseline="alphabetic" stroke-opacity="1" stroke-linejoin="bevel" stroke-miterlimit="10" stroke-width="3">–4</text><text fill="rgb(37,37,37)" stroke="none" font-family="geogebra-sans-serif, sans-serif" font-size="36px" font-style="normal" font-weight="normal" text-decoration="normal" x="553" y="828" text-anchor="start" dominant-baseline="alphabetic" fill-opacity="1">–4</text><text fill="rgb(37,37,37)" stroke="none" font-family="geogebra-sans-serif, sans-serif" font-size="36px" font-style="normal" font-weight="normal" text-decoration="normal" x="553" y="753" text-anchor="start" dominant-baseline="alphabetic" fill-opacity="1">–3</text><text fill="none" stroke="rgb(255,255,255)" font-family="geogebra-sans-serif, sans-serif" font-size="36px" font-style="normal" font-weight="normal" text-decoration="normal" x="553" y="753" text-anchor="start" dominant-baseline="alphabetic" stroke-opacity="1" stroke-linejoin="bevel" stroke-miterlimit="10" stroke-width="3">–3</text><text fill="rgb(37,37,37)" stroke="none" font-family="geogebra-sans-serif, sans-serif" font-size="36px" font-style="normal" font-weight="normal" text-decoration="normal" x="553" y="753" text-anchor="start" dominant-baseline="alphabetic" fill-opacity="1">–3</text><text fill="rgb(37,37,37)" stroke="none" font-family="geogebra-sans-serif, sans-serif" font-size="36px" font-style="normal" font-weight="normal" text-decoration="normal" x="553" y="678" text-anchor="start" dominant-baseline="alphabetic" fill-opacity="1">–2</text><text fill="none" stroke="rgb(255,255,255)" font-family="geogebra-sans-serif, sans-serif" font-size="36px" font-style="normal" font-weight="normal" text-decoration="normal" x="553" y="678" text-anchor="start" dominant-baseline="alphabetic" stroke-opacity="1" stroke-linejoin="bevel" stroke-miterlimit="10" stroke-width="3">–2</text><text fill="rgb(37,37,37)" stroke="none" font-family="geogebra-sans-serif, sans-serif" font-size="36px" font-style="normal" font-weight="normal" text-decoration="normal" x="553" y="678" text-anchor="start" dominant-baseline="alphabetic" fill-opacity="1">–2</text><text fill="rgb(37,37,37)" stroke="none" font-family="geogebra-sans-serif, sans-serif" font-size="36px" font-style="normal" font-weight="normal" text-decoration="normal" x="553" y="603" text-anchor="start" dominant-baseline="alphabetic" fill-opacity="1">–1</text><text fill="none" stroke="rgb(255,255,255)" font-family="geogebra-sans-serif, sans-serif" font-size="36px" font-style="normal" font-weight="normal" text-decoration="normal" x="553" y="603" text-anchor="start" dominant-baseline="alphabetic" stroke-opacity="1" stroke-linejoin="bevel" stroke-miterlimit="10" stroke-width="3">–1</text><text fill="rgb(37,37,37)" stroke="none" font-family="geogebra-sans-serif, sans-serif" font-size="36px" font-style="normal" font-weight="normal" text-decoration="normal" x="553" y="603" text-anchor="start" dominant-baseline="alphabetic" fill-opacity="1">–1</text><text fill="rgb(37,37,37)" stroke="none" font-family="geogebra-sans-serif, sans-serif" font-size="36px" font-style="normal" font-weight="normal" text-decoration="normal" x="573" y="453" text-anchor="start" dominant-baseline="alphabetic" fill-opacity="1">1</text><text fill="none" stroke="rgb(255,255,255)" font-family="geogebra-sans-serif, sans-serif" font-size="36px" font-style="normal" font-weight="normal" text-decoration="normal" x="573" y="453" text-anchor="start" dominant-baseline="alphabetic" stroke-opacity="1" stroke-linejoin="bevel" stroke-miterlimit="10" stroke-width="3">1</text><text fill="rgb(37,37,37)" stroke="none" font-family="geogebra-sans-serif, sans-serif" font-size="36px" font-style="normal" font-weight="normal" text-decoration="normal" x="573" y="453" text-anchor="start" dominant-baseline="alphabetic" fill-opacity="1">1</text><text fill="rgb(37,37,37)" stroke="none" font-family="geogebra-sans-serif, sans-serif" font-size="36px" font-style="normal" font-weight="normal" text-decoration="normal" x="573" y="378" text-anchor="start" dominant-baseline="alphabetic" fill-opacity="1">2</text><text fill="none" stroke="rgb(255,255,255)" font-family="geogebra-sans-serif, sans-serif" font-size="36px" font-style="normal" font-weight="normal" text-decoration="normal" x="573" y="378" text-anchor="start" dominant-baseline="alphabetic" stroke-opacity="1" stroke-linejoin="bevel" stroke-miterlimit="10" stroke-width="3">2</text><text fill="rgb(37,37,37)" stroke="none" font-family="geogebra-sans-serif, sans-serif" font-size="36px" font-style="normal" font-weight="normal" text-decoration="normal" x="573" y="378" text-anchor="start" dominant-baseline="alphabetic" fill-opacity="1">2</text><text fill="rgb(37,37,37)" stroke="none" font-family="geogebra-sans-serif, sans-serif" font-size="36px" font-style="normal" font-weight="normal" text-decoration="normal" x="573" y="303" text-anchor="start" dominant-baseline="alphabetic" fill-opacity="1">3</text><text fill="none" stroke="rgb(255,255,255)" font-family="geogebra-sans-serif, sans-serif" font-size="36px" font-style="normal" font-weight="normal" text-decoration="normal" x="573" y="303" text-anchor="start" dominant-baseline="alphabetic" stroke-opacity="1" stroke-linejoin="bevel" stroke-miterlimit="10" stroke-width="3">3</text><text fill="rgb(37,37,37)" stroke="none" font-family="geogebra-sans-serif, sans-serif" font-size="36px" font-style="normal" font-weight="normal" text-decoration="normal" x="573" y="303" text-anchor="start" dominant-baseline="alphabetic" fill-opacity="1">3</text><text fill="rgb(37,37,37)" stroke="none" font-family="geogebra-sans-serif, sans-serif" font-size="36px" font-style="normal" font-weight="normal" text-decoration="normal" x="573" y="228" text-anchor="start" dominant-baseline="alphabetic" fill-opacity="1">4</text><text fill="none" stroke="rgb(255,255,255)" font-family="geogebra-sans-serif, sans-serif" font-size="36px" font-style="normal" font-weight="normal" text-decoration="normal" x="573" y="228" text-anchor="start" dominant-baseline="alphabetic" stroke-opacity="1" stroke-linejoin="bevel" stroke-miterlimit="10" stroke-width="3">4</text><text fill="rgb(37,37,37)" stroke="none" font-family="geogebra-sans-serif, sans-serif" font-size="36px" font-style="normal" font-weight="normal" text-decoration="normal" x="573" y="228" text-anchor="start" dominant-baseline="alphabetic" fill-opacity="1">4</text><text fill="rgb(37,37,37)" stroke="none" font-family="geogebra-sans-serif, sans-serif" font-size="36px" font-style="normal" font-weight="normal" text-decoration="normal" x="573" y="153" text-anchor="start" dominant-baseline="alphabetic" fill-opacity="1">5</text><text fill="none" stroke="rgb(255,255,255)" font-family="geogebra-sans-serif, sans-serif" font-size="36px" font-style="normal" font-weight="normal" text-decoration="normal" x="573" y="153" text-anchor="start" dominant-baseline="alphabetic" stroke-opacity="1" stroke-linejoin="bevel" stroke-miterlimit="10" stroke-width="3">5</text><text fill="rgb(37,37,37)" stroke="none" font-family="geogebra-sans-serif, sans-serif" font-size="36px" font-style="normal" font-weight="normal" text-decoration="normal" x="573" y="153" text-anchor="start" dominant-baseline="alphabetic" fill-opacity="1">5</text><text fill="rgb(37,37,37)" stroke="none" font-family="geogebra-sans-serif, sans-serif" font-size="36px" font-style="normal" font-weight="normal" text-decoration="normal" x="573" y="77" text-anchor="start" dominant-baseline="alphabetic" fill-opacity="1">6</text><text fill="none" stroke="rgb(255,255,255)" font-family="geogebra-sans-serif, sans-serif" font-size="36px" font-style="normal" font-weight="normal" text-decoration="normal" x="573" y="77" text-anchor="start" dominant-baseline="alphabetic" stroke-opacity="1" stroke-linejoin="bevel" stroke-miterlimit="10" stroke-width="3">6</text><text fill="rgb(37,37,37)" stroke="none" font-family="geogebra-sans-serif, sans-serif" font-size="36px" font-style="normal" font-weight="normal" text-decoration="normal" x="573" y="77" text-anchor="start" dominant-baseline="alphabetic" fill-opacity="1">6</text><text fill="rgb(37,37,37)" stroke="none" font-family="geogebra-sans-serif, sans-serif" font-size="36px" font-style="normal" font-weight="normal" text-decoration="normal" x="573" y="551" text-anchor="start" dominant-baseline="alphabetic" fill-opacity="1">0</text><text fill="none" stroke="rgb(255,255,255)" font-family="geogebra-sans-serif, sans-serif" font-size="36px" font-style="normal" font-weight="normal" text-decoration="normal" x="573" y="551" text-anchor="start" dominant-baseline="alphabetic" stroke-opacity="1" stroke-linejoin="bevel" stroke-miterlimit="10" stroke-width="3">0</text><text fill="rgb(37,37,37)" stroke="none" font-family="geogebra-sans-serif, sans-serif" font-size="36px" font-style="normal" font-weight="normal" text-decoration="normal" x="573" y="551" text-anchor="start" dominant-baseline="alphabetic" fill-opacity="1">0</text><path fill="none" stroke="rgb(0,100,0)" paint-order="fill stroke markers" d=" M 1 -4385.480000000004 L 1 -4369.333333333335 L 1 -4369.333333333338 L 2 -4353.213333333335 L 2 -4353.213333333337 L 3 -4337.120000000001 L 3 -4337.120000000003 L 3.9999999999998863 -4321.053333333336 L 3.9999999999998863 -4321.053333333339 L 5 -4305.013333333336 L 5 -4305.013333333338 L 6 -4289.000000000002 L 6 -4289.000000000005 L 7 -4273.013333333335 L 7 -4273.013333333337 L 8 -4257.053333333335 L 8 -4257.053333333336 L 9 -4241.120000000003 L 9 -4241.1200000000035 L 10 -4225.213333333335 L 10 -4225.213333333336 L 11 -4209.333333333335 L 11 -4209.333333333336 L 12 -4193.480000000002 L 12 -4193.480000000003 L 13 -4177.6533333333355 L 13 -4177.653333333336 L 14 -4161.853333333334 L 14 -4161.853333333336 L 15 -4146.080000000003 L 15 -4146.080000000004 L 16 -4130.333333333336 L 16 -4130.333333333337 L 17 -4114.6133333333355 L 17 -4114.613333333337 L 18 -4098.920000000002 L 18 -4098.920000000003 L 19 -4083.253333333335 L 19 -4083.253333333336 L 20 -4067.6133333333364 L 20 -4067.6133333333373 L 21 -4052.000000000002 L 21 -4052.0000000000036 L 22 -4036.413333333335 L 22 -4036.4133333333366 L 23 -4020.853333333336 L 23 -4020.853333333337 L 24 -4005.3200000000024 L 24 -4005.3200000000033 L 25 -3989.8133333333353 L 25 -3989.8133333333362 L 26 -3974.3333333333358 L 26 -3974.3333333333367 L 27 -3958.880000000002 L 27 -3958.8800000000037 L 28 -3943.4533333333356 L 28 -3943.4533333333366 L 29 -3928.053333333336 L 29 -3928.053333333337 L 30 -3912.680000000002 L 30 -3912.680000000003 L 31 -3897.333333333335 L 31 -3897.3333333333358 L 32 -3882.013333333336 L 32 -3882.013333333337 L 33 -3866.720000000002 L 33 -3866.720000000003 L 34 -3851.4533333333347 L 34 -3851.4533333333356 L 35 -3836.213333333336 L 35 -3836.213333333337 L 36 -3821.000000000002 L 36 -3821.0000000000027 L 37 -3805.8133333333344 L 37 -3805.8133333333353 L 38 -3790.6533333333355 L 38 -3790.6533333333364 L 39 -3775.5200000000013 L 39 -3775.520000000003 L 40 -3760.413333333335 L 40 -3760.4133333333357 L 41 -3745.3333333333358 L 41 -3745.3333333333367 L 42 -3730.2800000000016 L 42 -3730.2800000000025 L 43 -3715.253333333335 L 43 -3715.253333333336 L 44 -3700.253333333336 L 44 -3700.2533333333367 L 45 -3685.2800000000016 L 45 -3685.2800000000025 L 46 -3670.3333333333358 L 46 -3670.3333333333367 L 47 -3655.4133333333357 L 47 -3655.4133333333366 L 48 -3640.5200000000023 L 48 -3640.520000000003 L 49 -3625.6533333333355 L 49 -3625.6533333333373 L 50 -3610.8133333333353 L 50 -3610.8133333333362 L 51 -3596.000000000002 L 51 -3596.0000000000027 L 52 -3581.213333333336 L 52 -3581.213333333337 L 53 -3566.4533333333356 L 53 -3566.4533333333366 L 54 -3551.7200000000016 L 54 -3551.7200000000025 L 55 -3537.0133333333356 L 55 -3537.0133333333365 L 56 -3522.3333333333353 L 56 -3522.333333333336 L 57 -3507.680000000001 L 57 -3507.6800000000026 L 58 -3493.053333333335 L 58 -3493.0533333333365 L 59 -3478.453333333335 L 59 -3478.453333333336 L 60 -3463.8800000000015 L 60 -3463.880000000003 L 61 -3449.3333333333353 L 61 -3449.3333333333367 L 62 -3434.8133333333353 L 62 -3434.8133333333362 L 63 -3420.320000000001 L 63 -3420.3200000000024 L 64 -3405.8533333333353 L 64 -3405.853333333336 L 65 -3391.413333333335 L 65 -3391.413333333336 L 66 -3377.0000000000014 L 66 -3377.0000000000027 L 67 -3362.6133333333355 L 67 -3362.6133333333364 L 68 -3348.2533333333354 L 68 -3348.2533333333363 L 69 -3333.920000000001 L 69 -3333.9200000000023 L 70 -3319.613333333335 L 70 -3319.6133333333364 L 71 -3305.333333333335 L 71 -3305.3333333333358 L 72 -3291.0800000000013 L 72 -3291.0800000000027 L 73 -3276.8533333333353 L 73 -3276.853333333336 L 74 -3262.653333333335 L 74 -3262.653333333336 L 75 -3248.480000000001 L 75 -3248.4800000000023 L 76 -3234.333333333335 L 76 -3234.3333333333358 L 77 -3220.2133333333345 L 77 -3220.213333333336 L 78 -3206.1200000000013 L 78 -3206.120000000002 L 79 -3192.053333333335 L 79 -3192.053333333336 L 80 -3178.0133333333347 L 80 -3178.0133333333356 L 81 -3164.0000000000023 L 81 -3164.000000000003 L 82 -3150.013333333335 L 82 -3150.013333333336 L 83 -3136.0533333333346 L 83 -3136.053333333336 L 84 -3122.1200000000017 L 84 -3122.120000000003 L 85 -3108.2133333333354 L 85 -3108.2133333333363 L 86 -3094.333333333335 L 86 -3094.3333333333358 L 87 -3080.480000000002 L 87 -3080.4800000000027 L 88 -3066.6533333333346 L 88 -3066.653333333336 L 89 -3052.8533333333344 L 89 -3052.8533333333353 L 90 -3039.0800000000017 L 90 -3039.080000000003 L 91 -3025.333333333335 L 91 -3025.3333333333358 L 92 -3011.613333333334 L 92 -3011.6133333333355 L 93 -2997.920000000002 L 93 -2997.920000000003 L 94 -2984.253333333335 L 94 -2984.253333333336 L 95 -2970.613333333334 L 95 -2970.6133333333355 L 96 -2957.000000000002 L 96 -2957.0000000000027 L 97 -2943.413333333335 L 97 -2943.4133333333357 L 98 -2929.8533333333344 L 98 -2929.8533333333353 L 99 -2916.320000000002 L 99 -2916.320000000003 L 100 -2902.8133333333344 L 100 -2902.813333333336 L 101 -2889.3333333333344 L 101 -2889.3333333333353 L 102 -2875.880000000002 L 102 -2875.880000000003 L 103 -2862.4533333333343 L 103 -2862.4533333333356 L 104 -2849.053333333334 L 104 -2849.053333333335 L 105 -2835.6800000000017 L 105 -2835.6800000000026 L 106 -2822.3333333333344 L 106 -2822.3333333333353 L 107.00000000000006 -2809.0133333333347 L 107.00000000000006 -2809.0133333333356 L 108 -2795.7200000000016 L 108 -2795.7200000000025 L 109 -2782.4533333333347 L 109 -2782.4533333333356 L 109.99999999999994 -2769.213333333335 L 109.99999999999994 -2769.213333333336 L 111 -2756.0000000000014 L 111 -2756.0000000000023 L 112 -2742.8133333333344 L 112 -2742.813333333336 L 112.99999999999994 -2729.6533333333355 L 112.99999999999994 -2729.6533333333364 L 114 -2716.520000000002 L 114 -2716.5200000000027 L 115 -2703.4133333333343 L 115 -2703.4133333333357 L 115.99999999999994 -2690.333333333335 L 115.99999999999994 -2690.333333333336 L 117 -2677.2800000000016 L 117 -2677.2800000000025 L 118 -2664.253333333334 L 118 -2664.2533333333354 L 118.99999999999994 -2651.253333333335 L 118.99999999999994 -2651.253333333336 L 120 -2638.280000000001 L 120 -2638.2800000000025 L 121 -2625.3333333333344 L 121 -2625.3333333333353 L 122 -2612.4133333333352 L 122 -2612.413333333336 L 123 -2599.5200000000013 L 123 -2599.5200000000027 L 124 -2586.653333333334 L 124 -2586.6533333333355 L 125 -2573.813333333335 L 125 -2573.813333333336 L 126 -2561.0000000000014 L 126 -2561.0000000000023 L 127 -2548.2133333333345 L 127 -2548.2133333333354 L 128 -2535.453333333335 L 128 -2535.453333333336 L 129 -2522.720000000001 L 129 -2522.7200000000025 L 130 -2510.0133333333342 L 130 -2510.013333333335 L 131 -2497.333333333335 L 131 -2497.3333333333358 L 132 -2484.680000000001 L 132 -2484.680000000002 L 133 -2472.053333333334 L 133 -2472.053333333335 L 134 -2459.4533333333347 L 134 -2459.453333333336 L 135 -2446.880000000001 L 135 -2446.8800000000024 L 136 -2434.333333333334 L 136 -2434.333333333335 L 137 -2421.8133333333344 L 137 -2421.8133333333353 L 138 -2409.3200000000006 L 138 -2409.320000000002 L 139.00000000000006 -2396.853333333334 L 139.00000000000006 -2396.8533333333353 L 140 -2384.413333333335 L 140 -2384.4133333333357 L 141 -2372.000000000001 L 141 -2372.000000000002 L 142.00000000000006 -2359.613333333334 L 142.00000000000006 -2359.613333333335 L 143 -2347.2533333333345 L 143 -2347.253333333336 L 144 -2334.920000000001 L 144 -2334.920000000002 L 144.99999999999994 -2322.6133333333346 L 144.99999999999994 -2322.613333333336 L 146 -2310.333333333335 L 146 -2310.3333333333358 L 147 -2298.080000000001 L 147 -2298.080000000002 L 147.99999999999994 -2285.853333333335 L 147.99999999999994 -2285.8533333333357 L 149 -2273.6533333333346 L 149 -2273.653333333336 L 150 -2261.480000000001 L 150 -2261.4800000000023 L 150.99999999999994 -2249.333333333335 L 150.99999999999994 -2249.3333333333358 L 152 -2237.213333333334 L 152 -2237.2133333333354 L 153 -2225.1200000000013 L 153 -2225.120000000002 L 154 -2213.0533333333346 L 154 -2213.053333333336 L 155 -2201.0133333333342 L 155 -2201.013333333335 L 156 -2189.000000000001 L 156 -2189.0000000000023 L 157 -2177.0133333333347 L 157 -2177.0133333333356 L 158 -2165.053333333334 L 158 -2165.053333333335 L 159 -2153.120000000001 L 159 -2153.120000000002 L 160 -2141.2133333333345 L 160 -2141.213333333336 L 161 -2129.333333333334 L 161 -2129.3333333333353 L 162 -2117.480000000001 L 162 -2117.480000000002 L 163 -2105.6533333333346 L 163 -2105.6533333333355 L 164 -2093.853333333334 L 164 -2093.8533333333353 L 165 -2082.080000000001 L 165 -2082.0800000000017 L 166 -2070.3333333333344 L 166 -2070.3333333333353 L 167 -2058.6133333333346 L 167 -2058.6133333333355 L 168 -2046.9200000000005 L 168 -2046.920000000002 L 169 -2035.2533333333345 L 169 -2035.2533333333354 L 170 -2023.6133333333341 L 170 -2023.6133333333355 L 171.00000000000006 -2012.0000000000005 L 171.00000000000006 -2012.0000000000014 L 172 -2000.4133333333343 L 172 -2000.4133333333352 L 173 -1988.853333333334 L 173 -1988.8533333333353 L 173.99999999999994 -1977.3200000000015 L 173.99999999999994 -1977.3200000000024 L 175 -1965.8133333333344 L 175 -1965.8133333333358 L 176 -1954.333333333334 L 176 -1954.3333333333348 L 176.99999999999994 -1942.880000000001 L 176.99999999999994 -1942.8800000000024 L 178 -1931.4533333333343 L 178 -1931.4533333333352 L 179 -1920.0533333333342 L 179 -1920.053333333335 L 179.99999999999994 -1908.6800000000007 L 179.99999999999994 -1908.680000000002 L 181 -1897.333333333334 L 181 -1897.3333333333353 L 182 -1886.0133333333342 L 182 -1886.0133333333347 L 182.99999999999994 -1874.7200000000016 L 182.99999999999994 -1874.720000000002 L 184 -1863.4533333333347 L 184 -1863.4533333333352 L 185 -1852.213333333334 L 185 -1852.2133333333345 L 186 -1841.0000000000014 L 186 -1841.0000000000018 L 187 -1829.8133333333344 L 187 -1829.8133333333349 L 188 -1818.653333333334 L 188 -1818.6533333333346 L 189 -1807.5200000000013 L 189 -1807.5200000000018 L 190 -1796.4133333333343 L 190 -1796.4133333333348 L 191 -1785.333333333334 L 191 -1785.3333333333344 L 192 -1774.2800000000016 L 192 -1774.280000000002 L 193 -1763.2533333333345 L 193 -1763.253333333335 L 194 -1752.253333333334 L 194 -1752.2533333333345 L 195 -1741.280000000001 L 195 -1741.2800000000016 L 196 -1730.3333333333344 L 196 -1730.3333333333348 L 197 -1719.4133333333343 L 197 -1719.4133333333348 L 198 -1708.520000000001 L 198 -1708.5200000000018 L 199 -1697.6533333333346 L 199 -1697.653333333335 L 200 -1686.813333333334 L 200 -1686.8133333333344 L 201 -1676.0000000000014 L 201 -1676.0000000000018 L 202 -1665.213333333334 L 202 -1665.213333333335 L 203.00000000000006 -1654.4533333333343 L 203.00000000000006 -1654.4533333333347 L 204 -1643.7200000000012 L 204 -1643.7200000000016 L 205 -1633.0133333333342 L 205 -1633.0133333333347 L 206.00000000000006 -1622.333333333334 L 206.00000000000006 -1622.3333333333344 L 207 -1611.6800000000012 L 207 -1611.6800000000017 L 208 -1601.0533333333342 L 208 -1601.0533333333346 L 208.99999999999994 -1590.4533333333347 L 208.99999999999994 -1590.4533333333352 L 210 -1579.880000000001 L 210 -1579.8800000000015 L 211 -1569.333333333334 L 211 -1569.3333333333348 L 211.99999999999994 -1558.8133333333344 L 211.99999999999994 -1558.8133333333349 L 213 -1548.320000000001 L 213 -1548.3200000000015 L 214 -1537.853333333334 L 214 -1537.8533333333348 L 214.99999999999994 -1527.4133333333345 L 214.99999999999994 -1527.413333333335 L 216 -1517.000000000001 L 216 -1517.0000000000014 L 217 -1506.6133333333341 L 217 -1506.6133333333346 L 218 -1496.2533333333345 L 218 -1496.253333333335 L 219 -1485.9200000000008 L 219 -1485.9200000000014 L 220 -1475.6133333333341 L 220 -1475.6133333333346 L 221 -1465.3333333333344 L 221 -1465.3333333333348 L 222 -1455.080000000001 L 222 -1455.0800000000015 L 223 -1444.853333333334 L 223 -1444.8533333333344 L 224 -1434.6533333333346 L 224 -1434.653333333335 L 225 -1424.480000000001 L 225 -1424.4800000000014 L 226 -1414.333333333334 L 226 -1414.3333333333344 L 227 -1404.2133333333345 L 227 -1404.213333333335 L 228 -1394.1200000000008 L 228 -1394.1200000000013 L 229 -1384.053333333334 L 229 -1384.0533333333344 L 230 -1374.0133333333342 L 230 -1374.013333333335 L 231 -1364.000000000001 L 231 -1364.0000000000014 L 232 -1354.0133333333338 L 232 -1354.0133333333342 L 233 -1344.0533333333344 L 233 -1344.0533333333349 L 234 -1334.1200000000008 L 234 -1334.1200000000013 L 235.00000000000006 -1324.2133333333338 L 235.00000000000006 -1324.2133333333345 L 236 -1314.3333333333342 L 236 -1314.3333333333346 L 237 -1304.4800000000007 L 237 -1304.4800000000014 L 237.99999999999994 -1294.6533333333346 L 237.99999999999994 -1294.653333333335 L 239 -1284.8533333333341 L 239 -1284.8533333333348 L 240 -1275.0800000000006 L 240 -1275.080000000001 L 240.99999999999994 -1265.3333333333344 L 240.99999999999994 -1265.333333333335 L 242 -1255.6133333333341 L 242 -1255.6133333333348 L 243 -1245.9200000000005 L 243 -1245.920000000001 L 243.99999999999994 -1236.2533333333342 L 243.99999999999994 -1236.2533333333347 L 245 -1226.6133333333341 L 245 -1226.6133333333348 L 246 -1217.0000000000005 L 246 -1217.0000000000011 L 246.99999999999994 -1207.413333333334 L 246.99999999999994 -1207.4133333333348 L 248 -1197.8533333333341 L 248 -1197.8533333333348 L 249 -1188.3200000000004 L 249 -1188.320000000001 L 250 -1178.8133333333342 L 250 -1178.8133333333346 L 251 -1169.3333333333342 L 251 -1169.3333333333346 L 252 -1159.8800000000003 L 252 -1159.880000000001 L 253 -1150.4533333333343 L 253 -1150.453333333335 L 254 -1141.053333333334 L 254 -1141.0533333333346 L 255 -1131.6800000000005 L 255 -1131.6800000000012 L 256 -1122.3333333333342 L 256 -1122.3333333333348 L 257 -1113.013333333334 L 257 -1113.0133333333345 L 258 -1103.7200000000005 L 258 -1103.720000000001 L 259 -1094.453333333334 L 259 -1094.4533333333347 L 260 -1085.213333333334 L 260 -1085.2133333333345 L 261 -1076.0000000000002 L 261 -1076.000000000001 L 262 -1066.8133333333342 L 262 -1066.8133333333346 L 263 -1057.6533333333339 L 263 -1057.6533333333343 L 264 -1048.5200000000004 L 264 -1048.520000000001 L 265 -1039.413333333334 L 265 -1039.4133333333345 L 266 -1030.333333333334 L 266 -1030.3333333333344 L 267.00000000000006 -1021.2800000000004 L 267.00000000000006 -1021.2800000000011 L 268 -1012.253333333334 L 268 -1012.2533333333347 L 269 -1003.2533333333338 L 269 -1003.2533333333342 L 270.00000000000006 -994.2800000000002 L 270.00000000000006 -994.2800000000009 L 271 -985.3333333333342 L 271 -985.3333333333346 L 272 -976.4133333333339 L 272 -976.4133333333343 L 272.99999999999994 -967.5200000000009 L 272.99999999999994 -967.5200000000013 L 274 -958.6533333333341 L 274 -958.6533333333346 L 275 -949.8133333333337 L 275 -949.8133333333342 L 275.99999999999994 -941.0000000000007 L 275.99999999999994 -941.0000000000014 L 277 -932.213333333334 L 277 -932.2133333333347 L 278 -923.4533333333338 L 278 -923.4533333333343 L 278.99999999999994 -914.7200000000007 L 278.99999999999994 -914.7200000000012 L 280 -906.013333333334 L 280 -906.0133333333345 L 281 -897.3333333333337 L 281 -897.3333333333342 L 282 -888.6800000000007 L 282 -888.6800000000012 L 283 -880.053333333334 L 283 -880.0533333333344 L 284 -871.4533333333336 L 284 -871.4533333333341 L 285 -862.8800000000008 L 285 -862.8800000000015 L 286 -854.3333333333339 L 286 -854.3333333333344 L 287 -845.8133333333337 L 287 -845.8133333333342 L 288 -837.3200000000006 L 288 -837.3200000000013 L 289 -828.8533333333337 L 289 -828.8533333333341 L 290 -820.4133333333336 L 290 -820.4133333333341 L 291 -812.0000000000005 L 291 -812.0000000000011 L 292 -803.6133333333339 L 292 -803.6133333333344 L 293 -795.2533333333338 L 293 -795.2533333333342 L 294 -786.9200000000008 L 294 -786.9200000000012 L 295 -778.6133333333337 L 295 -778.6133333333341 L 296 -770.3333333333335 L 296 -770.3333333333339 L 297 -762.0800000000006 L 297 -762.0800000000013 L 298 -753.8533333333337 L 298 -753.8533333333341 L 299.00000000000006 -745.6533333333336 L 299.00000000000006 -745.6533333333341 L 300 -737.4800000000005 L 300 -737.4800000000009 L 301 -729.3333333333337 L 301 -729.3333333333342 L 301.99999999999994 -721.213333333334 L 301.99999999999994 -721.2133333333347 L 303 -713.1200000000006 L 303 -713.120000000001 L 304 -705.0533333333337 L 304 -705.0533333333342 L 304.99999999999994 -697.013333333334 L 304.99999999999994 -697.0133333333347 L 306 -689.0000000000005 L 306 -689.0000000000011 L 307 -681.0133333333338 L 307 -681.013333333334 L 308 -673.0533333333337 L 308 -673.053333333334 L 309 -665.1200000000006 L 309 -665.1200000000008 L 310 -657.2133333333336 L 310 -657.213333333334 L 311 -649.3333333333339 L 311 -649.3333333333342 L 312 -641.4800000000005 L 312 -641.4800000000007 L 313 -633.6533333333341 L 313 -633.6533333333343 L 314 -625.8533333333337 L 314 -625.8533333333341 L 315 -618.0800000000006 L 315 -618.0800000000008 L 316 -610.3333333333339 L 316 -610.3333333333342 L 317 -602.6133333333339 L 317 -602.6133333333341 L 318 -594.9200000000005 L 318 -594.9200000000008 L 319 -587.253333333334 L 319 -587.2533333333342 L 320 -579.6133333333337 L 320 -579.6133333333339 L 321 -572.0000000000005 L 321 -572.0000000000007 L 322 -564.4133333333339 L 322 -564.4133333333341 L 323 -556.8533333333337 L 323 -556.8533333333339 L 324 -549.3200000000004 L 324 -549.3200000000006 L 325 -541.813333333334 L 325 -541.8133333333342 L 326 -534.3333333333339 L 326 -534.3333333333342 L 327 -526.8800000000006 L 327 -526.8800000000008 L 328 -519.4533333333338 L 328 -519.4533333333341 L 329 -512.053333333334 L 329 -512.0533333333342 L 330 -504.6800000000004 L 330 -504.68000000000063 L 331 -497.3333333333338 L 331 -497.33333333333405 L 332 -490.0133333333338 L 332 -490.0133333333341 L 333 -482.72000000000037 L 333 -482.7200000000007 L 334 -475.45333333333383 L 334 -475.45333333333406 L 335 -468.2133333333338 L 335 -468.21333333333405 L 336 -461.00000000000034 L 336 -461.0000000000007 L 337 -453.81333333333384 L 337 -453.81333333333407 L 338 -446.65333333333376 L 338 -446.6533333333341 L 339 -439.5200000000003 L 339 -439.52000000000066 L 340 -432.41333333333375 L 340 -432.413333333334 L 341 -425.3333333333337 L 341 -425.33333333333394 L 342 -418.2800000000003 L 342 -418.28000000000054 L 343 -411.25333333333367 L 343 -411.2533333333339 L 344 -404.2533333333338 L 344 -404.253333333334 L 345 -397.2800000000004 L 345 -397.28000000000077 L 346 -390.3333333333337 L 346 -390.33333333333394 L 347 -383.41333333333364 L 347 -383.413333333334 L 348 -376.52000000000044 L 348 -376.5200000000008 L 349 -369.65333333333353 L 349 -369.6533333333339 L 350 -362.81333333333373 L 350 -362.81333333333396 L 351 -356.00000000000045 L 351 -356.0000000000007 L 352 -349.2133333333336 L 352 -349.2133333333338 L 353 -342.4533333333336 L 353 -342.45333333333394 L 354 -335.7200000000005 L 354 -335.7200000000007 L 355 -329.01333333333355 L 355 -329.0133333333338 L 356 -322.3333333333336 L 356 -322.3333333333338 L 357 -315.6800000000004 L 357 -315.68000000000063 L 358 -309.05333333333374 L 358 -309.05333333333397 L 359 -302.4533333333336 L 359 -302.45333333333394 L 360 -295.88000000000045 L 360 -295.8800000000007 L 361 -289.3333333333337 L 361 -289.33333333333405 L 362 -282.8133333333335 L 362 -282.81333333333384 L 363 -276.3200000000003 L 363 -276.3200000000006 L 364 -269.8533333333338 L 364 -269.85333333333404 L 365 -263.4133333333335 L 365 -263.41333333333387 L 366 -257.00000000000034 L 366 -257.00000000000057 L 367 -250.6133333333338 L 367 -250.61333333333403 L 368 -244.25333333333356 L 368 -244.25333333333379 L 369 -237.9200000000003 L 369 -237.92000000000053 L 370 -231.61333333333369 L 370 -231.61333333333403 L 371 -225.33333333333348 L 371 -225.3333333333337 L 372 -219.08000000000015 L 372 -219.0800000000005 L 373 -212.8533333333337 L 373 -212.85333333333392 L 374 -206.65333333333353 L 374 -206.65333333333376 L 375 -200.48000000000025 L 375 -200.48000000000047 L 376 -194.3333333333337 L 376 -194.33333333333394 L 377 -188.2133333333337 L 377 -188.21333333333394 L 378 -182.12000000000023 L 378 -182.12000000000057 L 379 -176.0533333333335 L 379 -176.05333333333385 L 380 -170.01333333333366 L 380 -170.013333333334 L 381 -164.00000000000023 L 381 -164.00000000000057 L 382 -158.01333333333355 L 382 -158.01333333333378 L 383 -152.05333333333363 L 383 -152.05333333333397 L 384 -146.12000000000023 L 384 -146.12000000000046 L 385 -140.21333333333348 L 385 -140.21333333333382 L 386 -134.3333333333336 L 386 -134.33333333333383 L 387 -128.48000000000013 L 387 -128.48000000000047 L 388 -122.65333333333353 L 388 -122.65333333333388 L 389 -116.85333333333358 L 389 -116.85333333333381 L 390 -111.08000000000038 L 390 -111.08000000000061 L 391 -105.33333333333348 L 391 -105.33333333333371 L 392 -99.61333333333357 L 392 -99.6133333333338 L 393 -93.92000000000019 L 393 -93.92000000000053 L 394 -88.25333333333356 L 394 -88.25333333333367 L 395 -82.61333333333369 L 395 -82.6133333333338 L 396 -77.00000000000034 L 396 -77.00000000000045 L 397 -71.41333333333353 L 397 -71.41333333333364 L 398 -65.85333333333358 L 398 -65.8533333333337 L 399 -60.32000000000039 L 399 -60.320000000000505 L 400 -54.8133333333335 L 400 -54.81333333333362 L 401 -49.3333333333336 L 401 -49.33333333333371 L 402 -43.88000000000022 L 402 -43.88000000000045 L 403 -38.45333333333349 L 403 -38.4533333333336 L 404 -33.05333333333351 L 404 -33.05333333333374 L 405 -27.68000000000029 L 405 -27.680000000000405 L 406 -22.333333333333485 L 406 -22.3333333333336 L 407 -17.01333333333355 L 407 -17.013333333333662 L 408 -11.720000000000255 L 408 -11.720000000000368 L 409 -6.453333333333603 L 409 -6.453333333333717 L 410 -1.2133333333334804 L 410 -1.2133333333337077 L 411 3.9999999999997726 L 411 3.999999999999659 L 412 9.186666666666383 L 412 9.18666666666627 L 413 14.346666666666465 L 413 14.346666666666351 L 414 19.479999999999734 L 414 19.47999999999962 L 415 24.58666666666636 L 415 24.586666666666247 L 416 29.666666666666515 L 416 29.6666666666664 L 417 34.7199999999998 L 417 34.719999999999686 L 418 39.74666666666644 L 418 39.74666666666627 L 419 44.746666666666556 L 419 44.74666666666644 L 420 49.7199999999998 L 420 49.719999999999686 L 421 54.66666666666646 L 421 54.666666666666345 L 422 59.58666666666636 L 422 59.58666666666625 L 423 64.47999999999985 L 423 64.47999999999973 L 424 69.34666666666647 L 424 69.3466666666663 L 425 74.18666666666644 L 425 74.18666666666633 L 426 78.99999999999989 L 426 78.99999999999972 L 427 83.78666666666646 L 427 83.78666666666629 L 428 88.54666666666645 L 428 88.54666666666634 L 429 93.27999999999992 L 429 93.27999999999975 L 430 97.98666666666651 L 430 97.98666666666634 L 431 102.66666666666646 L 431 102.66666666666629 L 432 107.31999999999988 L 432 107.31999999999977 L 433 111.94666666666649 L 433 111.94666666666637 L 434 116.54666666666645 L 434 116.54666666666634 L 435 121.11999999999989 L 435 121.11999999999978 L 436 125.66666666666652 L 436 125.6666666666664 L 437 130.1866666666665 L 437 130.18666666666633 L 438 134.67999999999995 L 438 134.67999999999978 L 439 139.14666666666653 L 439 139.14666666666642 L 440 143.58666666666647 L 440 143.58666666666636 L 441 147.99999999999983 L 441 147.99999999999966 L 442 152.38666666666654 L 442 152.38666666666643 L 443 156.7466666666665 L 443 156.74666666666639 L 444 161.0799999999998 L 444 161.0799999999997 L 445 165.3866666666666 L 445 165.38666666666649 L 446 169.66666666666652 L 446 169.6666666666664 L 447 173.91999999999985 L 447 173.91999999999967 L 448 178.1466666666666 L 448 178.14666666666648 L 449 182.34666666666652 L 449 182.3466666666664 L 450 186.5199999999998 L 450 186.5199999999997 L 451 190.66666666666663 L 451 190.66666666666652 L 452 194.78666666666658 L 452 194.78666666666646 L 453 198.87999999999988 L 453 198.87999999999977 L 454 202.9466666666665 L 454 202.94666666666632 L 455 206.98666666666657 L 455 206.98666666666645 L 456 210.9999999999999 L 456 210.99999999999972 L 457 214.98666666666657 L 457 214.9866666666665 L 458 218.9466666666666 L 458 218.9466666666665 L 459 222.87999999999988 L 459 222.87999999999982 L 460 226.78666666666658 L 460 226.78666666666646 L 461 230.66666666666652 L 461 230.66666666666646 L 462 234.51999999999987 L 462 234.5199999999998 L 463 238.34666666666658 L 463 238.34666666666652 L 464 242.14666666666653 L 464 242.14666666666648 L 465 245.9199999999999 L 465 245.91999999999985 L 466 249.66666666666652 L 466 249.66666666666646 L 467 253.38666666666654 L 467 253.38666666666649 L 468 257.0799999999999 L 468 257.0799999999998 L 469 260.74666666666656 L 469 260.74666666666644 L 470 264.38666666666654 L 470 264.3866666666665 L 471 267.9999999999999 L 471 267.99999999999983 L 472 271.5866666666666 L 472 271.5866666666665 L 473 275.14666666666653 L 473 275.14666666666653 L 474 278.67999999999995 L 474 278.67999999999984 L 475 282.18666666666655 L 475 282.1866666666665 L 476 285.6666666666666 L 476 285.6666666666665 L 477 289.1199999999999 L 477 289.1199999999998 L 478 292.54666666666657 L 478 292.5466666666665 L 479 295.9466666666666 L 479 295.94666666666654 L 480 299.3199999999999 L 480 299.3199999999998 L 481 302.66666666666663 L 481 302.6666666666665 L 482 305.98666666666657 L 482 305.9866666666665 L 483 309.27999999999986 L 483 309.27999999999986 L 484 312.5466666666666 L 484 312.5466666666665 L 485 315.7866666666665 L 485 315.7866666666665 L 486 318.9999999999999 L 486 318.9999999999999 L 487 322.1866666666666 L 487 322.18666666666655 L 488 325.3466666666666 L 488 325.34666666666647 L 489 328.47999999999996 L 489 328.4799999999999 L 490 331.5866666666666 L 490 331.5866666666666 L 491 334.6666666666666 L 491 334.6666666666665 L 492 337.7199999999999 L 492 337.71999999999986 L 493 340.74666666666656 L 493 340.7466666666665 L 494 343.7466666666666 L 494 343.74666666666656 L 495 346.7199999999999 L 495 346.7199999999999 L 496 349.66666666666663 L 496 349.6666666666665 L 497 352.5866666666666 L 497 352.58666666666653 L 498 355.4799999999999 L 498 355.47999999999985 L 499 358.3466666666666 L 499 358.3466666666666 L 500 361.1866666666666 L 500 361.1866666666666 L 501 363.9999999999999 L 501 363.9999999999999 L 502 366.78666666666663 L 502 366.7866666666666 L 503 369.5466666666666 L 503 369.5466666666666 L 504 372.28 L 504 372.27999999999986 L 505 374.9866666666666 L 505 374.98666666666657 L 506 377.66666666666663 L 506 377.66666666666663 L 507 380.31999999999994 L 507 380.31999999999994 L 508 382.9466666666666 L 508 382.9466666666666 L 509 385.5466666666666 L 509 385.54666666666657 L 510 388.11999999999995 L 510 388.1199999999999 L 511 390.66666666666663 L 511 390.66666666666663 L 512 393.1866666666666 L 512 393.18666666666655 L 513 395.67999999999995 L 513 395.67999999999995 L 514 398.1466666666666 L 514 398.14666666666653 L 515 400.5866666666666 L 515 400.5866666666666 L 516 403 L 516 402.99999999999994 L 517 405.3866666666666 L 517 405.3866666666666 L 518 407.7466666666666 L 518 407.74666666666656 L 519 410.08 L 519 410.0799999999999 L 520 412.3866666666666 L 520 412.3866666666666 L 521 414.66666666666663 L 521 414.66666666666663 L 522 416.91999999999996 L 522 416.91999999999996 L 523 419.14666666666665 L 523 419.1466666666666 L 524 421.34666666666664 L 524 421.3466666666666 L 525 423.52 L 525 423.5199999999999 L 526 425.66666666666663 L 526 425.66666666666663 L 527 427.78666666666663 L 527 427.78666666666663 L 528 429.87999999999994 L 528 429.87999999999994 L 529 431.94666666666666 L 529 431.9466666666666 L 530 433.9866666666666 L 530 433.98666666666657 L 531 436 L 531 435.99999999999994 L 532 437.9866666666667 L 532 437.9866666666666 L 533 439.94666666666666 L 533 439.9466666666666 L 534 441.88 L 534 441.87999999999994 L 535 443.78666666666663 L 535 443.78666666666663 L 536 445.66666666666663 L 536 445.66666666666663 L 537 447.52 L 537 447.52 L 538 449.34666666666664 L 538 449.34666666666664 L 539 451.14666666666665 L 539 451.14666666666665 L 540 452.91999999999996 L 540 452.91999999999996 L 541 454.66666666666663 L 541 454.66666666666663 L 542 456.38666666666666 L 542 456.38666666666666 L 543 458.08 L 543 458.0799999999999 L 544 459.74666666666667 L 544 459.7466666666666 L 545 461.38666666666666 L 545 461.38666666666666 L 546 463 L 546 462.99999999999994 L 547 464.58666666666664 L 547 464.58666666666664 L 548 466.14666666666665 L 548 466.14666666666665 L 549 467.68 L 549 467.67999999999995 L 550 469.18666666666667 L 550 469.1866666666666 L 551 470.66666666666663 L 551 470.66666666666663 L 552 472.12 L 552 472.11999999999995 L 553 473.5466666666666 L 553 473.5466666666666 L 554 474.94666666666666 L 554 474.94666666666666 L 555 476.32 L 555 476.32 L 556 477.66666666666663 L 556 477.66666666666663 L 557 478.9866666666667 L 557 478.9866666666666 L 558 480.28 L 558 480.28 L 559 481.5466666666666 L 559 481.5466666666666 L 560 482.78666666666663 L 560 482.78666666666663 L 561 484 L 561 484 L 562 485.18666666666667 L 562 485.18666666666667 L 563 486.34666666666664 L 563 486.34666666666664 L 564 487.48 L 564 487.47999999999996 L 565 488.58666666666664 L 565 488.58666666666664 L 566 489.66666666666663 L 566 489.66666666666663 L 567 490.71999999999997 L 567 490.71999999999997 L 568 491.74666666666667 L 568 491.74666666666667 L 569 492.74666666666667 L 569 492.74666666666667 L 570 493.71999999999997 L 570 493.71999999999997 L 571 494.66666666666663 L 571 494.66666666666663 L 572 495.58666666666664 L 572 495.58666666666664 L 573 496.48 L 573 496.48 L 574 497.34666666666664 L 574 497.34666666666664 L 575 498.18666666666667 L 575 498.18666666666667 L 576 499 L 576 499 L 577 499.7866666666667 L 577 499.78666666666663 L 578 500.5466666666667 L 578 500.5466666666667 L 579 501.28 L 579 501.28 L 580 501.9866666666667 L 580 501.9866666666667 L 581 502.6666666666667 L 581 502.6666666666667 L 582 503.32 L 582 503.32 L 583 503.94666666666666 L 583 503.94666666666666 L 584 504.5466666666667 L 584 504.5466666666667 L 585 505.12 L 585 505.12 L 586 505.6666666666667 L 586 505.6666666666667 L 587 506.18666666666667 L 587 506.18666666666667 L 588 506.68 L 588 506.68 L 589 507.14666666666665 L 589 507.14666666666665 L 590 507.58666666666664 L 590 507.58666666666664 L 591 508 L 591 508 L 592 508.38666666666666 L 592 508.38666666666666 L 593 508.74666666666667 L 593 508.74666666666667 L 594 509.08 L 594 509.08 L 595 509.38666666666666 L 595 509.38666666666666 L 596 509.6666666666667 L 596 509.6666666666667 L 597 509.92 L 597 509.92 L 598 510.14666666666665 L 598 510.14666666666665 L 599 510.3466666666667 L 599 510.3466666666667 L 600 510.52 L 600 510.52 L 601 510.6666666666667 L 601 510.6666666666667 L 602 510.7866666666667 L 602 510.7866666666667 L 603 510.88 L 603 510.88 L 604 510.94666666666666 L 604 510.94666666666666 L 605 510.9866666666667 L 605 510.9866666666667 L 606 511 L 606 511 L 607 510.9866666666667 L 607 510.9866666666667 L 608 510.94666666666666 L 608 510.94666666666666 L 609 510.88 L 609 510.88 L 610 510.7866666666667 L 610 510.7866666666667 L 611 510.6666666666667 L 611 510.6666666666667 L 612 510.52 L 612 510.52 L 613 510.3466666666667 L 613 510.3466666666667 L 614 510.14666666666665 L 614 510.14666666666665 L 615 509.92 L 615 509.92 L 616 509.6666666666667 L 616 509.6666666666667 L 617 509.38666666666666 L 617 509.38666666666666 L 618 509.08 L 618 509.08 L 619 508.74666666666667 L 619 508.74666666666667 L 620 508.38666666666666 L 620 508.38666666666666 L 621 508 L 621 508 L 622 507.58666666666664 L 622 507.58666666666664 L 623 507.14666666666665 L 623 507.14666666666665 L 624 506.68 L 624 506.68 L 625 506.18666666666667 L 625 506.18666666666667 L 626 505.6666666666667 L 626 505.6666666666667 L 627 505.12 L 627 505.12 L 628 504.5466666666667 L 628 504.5466666666667 L 629 503.94666666666666 L 629 503.94666666666666 L 630 503.32 L 630 503.32 L 631 502.6666666666667 L 631 502.6666666666667 L 632 501.9866666666667 L 632 501.9866666666667 L 633 501.28 L 633 501.28 L 634 500.5466666666667 L 634 500.5466666666667 L 635 499.78666666666663 L 635 499.7866666666667 L 636 499 L 636 499 L 637 498.18666666666667 L 637 498.18666666666667 L 638 497.34666666666664 L 638 497.34666666666664 L 639 496.48 L 639 496.48 L 640 495.58666666666664 L 640 495.58666666666664 L 641 494.66666666666663 L 641 494.66666666666663 L 642 493.71999999999997 L 642 493.71999999999997 L 643 492.74666666666667 L 643 492.74666666666667 L 644 491.74666666666667 L 644 491.74666666666667 L 645 490.71999999999997 L 645 490.71999999999997 L 646 489.66666666666663 L 646 489.66666666666663 L 647 488.58666666666664 L 647 488.58666666666664 L 648 487.47999999999996 L 648 487.48 L 649 486.34666666666664 L 649 486.34666666666664 L 650 485.18666666666667 L 650 485.18666666666667 L 651 484 L 651 484 L 652 482.78666666666663 L 652 482.78666666666663 L 653 481.5466666666666 L 653 481.5466666666666 L 654 480.28 L 654 480.28 L 655 478.9866666666666 L 655 478.9866666666667 L 656 477.66666666666663 L 656 477.66666666666663 L 657 476.32 L 657 476.32 L 658 474.94666666666666 L 658 474.94666666666666 L 659 473.5466666666666 L 659 473.5466666666666 L 660 472.11999999999995 L 660 472.12 L 661 470.66666666666663 L 661 470.66666666666663 L 662 469.1866666666666 L 662 469.18666666666667 L 663 467.67999999999995 L 663 467.68 L 664 466.14666666666665 L 664 466.14666666666665 L 665 464.58666666666664 L 665 464.58666666666664 L 666 462.99999999999994 L 666 463 L 667 461.38666666666666 L 667 461.38666666666666 L 668 459.7466666666666 L 668 459.74666666666667 L 669 458.0799999999999 L 669 458.08 L 670 456.38666666666666 L 670 456.38666666666666 L 671 454.66666666666663 L 671 454.66666666666663 L 672 452.91999999999996 L 672 452.91999999999996 L 673 451.14666666666665 L 673 451.14666666666665 L 674 449.34666666666664 L 674 449.34666666666664 L 675 447.52 L 675 447.52 L 676 445.66666666666663 L 676 445.66666666666663 L 677 443.78666666666663 L 677 443.78666666666663 L 678 441.87999999999994 L 678 441.88 L 679 439.9466666666666 L 679 439.94666666666666 L 680 437.9866666666666 L 680 437.9866666666667 L 681 435.99999999999994 L 681 436 L 682 433.98666666666657 L 682 433.9866666666666 L 683 431.9466666666666 L 683 431.94666666666666 L 684 429.87999999999994 L 684 429.87999999999994 L 685 427.78666666666663 L 685 427.78666666666663 L 686 425.66666666666663 L 686 425.66666666666663 L 687 423.5199999999999 L 687 423.52 L 688 421.3466666666666 L 688 421.34666666666664 L 689 419.1466666666666 L 689 419.14666666666665 L 690 416.91999999999996 L 690 416.91999999999996 L 691 414.66666666666663 L 691 414.66666666666663 L 692 412.3866666666666 L 692 412.3866666666666 L 693 410.0799999999999 L 693 410.08 L 694 407.74666666666656 L 694 407.7466666666666 L 695 405.3866666666666 L 695 405.3866666666666 L 696 402.99999999999994 L 696 403 L 697 400.5866666666666 L 697 400.5866666666666 L 698 398.14666666666653 L 698 398.1466666666666 L 699 395.67999999999995 L 699 395.67999999999995 L 700 393.18666666666655 L 700 393.1866666666666 L 701 390.66666666666663 L 701 390.66666666666663 L 702 388.1199999999999 L 702 388.11999999999995 L 703 385.54666666666657 L 703 385.5466666666666 L 704 382.9466666666666 L 704 382.9466666666666 L 705 380.31999999999994 L 705 380.31999999999994 L 706 377.66666666666663 L 706 377.66666666666663 L 707 374.98666666666657 L 707 374.9866666666666 L 708 372.27999999999986 L 708 372.28 L 709 369.5466666666666 L 709 369.5466666666666 L 710 366.7866666666666 L 710 366.78666666666663 L 711 363.9999999999999 L 711 363.9999999999999 L 712 361.1866666666666 L 712 361.1866666666666 L 713 358.3466666666666 L 713 358.3466666666666 L 714 355.47999999999985 L 714 355.4799999999999 L 715 352.58666666666653 L 715 352.5866666666666 L 716 349.6666666666665 L 716 349.66666666666663 L 717 346.7199999999999 L 717 346.7199999999999 L 718 343.74666666666656 L 718 343.7466666666666 L 719 340.7466666666665 L 719 340.74666666666656 L 720 337.71999999999986 L 720 337.7199999999999 L 721 334.6666666666665 L 721 334.6666666666666 L 722 331.5866666666666 L 722 331.5866666666666 L 723 328.4799999999999 L 723 328.47999999999996 L 724 325.34666666666647 L 724 325.3466666666666 L 725 322.18666666666655 L 725 322.1866666666666 L 726 318.9999999999999 L 726 318.9999999999999 L 727 315.7866666666665 L 727 315.7866666666665 L 728 312.5466666666665 L 728 312.5466666666666 L 729 309.27999999999986 L 729 309.27999999999986 L 730 305.9866666666665 L 730 305.98666666666657 L 731 302.6666666666665 L 731 302.66666666666663 L 732 299.3199999999998 L 732 299.3199999999999 L 733 295.94666666666654 L 733 295.9466666666666 L 734 292.5466666666665 L 734 292.54666666666657 L 735 289.1199999999998 L 735 289.1199999999999 L 736 285.6666666666665 L 736 285.6666666666666 L 737 282.1866666666665 L 737 282.18666666666655 L 738 278.67999999999984 L 738 278.67999999999995 L 739 275.14666666666653 L 739 275.14666666666653 L 740 271.5866666666665 L 740 271.5866666666666 L 741 267.99999999999983 L 741 267.9999999999999 L 742 264.3866666666665 L 742 264.38666666666654 L 743 260.74666666666644 L 743 260.74666666666656 L 744 257.0799999999998 L 744 257.0799999999999 L 745 253.38666666666649 L 745 253.38666666666654 L 746 249.66666666666646 L 746 249.66666666666652 L 747 245.91999999999985 L 747 245.9199999999999 L 748 242.14666666666648 L 748 242.14666666666653 L 749 238.34666666666652 L 749 238.34666666666658 L 750 234.5199999999998 L 750 234.51999999999987 L 751 230.66666666666646 L 751 230.66666666666652 L 752 226.78666666666646 L 752 226.78666666666658 L 753 222.87999999999982 L 753 222.87999999999988 L 754 218.9466666666665 L 754 218.9466666666666 L 755 214.9866666666665 L 755 214.98666666666657 L 756 210.99999999999972 L 756 210.9999999999999 L 757 206.98666666666645 L 757 206.98666666666657 L 758 202.94666666666632 L 758 202.9466666666665 L 759 198.87999999999977 L 759 198.87999999999988 L 760 194.78666666666646 L 760 194.78666666666658 L 761 190.66666666666652 L 761 190.66666666666663 L 762 186.5199999999997 L 762 186.5199999999998 L 763 182.3466666666664 L 763 182.34666666666652 L 764 178.14666666666648 L 764 178.1466666666666 L 765 173.91999999999967 L 765 173.91999999999985 L 766 169.6666666666664 L 766 169.66666666666652 L 767 165.38666666666649 L 767 165.3866666666666 L 768 161.0799999999997 L 768 161.0799999999998 L 769 156.74666666666639 L 769 156.7466666666665 L 770 152.38666666666643 L 770 152.38666666666654 L 771 147.99999999999966 L 771 147.99999999999983 L 772 143.58666666666636 L 772 143.58666666666647 L 773 139.14666666666642 L 773 139.14666666666653 L 774 134.67999999999978 L 774 134.67999999999995 L 775 130.18666666666633 L 775 130.1866666666665 L 776 125.6666666666664 L 776 125.66666666666652 L 777 121.11999999999978 L 777 121.11999999999989 L 778 116.54666666666634 L 778 116.54666666666645 L 779 111.94666666666637 L 779 111.94666666666649 L 780 107.31999999999977 L 780 107.31999999999988 L 781 102.66666666666629 L 781 102.66666666666646 L 782 97.98666666666634 L 782 97.98666666666651 L 783 93.27999999999975 L 783 93.27999999999992 L 784 88.54666666666634 L 784 88.54666666666645 L 785 83.78666666666629 L 785 83.78666666666646 L 786 78.99999999999972 L 786 78.99999999999989 L 787 74.18666666666633 L 787 74.18666666666644 L 788 69.3466666666663 L 788 69.34666666666647 L 789 64.47999999999973 L 789 64.47999999999985 L 790 59.58666666666625 L 790 59.58666666666636 L 791 54.666666666666345 L 791 54.66666666666646 L 792 49.719999999999686 L 792 49.7199999999998 L 793 44.74666666666644 L 793 44.746666666666556 L 794 39.74666666666627 L 794 39.74666666666644 L 795 34.719999999999686 L 795 34.7199999999998 L 796 29.6666666666664 L 796 29.666666666666515 L 797 24.586666666666247 L 797 24.58666666666636 L 798 19.47999999999962 L 798 19.479999999999734 L 799 14.346666666666351 L 799 14.346666666666465 L 800 9.18666666666627 L 800 9.186666666666383 L 801 3.999999999999659 L 801 3.9999999999997726 L 802 -1.2133333333337077 L 802 -1.2133333333334804 L 803 -6.453333333333717 L 803 -6.453333333333603 L 804 -11.720000000000368 L 804 -11.720000000000255 L 805 -17.013333333333662 L 805 -17.01333333333355 L 806 -22.3333333333336 L 806 -22.333333333333485 L 807 -27.680000000000405 L 807 -27.68000000000029 L 808 -33.05333333333374 L 808 -33.05333333333351 L 809 -38.4533333333336 L 809 -38.45333333333349 L 810 -43.88000000000045 L 810 -43.88000000000022 L 811 -49.33333333333371 L 811 -49.3333333333336 L 812 -54.81333333333362 L 812 -54.8133333333335 L 813 -60.320000000000505 L 813 -60.32000000000039 L 814 -65.8533333333337 L 814 -65.85333333333358 L 815 -71.41333333333364 L 815 -71.41333333333353 L 816 -77.00000000000045 L 816 -77.00000000000034 L 817 -82.6133333333338 L 817 -82.61333333333369 L 818 -88.25333333333367 L 818 -88.25333333333356 L 819 -93.92000000000053 L 819 -93.92000000000019 L 820 -99.6133333333338 L 820 -99.61333333333357 L 821 -105.33333333333371 L 821 -105.33333333333348 L 822 -111.08000000000061 L 822 -111.08000000000038 L 823 -116.85333333333381 L 823 -116.85333333333358 L 824 -122.65333333333388 L 824 -122.65333333333353 L 825 -128.48000000000047 L 825 -128.48000000000013 L 826 -134.33333333333383 L 826 -134.3333333333336 L 827 -140.21333333333382 L 827 -140.21333333333348 L 828 -146.12000000000046 L 828 -146.12000000000023 L 829 -152.05333333333397 L 829 -152.05333333333363 L 830 -158.01333333333378 L 830 -158.01333333333355 L 831 -164.00000000000057 L 831 -164.00000000000023 L 832 -170.013333333334 L 832 -170.01333333333366 L 833 -176.05333333333385 L 833 -176.0533333333335 L 834 -182.12000000000057 L 834 -182.12000000000023 L 835 -188.21333333333394 L 835 -188.2133333333337 L 836 -194.33333333333394 L 836 -194.3333333333337 L 837 -200.48000000000047 L 837 -200.48000000000025 L 838 -206.65333333333376 L 838 -206.65333333333353 L 839 -212.85333333333392 L 839 -212.8533333333337 L 840 -219.0800000000005 L 840 -219.08000000000015 L 841 -225.3333333333337 L 841 -225.33333333333348 L 842 -231.61333333333403 L 842 -231.61333333333369 L 843 -237.92000000000053 L 843 -237.9200000000003 L 844 -244.25333333333379 L 844 -244.25333333333356 L 845 -250.61333333333403 L 845 -250.6133333333338 L 846 -257.00000000000057 L 846 -257.00000000000034 L 847 -263.41333333333387 L 847 -263.4133333333335 L 848 -269.85333333333404 L 848 -269.8533333333338 L 849 -276.3200000000006 L 849 -276.3200000000003 L 850 -282.81333333333384 L 850 -282.8133333333335 L 851 -289.33333333333405 L 851 -289.3333333333337 L 852 -295.8800000000007 L 852 -295.88000000000045 L 853 -302.45333333333394 L 853 -302.4533333333336 L 854 -309.05333333333397 L 854 -309.05333333333374 L 855 -315.68000000000063 L 855 -315.6800000000004 L 856 -322.3333333333338 L 856 -322.3333333333336 L 857 -329.0133333333338 L 857 -329.01333333333355 L 858 -335.7200000000007 L 858 -335.7200000000005 L 859 -342.45333333333394 L 859 -342.4533333333336 L 860 -349.2133333333338 L 860 -349.2133333333336 L 861 -356.0000000000007 L 861 -356.00000000000045 L 862 -362.81333333333396 L 862 -362.81333333333373 L 863 -369.6533333333339 L 863 -369.65333333333353 L 864 -376.5200000000008 L 864 -376.52000000000044 L 865 -383.413333333334 L 865 -383.41333333333364 L 866 -390.33333333333394 L 866 -390.3333333333337 L 867 -397.28000000000077 L 867 -397.2800000000004 L 868 -404.253333333334 L 868 -404.2533333333338 L 869 -411.2533333333339 L 869 -411.25333333333367 L 870 -418.28000000000054 L 870 -418.2800000000003 L 871 -425.33333333333394 L 871 -425.3333333333337 L 872 -432.413333333334 L 872 -432.41333333333375 L 873 -439.52000000000066 L 873 -439.5200000000003 L 874 -446.6533333333341 L 874 -446.65333333333376 L 875 -453.81333333333407 L 875 -453.81333333333384 L 876 -461.0000000000007 L 876 -461.00000000000034 L 877 -468.21333333333405 L 877 -468.2133333333338 L 878 -475.45333333333406 L 878 -475.45333333333383 L 879 -482.7200000000007 L 879 -482.72000000000037 L 880 -490.0133333333341 L 880 -490.0133333333338 L 881 -497.33333333333405 L 881 -497.3333333333338 L 882 -504.68000000000063 L 882 -504.6800000000004 L 883 -512.0533333333342 L 883 -512.053333333334 L 884 -519.4533333333341 L 884 -519.4533333333338 L 885 -526.8800000000008 L 885 -526.8800000000006 L 886 -534.3333333333342 L 886 -534.3333333333339 L 887 -541.8133333333342 L 887 -541.813333333334 L 888 -549.3200000000006 L 888 -549.3200000000004 L 889 -556.8533333333339 L 889 -556.8533333333337 L 890 -564.4133333333341 L 890 -564.4133333333339 L 891 -572.0000000000007 L 891 -572.0000000000005 L 892 -579.6133333333339 L 892 -579.6133333333337 L 893 -587.2533333333342 L 893 -587.253333333334 L 894 -594.9200000000008 L 894 -594.9200000000005 L 895 -602.6133333333341 L 895 -602.6133333333339 L 896 -610.3333333333342 L 896 -610.3333333333339 L 897 -618.0800000000008 L 897 -618.0800000000006 L 898 -625.8533333333341 L 898 -625.8533333333337 L 899 -633.6533333333343 L 899 -633.6533333333341 L 900 -641.4800000000007 L 900 -641.4800000000005 L 901 -649.3333333333342 L 901 -649.3333333333339 L 902 -657.213333333334 L 902 -657.2133333333336 L 903 -665.1200000000008 L 903 -665.1200000000006 L 904 -673.053333333334 L 904 -673.0533333333337 L 905 -681.013333333334 L 905 -681.0133333333338 L 906 -689.0000000000011 L 906 -689.0000000000005 L 907 -697.0133333333347 L 907 -697.013333333334 L 908 -705.0533333333342 L 908 -705.0533333333337 L 909 -713.120000000001 L 909 -713.1200000000006 L 910 -721.2133333333347 L 910 -721.213333333334 L 911 -729.3333333333342 L 911 -729.3333333333337 L 912 -737.4800000000009 L 912 -737.4800000000005 L 913 -745.6533333333341 L 913 -745.6533333333336 L 914 -753.8533333333341 L 914 -753.8533333333337 L 915 -762.0800000000013 L 915 -762.0800000000006 L 916 -770.3333333333339 L 916 -770.3333333333335 L 917 -778.6133333333341 L 917 -778.6133333333337 L 918 -786.9200000000012 L 918 -786.9200000000008 L 919 -795.2533333333342 L 919 -795.2533333333338 L 920 -803.6133333333344 L 920 -803.6133333333339 L 921 -812.0000000000011 L 921 -812.0000000000005 L 922 -820.4133333333341 L 922 -820.4133333333336 L 923 -828.8533333333341 L 923 -828.8533333333337 L 924 -837.3200000000013 L 924 -837.3200000000006 L 925 -845.8133333333342 L 925 -845.8133333333337 L 926 -854.3333333333344 L 926 -854.3333333333339 L 927 -862.8800000000015 L 927 -862.8800000000008 L 928 -871.4533333333341 L 928 -871.4533333333336 L 929 -880.0533333333344 L 929 -880.053333333334 L 930 -888.6800000000012 L 930 -888.6800000000007 L 931 -897.3333333333342 L 931 -897.3333333333337 L 932 -906.0133333333345 L 932 -906.013333333334 L 933 -914.7200000000012 L 933 -914.7200000000007 L 934 -923.4533333333343 L 934 -923.4533333333338 L 935 -932.2133333333347 L 935 -932.213333333334 L 936 -941.0000000000014 L 936 -941.0000000000007 L 937 -949.8133333333342 L 937 -949.8133333333337 L 938 -958.6533333333346 L 938 -958.6533333333341 L 939 -967.5200000000013 L 939 -967.5200000000009 L 940 -976.4133333333343 L 940 -976.4133333333339 L 941 -985.3333333333346 L 941 -985.3333333333342 L 942 -994.2800000000009 L 942 -994.2800000000002 L 943 -1003.2533333333342 L 943 -1003.2533333333338 L 944 -1012.2533333333347 L 944 -1012.253333333334 L 945 -1021.2800000000011 L 945 -1021.2800000000004 L 946 -1030.3333333333344 L 946 -1030.333333333334 L 947 -1039.4133333333345 L 947 -1039.413333333334 L 948 -1048.520000000001 L 948 -1048.5200000000004 L 949 -1057.6533333333343 L 949 -1057.6533333333339 L 950 -1066.8133333333346 L 950 -1066.8133333333342 L 951 -1076.000000000001 L 951 -1076.0000000000002 L 952 -1085.2133333333345 L 952 -1085.213333333334 L 953 -1094.4533333333347 L 953 -1094.453333333334 L 954 -1103.720000000001 L 954 -1103.7200000000005 L 955 -1113.0133333333345 L 955 -1113.013333333334 L 956 -1122.3333333333348 L 956 -1122.3333333333342 L 957 -1131.6800000000012 L 957 -1131.6800000000005 L 958 -1141.0533333333346 L 958 -1141.053333333334 L 959 -1150.453333333335 L 959 -1150.4533333333343 L 960 -1159.880000000001 L 960 -1159.8800000000003 L 961 -1169.3333333333346 L 961 -1169.3333333333342 L 962 -1178.8133333333346 L 962 -1178.8133333333342 L 963 -1188.320000000001 L 963 -1188.3200000000004 L 964 -1197.8533333333348 L 964 -1197.8533333333341 L 965 -1207.4133333333348 L 965 -1207.413333333334 L 966 -1217.0000000000011 L 966 -1217.0000000000005 L 967 -1226.6133333333348 L 967 -1226.6133333333341 L 968 -1236.2533333333347 L 968 -1236.2533333333342 L 969 -1245.920000000001 L 969 -1245.9200000000005 L 970 -1255.6133333333348 L 970 -1255.6133333333341 L 971 -1265.333333333335 L 971 -1265.3333333333344 L 972 -1275.080000000001 L 972 -1275.0800000000006 L 973 -1284.8533333333348 L 973 -1284.8533333333341 L 974 -1294.653333333335 L 974 -1294.6533333333346 L 975 -1304.4800000000014 L 975 -1304.4800000000007 L 976 -1314.3333333333346 L 976 -1314.3333333333342 L 977 -1324.2133333333345 L 977 -1324.2133333333338 L 978 -1334.1200000000013 L 978 -1334.1200000000008 L 979 -1344.0533333333349 L 979 -1344.0533333333344 L 980 -1354.0133333333342 L 980 -1354.0133333333338 L 981 -1364.0000000000014 L 981 -1364.000000000001 L 982 -1374.013333333335 L 982 -1374.0133333333342 L 983 -1384.0533333333344 L 983 -1384.053333333334 L 984 -1394.1200000000013 L 984 -1394.1200000000008 L 985 -1404.213333333335 L 985 -1404.2133333333345 L 986 -1414.3333333333344 L 986 -1414.333333333334 L 987 -1424.4800000000014 L 987 -1424.480000000001 L 988 -1434.653333333335 L 988 -1434.6533333333346 L 989 -1444.8533333333344 L 989 -1444.853333333334 L 990 -1455.0800000000015 L 990 -1455.080000000001 L 991 -1465.3333333333348 L 991 -1465.3333333333344 L 992 -1475.6133333333346 L 992 -1475.6133333333341 L 993 -1485.9200000000014 L 993 -1485.9200000000008 L 994 -1496.253333333335 L 994 -1496.2533333333345 L 995 -1506.6133333333346 L 995 -1506.6133333333341 L 996 -1517.0000000000014 L 996 -1517.000000000001 L 997 -1527.413333333335 L 997 -1527.4133333333345 L 998 -1537.8533333333348 L 998 -1537.853333333334 L 999 -1548.3200000000015 L 999 -1548.320000000001 L 1000 -1558.8133333333349 L 1000 -1558.8133333333344 L 1001 -1569.3333333333348 L 1001 -1569.333333333334 L 1002 -1579.8800000000015 L 1002 -1579.880000000001 L 1003 -1590.4533333333352 L 1003 -1590.4533333333347 L 1004 -1601.0533333333346 L 1004 -1601.0533333333342 L 1005 -1611.6800000000017 L 1005 -1611.6800000000012 L 1006 -1622.3333333333344 L 1006 -1622.333333333334 L 1007 -1633.0133333333347 L 1007 -1633.0133333333342 L 1008 -1643.7200000000016 L 1008 -1643.7200000000012 L 1009 -1654.4533333333347 L 1009 -1654.4533333333343 L 1010 -1665.213333333335 L 1010 -1665.213333333334 L 1011 -1676.0000000000018 L 1011 -1676.0000000000014 L 1012 -1686.8133333333344 L 1012 -1686.813333333334 L 1013 -1697.653333333335 L 1013 -1697.6533333333346 L 1014 -1708.5200000000018 L 1014 -1708.520000000001 L 1015 -1719.4133333333348 L 1015 -1719.4133333333343 L 1016 -1730.3333333333348 L 1016 -1730.3333333333344 L 1017 -1741.2800000000016 L 1017 -1741.280000000001 L 1018 -1752.2533333333345 L 1018 -1752.253333333334 L 1019 -1763.253333333335 L 1019 -1763.2533333333345 L 1020 -1774.280000000002 L 1020 -1774.2800000000016 L 1021 -1785.3333333333344 L 1021 -1785.333333333334 L 1022 -1796.4133333333348 L 1022 -1796.4133333333343 L 1023 -1807.5200000000018 L 1023 -1807.5200000000013 L 1024 -1818.6533333333346 L 1024 -1818.653333333334 L 1025 -1829.8133333333349 L 1025 -1829.8133333333344 L 1026 -1841.0000000000018 L 1026 -1841.0000000000014 L 1027 -1852.2133333333345 L 1027 -1852.213333333334 L 1028 -1863.4533333333352 L 1028 -1863.4533333333347 L 1029 -1874.720000000002 L 1029 -1874.7200000000016 L 1030 -1886.0133333333347 L 1030 -1886.0133333333342 L 1031 -1897.3333333333353 L 1031 -1897.333333333334 L 1032 -1908.680000000002 L 1032 -1908.6800000000007 L 1033 -1920.053333333335 L 1033 -1920.0533333333342 L 1034 -1931.4533333333352 L 1034 -1931.4533333333343 L 1035 -1942.8800000000024 L 1035 -1942.880000000001 L 1036 -1954.3333333333348 L 1036 -1954.333333333334 L 1037 -1965.8133333333358 L 1037 -1965.8133333333344 L 1038 -1977.3200000000024 L 1038 -1977.3200000000015 L 1039 -1988.8533333333353 L 1039 -1988.853333333334 L 1040 -2000.4133333333352 L 1040 -2000.4133333333343 L 1041 -2012.0000000000014 L 1041 -2012.0000000000005 L 1042 -2023.6133333333355 L 1042 -2023.6133333333341 L 1043 -2035.2533333333354 L 1043 -2035.2533333333345 L 1044 -2046.920000000002 L 1044 -2046.9200000000005 L 1045 -2058.6133333333355 L 1045 -2058.6133333333346 L 1046 -2070.3333333333353 L 1046 -2070.3333333333344 L 1047 -2082.0800000000017 L 1047 -2082.080000000001 L 1048 -2093.8533333333353 L 1048 -2093.853333333334 L 1049 -2105.6533333333355 L 1049 -2105.6533333333346 L 1050 -2117.480000000002 L 1050 -2117.480000000001 L 1051 -2129.3333333333353 L 1051 -2129.333333333334 L 1052 -2141.213333333336 L 1052 -2141.2133333333345 L 1053 -2153.120000000002 L 1053 -2153.120000000001 L 1054 -2165.053333333335 L 1054 -2165.053333333334 L 1055 -2177.0133333333356 L 1055 -2177.0133333333347 L 1056 -2189.0000000000023 L 1056 -2189.000000000001 L 1057 -2201.013333333335 L 1057 -2201.0133333333342 L 1058 -2213.053333333336 L 1058 -2213.0533333333346 L 1059 -2225.120000000002 L 1059 -2225.1200000000013 L 1060 -2237.2133333333354 L 1060 -2237.213333333334 L 1061 -2249.3333333333358 L 1061 -2249.333333333335 L 1062 -2261.4800000000023 L 1062 -2261.480000000001 L 1063 -2273.653333333336 L 1063 -2273.6533333333346 L 1064 -2285.8533333333357 L 1064 -2285.853333333335 L 1065 -2298.080000000002 L 1065 -2298.080000000001 L 1066 -2310.3333333333358 L 1066 -2310.333333333335 L 1067 -2322.613333333336 L 1067 -2322.6133333333346 L 1068 -2334.920000000002 L 1068 -2334.920000000001 L 1069 -2347.253333333336 L 1069 -2347.2533333333345 L 1070 -2359.613333333335 L 1070 -2359.613333333334 L 1071 -2372.000000000002 L 1071 -2372.000000000001 L 1072 -2384.4133333333357 L 1072 -2384.413333333335 L 1073 -2396.8533333333353 L 1073 -2396.853333333334 L 1074 -2409.320000000002 L 1074 -2409.3200000000006 L 1075 -2421.8133333333353 L 1075 -2421.8133333333344 L 1076 -2434.333333333335 L 1076 -2434.333333333334 L 1077 -2446.8800000000024 L 1077 -2446.880000000001 L 1078 -2459.453333333336 L 1078 -2459.4533333333347 L 1079 -2472.053333333335 L 1079 -2472.053333333334 L 1080 -2484.680000000002 L 1080 -2484.680000000001 L 1081 -2497.3333333333358 L 1081 -2497.333333333335 L 1082 -2510.013333333335 L 1082 -2510.0133333333342 L 1083 -2522.7200000000025 L 1083 -2522.720000000001 L 1084 -2535.453333333336 L 1084 -2535.453333333335 L 1085 -2548.2133333333354 L 1085 -2548.2133333333345 L 1086 -2561.0000000000023 L 1086 -2561.0000000000014 L 1087 -2573.813333333336 L 1087 -2573.813333333335 L 1088 -2586.6533333333355 L 1088 -2586.653333333334 L 1089 -2599.5200000000027 L 1089 -2599.5200000000013 L 1090 -2612.413333333336 L 1090 -2612.4133333333352 L 1091 -2625.3333333333353 L 1091 -2625.3333333333344 L 1092 -2638.2800000000025 L 1092 -2638.280000000001 L 1093 -2651.253333333336 L 1093 -2651.253333333335 L 1094 -2664.2533333333354 L 1094 -2664.253333333334 L 1095 -2677.2800000000025 L 1095 -2677.2800000000016 L 1096 -2690.333333333336 L 1096 -2690.333333333335 L 1097 -2703.4133333333357 L 1097 -2703.4133333333343 L 1098 -2716.5200000000027 L 1098 -2716.520000000002 L 1099 -2729.6533333333364 L 1099 -2729.6533333333355 L 1100 -2742.813333333336 L 1100 -2742.8133333333344 L 1101 -2756.0000000000023 L 1101 -2756.0000000000014 L 1102 -2769.213333333336 L 1102 -2769.213333333335 L 1103 -2782.4533333333356 L 1103 -2782.4533333333347 L 1104 -2795.7200000000025 L 1104 -2795.7200000000016 L 1105 -2809.0133333333356 L 1105 -2809.0133333333347 L 1106 -2822.3333333333353 L 1106 -2822.3333333333344 L 1107 -2835.6800000000026 L 1107 -2835.6800000000017 L 1108 -2849.053333333335 L 1108 -2849.053333333334 L 1109 -2862.4533333333356 L 1109 -2862.4533333333343 L 1110 -2875.880000000003 L 1110 -2875.880000000002 L 1111 -2889.3333333333353 L 1111 -2889.3333333333344 L 1112 -2902.813333333336 L 1112 -2902.8133333333344 L 1113 -2916.320000000003 L 1113 -2916.320000000002 L 1114 -2929.8533333333353 L 1114 -2929.8533333333344 L 1115 -2943.4133333333357 L 1115 -2943.413333333335 L 1116 -2957.0000000000027 L 1116 -2957.000000000002 L 1117 -2970.6133333333355 L 1117 -2970.613333333334 L 1118 -2984.253333333336 L 1118 -2984.253333333335 L 1119 -2997.920000000003 L 1119 -2997.920000000002 L 1120 -3011.6133333333355 L 1120 -3011.613333333334 L 1121 -3025.3333333333358 L 1121 -3025.333333333335 L 1122 -3039.080000000003 L 1122 -3039.0800000000017 L 1123 -3052.8533333333353 L 1123 -3052.8533333333344 L 1124 -3066.653333333336 L 1124 -3066.6533333333346 L 1125 -3080.4800000000027 L 1125 -3080.480000000002 L 1126 -3094.3333333333358 L 1126 -3094.333333333335 L 1127 -3108.2133333333363 L 1127 -3108.2133333333354 L 1128 -3122.120000000003 L 1128 -3122.1200000000017 L 1129 -3136.053333333336 L 1129 -3136.0533333333346 L 1130 -3150.013333333336 L 1130 -3150.013333333335 L 1131 -3164.000000000003 L 1131 -3164.0000000000023 L 1132 -3178.0133333333356 L 1132 -3178.0133333333347 L 1133 -3192.053333333336 L 1133 -3192.053333333335 L 1134 -3206.120000000002 L 1134 -3206.1200000000013 L 1135 -3220.213333333336 L 1135 -3220.2133333333345 L 1136 -3234.3333333333358 L 1136 -3234.333333333335 L 1137 -3248.4800000000023 L 1137 -3248.480000000001 L 1138 -3262.653333333336 L 1138 -3262.653333333335 L 1139 -3276.853333333336 L 1139 -3276.8533333333353 L 1140 -3291.0800000000027 L 1140 -3291.0800000000013 L 1141 -3305.3333333333358 L 1141 -3305.333333333335 L 1142 -3319.6133333333364 L 1142 -3319.613333333335 L 1143 -3333.9200000000023 L 1143 -3333.920000000001 L 1144 -3348.2533333333363 L 1144 -3348.2533333333354 L 1145 -3362.6133333333364 L 1145 -3362.6133333333355 L 1146 -3377.0000000000027 L 1146 -3377.0000000000014 L 1147 -3391.413333333336 L 1147 -3391.413333333335 L 1148 -3405.853333333336 L 1148 -3405.8533333333353 L 1149 -3420.3200000000024 L 1149 -3420.320000000001 L 1150 -3434.8133333333362 L 1150 -3434.8133333333353 L 1151 -3449.3333333333367 L 1151 -3449.3333333333353 L 1152 -3463.880000000003 L 1152 -3463.8800000000015 L 1153 -3478.453333333336 L 1153 -3478.453333333335 L 1154 -3493.0533333333365 L 1154 -3493.053333333335 L 1155 -3507.6800000000026 L 1155 -3507.680000000001 L 1156 -3522.333333333336 L 1156 -3522.3333333333353 L 1157 -3537.0133333333365 L 1157 -3537.0133333333356 L 1158 -3551.7200000000025 L 1158 -3551.7200000000016 L 1159 -3566.4533333333366 L 1159 -3566.4533333333356 L 1160 -3581.213333333337 L 1160 -3581.213333333336 L 1161 -3596.0000000000027 L 1161 -3596.000000000002 L 1162 -3610.8133333333362 L 1162 -3610.8133333333353 L 1163 -3625.6533333333373 L 1163 -3625.6533333333355 L 1164 -3640.520000000003 L 1164 -3640.5200000000023 L 1165 -3655.4133333333366 L 1165 -3655.4133333333357 L 1166 -3670.3333333333367 L 1166 -3670.3333333333358 L 1167 -3685.2800000000025 L 1167 -3685.2800000000016 L 1168 -3700.2533333333367 L 1168 -3700.253333333336 L 1169 -3715.253333333336 L 1169 -3715.253333333335 L 1170 -3730.2800000000025 L 1170 -3730.2800000000016 L 1171 -3745.3333333333367 L 1171 -3745.3333333333358 L 1172 -3760.4133333333357 L 1172 -3760.413333333335 L 1173 -3775.520000000003 L 1173 -3775.5200000000013 L 1174 -3790.6533333333364 L 1174 -3790.6533333333355 L 1175 -3805.8133333333353 L 1175 -3805.8133333333344 L 1176 -3821.0000000000027 L 1176 -3821.000000000002 L 1177 -3836.213333333337 L 1177 -3836.213333333336 L 1178 -3851.4533333333356 L 1178 -3851.4533333333347 L 1179 -3866.720000000003 L 1179 -3866.720000000002 L 1180 -3882.013333333337 L 1180 -3882.013333333336 L 1181 -3897.3333333333358 L 1181 -3897.333333333335 L 1182 -3912.680000000003 L 1182 -3912.680000000002 L 1183 -3928.053333333337 L 1183 -3928.053333333336 L 1184 -3943.4533333333366 L 1184 -3943.4533333333356 L 1185 -3958.8800000000037 L 1185 -3958.880000000002 L 1186 -3974.3333333333367 L 1186 -3974.3333333333358 L 1187 -3989.8133333333362 L 1187 -3989.8133333333353 L 1188 -4005.3200000000033 L 1188 -4005.3200000000024 L 1189 -4020.853333333337 L 1189 -4020.853333333336 L 1190 -4036.4133333333366 L 1190 -4036.413333333335 L 1191 -4052.0000000000036 L 1191 -4052.000000000002 L 1192 -4067.6133333333373 L 1192 -4067.6133333333364 L 1193 -4083.253333333336 L 1193 -4083.253333333335 L 1194 -4098.920000000003 L 1194 -4098.920000000002 L 1195 -4114.613333333337 L 1195 -4114.6133333333355 L 1196 -4130.333333333337 L 1196 -4130.333333333336 L 1197 -4146.080000000004 L 1197 -4146.080000000003 L 1198 -4161.853333333336 L 1198 -4161.853333333334 L 1199 -4177.653333333336 L 1199 -4177.6533333333355 L 1200 -4193.480000000003 L 1200 -4193.480000000002 L 1201 -4209.333333333336 L 1201 -4209.333333333335 L 1202 -4225.213333333336 L 1202 -4225.213333333335 L 1203 -4241.1200000000035 L 1203 -4241.120000000003 L 1204 -4257.053333333336 L 1204 -4257.053333333335 L 1205 -4273.013333333337 L 1205 -4273.013333333335 L 1206 -4289.000000000005 L 1206 -4289.000000000002 L 1207 -4305.013333333338 L 1207 -4305.013333333336 L 1208 -4321.053333333339 L 1208 -4321.053333333336 L 1209 -4337.120000000003 L 1209 -4337.120000000001 L 1210 -4353.213333333337 L 1210 -4353.213333333335 L 1211 -4369.333333333338 L 1211 -4369.333333333335 L 1212 -4385.480000000004" stroke-opacity="0.6980392156862745" stroke-linecap="round" stroke-linejoin="round" stroke-miterlimit="10" stroke-width="6"/><text fill="rgb(0,100,0)" stroke="none" font-family="geogebra-sans-serif, sans-serif" font-size="48px" font-style="normal" font-weight="normal" text-decoration="normal" x="411" y="56" text-anchor="start" dominant-baseline="alphabetic" fill-opacity="1">f</text><text fill="none" stroke="rgb(255,255,255)" font-family="geogebra-sans-serif, sans-serif" font-size="48px" font-style="normal" font-weight="normal" text-decoration="normal" x="411" y="56" text-anchor="start" dominant-baseline="alphabetic" stroke-opacity="1" stroke-linejoin="bevel" stroke-miterlimit="10" stroke-width="3">f</text><text fill="rgb(0,100,0)" stroke="none" font-family="geogebra-sans-serif, sans-serif" font-size="48px" font-style="normal" font-weight="normal" text-decoration="normal" x="411" y="56" text-anchor="start" dominant-baseline="alphabetic" fill-opacity="1">f</text></g></g></svg>