<?xml version="1.0" encoding="UTF-8" standalone="no"?>
<svg
   version="1.1"
   width="934.15387"
   height="556.96844"
   id="svg34"
   sodipodi:docname="geogebra-export.svg"
   inkscape:version="1.3.2 (091e20ef0f, 2023-11-25, custom)"
   xmlns:inkscape="http://www.inkscape.org/namespaces/inkscape"
   xmlns:sodipodi="http://sodipodi.sourceforge.net/DTD/sodipodi-0.dtd"
   xmlns="http://www.w3.org/2000/svg"
   xmlns:svg="http://www.w3.org/2000/svg">
  <sodipodi:namedview
     id="namedview34"
     pagecolor="#ffffff"
     bordercolor="#000000"
     borderopacity="0.25"
     inkscape:showpageshadow="2"
     inkscape:pageopacity="0.0"
     inkscape:pagecheckerboard="0"
     inkscape:deskcolor="#d1d1d1"
     inkscape:zoom="0.67"
     inkscape:cx="382.08955"
     inkscape:cy="329.10448"
     inkscape:window-width="1600"
     inkscape:window-height="877"
     inkscape:window-x="0"
     inkscape:window-y="23"
     inkscape:window-maximized="1"
     inkscape:current-layer="g33" />
  <defs
     id="defs1">
    <clipPath
       id="fmrRyzcQSeZQ">
      <path
         fill="none"
         stroke="none"
         d="M 0,0 H 1600 V 824 H 0 Z"
         id="path1" />
    </clipPath>
  </defs>
  <g
     clip-path="url(#fmrRyzcQSeZQ)"
     id="g34"
     transform="translate(-418.479,-84.006567)">
    <g
       id="g33">
      <path
         fill="#006400"
         stroke="none"
         paint-order="stroke fill markers"
         d="m 873.12043,530.43051 c 1.34808,-38.784 -16.16812,-76.04897 -47.63092,-101.33277 l -89.20539,97.16937 z"
         fill-opacity="0.0980392"
         id="path2"
         style="stroke-width:1.39397" />
      <path
         fill="none"
         stroke="#006400"
         paint-order="fill stroke markers"
         d="m 873.12043,530.43051 c 1.34808,-38.784 -16.16812,-76.04897 -47.63092,-101.33277 l -89.20539,97.16937 z"
         stroke-opacity="0.698039"
         stroke-linecap="round"
         stroke-linejoin="round"
         stroke-miterlimit="10"
         stroke-width="2.5"
         id="path3" />
      <path
         fill="#006400"
         stroke="none"
         paint-order="stroke fill markers"
         fill-rule="evenodd"
         d="m 825.48951,429.09774 19.17771,9.16198 -9.7111,8.93324 z"
         fill-opacity="0.698039"
         id="path4"
         style="stroke-width:1.39397" />
      <path
         fill="#ff0000"
         stroke="none"
         paint-order="stroke fill markers"
         d="m 822.70705,528.89663 c 0.99104,-28.51198 -14.14114,-55.40481 -39.82559,-70.77784 -25.68445,-15.37303 -58.12419,-16.95364 -85.37648,-4.15993 l 38.77914,72.30825 z"
         fill-opacity="0.0980392"
         id="path5"
         style="stroke-width:1.39397" />
      <path
         fill="none"
         stroke="#ff0000"
         paint-order="fill stroke markers"
         d="m 822.70705,528.89663 c 0.99104,-28.51198 -14.14114,-55.40481 -39.82559,-70.77784 -25.68445,-15.37303 -58.12419,-16.95364 -85.37648,-4.15993 l 38.77914,72.30825 z"
         stroke-opacity="0.698039"
         stroke-linecap="round"
         stroke-linejoin="round"
         stroke-miterlimit="10"
         stroke-width="2.5"
         id="path6" />
      <path
         fill="#ff0000"
         stroke="none"
         paint-order="stroke fill markers"
         fill-rule="evenodd"
         d="m 697.50498,453.95886 17.09683,-12.24812 4.43532,12.04713 z"
         fill-opacity="0.698039"
         id="path7"
         style="stroke-width:1.39397" />
      <path
         fill="#000000"
         stroke="none"
         paint-order="stroke fill markers"
         d="m 1082.0407,149.64241 -29.0955,19.27684 4.373,3.51414 -323.22056,352.07665 c -1.03719,1.1298 -0.89909,2.83234 0.30847,3.80274 0.54386,0.43706 1.2119,0.65106 1.87669,0.65106 0.81128,0 1.61773,-0.3187 2.18779,-0.93966 L 1061.6911,175.94753 v 0 l 4.3729,3.51414 z"
         fill-opacity="0.698039"
         id="path8"
         style="stroke-width:1.39397" />
      <path
         fill="#000000"
         stroke="none"
         paint-order="stroke fill markers"
         d="m 736.2824,523.57041 c -1.5485,0 -2.82834,1.15036 -2.87905,2.60905 -0.0517,1.48855 1.19608,2.7345 2.78708,2.7829 l 581.77957,17.7013 -0.1874,5.3905 34.8503,-7.03395 -34.2882,-9.13756 -0.1873,5.3905 -581.7796,-17.70129 c -0.0319,-9.7e-4 -0.0637,-10e-4 -0.0954,-10e-4 z"
         fill-opacity="0.698039"
         id="path9"
         style="stroke-width:1.39397" />
      <path
         fill="#000000"
         stroke="none"
         paint-order="stroke fill markers"
         d="m 499.09842,84.006567 7.78314,32.551493 5.15235,-2.41879 221.67403,413.33724 c 0.50578,0.94307 1.52261,1.48787 2.57843,1.48787 0.43449,0 0.87559,-0.0923 1.29039,-0.28699 1.42278,-0.66793 1.99743,-2.28851 1.28353,-3.61967 l -221.67404,-413.33725 5.15235,-2.41879 z"
         fill-opacity="0.698039"
         id="path10"
         style="stroke-width:1.39397" />
      <g
         transform="matrix(73.498327,0,0,68.765257,-184.60936,-223.27618)"
         id="g17">
        <g
           transform="translate(10.921569,6.5735294)"
           id="g11">
          <path
             fill="#cc0000"
             stroke="none"
             paint-order="stroke fill markers"
             d="M 0.028,0.169 0.18,-0.437 q 0.029,-0.114 0.112,-0.194 0.078,-0.074 0.164,-0.074 0.083,0 0.119,0.066 0.015,0.028 0.015,0.062 0,0.075 -0.062,0.138 -0.021,0.021 -0.046,0.036 0.067,0.046 0.067,0.139 0,0.103 -0.08,0.188 Q 0.392,0.005 0.296,0.012 H 0.283 q -0.097,0 -0.142,-0.075 -0.012,-0.02 -0.018,-0.042 L 0.048,0.188 0.047,0.19 q -0.004,0.004 -0.01,0.004 -0.012,0 -0.012,-0.01 0,-0.003 0.003,-0.015 m 0.3,-0.57 q 0.017,0.006 0.043,0.006 0.03,0 0.048,-0.008 -0.013,-0.006 -0.04,-0.006 -0.035,0 -0.051,0.008 M 0.45,-0.421 Q 0.511,-0.467 0.525,-0.577 V -0.578 -0.58 q 0.002,-0.014 0.002,-0.022 0,-0.071 -0.058,-0.08 -0.007,-0.001 -0.014,-0.001 -0.083,0 -0.156,0.077 -0.069,0.072 -0.099,0.19 l -0.046,0.185 q -0.013,0.052 -0.013,0.075 0,0.082 0.059,0.122 0.034,0.024 0.081,0.024 0.078,0 0.134,-0.084 0.007,-0.009 0.012,-0.019 0.035,-0.066 0.047,-0.161 0.002,-0.017 0.002,-0.028 0,-0.053 -0.03,-0.084 -0.032,0.013 -0.075,0.013 -0.068,0 -0.068,-0.026 0,-0.032 0.078,-0.032 0.041,0 0.069,0.01 z"
             id="path11" />
        </g>
        <g
           transform="translate(11.818346,6.5735294)"
           id="g12">
          <path
             fill="#cc0000"
             stroke="none"
             paint-order="stroke fill markers"
             d="M 0.687,-0.327 H 0.09 q -0.032,0 -0.034,-0.02 0,-0.02 0.033,-0.02 h 0.599 q 0.032,0 0.033,0.02 0,0.02 -0.034,0.02 m 10e-4,0.194 H 0.089 q -0.032,0 -0.033,-0.02 0,-0.02 0.034,-0.02 h 0.597 q 0.032,0 0.034,0.02 0,0.02 -0.033,0.02 z"
             id="path12" />
        </g>
        <g
           transform="translate(13.207124,6.5735294)"
           id="g13">
          <path
             fill="#cc0000"
             stroke="none"
             paint-order="stroke fill markers"
             d="m 0.449,-0.201 v 0 q 0,0.103 -0.077,0.17 Q 0.31,0.022 0.231,0.022 0.139,0.022 0.085,-0.055 0.05,-0.104 0.05,-0.161 q 0,-0.046 0.041,-0.052 0.004,-0.001 0.008,-0.001 0.037,0 0.048,0.033 0.002,0.008 0.002,0.016 0,0.032 -0.028,0.044 -0.01,0.005 -0.022,0.005 -0.011,0 -0.017,-0.002 0.018,0.063 0.077,0.094 0.033,0.018 0.07,0.018 0.067,0 0.107,-0.065 0.024,-0.042 0.024,-0.137 0,-0.084 -0.018,-0.126 -0.028,-0.064 -0.085,-0.064 -0.081,0 -0.129,0.07 -0.006,0.009 -0.013,0.009 -0.013,0 -0.014,-0.014 v -0.012 -0.296 q 0,-0.023 0.01,-0.024 0.004,0 0.012,0.003 0.063,0.028 0.133,0.028 0.072,0 0.136,-0.029 0.005,-0.003 0.008,-0.003 0.01,0 0.01,0.011 0,0.013 -0.032,0.042 -0.068,0.062 -0.161,0.062 -0.042,0 -0.085,-0.013 v 0.195 q 0.052,-0.051 0.127,-0.051 0.088,0 0.145,0.077 0.045,0.061 0.045,0.142 z"
             id="path13" />
        </g>
        <g
           transform="translate(13.707124,6.5735294)"
           id="g14">
          <path
             fill="#cc0000"
             stroke="none"
             paint-order="stroke fill markers"
             d="m 0.265,-0.373 v 0 l -0.056,0.221 q -0.017,0.064 -0.027,0.098 -0.016,0.049 -0.03,0.059 v 0.001 q -0.009,0.005 -0.02,0.005 -0.023,0 -0.028,-0.02 -0.001,-0.003 -0.001,-0.007 0,-0.009 0.008,-0.024 0.094,-0.203 0.128,-0.333 H 0.182 q -0.078,0 -0.127,0.077 -0.009,0.012 -0.016,0.012 -0.012,0 -0.012,-0.01 0,-0.011 0.036,-0.06 0.007,-0.008 0.013,-0.016 0.003,-0.004 0.007,-0.008 0.002,-0.003 0.005,-0.006 0.044,-0.047 0.104,-0.047 h 0.335 q 0.034,0 0.039,0.015 v 0.001 q 0.001,0.003 0.001,0.008 0,0.034 -0.049,0.034 H 0.404 q -0.018,0.085 -0.018,0.159 0,0.093 0.029,0.165 0.006,0.014 0.006,0.022 0,0.023 -0.025,0.034 Q 0.388,0.011 0.38,0.011 0.36,0.011 0.35,-0.017 0.347,-0.026 0.344,-0.039 0.336,-0.073 0.336,-0.115 q 0,-0.066 0.027,-0.191 l 0.015,-0.067 z"
             id="path14" />
        </g>
        <g
           transform="translate(14.313124,6.5735294)"
           id="g15">
          <path
             fill="#cc0000"
             stroke="none"
             paint-order="stroke fill markers"
             d="M 0.439,-0.712 0.097,0.226 Q 0.089,0.247 0.081,0.249 L 0.08,0.25 H 0.075 Q 0.059,0.25 0.056,0.235 0.055,0.232 0.055,0.23 0.055,0.225 0.06,0.212 l 0.347,-0.953 q 0.005,-0.009 0.017,-0.009 0.016,0 0.019,0.015 0.001,0.003 0.001,0.005 0,0.005 -0.005,0.018 z"
             id="path15" />
        </g>
        <g
           transform="translate(14.813124,6.5735294)"
           id="g16">
          <path
             fill="#cc0000"
             stroke="none"
             paint-order="stroke fill markers"
             d="m 0.132,-0.328 v 0 q 0.041,-0.099 0.125,-0.099 0.092,0 0.151,0.076 0.033,0.041 0.044,0.096 0.005,0.025 0.005,0.051 0,0.111 -0.077,0.178 -0.056,0.048 -0.129,0.048 -0.102,0 -0.159,-0.097 -0.05,-0.087 -0.05,-0.241 0,-0.173 0.098,-0.275 0.073,-0.075 0.165,-0.075 0.087,0 0.117,0.061 0.01,0.021 0.01,0.047 0,0.04 -0.037,0.047 Q 0.39,-0.51 0.386,-0.51 0.354,-0.51 0.343,-0.538 0.34,-0.546 0.34,-0.556 q 0,-0.045 0.055,-0.045 -0.026,-0.04 -0.088,-0.04 -0.07,0 -0.118,0.063 -0.057,0.075 -0.057,0.226 v 0.024 m 0.119,0.322 v 0 q 0.067,0 0.099,-0.065 0.017,-0.036 0.017,-0.134 0,-0.1 -0.018,-0.137 -0.031,-0.062 -0.093,-0.062 -0.079,0 -0.109,0.094 -0.013,0.039 -0.013,0.084 0,0.098 0.018,0.145 0.019,0.046 0.059,0.066 0.019,0.009 0.04,0.009 z"
             id="path16" />
        </g>
      </g>
      <g
         transform="matrix(73.498327,0,0,68.765257,-184.60936,-223.27618)"
         id="g23">
        <g
           transform="translate(15.137255,9.8872549)"
           id="g18">
          <path
             fill="#006400"
             stroke="none"
             paint-order="stroke fill markers"
             d="m 0.477,-0.236 v 0 0.062 q 0.065,-0.081 0.098,-0.198 0.01,-0.02 0.015,-0.021 0.012,0 0.012,0.01 0,0.017 -0.023,0.076 -0.034,0.086 -0.092,0.159 -0.01,0.02 -0.01,0.035 0,0.102 0.031,0.102 0.031,0 0.05,-0.035 0.003,-0.006 0.006,-0.014 0.004,-0.01 0.013,-0.01 0.012,0 0.012,0.01 0,0.019 -0.025,0.045 -0.026,0.026 -0.059,0.026 -0.063,0 -0.087,-0.069 -0.002,-0.007 -0.004,-0.015 -0.105,0.084 -0.211,0.084 -0.094,0 -0.138,-0.075 -0.024,-0.041 -0.024,-0.094 0,-0.102 0.078,-0.189 0.077,-0.086 0.174,-0.094 0.009,-0.001 0.017,-0.001 0.084,0 0.13,0.066 0,0.001 0.001,0.001 0.036,0.053 0.036,0.139 M 0.41,-0.099 v 0 q -0.002,-0.017 -0.002,-0.112 0,-0.123 -0.027,-0.168 -0.012,-0.02 -0.029,-0.03 L 0.351,-0.41 v 0 H 0.35 q -0.018,-0.01 -0.041,-0.01 -0.071,0 -0.128,0.08 L 0.173,-0.328 Q 0.137,-0.27 0.12,-0.166 0.115,-0.138 0.115,-0.12 q 0,0.084 0.059,0.104 0.014,0.005 0.031,0.005 0.104,0 0.205,-0.088 z"
             id="path17" />
        </g>
        <g
           transform="translate(16.059033,9.8872549)"
           id="g19">
          <path
             fill="#006400"
             stroke="none"
             paint-order="stroke fill markers"
             d="M 0.687,-0.327 H 0.09 q -0.032,0 -0.034,-0.02 0,-0.02 0.033,-0.02 h 0.599 q 0.032,0 0.033,0.02 0,0.02 -0.034,0.02 m 10e-4,0.194 H 0.089 q -0.032,0 -0.033,-0.02 0,-0.02 0.034,-0.02 h 0.597 q 0.032,0 0.034,0.02 0,0.02 -0.033,0.02 z"
             id="path18" />
        </g>
        <g
           transform="translate(17.11481,9.8872549)"
           id="g20">
          <path
             fill="#006400"
             stroke="none"
             paint-order="stroke fill markers"
             d="m 0.265,-0.373 v 0 l -0.056,0.221 q -0.017,0.064 -0.027,0.098 -0.016,0.049 -0.03,0.059 v 0.001 q -0.009,0.005 -0.02,0.005 -0.023,0 -0.028,-0.02 -0.001,-0.003 -0.001,-0.007 0,-0.009 0.008,-0.024 0.094,-0.203 0.128,-0.333 H 0.182 q -0.078,0 -0.127,0.077 -0.009,0.012 -0.016,0.012 -0.012,0 -0.012,-0.01 0,-0.011 0.036,-0.06 0.007,-0.008 0.013,-0.016 0.003,-0.004 0.007,-0.008 0.002,-0.003 0.005,-0.006 0.044,-0.047 0.104,-0.047 h 0.335 q 0.034,0 0.039,0.015 v 0.001 q 0.001,0.003 0.001,0.008 0,0.034 -0.049,0.034 H 0.404 q -0.018,0.085 -0.018,0.159 0,0.093 0.029,0.165 0.006,0.014 0.006,0.022 0,0.023 -0.025,0.034 Q 0.388,0.011 0.38,0.011 0.36,0.011 0.35,-0.017 0.347,-0.026 0.344,-0.039 0.336,-0.073 0.336,-0.115 q 0,-0.066 0.027,-0.191 l 0.015,-0.067 z"
             id="path19" />
        </g>
        <g
           transform="translate(17.72081,9.8872549)"
           id="g21">
          <path
             fill="#006400"
             stroke="none"
             paint-order="stroke fill markers"
             d="M 0.439,-0.712 0.097,0.226 Q 0.089,0.247 0.081,0.249 L 0.08,0.25 H 0.075 Q 0.059,0.25 0.056,0.235 0.055,0.232 0.055,0.23 0.055,0.225 0.06,0.212 l 0.347,-0.953 q 0.005,-0.009 0.017,-0.009 0.016,0 0.019,0.015 0.001,0.003 0.001,0.005 0,0.005 -0.005,0.018 z"
             id="path20" />
        </g>
        <g
           transform="translate(18.22081,9.8872549)"
           id="g22">
          <path
             fill="#006400"
             stroke="none"
             paint-order="stroke fill markers"
             d="m 0.29,-0.352 v 0 q 0.1,0.02 0.144,0.098 0.023,0.039 0.023,0.083 0,0.085 -0.07,0.143 -0.061,0.05 -0.143,0.05 -0.099,0 -0.159,-0.059 -0.043,-0.042 -0.043,-0.098 0,-0.047 0.042,-0.056 0.007,-0.002 0.014,-0.002 0.038,0 0.051,0.032 0.004,0.013 0.005,0.024 0,0.04 -0.036,0.052 -0.014,0.005 -0.03,0.003 0.037,0.062 0.128,0.074 0.013,0.002 0.025,0.002 0.064,0 0.094,-0.063 0.019,-0.04 0.019,-0.102 0,-0.133 -0.08,-0.16 Q 0.256,-0.337 0.235,-0.337 H 0.191 q -0.022,0 -0.024,-0.011 0,-0.01 0.015,-0.012 0.015,0 0.039,-0.003 0.051,-0.002 0.08,-0.039 v -0.001 l 0.001,-0.001 0.001,-0.001 h 0.001 l 0.006,-0.01 q 0.028,-0.047 0.028,-0.114 0,-0.093 -0.072,-0.109 -0.012,-0.003 -0.024,-0.003 -0.07,0 -0.114,0.04 -0.011,0.01 -0.019,0.022 0.062,0 0.062,0.05 0,0.036 -0.031,0.048 -0.009,0.003 -0.02,0.003 -0.039,0 -0.049,-0.035 v 0 -0.001 Q 0.069,-0.522 0.069,-0.53 q 0,-0.067 0.066,-0.107 0.048,-0.029 0.111,-0.029 0.091,0 0.147,0.054 l 0.002,0.002 q 0.035,0.036 0.035,0.082 0,0.083 -0.071,0.139 -0.031,0.024 -0.069,0.037 z"
             id="path21" />
        </g>
      </g>
      <g
         transform="matrix(73.498327,0,0,68.765257,-160.60936,-223.27618)"
         id="g26">
        <g
           transform="translate(8.3039706,6.2238039)"
           id="g24">
          <path
             fill="#0000ff"
             stroke="none"
             paint-order="stroke fill markers"
             d="m 0.537,-0.595 h -0.32 q -0.031,0 -0.034,-0.014 -0.001,-0.003 -0.001,-0.006 0.006,-0.02 0.035,-0.02 h 0.337 q -0.02,-0.026 -0.024,-0.058 0,-0.016 0.014,-0.02 0.003,-0.001 0.006,-0.001 0.015,0 0.02,0.022 0.013,0.038 0.041,0.057 0.014,0.01 0.014,0.02 0,0.011 -0.017,0.021 -0.045,0.022 -0.079,0.065 -0.011,0.013 -0.019,0.013 -0.014,0 -0.019,-0.014 -0.001,-0.003 -0.001,-0.006 0,-0.016 0.047,-0.059 z"
             id="path23" />
        </g>
        <g
           transform="translate(8.1764706,6.2238039)"
           id="g25">
          <path
             fill="#0000ff"
             stroke="none"
             paint-order="stroke fill markers"
             d="M 0.462,-0.339 0.42,-0.171 q -0.011,0.039 -0.011,0.073 0.008,0.082 0.074,0.087 0.067,0 0.11,-0.088 0.034,-0.068 0.051,-0.153 0.004,-0.019 0.004,-0.03 0,-0.049 -0.036,-0.085 -0.015,-0.013 -0.015,-0.027 0,-0.025 0.027,-0.041 0.011,-0.007 0.023,-0.007 0.028,0 0.039,0.035 0.005,0.015 0.005,0.035 0,0.062 -0.04,0.189 -0.013,0.041 -0.026,0.071 -0.053,0.123 -0.145,0.123 -0.097,0 -0.125,-0.07 -0.04,0.07 -0.104,0.07 -0.098,0 -0.13,-0.067 -0.012,-0.026 -0.012,-0.059 0,-0.051 0.053,-0.195 0.002,-0.003 0.003,-0.007 0.018,-0.044 0.018,-0.07 0,-0.033 -0.025,-0.033 -0.061,0 -0.097,0.111 -0.002,0.006 -0.004,0.013 -0.011,0.017 -0.016,0.018 -0.012,0 -0.012,-0.01 0,-0.018 0.021,-0.063 0.044,-0.091 0.111,-0.091 0.052,0 0.073,0.044 0.009,0.017 0.009,0.038 0,0.018 -0.017,0.064 -0.052,0.136 -0.052,0.194 0,0.089 0.08,0.091 0.056,0 0.092,-0.084 -0.001,-0.005 -0.001,-0.018 0,-0.027 0.009,-0.066 l 0.057,-0.224 q 0.009,-0.026 0.037,-0.028 0.025,0.005 0.029,0.027 0,-0.001 -0.015,0.065 z"
             id="path24" />
        </g>
      </g>
      <g
         transform="matrix(73.498327,0,0,68.765257,-184.60936,-239.27618)"
         id="g29">
        <g
           transform="translate(19.882353,12.557137)"
           id="g27">
          <path
             fill="#0000ff"
             stroke="none"
             paint-order="stroke fill markers"
             d="m 0.537,-0.595 h -0.32 q -0.031,0 -0.034,-0.014 -0.001,-0.003 -0.001,-0.006 0.006,-0.02 0.035,-0.02 h 0.337 q -0.02,-0.026 -0.024,-0.058 0,-0.016 0.014,-0.02 0.003,-0.001 0.006,-0.001 0.015,0 0.02,0.022 0.013,0.038 0.041,0.057 0.014,0.01 0.014,0.02 0,0.011 -0.017,0.021 -0.045,0.022 -0.079,0.065 -0.011,0.013 -0.019,0.013 -0.014,0 -0.019,-0.014 -0.001,-0.003 -0.001,-0.006 0,-0.016 0.047,-0.059 z"
             id="path26" />
        </g>
        <g
           transform="translate(19.895353,12.557137)"
           id="g28">
          <path
             fill="#0000ff"
             stroke="none"
             paint-order="stroke fill markers"
             d="m 0.35,-0.056 v 0 q -0.052,0.067 -0.119,0.067 -0.081,0 -0.11,-0.059 -0.013,-0.026 -0.013,-0.061 0,-0.054 0.053,-0.196 0.002,-0.007 0.005,-0.014 0.017,-0.043 0.017,-0.068 0,-0.033 -0.025,-0.033 -0.056,0 -0.091,0.095 -0.001,0 -0.001,0.001 v 0.001 q -0.005,0.013 -0.009,0.027 -0.011,0.017 -0.016,0.018 -0.012,0 -0.012,-0.01 0,-0.018 0.021,-0.063 0.044,-0.091 0.111,-0.091 0.053,0 0.074,0.045 0.008,0.017 0.008,0.037 0,0.02 -0.017,0.063 -0.054,0.143 -0.054,0.204 0,0.082 0.062,0.082 0.063,0 0.106,-0.069 0.006,-0.009 0.008,-0.015 0.022,-0.099 0.075,-0.301 0.008,-0.035 0.039,-0.035 0.025,0.005 0.029,0.027 0,-0.002 -0.015,0.067 -0.014,0.051 -0.017,0.068 l -0.028,0.108 q -0.02,0.087 -0.02,0.104 0,0.046 0.031,0.046 0.042,0 0.069,-0.1 0.003,-0.01 0.006,-0.024 0.008,-0.017 0.014,-0.018 0.012,0 0.012,0.01 0,0.015 -0.018,0.07 Q 0.519,-0.056 0.513,-0.044 0.486,0.011 0.439,0.011 0.382,0.011 0.358,-0.037 0.353,-0.046 0.35,-0.056 Z"
             id="path27" />
        </g>
      </g>
      <g
         transform="matrix(73.498327,0,0,68.765257,-184.60936,-223.27618)"
         id="g32">
        <g
           transform="translate(16.039216,5.4198824)"
           id="g30">
          <path
             fill="#0000ff"
             stroke="none"
             paint-order="stroke fill markers"
             d="m 0.537,-0.595 h -0.32 q -0.031,0 -0.034,-0.014 -0.001,-0.003 -0.001,-0.006 0.006,-0.02 0.035,-0.02 h 0.337 q -0.02,-0.026 -0.024,-0.058 0,-0.016 0.014,-0.02 0.003,-0.001 0.006,-0.001 0.015,0 0.02,0.022 0.013,0.038 0.041,0.057 0.014,0.01 0.014,0.02 0,0.011 -0.017,0.021 -0.045,0.022 -0.079,0.065 -0.011,0.013 -0.019,0.013 -0.014,0 -0.019,-0.014 -0.001,-0.003 -0.001,-0.006 0,-0.016 0.047,-0.059 z"
             id="path29" />
        </g>
        <g
           transform="translate(16.077716,5.4198824)"
           id="g31">
          <path
             fill="#0000ff"
             stroke="none"
             paint-order="stroke fill markers"
             d="m 0.468,-0.372 q 0,0.055 -0.03,0.154 -0.058,0.194 -0.161,0.224 -0.016,0.005 -0.034,0.005 -0.091,0 -0.121,-0.063 -0.013,-0.026 -0.013,-0.061 0,-0.052 0.046,-0.176 l 0.011,-0.029 q 0.017,-0.044 0.017,-0.07 0,-0.032 -0.025,-0.032 -0.054,0 -0.089,0.089 -0.007,0.016 -0.012,0.035 -0.011,0.017 -0.016,0.018 -0.012,0 -0.012,-0.01 0,-0.018 0.022,-0.063 0.043,-0.091 0.11,-0.091 0.053,0 0.074,0.045 0.008,0.017 0.008,0.037 0,0.021 -0.012,0.05 -0.054,0.144 -0.058,0.199 v 0.013 q 0,0.08 0.064,0.087 h 0.01 q 0.081,0 0.14,-0.136 0.035,-0.08 0.038,-0.135 0,-0.05 -0.034,-0.082 -0.016,-0.016 -0.016,-0.03 0,-0.025 0.026,-0.041 0.011,-0.007 0.023,-0.007 0.029,0 0.04,0.037 0.004,0.014 0.004,0.033 z"
             id="path30" />
        </g>
      </g>
    </g>
  </g>
</svg>
